<?xml version="1.0" encoding="utf-8"?>
<!-- Generator: Adobe Illustrator 23.0.0, SVG Export Plug-In . SVG Version: 6.00 Build 0)  -->
<svg version="1.1" id="Capa_1" xmlns="http://www.w3.org/2000/svg" xmlns:xlink="http://www.w3.org/1999/xlink" x="0px" y="0px"
	 viewBox="0 0 215 215" style="enable-background:new 0 0 215 215;" xml:space="preserve">
<style type="text/css">
	.st0{fill:#81E7F0;}
	.st1{fill:none;stroke:#FFFFFF;stroke-width:2;stroke-miterlimit:10;}
	.st2{fill:#00808B;stroke:#FFFFFF;stroke-width:2;stroke-miterlimit:10;}
	.st3{fill:#00808B;}
	.st4{fill:#FFFFFF;}
	.st5{fill-rule:evenodd;clip-rule:evenodd;fill:#FFFFFF;}
	.st6{fill:#808080;}
	.st7{fill:#FFFFFF;stroke:#808080;stroke-miterlimit:10;}
	.st8{fill:#8CC63F;stroke:#808080;stroke-miterlimit:10;}
	.st9{fill-rule:evenodd;clip-rule:evenodd;fill:#8CC63F;}
	.st10{fill:#05585F;}
	.st11{fill:#B3B3B3;}
	.st12{fill:#F2F2F2;}
</style>
<g>
	<circle class="st3" cx="107.5" cy="107.5" r="107.5"/>
	<g>
		<g>
			<path class="st4" d="M165.9,150.5l-43.4-34.6c5.1-6.8,8.2-15.3,8.2-24.8c0-11.3-4.7-21.5-12.1-29.3c-7.4-7.4-17.6-12.1-29.3-12.1
				c-11.2,0-21.5,4.7-28.9,12.1c-7.8,7.8-12.1,18-12.1,29.3c0,11.4,4.3,21.8,12.1,29.2c7.4,7.5,17.6,12.1,28.9,12.1
				c11.7,0,21.9-4.6,29.3-12.1l0.5-0.5l43.3,34.9c1.2,0.8,2.7,0.8,3.9-0.4C167.1,153.3,166.7,151.6,165.9,150.5z M113.5,115.4
				c-6.2,5.9-14.7,9.9-24.2,9.9c-9.1,0-17.6-4.1-23.9-9.9c-6.2-6.2-9.9-14.7-9.9-24.2c0-9.2,3.6-17.6,9.9-23.8
				c6.2-6.3,14.7-9.9,23.9-9.9c9.6,0,18,3.7,24.2,9.9c6.3,6.2,9.9,14.6,9.9,23.8C123.4,100.6,119.9,109.1,113.5,115.4z"/>
		</g>
		<path class="st5" d="M79.5,111.6L79.5,111.6c-0.4,0-1.1-0.1-1.8-0.3c-0.7-0.4-1.1-0.8-1.5-1.1L65.2,99.1c-1-0.8-1.4-2-1.4-3.5
			c0-1.2,0.4-2.5,1.4-3.4c0.9-1,2.1-1.3,3.6-1.3c1.3,0,2.4,0.3,3.4,1.3l7.4,7.7l25.2-25.1c0.9-0.9,2-1.4,3.5-1.4
			c1.2,0,2.5,0.5,3.4,1.4c1,0.8,1.4,2.3,1.4,3.5c0,1.3-0.3,2.5-1.4,3.3l-28.5,28.7c-0.6,0.3-1,0.7-1.6,1.1
			C80.9,111.5,80.2,111.6,79.5,111.6L79.5,111.6z"/>
	</g>
</g>
</svg>
