<?xml version="1.0" encoding="utf-8"?>
<!-- Generator: Adobe Illustrator 23.0.0, SVG Export Plug-In . SVG Version: 6.00 Build 0)  -->
<svg version="1.1" id="Capa_1" xmlns="http://www.w3.org/2000/svg" xmlns:xlink="http://www.w3.org/1999/xlink" x="0px" y="0px"
	 viewBox="0 0 42.3 60.6" style="enable-background:new 0 0 42.3 60.6;" xml:space="preserve">
<style type="text/css">
	.st0{fill-rule:evenodd;clip-rule:evenodd;fill:#FFFFFF;}
	.st1{fill:#FFFFFF;}
	.st2{fill:#81E7F0;}
	.st3{fill-rule:evenodd;clip-rule:evenodd;fill:#81E7F0;}
	.st4{fill:#05585F;}
	.st5{fill:#999999;}
	.st6{fill:#00818C;}
	.st7{fill:#00808B;}
	.st8{fill:#80E6EF;}
	.st9{fill:#CCCCCC;}
	.st10{fill:#B3B3B3;}
	.st11{fill-rule:evenodd;clip-rule:evenodd;fill:#05585F;}
	.st12{fill:#0071BC;}
</style>
<g>
	<path class="st2" d="M35.1,27.5V15.8c0-7.7-6.3-13.9-13.9-13.9S7.2,8.1,7.2,15.8v11.8C4.3,27.7,2,30,2,32.9v20.6
		c0,3,2.4,5.4,5.4,5.4h27.4c3,0,5.4-2.4,5.4-5.4V32.9C40.2,30,37.9,27.7,35.1,27.5z M21.1,3.4c6.8,0,12.3,5.5,12.3,12.3v11.8H8.8
		V15.8C8.8,9,14.3,3.4,21.1,3.4z M38.6,53.4c0,2.1-1.7,3.8-3.8,3.8H7.4c-2.1,0-3.8-1.7-3.8-3.8V32.9c0-2.1,1.7-3.8,3.8-3.8h27.4
		c2.1,0,3.8,1.7,3.8,3.8V53.4z"/>
	<path class="st2" d="M22.8,41.9v-4.5c0-0.9-0.8-1.7-1.7-1.7s-1.7,0.8-1.7,1.7v4.5c-1,0.6-1.7,1.7-1.7,3c0,1.9,1.5,3.4,3.4,3.4
		c1.9,0,3.4-1.5,3.4-3.4C24.6,43.6,23.9,42.5,22.8,41.9z"/>
</g>
</svg>
