<?xml version="1.0" encoding="utf-8"?>
<!-- Generator: Adobe Illustrator 23.0.0, SVG Export Plug-In . SVG Version: 6.00 Build 0)  -->
<svg version="1.1" id="Capa_1" xmlns="http://www.w3.org/2000/svg" xmlns:xlink="http://www.w3.org/1999/xlink" x="0px" y="0px"
	 viewBox="0 0 25 25" style="enable-background:new 0 0 25 25;" xml:space="preserve">
<style type="text/css">
	.st0{fill-rule:evenodd;clip-rule:evenodd;fill:#FFFFFF;}
	.st1{fill:#FFFFFF;}
	.st2{fill:#81E7F0;}
	.st3{fill-rule:evenodd;clip-rule:evenodd;fill:#81E7F0;}
	.st4{fill:#05585F;}
	.st5{fill:#999999;}
	.st6{fill:#00818C;}
	.st7{fill:#00808B;}
	.st8{fill:#80E6EF;}
	.st9{fill:#CCCCCC;}
	.st10{fill:#B3B3B3;}
	.st11{fill-rule:evenodd;clip-rule:evenodd;fill:#05585F;}
</style>
<g>
	<circle class="st7" cx="12.5" cy="12.5" r="11.5"/>
	<path class="st2" d="M18.7,8.3c-0.4-0.5-0.9-0.9-1.3-1.4c-0.9-1-1.2-1-2.2-0.1l-1.4,1.3L7,14.5L5.7,19l4.5-1.1c0,0,8.2-7.7,8.5-8
		C19.3,9.4,19.3,8.9,18.7,8.3z M9.8,17.2l-3,0.7L7.7,15l6.1-5.7l2.1,2.2L9.8,17.2z M18.2,9.4c-0.3,0.3-0.5,0.5-0.8,0.8l-0.4,0.4
		l-0.3-0.3c-0.6-0.6-1.2-1.3-1.8-1.9l0.9-0.9c0.2-0.2,0.5-0.5,0.6-0.5c0.1,0,0.4,0.3,0.5,0.5c0.4,0.5,0.9,0.9,1.3,1.4
		C18.4,9.1,18.4,9.1,18.2,9.4z"/>
</g>
</svg>
