<?xml version="1.0" encoding="utf-8"?>
<!-- Generator: Adobe Illustrator 23.0.0, SVG Export Plug-In . SVG Version: 6.00 Build 0)  -->
<svg version="1.1" id="Capa_1" xmlns="http://www.w3.org/2000/svg" xmlns:xlink="http://www.w3.org/1999/xlink" x="0px" y="0px"
	 viewBox="0 0 15.6 16.3" style="enable-background:new 0 0 15.6 16.3;" xml:space="preserve">
<style type="text/css">
	.st0{fill-rule:evenodd;clip-rule:evenodd;fill:#FFFFFF;}
	.st1{fill:#FFFFFF;}
	.st2{fill:#81E7F0;}
	.st3{fill-rule:evenodd;clip-rule:evenodd;fill:#81E7F0;}
	.st4{fill:#05585F;}
	.st5{fill-rule:evenodd;clip-rule:evenodd;fill:#80E6EF;}
	.st6{fill:#999999;}
	.st7{fill:#00818C;}
	.st8{fill:#00808B;}
	.st9{fill:#80E6EF;}
</style>
<g>
	<path class="st9" d="M14.1,15.7h-1.4c-0.5,0-0.9-0.4-0.9-0.9V1.5c0-0.5,0.4-0.9,0.9-0.9h1.4c0.5,0,0.9,0.4,0.9,0.9v13.2
		C15,15.3,14.6,15.7,14.1,15.7z M12.7,1.3c-0.1,0-0.2,0.1-0.2,0.2v13.2c0,0.1,0.1,0.2,0.2,0.2h1.4c0.1,0,0.2-0.1,0.2-0.2V1.5
		c0-0.1-0.1-0.2-0.2-0.2H12.7z"/>
	<path class="st9" d="M10.4,15.7H9c-0.5,0-0.9-0.4-0.9-0.9V3.7c0-0.5,0.4-0.9,0.9-0.9h1.4c0.5,0,0.9,0.4,0.9,0.9v11.1
		C11.2,15.3,10.8,15.7,10.4,15.7z M9,3.5c-0.1,0-0.2,0.1-0.2,0.2v11.1C8.7,14.9,8.8,15,9,15h1.4c0.1,0,0.2-0.1,0.2-0.2V3.7
		c0-0.1-0.1-0.2-0.2-0.2H9z"/>
	<path class="st9" d="M6.6,15.7H5.2c-0.5,0-0.9-0.4-0.9-0.9v-4c0-0.5,0.4-0.9,0.9-0.9h1.4c0.5,0,0.9,0.4,0.9,0.9v4
		C7.5,15.3,7.1,15.7,6.6,15.7z M5.2,10.5c-0.1,0-0.2,0.1-0.2,0.2v4C5,14.9,5.1,15,5.2,15h1.4c0.1,0,0.2-0.1,0.2-0.2v-4
		c0-0.1-0.1-0.2-0.2-0.2H5.2z"/>
	<path class="st9" d="M2.9,15.7H1.5c-0.5,0-0.9-0.4-0.9-0.9V7.4C0.6,7,1,6.6,1.5,6.6h1.4c0.5,0,0.9,0.4,0.9,0.9v7.3
		C3.8,15.3,3.4,15.7,2.9,15.7z M1.5,7.2c-0.1,0-0.2,0.1-0.2,0.2v7.3c0,0.1,0.1,0.2,0.2,0.2h1.4c0.1,0,0.2-0.1,0.2-0.2V7.4
		c0-0.1-0.1-0.2-0.2-0.2H1.5z"/>
</g>
</svg>
