<?xml version="1.0" encoding="utf-8"?>
<!-- Generator: Adobe Illustrator 23.0.0, SVG Export Plug-In . SVG Version: 6.00 Build 0)  -->
<svg version="1.1" id="Capa_1" xmlns="http://www.w3.org/2000/svg" xmlns:xlink="http://www.w3.org/1999/xlink" x="0px" y="0px"
	 viewBox="0 0 112.1 78.6" style="enable-background:new 0 0 112.1 78.6;" xml:space="preserve">
<style type="text/css">
	.st0{fill-rule:evenodd;clip-rule:evenodd;fill:#FFFFFF;}
	.st1{fill:#FFFFFF;}
	.st2{fill:#81E7F0;}
	.st3{fill-rule:evenodd;clip-rule:evenodd;fill:#81E7F0;}
	.st4{fill:#05585F;}
	.st5{fill-rule:evenodd;clip-rule:evenodd;fill:#80E6EF;}
	.st6{fill:#999999;}
	.st7{fill:#00818C;}
	.st8{fill:#00808B;}
	.st9{fill:#80E6EF;}
</style>
<g>
	<path class="st7" d="M81.1,76.2v-5.8c0-8-10.4-14.6-25.8-16.6c-0.6-0.1-1-0.6-1-1.3v-0.5c0-1.5,0.6-3,1.7-4.1
		c3.7-3.8,5.9-9.4,5.9-15.5c0-10.9-6.8-19.7-15.2-19.7s-15.2,8.8-15.2,19.7c0,6.1,2.1,11.8,5.9,15.5c1.1,1.1,1.7,2.6,1.7,4.1v0.5
		c0,0.6-0.4,1.2-1,1.3c-15.4,1.9-25.8,8.6-25.8,16.6v5.8C5.7,68.4,1.7,58.4,1.7,47.4c0-24.8,20.1-44.9,44.9-44.9
		s44.9,20.1,44.9,44.9C91.6,58.4,87.7,68.4,81.1,76.2z"/>
	<g>
		<path class="st7" d="M110.4,50.7v5.1c0,0.4-0.1,0.8-0.2,1.1v0c-0.4,1.1-1.3,2-2.5,2.8c-0.7,0.4-1.4,0.8-2.3,1.1
			c-1.9,0.7-4.2,1.1-6.7,1.1s-4.8-0.4-6.7-1.1c-0.9-0.3-1.6-0.7-2.3-1.1c-1.3-0.8-2.1-1.8-2.5-2.8v0c-0.1-0.4-0.2-0.7-0.2-1.1v-5.1
			c0,3.4,5.2,6.2,11.7,6.2C105.2,56.9,110.4,54.1,110.4,50.7z"/>
		<path class="st7" d="M110.4,57.2v5.7c0,0.4-0.1,0.8-0.2,1.1v0c-1,2.9-5.8,5.1-11.5,5.1c-5.7,0-10.5-2.2-11.5-5.1v0
			c-0.1-0.4-0.2-0.7-0.2-1.1v-5.7c0,1,0.5,2,1.3,2.8c0.4,0.4,0.9,0.8,1.4,1.1c2.1,1.4,5.4,2.2,9,2.2s6.8-0.9,9-2.2
			c0.5-0.3,1-0.7,1.4-1.1C109.9,59.2,110.4,58.2,110.4,57.2z"/>
		<path class="st7" d="M110.4,64.3v3.9c0,4.4-5.3,8-11.7,8s-11.6-3.6-11.7-8v-3.9c0,3.4,5.2,6.2,11.7,6.2
			C105.2,70.5,110.4,67.7,110.4,64.3z"/>
		<ellipse class="st7" cx="98.7" cy="49.9" rx="11.7" ry="6.2"/>
	</g>
</g>
</svg>
