<?xml version="1.0" encoding="utf-8"?>
<!-- Generator: Adobe Illustrator 23.0.0, SVG Export Plug-In . SVG Version: 6.00 Build 0)  -->
<svg version="1.1" id="Capa_1" xmlns="http://www.w3.org/2000/svg" xmlns:xlink="http://www.w3.org/1999/xlink" x="0px" y="0px"
	 viewBox="0 0 26.6 15.7" style="enable-background:new 0 0 26.6 15.7;" xml:space="preserve">
<style type="text/css">
	.st0{fill-rule:evenodd;clip-rule:evenodd;fill:#FFFFFF;}
	.st1{fill:#FFFFFF;}
	.st2{fill:#81E7F0;}
	.st3{fill-rule:evenodd;clip-rule:evenodd;fill:#81E7F0;}
	.st4{fill:#05585F;}
	.st5{fill:#999999;}
	.st6{fill:#00818C;}
	.st7{fill:#00808B;}
	.st8{fill:#80E6EF;}
	.st9{fill-rule:evenodd;clip-rule:evenodd;fill:#80E6EF;}
	.st10{fill:#B3B3B3;}
	.st11{fill:#CCCCCC;}
</style>
<g>
	<g>
		<path class="st8" d="M24.5,7.3c-3.3-4-7-6-10.9-6C7,1.3,2.3,7.1,2.1,7.4C1.7,7.9,1.7,8.5,2.2,8.9c3.6,3.6,7.4,5.5,11.3,5.5
			c6.2,0,10.3-4.6,11.1-5.6C24.9,8.4,24.9,7.8,24.5,7.3z M2.8,8.3C2.6,8.1,2.7,8,2.8,7.9c0.2-0.2,3.5-4.3,8.3-5.4
			C9,3.4,7.5,5.5,7.5,7.9c0,2.5,1.6,4.7,3.9,5.5C8.4,12.8,5.6,11.1,2.8,8.3z M13.3,12.8c-2.7,0-4.9-2.2-4.9-4.9s2.2-4.9,4.9-4.9
			c2.7,0,4.9,2.2,4.9,4.9S16.1,12.8,13.3,12.8z M23.9,8.3c-0.7,0.8-3.9,4.5-8.9,5.2c2.4-0.7,4.1-2.9,4.1-5.6c0-2.7-1.8-4.9-4.2-5.6
			c3.2,0.4,6.2,2.3,8.9,5.6C24,8,24,8.1,23.9,8.3z"/>
		<path class="st8" d="M16.8,7.9c0,1.9-1.6,3.5-3.5,3.5S9.8,9.8,9.8,7.9c0-1.9,1.6-3.5,3.5-3.5S16.8,5.9,16.8,7.9z"/>
	</g>
</g>
</svg>
