<?xml version="1.0" encoding="utf-8"?>
<!-- Generator: Adobe Illustrator 23.0.0, SVG Export Plug-In . SVG Version: 6.00 Build 0)  -->
<svg version="1.1" id="Capa_1" xmlns="http://www.w3.org/2000/svg" xmlns:xlink="http://www.w3.org/1999/xlink" x="0px" y="0px"
	 viewBox="0 0 25.9 22.5" style="enable-background:new 0 0 25.9 22.5;" xml:space="preserve">
<style type="text/css">
	.st0{fill-rule:evenodd;clip-rule:evenodd;fill:#FFFFFF;}
	.st1{fill:#FFFFFF;}
	.st2{fill:#81E7F0;}
	.st3{fill-rule:evenodd;clip-rule:evenodd;fill:#81E7F0;}
	.st4{fill:#05585F;}
	.st5{fill:#999999;}
	.st6{fill:#00818C;}
	.st7{fill:#00808B;}
	.st8{fill:#80E6EF;}
	.st9{fill:#CCCCCC;}
	.st10{fill:#B3B3B3;}
	.st11{fill-rule:evenodd;clip-rule:evenodd;fill:#05585F;}
</style>
<g>
	<g>
		<path class="st4" d="M11.6,11.5v0.1c0,0.5,0.4,1,0.9,1c0.7,0.1,1.3,0.2,1.9,0.3c0.1-0.2,0.3-0.4,0.4-0.6c-0.7-0.2-1.4-0.3-2.2-0.4
			c-0.2,0-0.3-0.2-0.3-0.4v-0.1c0-0.4,0.2-0.9,0.5-1.2c1.1-1.1,1.7-2.7,1.7-4.4c0-3.1-2-5.6-4.4-5.6c-2.4,0-4.3,2.5-4.3,5.6
			c0,1.7,0.6,3.4,1.7,4.4C7.8,10.6,8,11,8,11.5v0.1C8,11.8,7.8,12,7.6,12c-4.4,0.6-7.4,2.5-7.4,4.7v1.5c0,0.5,0.4,0.8,0.8,0.8h12.7
			c-0.1-0.2-0.2-0.5-0.2-0.7H1.1C1,18.4,1,18.3,1,18.2v-1.5c0-1.8,2.8-3.6,6.8-4c0.5-0.1,0.9-0.5,0.9-1v-0.1c0-0.6-0.2-1.2-0.7-1.7
			C7,8.9,6.4,7.4,6.4,5.9c0-2.7,1.7-4.9,3.7-4.9c2,0,3.7,2.2,3.7,4.9c0,1.6-0.5,3-1.5,4C11.9,10.3,11.6,10.9,11.6,11.5z"/>
	</g>
	<g>
		<path class="st4" d="M20,22.2c-3.1,0-5.6-2.5-5.6-5.6S16.9,11,20,11s5.6,2.5,5.6,5.6S23.1,22.2,20,22.2z M20,11.6
			c-2.7,0-5,2.2-5,5s2.2,5,5,5s5-2.2,5-5S22.7,11.6,20,11.6z"/>
	</g>
	<path class="st4" d="M22.5,17.4h-1.7v1.7c0,0.5-0.4,0.8-0.8,0.8c-0.5,0-0.8-0.4-0.8-0.8v-1.7h-1.7c-0.5,0-0.8-0.4-0.8-0.8
		c0-0.5,0.4-0.8,0.8-0.8h1.7v-1.7c0-0.5,0.4-0.8,0.8-0.8c0.5,0,0.8,0.4,0.8,0.8v1.7h1.7c0.5,0,0.8,0.4,0.8,0.8
		C23.3,17.1,22.9,17.4,22.5,17.4z"/>
</g>
</svg>
