<?xml version="1.0" encoding="utf-8"?>
<!-- Generator: Adobe Illustrator 23.0.0, SVG Export Plug-In . SVG Version: 6.00 Build 0)  -->
<svg version="1.1" id="Capa_1" xmlns="http://www.w3.org/2000/svg" xmlns:xlink="http://www.w3.org/1999/xlink" x="0px" y="0px"
	 viewBox="0 0 18.1 22.4" style="enable-background:new 0 0 18.1 22.4;" xml:space="preserve">
<style type="text/css">
	.st0{fill-rule:evenodd;clip-rule:evenodd;fill:#FFFFFF;}
	.st1{fill:#FFFFFF;}
	.st2{fill:#81E7F0;}
	.st3{fill-rule:evenodd;clip-rule:evenodd;fill:#81E7F0;}
	.st4{fill:#05585F;}
	.st5{fill:#999999;}
	.st6{fill:#00818C;}
	.st7{fill:#00808B;}
	.st8{fill:#80E6EF;}
	.st9{fill:#CCCCCC;}
	.st10{fill:#B3B3B3;}
	.st11{fill-rule:evenodd;clip-rule:evenodd;fill:#05585F;}
</style>
<g>
	<g>
		<path class="st0" d="M4,0.2h11.6c0.7,0,1.3,0.3,1.7,0.7c0.4,0.4,0.7,1,0.7,1.6v17.4c0,0.6-0.3,1.2-0.7,1.6c-0.4,0.4-1,0.7-1.7,0.7
			H4c-0.7,0-1.2-0.2-1.6-0.7c-0.4-0.4-0.7-1-0.7-1.6V18H0.6c-0.2,0-0.4-0.1-0.4-0.4c0-0.3,0.2-0.4,0.4-0.4h1.1v-3.6H0.6
			c-0.2,0-0.4-0.2-0.4-0.4c0-0.2,0.2-0.4,0.4-0.4h1.1V9.4H0.6c-0.2,0-0.4-0.2-0.4-0.4c0-0.3,0.2-0.4,0.4-0.4h1.1V5.1H0.6
			c-0.2,0-0.4-0.2-0.4-0.4c0-0.2,0.2-0.4,0.4-0.4h1.1V2.5c0-0.7,0.2-1.2,0.7-1.6C2.8,0.5,3.4,0.2,4,0.2L4,0.2z M11.4,11.8L11.4,11.8
			V12c0.5,0.3,0.9,0.4,1.3,0.6c1.3,0.5,1.9,0.8,1.9,3c0,0.3-0.2,0.4-0.4,0.4H5.5C5.2,16,5,15.8,5,15.6c0-2.3,0.7-2.5,1.9-3
			c0.4-0.2,0.8-0.3,1.3-0.6v-0.1c-0.4-0.3-0.5-0.7-0.5-1.2c-0.1,0-0.1-0.1-0.1-0.1c-0.1-0.1-0.1-0.2-0.1-0.2v-0.1
			c-0.1-0.1-0.1-0.1-0.1-0.2L7.5,10C7.4,9.8,7.3,9.4,7.5,9.1C7.5,8.8,7.5,8.4,7.5,8c0.1-0.5,0.3-0.9,0.9-1.1
			c0.1-0.1,0.2-0.2,0.3-0.3C9,6.5,9.2,6.4,9.5,6.4c0.2,0,0.5,0.1,0.8,0.1c0.8,0.2,1.6,0.6,1.8,1.3c0.1,0.4,0.1,0.9,0,1.3
			c0.3,0.2,0.1,0.7,0.1,1v0.1c-0.1,0.1-0.1,0.1-0.1,0.2L12,10.3c0,0.1,0,0.2-0.1,0.2l-0.1,0.1C11.8,11.1,11.7,11.5,11.4,11.8
			L11.4,11.8z M10.6,12.2L10.6,12.2v-0.5c0-0.1,0.1-0.2,0.2-0.4c0.3-0.1,0.3-0.5,0.4-0.9c0-0.1,0.1-0.1,0.1-0.2
			c0.1-0.1,0.1-0.1,0.1-0.2l0.1-0.1c0,0,0-0.1,0-0.1l0.1-0.1c0,0,0.1-0.1,0.1-0.1c-0.2-0.1-0.3-0.2-0.2-0.4c0,0,0.2-0.9,0.1-1.3
			c-0.1-0.4-0.7-0.6-1.2-0.8C9.9,7.2,9.7,7.2,9.5,7.2c-0.2,0-0.3,0-0.4,0.1C9.1,7.4,9,7.5,8.8,7.6C8.5,7.7,8.3,7.9,8.2,8.2
			C8.2,8.5,8.3,8.9,8.4,9.3c0.1,0.1,0,0.2-0.1,0.4c0,0,0,0.1-0.1,0.1C8.2,9.8,8.2,9.9,8.3,10V10c0,0.1,0.1,0.1,0.1,0.2
			c0.1,0.1,0.1,0.1,0.1,0.2l0.1,0.1c0.1,0.4,0.2,0.7,0.4,0.9C9,11.5,9,11.6,9,11.7v0.5c0,0.1-0.1,0.2-0.2,0.4
			c-0.6,0.4-1.1,0.6-1.6,0.7c-0.8,0.3-1.3,0.5-1.4,1.9h7.9c-0.1-1.4-0.5-1.6-1.4-1.9c-0.4-0.2-0.9-0.4-1.5-0.7
			C10.7,12.5,10.6,12.4,10.6,12.2L10.6,12.2z M2.9,17.3L2.9,17.3c0.2,0,0.4,0.1,0.4,0.4c0,0.2-0.2,0.4-0.4,0.4H2.5v1.9
			c0,0.4,0.2,0.8,0.5,1.1c0.3,0.3,0.7,0.4,1.1,0.4h11.6c0.4,0,0.8-0.1,1.1-0.4c0.3-0.3,0.4-0.7,0.4-1.1V2.5c0-0.4-0.2-0.8-0.4-1.1
			c-0.3-0.3-0.7-0.5-1.1-0.5H4c-0.4,0-0.8,0.2-1.1,0.5C2.6,1.7,2.5,2.1,2.5,2.5v1.8h0.5c0.2,0,0.4,0.2,0.4,0.4
			c0,0.2-0.2,0.4-0.4,0.4H2.5v3.6h0.5c0.2,0,0.4,0.2,0.4,0.4c0,0.2-0.2,0.4-0.4,0.4H2.5V13h0.5c0.2,0,0.4,0.2,0.4,0.4
			c0,0.2-0.2,0.4-0.4,0.4H2.5v3.6H2.9z"/>
	</g>
</g>
</svg>
