<?xml version="1.0" encoding="utf-8"?>
<!-- Generator: Adobe Illustrator 23.0.0, SVG Export Plug-In . SVG Version: 6.00 Build 0)  -->
<svg version="1.1" id="Capa_1" xmlns="http://www.w3.org/2000/svg" xmlns:xlink="http://www.w3.org/1999/xlink" x="0px" y="0px"
	 viewBox="0 0 15.6 20.7" style="enable-background:new 0 0 15.6 20.7;" xml:space="preserve">
<style type="text/css">
	.st0{fill-rule:evenodd;clip-rule:evenodd;fill:#FFFFFF;}
	.st1{fill:#FFFFFF;}
	.st2{fill:#81E7F0;}
	.st3{fill-rule:evenodd;clip-rule:evenodd;fill:#81E7F0;}
	.st4{fill:#05585F;}
	.st5{fill-rule:evenodd;clip-rule:evenodd;fill:#80E6EF;}
	.st6{fill:#999999;}
	.st7{fill:#00818C;}
	.st8{fill:#00808B;}
	.st9{fill:#80E6EF;}
	.st10{fill:#B3B3B3;}
	.st11{fill:#CCCCCC;}
</style>
<g>
	<path class="st2" d="M11.7,0.3H1.6C1,0.3,0.4,0.9,0.4,1.6v17.5c0,0.7,0.5,1.2,1.2,1.2H14c0.7,0,1.2-0.6,1.2-1.2v-15L11.7,0.3z
		 M12,2.2l1.5,1.7H12V2.2z M14.2,19.1c0,0.1-0.1,0.2-0.2,0.2H1.6c-0.1,0-0.2-0.1-0.2-0.2V1.6c0-0.1,0.1-0.2,0.2-0.2H11v3
		c0,0.3,0.2,0.5,0.5,0.5h2.7V19.1z"/>
	<g>
		<path class="st2" d="M11.1,6.9H7.5c-0.2,0-0.3-0.2-0.3-0.3s0.2-0.3,0.3-0.3h3.6c0.2,0,0.3,0.2,0.3,0.3S11.3,6.9,11.1,6.9z"/>
	</g>
	<g>
		<path class="st2" d="M11.1,11.9H7.5c-0.2,0-0.3-0.2-0.3-0.3s0.2-0.3,0.3-0.3h3.6c0.2,0,0.3,0.2,0.3,0.3S11.3,11.9,11.1,11.9z"/>
	</g>
	<g>
		<path class="st2" d="M11.1,16.8H7.5c-0.2,0-0.3-0.2-0.3-0.3s0.2-0.3,0.3-0.3h3.6c0.2,0,0.3,0.2,0.3,0.3S11.3,16.8,11.1,16.8z"/>
	</g>
	<g>
		<path class="st2" d="M5.9,8H3V5.2h2.8V8z M3.4,7.6h2.1V5.5H3.4V7.6z"/>
	</g>
	<g>
		<path class="st2" d="M5.9,12.9H3v-2.8h2.8V12.9z M3.4,12.6h2.1v-2.1H3.4V12.6z"/>
	</g>
	<g>
		<path class="st2" d="M5.9,17.9H3V15h2.8V17.9z M3.4,17.5h2.1v-2.1H3.4V17.5z"/>
	</g>
	<g>
		<path class="st2" d="M5.1,7.4L3.7,6.1C3.6,6,3.6,5.9,3.7,5.8c0.1-0.1,0.2-0.1,0.2,0L5.1,7l2.3-2.3c0.1-0.1,0.2-0.1,0.2,0
			c0.1,0.1,0.1,0.2,0,0.2L5.1,7.4z"/>
	</g>
</g>
</svg>
