<?xml version="1.0" encoding="utf-8"?>
<!-- Generator: Adobe Illustrator 23.0.0, SVG Export Plug-In . SVG Version: 6.00 Build 0)  -->
<svg version="1.1" id="Capa_1" xmlns="http://www.w3.org/2000/svg" xmlns:xlink="http://www.w3.org/1999/xlink" x="0px" y="0px"
	 viewBox="0 0 14 24.4" style="enable-background:new 0 0 14 24.4;" xml:space="preserve">
<style type="text/css">
	.st0{fill-rule:evenodd;clip-rule:evenodd;fill:#FFFFFF;}
	.st1{fill:#FFFFFF;}
	.st2{fill:#81E7F0;}
	.st3{fill-rule:evenodd;clip-rule:evenodd;fill:#81E7F0;}
	.st4{fill:#05585F;}
	.st5{fill-rule:evenodd;clip-rule:evenodd;fill:#80E6EF;}
	.st6{fill:#999999;}
	.st7{fill:#00818C;}
	.st8{fill:#00808B;}
	.st9{fill:#80E6EF;}
</style>
<g>
	<g>
		<g>
			<path class="st9" d="M9.2,10.1c0.6-1.2,1-2,1.8-2.2C9.9,7.6,9,7.7,8.4,8.1C7.9,8.5,7.7,9,7.7,9l-2.5,6.3H7L9.2,10.1L9.2,10.1z"/>
			<path class="st9" d="M5,15.2l1.4-3.4l-3.4,0C4.9,12.6,5.1,14.5,5,15.2z"/>
		</g>
		<g>
			<path class="st9" d="M12.3,23.2H1.7c-0.6,0-1.1-0.5-1.1-1.1V2.3c0-0.6,0.5-1.1,1.1-1.1h10.5c0.6,0,1.1,0.5,1.1,1.1v19.9
				C13.3,22.7,12.8,23.2,12.3,23.2z M1.7,1.6c-0.4,0-0.7,0.3-0.7,0.7v19.9c0,0.4,0.3,0.7,0.7,0.7h10.5c0.4,0,0.7-0.3,0.7-0.7V2.3
				c0-0.4-0.3-0.7-0.7-0.7H1.7z"/>
		</g>
		<path class="st5" d="M4.8,2.2L4.8,2.2c0.1,0,0.3,0.1,0.3,0.3c0,0.1-0.1,0.3-0.3,0.3c-0.2,0-0.3-0.1-0.3-0.3
			C4.5,2.3,4.6,2.2,4.8,2.2L4.8,2.2z"/>
		<path class="st5" d="M7,20.3L7,20.3c0.5,0,0.8,0.4,0.8,0.8C7.8,21.6,7.5,22,7,22c-0.5,0-0.8-0.4-0.8-0.8C6.2,20.7,6.5,20.3,7,20.3
			L7,20.3z"/>
		<path class="st5" d="M5.8,2.4L5.8,2.4H8c0.1,0,0.2,0.1,0.2,0.1c0,0.1-0.1,0.2-0.2,0.2H5.8c-0.1,0-0.2-0.1-0.2-0.2
			C5.7,2.5,5.7,2.4,5.8,2.4L5.8,2.4z"/>
		<g>
			<path class="st9" d="M1.7,19.8l0-16.6l10.7,0l0,16.6L1.7,19.8z M2.1,3.6l0,15.8l9.9,0l0-15.8L2.1,3.6z"/>
		</g>
	</g>
</g>
</svg>
