<?xml version="1.0" encoding="utf-8"?>
<!-- Generator: Adobe Illustrator 23.0.0, SVG Export Plug-In . SVG Version: 6.00 Build 0)  -->
<svg version="1.1" id="Capa_1" xmlns="http://www.w3.org/2000/svg" xmlns:xlink="http://www.w3.org/1999/xlink" x="0px" y="0px"
	 viewBox="0 0 23.5 20.8" style="enable-background:new 0 0 23.5 20.8;" xml:space="preserve">
<style type="text/css">
	.st0{fill-rule:evenodd;clip-rule:evenodd;fill:#FFFFFF;}
	.st1{fill:#FFFFFF;}
	.st2{fill:#FFFFFF;}
	.st3{fill-rule:evenodd;clip-rule:evenodd;fill:#FFFFFF;}
	.st4{fill:#FFFFFF;}
	.st5{fill-rule:evenodd;clip-rule:evenodd;fill:#80E6EF;}
	.st6{fill:#999999;}
	.st7{fill:#00818C;}
	.st8{fill:#00808B;}
	.st9{fill:#80E6EF;}
	.st10{fill:#B3B3B3;}
	.st11{fill:#CCCCCC;}
</style>
<g>
	<g>
		<path class="st3" d="M13.9,2.7c1.4,1.5,2.3,3.4,2.3,5.5c0,1.8-0.6,3.4-1.6,4.7l8.2,6.5c0.1,0.2,0.2,0.5,0.1,0.8
			c-0.2,0.2-0.5,0.2-0.7,0.1L14,13.7l-0.1,0.1c-1.4,1.4-3.3,2.3-5.6,2.3c-2.1,0-4.1-0.9-5.5-2.3c-1.5-1.4-2.3-3.4-2.3-5.5
			c0-2.1,0.8-4.1,2.3-5.5c1.4-1.4,3.3-2.3,5.5-2.3l0,0c1,0,1.9,0.2,2.7,0.5l-0.8,0.8C9.6,1.5,9,1.4,8.3,1.4c-1.8,0-3.5,0.7-4.8,2
			c-1.3,1.3-2,2.9-2,4.8c0,1.9,0.7,3.6,2,4.9c1.3,1.2,3,2,4.8,2c1.9,0,3.6-0.8,4.9-2c1.3-1.3,2-3,2-4.9c0-1.8-0.7-3.5-1.9-4.7
			L13.9,2.7z"/>
	</g>
	<g>
		<path class="st2" d="M12.7,4.3c1-2,1.7-3.2,3-3.5c-1.7-0.5-3.1-0.4-4.2,0.3c-0.9,0.6-1.2,1.3-1.2,1.3L6.2,12.5h3L12.7,4.3
			L12.7,4.3z"/>
		<path class="st2" d="M6.1,12.3l2.2-5.4L2.8,6.9C5.9,8.2,6.1,11.4,6.1,12.3z"/>
	</g>
</g>
</svg>
