<?xml version="1.0" encoding="utf-8"?>
<!-- Generator: Adobe Illustrator 23.0.0, SVG Export Plug-In . SVG Version: 6.00 Build 0)  -->
<svg version="1.1" id="Capa_1" xmlns="http://www.w3.org/2000/svg" xmlns:xlink="http://www.w3.org/1999/xlink" x="0px" y="0px"
	 viewBox="0 0 55 55" style="enable-background:new 0 0 55 55;" xml:space="preserve">
<style type="text/css">
	.st0{fill-rule:evenodd;clip-rule:evenodd;fill:#FFFFFF;}
	.st1{fill:#FFFFFF;}
	.st2{fill:#81E7F0;}
	.st3{fill-rule:evenodd;clip-rule:evenodd;fill:#81E7F0;}
	.st4{fill:#05585F;}
	.st5{fill:#999999;}
	.st6{fill:#00818C;}
	.st7{fill:#00808B;}
	.st8{fill:#80E6EF;}
	.st9{fill:#CCCCCC;}
	.st10{fill:#B3B3B3;}
	.st11{fill-rule:evenodd;clip-rule:evenodd;fill:#05585F;}
</style>
<g>
	<g>
		<path class="st4" d="M27.5,54.5c-14.9,0-27-12.1-27-27s12.1-27,27-27s27,12.1,27,27S42.4,54.5,27.5,54.5z M27.5,2.6
			C13.8,2.6,2.6,13.8,2.6,27.5s11.2,24.9,24.9,24.9s24.9-11.2,24.9-24.9S41.2,2.6,27.5,2.6z"/>
	</g>
	<path class="st4" d="M39.5,36.6l-9.1-9.1l9.1-9.1c0.8-0.8,0.8-2.1,0-2.9c-0.8-0.8-2.1-0.8-2.9,0l-9.1,9.1l-9.1-9.1
		c-0.8-0.8-2.1-0.8-2.9,0c-0.8,0.8-0.8,2.1,0,2.9l9.1,9.1l-9.1,9.1c-0.8,0.8-0.8,2.1,0,2.9s2.1,0.8,2.9,0l9.1-9.1l9.1,9.1
		c0.8,0.8,2.1,0.8,2.9,0C40.3,38.7,40.3,37.4,39.5,36.6z"/>
</g>
</svg>
