<?xml version="1.0" encoding="utf-8"?>
<!-- Generator: Adobe Illustrator 23.0.0, SVG Export Plug-In . SVG Version: 6.00 Build 0)  -->
<svg version="1.1" id="Capa_1" xmlns="http://www.w3.org/2000/svg" xmlns:xlink="http://www.w3.org/1999/xlink" x="0px" y="0px"
	 viewBox="0 0 25 25" style="enable-background:new 0 0 25 25;" xml:space="preserve">
<style type="text/css">
	.st0{fill-rule:evenodd;clip-rule:evenodd;fill:#FFFFFF;}
	.st1{fill:#FFFFFF;}
	.st2{fill:#81E7F0;}
	.st3{fill-rule:evenodd;clip-rule:evenodd;fill:#81E7F0;}
	.st4{fill:#05585F;}
	.st5{fill:#999999;}
	.st6{fill:#00818C;}
	.st7{fill:#00808B;}
	.st8{fill:#80E6EF;}
	.st9{fill:#CCCCCC;}
	.st10{fill:#B3B3B3;}
	.st11{fill-rule:evenodd;clip-rule:evenodd;fill:#05585F;}
</style>
<g>
	<circle class="st7" cx="12.5" cy="12.5" r="11.5"/>
	<g>
		<path class="st2" d="M19.2,7.7c0-0.4-0.3-0.6-0.6-0.6h-2.9l-1.3-1.3c-0.3-0.3-0.7-0.5-1.1-0.5h-1.7c-0.4,0-0.8,0.2-1.1,0.5
			L9.3,7.1H6.4C6,7.1,5.8,7.3,5.8,7.7v0.2h0.9l1,10.5c0.1,0.7,0.7,1.3,1.4,1.3h6.9c0.7,0,1.4-0.6,1.4-1.3l1-10.5h0.9V7.7z M11.1,6.3
			L11.1,6.3c0.1-0.1,0.3-0.2,0.5-0.2h1.7c0.2,0,0.4,0.1,0.5,0.2l0.8,0.8h-4.3L11.1,6.3z M16.6,18.3c0,0.4-0.3,0.6-0.7,0.6H9.1
			c-0.4,0-0.7-0.3-0.7-0.6l-1-10.4h10.2L16.6,18.3z"/>
		<rect x="12.1" y="9.6" class="st2" width="0.7" height="7.6"/>
		<polygon class="st2" points="16,9.6 15.2,9.6 14.3,17.2 15.1,17.2 		"/>
		<polygon class="st2" points="10.7,17.2 9.8,9.6 9,9.6 9.9,17.2 		"/>
	</g>
</g>
</svg>
