<?xml version="1.0" encoding="utf-8"?>
<!-- Generator: Adobe Illustrator 22.0.1, SVG Export Plug-In . SVG Version: 6.00 Build 0)  -->
<svg version="1.1" xmlns="http://www.w3.org/2000/svg" xmlns:xlink="http://www.w3.org/1999/xlink" x="0px" y="0px"
	  width="15.5px" viewBox="0 0 9.3 5.5" style="enable-background:new 0 0 9.3 5.5;" xml:space="preserve">
<style type="text/css">
	.st0{display:none;}
	.st1{display:inline;fill:#FF0000;}
	.st2{display:inline;fill:#FFFFFF;}
	.st3{display:none;fill:#FFFFFF;}
	.st4{display:inline;fill:#00808B;}
	.st5{fill:#00808B;}
	.st6{fill:#FFFFFF;}
	.st7{display:inline;fill:#05585F;}
	.st8{display:inline;fill:#00818C;}
	.st9{display:inline;}
	.st10{display:none;fill:#00818C;}
	.st11{fill:#81E7F0;}
	.st12{display:inline;fill:#81E7F0;}
	.st13{display:none;fill:#81E7F0;}
	.st14{fill:#8A8B8A;}
	.st15{fill:#E6E6E6;}
	.st16{fill:none;stroke:#8A8B8A;stroke-miterlimit:10;}
	.st17{fill:#B3B3B3;}
	.st18{fill:#05585F;}
</style>
<g id="botones">
	<g class="st0">
		<circle class="st1" cx="510.1" cy="116.4" r="248"/>
		<path class="st2" d="M510.1,237.2L351.2,78.3c-11.1-11.1-11.1-29,0-40.1s29-11.1,40.1,0L510.1,157L628.9,38.2
			c11.1-11.1,29-11.1,40.1,0s11.1,29,0,40.1L510.1,237.2z"/>
	</g>
	<path class="st3" d="M510.1-131.6c-137,0-248,111-248,248s111,248,248,248s248-111,248-248S647.1-131.6,510.1-131.6z M669,78.3
		L510.1,237.2L351.2,78.3c-11.1-11.1-11.1-29,0-40.1s29-11.1,40.1,0L510.1,157L628.9,38.2c11.1-11.1,29-11.1,40.1,0
		C680,49.3,680,67.2,669,78.3z"/>
	<g class="st0">
		<circle class="st4" cx="510.1" cy="116.4" r="248"/>
		<path class="st2" d="M510.1,237.2L351.2,78.3c-11.1-11.1-11.1-29,0-40.1s29-11.1,40.1,0L510.1,157L628.9,38.2
			c11.1-11.1,29-11.1,40.1,0s11.1,29,0,40.1L510.1,237.2z"/>
	</g>
	<g class="st0">
		<circle class="st4" cx="510.1" cy="116.4" r="248"/>
		<path class="st2" d="M630.9,116.4L472,275.3c-11.1,11.1-29,11.1-40.1,0s-11.1-29,0-40.1l118.8-118.8L431.9-2.4
			c-11.1-11.1-11.1-29,0-40.1s29-11.1,40.1,0L630.9,116.4z"/>
	</g>
	<g>
		<circle class="st5" cx="510.1" cy="116.4" r="248"/>
		<path class="st6" d="M389.3,116.4L548.2-42.5c11.1-11.1,29-11.1,40.1,0s11.1,29,0,40.1L469.5,116.4l118.8,118.8
			c11.1,11.1,11.1,29,0,40.1c-11.1,11.1-29,11.1-40.1,0L389.3,116.4z"/>
	</g>
	<g class="st0">
		<circle class="st7" cx="510.1" cy="116.4" r="248"/>
		<path class="st2" d="M510.1,237.2L351.2,78.3c-11.1-11.1-11.1-29,0-40.1s29-11.1,40.1,0L510.1,157L628.9,38.2
			c11.1-11.1,29-11.1,40.1,0s11.1,29,0,40.1L510.1,237.2z"/>
	</g>
	<g class="st0">
		<circle class="st8" cx="510.1" cy="116.4" r="248"/>
		<g class="st9">
			<path class="st6" d="M657,11.8c0-7.7-6.2-13.9-13.9-13.9h-64l-28-28.2c-5.9-6.4-14.3-10-22.9-10h-37.7c-8.7,0-17.1,3.7-23,10.1
				L441-2.1h-63.9c-7.7,0-13.9,6.2-13.9,13.9v4.9h18.9l22.1,228.2c1.6,16.1,15,28.3,31.2,28.3h149.4c16.2,0,29.6-12.2,31.2-28.3
				l22.1-228.2H657L657,11.8L657,11.8z M479.2-19.2L479.2-19.2c2.9-3.2,7-5,11.2-5h37.7c4.2,0,8.3,1.8,11.1,4.9l17,17.1h-93
				L479.2-19.2z M599.8,243.3c-0.8,7.8-7.2,13.6-15,13.6H435.4c-7.8,0-14.3-5.9-15-13.6L398.5,16.7h223.3L599.8,243.3z"/>
			<rect x="502" y="53.4" class="st6" width="16.2" height="165.3"/>
			<polygon class="st6" points="585.8,53.4 569.7,53.4 550.2,218.7 566.5,218.7 			"/>
			<polygon class="st6" points="470,218.7 450.5,53.4 434.4,53.4 453.7,218.7 			"/>
		</g>
	</g>
	<g class="st0">
		<circle class="st8" cx="510.1" cy="116.4" r="248"/>
		<g class="st9">
			<path class="st6" d="M623,44.7C610.2,31.1,597.9,18,584.9,4.3c5.9-5.6,11.7-11,17.4-16.4c12-11.2,12.8-11.1,23.9,0.7
				c6.4,6.7,12.7,13.5,19,20.3c5.5,6,5.4,9.8-0.5,15.4C637.7,31,630.5,37.6,623,44.7z"/>
			<polygon class="st6" points="578.1,10.5 485.9,97.1 470.3,150.1 523.8,137.5 616,50.9 			"/>
			<g>
				<path class="st6" d="M596.5,253.2H401.2c-16.8,0-30.4-13.6-30.4-30.4V27.6c0-16.8,13.6-30.4,30.4-30.4h127.7
					c3.2,0,5.8,2.6,5.8,5.8s-2.6,5.8-5.8,5.8H401.2c-10.4,0-18.8,8.4-18.8,18.8v195.3c0,10.4,8.4,18.8,18.8,18.8h195.3
					c10.4,0,18.8-8.4,18.8-18.8v-125c0-3.2,2.6-5.8,5.8-5.8c3.2,0,5.8,2.6,5.8,5.8v124.9C626.9,239.6,613.2,253.2,596.5,253.2z"/>
			</g>
		</g>
	</g>
	<g class="st0">
		<circle class="st8" cx="510.1" cy="116.4" r="248"/>
		<path class="st2" d="M653.2,96.9H529.6V-26.7c0-10.8-8.7-19.5-19.5-19.5s-19.5,8.7-19.5,19.5V96.8H367c-10.8,0-19.5,8.7-19.5,19.5
			s8.7,19.5,19.5,19.5h123.6v123.5c0,10.8,8.7,19.5,19.5,19.5s19.5-8.7,19.5-19.5V135.9h123.6c10.8,0,19.5-8.7,19.5-19.5
			S664,96.9,653.2,96.9z"/>
	</g>
	<g class="st0">
		<circle class="st8" cx="510.1" cy="116.4" r="248"/>
		<path class="st2" d="M625.1,203.8l-87.4-87.4L625.1,29c7.6-7.6,7.6-20,0-27.6s-20-7.6-27.6,0l-87.4,87.4L422.7,1.4
			c-7.6-7.6-20-7.6-27.6,0s-7.6,20,0,27.6l87.4,87.4l-87.4,87.4c-7.6,7.6-7.6,20,0,27.6s20,7.6,27.6,0l87.4-87.4l87.4,87.4
			c7.6,7.6,20,7.6,27.6,0C632.7,223.7,632.7,211.4,625.1,203.8z"/>
	</g>
	<g class="st0">
		<circle class="st7" cx="510.1" cy="116.4" r="248"/>
		<path class="st2" d="M625.1,203.8l-87.4-87.4L625.1,29c7.6-7.6,7.6-20,0-27.6s-20-7.6-27.6,0l-87.4,87.4L422.7,1.4
			c-7.6-7.6-20-7.6-27.6,0s-7.6,20,0,27.6l87.4,87.4l-87.4,87.4c-7.6,7.6-7.6,20,0,27.6s20,7.6,27.6,0l87.4-87.4l87.4,87.4
			c7.6,7.6,20,7.6,27.6,0C632.7,223.7,632.7,211.4,625.1,203.8z"/>
	</g>
	<path class="st10" d="M510.1-131.6c-137,0-248,111-248,248s111,248,248,248s248-111,248-248S647.1-131.6,510.1-131.6z M350.5-43.2
		h118.8c4.9,0,8.9,4,8.9,8.9s-4,8.9-8.9,8.9h-101v101c0,4.9-4,8.9-8.9,8.9c-4.9,0-8.9-4-8.9-8.9V-43.2z M469.3,276H350.5V157.2
		c0-4.9,4-8.9,8.9-8.9c4.9,0,8.9,4,8.9,8.9v101h101c4.9,0,8.9,4,8.9,8.9S474.2,276,469.3,276z M453.6,116.4
		c0-31.2,25.3-56.5,56.5-56.5c31.2,0,56.5,25.3,56.5,56.5s-25.3,56.5-56.5,56.5C478.9,172.9,453.6,147.6,453.6,116.4z M669.7,276
		H550.9c-4.9,0-8.9-4-8.9-8.9s4-8.9,8.9-8.9h101v-101c0-4.9,4-8.9,8.9-8.9c4.9,0,8.9,4,8.9,8.9V276z M669.7,75.5
		c0,4.9-4,8.9-8.9,8.9c-4.9,0-8.9-4-8.9-8.9v-101h-101c-4.9,0-8.9-4-8.9-8.9s4-8.9,8.9-8.9h118.8V75.5z"/>
	<g class="st0">
		<circle class="st8" cx="510.1" cy="116.4" r="248"/>
		<g class="st9">
			<path class="st6" d="M550.3,170.2h97.5c6.5-16.5,10.1-34.8,10.1-53.8c0-31.6-9.9-60.8-26.8-84.8L550.3,170.2z"/>
			<path class="st6" d="M535.5,52.1l-47.2-81.8C439.2-22.4,398,8.1,377.1,52.1H535.5z"/>
			<path class="st6" d="M577.2,107.9l48.6-83.5c-27.1-34-68.8-55.8-115.6-55.8c-4.3,0-8.6,0.3-12.9,0.6L577.2,107.9z"/>
			<path class="st6" d="M389.1,201.1l80.8-140.8h-96.5c-7.1,16.5-11.1,36.2-11.1,56.1C362.3,148,372.3,177.1,389.1,201.1z"/>
			<path class="st6" d="M483.5,178.4l48.5,84.2c50-7.4,91.8-40.3,112.4-84.2H483.5z"/>
			<path class="st6" d="M443.6,123.2l-49.1,85c27.1,34,68.8,55.9,115.7,55.9c4.3,0,8.6-0.2,12.9-0.6L443.6,123.2z"/>
		</g>
	</g>
</g>
<g id="ingreso">
	<g>
		<path class="st11" d="M-721.8,1170h-428.4c-10.5,0-19-8.7-19-19.4v-35.7c0-53.8,70.2-98.8,174.6-112c4-0.5,7.1-4.1,7.1-8.5v-3.3
			c0-10.4-4.2-20.3-11.8-27.9c-25.3-25.4-39.8-63.7-39.8-105.1c0-73.4,46.2-133.1,103.1-133.1c56.9,0,103.1,59.7,103.1,133.1
			c0,41.4-14.5,79.7-39.8,105.1c-7.6,7.6-11.8,17.5-11.8,27.9v3.3c0,4.3,3,8,7.1,8.5c104.4,13.2,174.6,58.2,174.6,112v35.7
			C-702.8,1161.3-711.4,1170-721.8,1170z M-936,741c-48,0-87.1,52.6-87.1,117.2c0,37.2,12.8,71.5,35.1,93.9
			c10.6,10.6,16.4,24.5,16.4,39.2v3.3c0,12.3-9,22.8-21,24.3c-93.1,11.7-160.6,52.2-160.6,96.1v35.7c0,1.9,1.4,3.4,3,3.4h428.4
			c1.7,0,3-1.5,3-3.4V1115c0-44-67.6-84.4-160.6-96.1l0,0c-12-1.5-21-12-21-24.3v-3.3c0-14.6,5.8-28.6,16.4-39.2
			c22.3-22.4,35.1-56.6,35.1-93.9C-848.9,793.5-888,741-936,741z"/>
	</g>
	<g>
		<path class="st11" d="M-97.2,941.8v-91.9c0-60-48.8-108.8-108.8-108.8s-108.8,48.8-108.8,108.8v91.9c-22.3,1-40.1,19.3-40.1,41.8
			V1144c0,23.1,18.8,42,42,42h214c23.1,0,42-18.8,42-42V983.6C-57.1,961-75,942.8-97.2,941.8z M-206.1,753.6
			c53,0,96.2,43.2,96.2,96.2v91.7h-192.4v-91.7C-302.3,796.8-259.1,753.6-206.1,753.6z M-69.8,1144c0,16.2-13.2,29.3-29.3,29.3h-214
			c-16.2,0-29.3-13.2-29.3-29.3V983.6c0-16.2,13.2-29.3,29.3-29.3h214c16.2,0,29.3,13.2,29.3,29.3V1144z"/>
		<path class="st11" d="M-192.7,1054.1v-34.9c0-7.4-6-13.4-13.4-13.4s-13.4,6-13.4,13.4v34.9c-8,4.6-13.4,13.2-13.4,23
			c0,14.8,12,26.7,26.7,26.7s26.7-12,26.7-26.7C-179.3,1067.3-184.7,1058.8-192.7,1054.1z"/>
	</g>
	<path class="st11" d="M773.6,854.6c-0.7-0.8-1.2-1.4-1.7-1.9c-2.2-3.1-6.5-5.1-11-5.1H350.4c-4.5,0-9.3,2.4-12.7,5.6
		c-3.4,3.7-4.6,7-4.6,12.8v250.6c0,5.6,1.2,8.9,4.6,12.3c3.4,3.7,8.2,5.9,12.7,5.9H761c4.5,0,9.3-2.2,11.5-5.9
		c3.4-3.4,5.6-6.6,5.6-12.3V866C778.1,860.9,776.4,857.8,773.6,854.6z M747.4,863.6l-192.3,139.8L363.6,863.6H747.4z M348.1,1113.8
		V871.6l158.2,115.6L348.1,1113.8z M365.9,1118.9L519.8,997l30.8,22.5c1.4,0.8,3.1,1.1,4.8,1.1c1.4,0,3.1-0.3,4.2-1.1l28.5-20.6
		l149.7,120H365.9z M762.2,1116.6c0,1.1,0,1.1,0,2.2H761l0,0L601.1,989.3l161.1-116.9V1116.6z"/>
	<g>
		<path class="st11" d="M1312.3,993.3l1.6,1.6l41.5,38.8l41.9-38.8c1.6-1.6,1.6-1.6,3.2-1.6h149.2L1489,797.6h-91.7v-11.4h96.4
			c1.6,0,4.7,1.7,4.7,3.2l62.4,207h1.6v1.5v131.7c0,3.5-3.2,5.1-6.3,5.1h-401c-3.1,0-5.1-1.6-5.1-5.1V998v-1.5l64.3-207
			c0-1.6,1.6-3.2,4.8-3.2h96.4v11.4h-93.2L1163,993.4h149.3V993.3z M1410.3,937.2L1410.3,937.2l-53,53c0,0-2,1.6-3.5,1.6
			c-1.6,0-1.6-1.6-3.1-1.6l-53.1-53c-1.6-1.6-1.6-3.2-1.6-3.2c0-1.5,0-3.2,1.6-4.7l10.1-8.4l38.2,38.8V698.2c0-1.5,0-4.7,1.6-6.8
			c1.6-1.6,4.8-1.6,6.4-1.6c3.5,0,5,0,6.6,1.6c1.6,2.1,3.3,5.2,3.3,6.8v260l38.3-37.2l8.3,8.4c1.5,1.5,1.5,3.1,1.5,4.7
			C1411.8,934,1411.8,935.6,1410.3,937.2L1410.3,937.2z M1408.8,1008L1408.8,1008l-53.4,48.2l-53-48.2h-138v112.2h383.9V1008H1408.8
			z"/>
	</g>
	<g>
		<path class="st11" d="M2314.8,1131.2l-226.3-411.5c-3.1-5.2-8.5-8.6-14.8-8.6c-6,0-11.7,3.4-14.7,8.6l-226.3,411.5
			c-3.1,5.3-2.6,11.8,0.4,16.8c3,5.2,8.2,8.1,14.3,8.1H2300c6.1,0,11.7-2.9,14.7-8.1C2317.9,1142.9,2317.9,1136.4,2314.8,1131.2z
			 M1846.7,1140.1l227-413.1l227.3,413.1H1846.7z"/>
		<g>
			<path class="st11" d="M2073.8,1039.2L2073.8,1039.2c-7.9,0-14.7,6.6-14.7,14.8c0,8,6.8,14.7,14.7,14.7c8.2,0,14.8-6.7,14.8-14.7
				C2088.6,1045.8,2082,1039.2,2073.8,1039.2L2073.8,1039.2z"/>
			<path class="st11" d="M2083.2,1028.3h-18.7c-0.7,0-1.2-0.6-1.2-1.2V865.5c0-0.7,0.6-1.2,1.2-1.2h18.7c0.7,0,1.2,0.6,1.2,1.2
				v161.6C2084.4,1027.8,2083.9,1028.3,2083.2,1028.3z"/>
		</g>
	</g>
</g>
<g id="menu">
	<g class="st0">
		<path class="st7" d="M761.3,1509.8H349.9c-16.2,0-29.4-13.2-29.4-29.4l0,0c0-16.2,13.2-29.4,29.4-29.4h411.4
			c16.2,0,29.4,13.2,29.4,29.4l0,0C790.6,1496.6,777.4,1509.8,761.3,1509.8z"/>
		<path class="st7" d="M762.6,1700.8H351.2c-16.2,0-29.4-13.2-29.4-29.4l0,0c0-16.2,13.2-29.4,29.4-29.4h411.4
			c16.2,0,29.4,13.2,29.4,29.4l0,0C792,1687.6,778.8,1700.8,762.6,1700.8z"/>
		<path class="st7" d="M761.3,1891.8H349.9c-16.2,0-29.4-13.2-29.4-29.4l0,0c0-16.2,13.2-29.4,29.4-29.4h411.4
			c16.2,0,29.4,13.2,29.4,29.4l0,0C790.6,1878.6,777.4,1891.8,761.3,1891.8z"/>
	</g>
	<g class="st0">
		<g class="st9">
			<polygon class="st11" points="337.4,1599.9 320.5,1599.9 320.5,1436.4 484,1436.4 484,1453.3 337.4,1453.3 			"/>
		</g>
		<g class="st9">
			<polygon class="st11" points="790.6,1599.9 773.7,1599.9 773.7,1453.3 627.1,1453.3 627.1,1436.4 790.6,1436.4 			"/>
		</g>
		<g class="st9">
			<polygon class="st11" points="790.6,1906.5 627.1,1906.5 627.1,1889.6 773.7,1889.6 773.7,1743 790.6,1743 			"/>
		</g>
		<g class="st9">
			<polygon class="st11" points="484,1906.5 320.5,1906.5 320.5,1743 337.4,1743 337.4,1889.6 484,1889.6 			"/>
		</g>
	</g>
	<g class="st0">
		<g class="st9">
			<path class="st11" d="M488,1627.4H322.7v-165.3H488L488,1627.4L488,1627.4z M343.3,1606.9h124.2v-124.2H343.3V1606.9z"/>
		</g>
		<g class="st9">
			<path class="st11" d="M488,1916.9H322.7v-165.3H488L488,1916.9L488,1916.9z M343.3,1896.4h124.2v-124.2H343.3V1896.4z"/>
		</g>
		<g class="st9">
			<path class="st11" d="M441.6,1595.5l-79.6-79.6c-4-4-4-10.5,0-14.5s10.5-4,14.5,0l65.1,65.1L579.1,1429c4-4,10.5-4,14.5,0
				s4,10.5,0,14.5L441.6,1595.5z"/>
		</g>
		<g class="st9">
			<path class="st11" d="M788.4,1627.4H623.1v-165.3h165.3V1627.4z M643.7,1606.9h124.2v-124.2H643.7V1606.9z"/>
		</g>
		<g class="st9">
			<path class="st11" d="M788.4,1916.9H623.1v-165.3h165.3V1916.9z M643.7,1896.4h124.2v-124.2H643.7V1896.4z"/>
		</g>
	</g>
	<g class="st0">
		<g class="st9">
			<path class="st11" d="M356.8,1835.5L356.8,1835.5c-24.2-0.4-43.8-20.1-43.8-44V1551c0-24.1,19.7-43.7,43.8-43.7h397.7
				c24.1,0,43.7,19.6,43.7,43.7v240.5c0,23.9-19.5,43.6-43.5,44H356.8z M356.9,1817.8h397.7c14.5-0.2,26-11.8,26-26.3V1551
				c0-14.3-11.7-26-26-26H356.8c-14.4,0-26.2,11.7-26.2,26v240.5C330.6,1805.8,342.4,1817.6,356.9,1817.8z"/>
		</g>
		<polygon class="st12" points="596.7,1624.3 596.7,1624.3 758.7,1624.3 758.7,1651.1 596.7,1651.1 		"/>
		<polygon class="st12" points="596.7,1660.2 596.7,1660.2 729.5,1660.2 729.5,1687.2 596.7,1687.2 		"/>
		<polygon class="st12" points="689.5,1723.1 689.5,1723.1 596.7,1723.1 596.7,1696.1 689.5,1696.1 		"/>
		<g class="st9">
			<path class="st11" d="M545.4,1759.7H375.5c-4.2,0-7.6-3.5-7.6-7.7v-14.2c0-21.4,27.8-39.2,69.3-44.4c1.6-0.2,2.8-1.6,2.8-3.3
				v-1.3c0-4.1-1.7-8-4.7-11c-10-10.1-15.8-25.3-15.8-41.7c0-29.1,18.4-52.8,40.9-52.8c22.6,0,40.9,23.7,40.9,52.8
				c0,16.4-5.8,31.6-15.8,41.7c-3,3-4.7,6.9-4.7,11v1.3c0,1.7,1.2,3.1,2.8,3.3c41.4,5.2,69.3,23.1,69.3,44.4v14.2
				C553,1756.2,549.6,1759.7,545.4,1759.7z M460.5,1589.6c-19,0-34.5,20.8-34.5,46.4c0,14.8,5.1,28.3,13.9,37.2
				c4.2,4.2,6.5,9.8,6.5,15.6v1.3c0,4.9-3.6,9.1-8.4,9.7c-36.9,4.6-63.6,20.7-63.6,38.1v14.2c0,0.7,0.5,1.3,1.2,1.3h169.9
				c0.6,0,1.2-0.6,1.2-1.3v-14.2c0-17.4-26.8-33.4-63.6-38.1l0,0c-4.8-0.6-8.4-4.8-8.4-9.7v-1.3c0-5.8,2.3-11.4,6.5-15.6
				c8.8-8.9,13.9-22.4,13.9-37.2C495,1610.4,479.5,1589.6,460.5,1589.6z"/>
		</g>
	</g>
	<g class="st0">
		<path class="st12" d="M443.9,1427.5h256.7c14.7,0,28.3,5.6,37.5,14.8c9.1,9.6,14.7,21.5,14.7,36.2v386.2
			c0,13.2-5.7,26.7-14.7,35.9c-9.2,9.4-22.8,14.8-37.5,14.8H443.9c-14.4,0-26.6-5.4-35.7-14.8c-9.6-9.3-14.9-22.8-14.9-35.9v-41.4
			h-25.4c-5.1,0-9.5-2.6-9.5-7.9c0-5.6,4.3-8.3,9.5-8.3h25.4v-78.9h-25.4c-5.1,0-9.5-4-9.5-9.2c0-4,4.3-7.9,9.5-7.9h25.4v-79h-25.4
			c-5.1,0-9.5-3.8-9.5-7.9c0-5.6,4.3-9.5,9.5-9.5h25.4v-79h-25.4c-5.1,0-9.5-3.9-9.5-7.9c0-5.3,4.3-9.3,9.5-9.3h25.4v-40.1
			c0-14.7,5.3-26.6,14.9-36.2C417.3,1433.1,429.4,1427.5,443.9,1427.5L443.9,1427.5z M607,1685.4L607,1685.4v3.1
			c10.5,6.5,20.2,9.1,28,13.1c28.2,10.9,42.7,17.5,42.7,66.7c0,5.7-3.9,9.7-7.9,9.7H476c-5.2,0-9.5-4-9.5-9.7
			c0-51.9,14.8-55.8,42.7-66.7c8.4-4,17.5-6.6,29.6-13.1v-1.3c-8.3-6.8-10.8-16.1-12.1-27.1c-1.3,0-1.3-1.2-2.7-2.5
			c-1.4-1.4-1.4-3.9-1.4-5.4v-1.3c-1.2-1.2-1.2-2.6-1.2-3.9l-1.3-1.4c-1.4-5.6-4-13.5,1.3-20c-1.3-8.1-1.3-16.3,0-24.4
			c1.2-10.4,6.7-19.7,20.1-25.3c1.2-2.6,4-5.2,6.6-6.7c5.3-2.5,10.9-3.9,17.4-3.9c5.1,0,11.9,1.4,18.7,2.6
			c17.5,4.1,34.6,13.5,38.9,28c2.6,8.3,1.3,20.1,0,28.3c6.6,5.4,2.6,15.7,1.3,21.4v1.4c-1.3,1.3-1.3,2.6-1.3,3.9l-1.4,1.3
			c0,2.8,0,3.9-1.6,5.4l-1.3,2.5C616.3,1669.7,613.5,1678.8,607,1685.4L607,1685.4z M589.7,1693.7L589.7,1693.7v-12.1
			c0-2.7,1.3-5.3,3.8-7.9c5.6-2.7,6.9-12.2,9.7-20c0-1.5,1.3-2.7,1.3-4c1.2-1.3,1.2-2.6,1.2-4.1l1.3-1.6c0,0,0-1.3,0-2.7l1.5-1.3
			c0,0,1.2-1.3,2.6-1.3c-4-1.2-6.6-5.2-5.4-9.1c0,0,4-20.3,1.3-28.4c-2.6-7.9-14.8-14.4-26.7-16.9c-5.5-1.5-10.7-1.5-14.7-1.5
			c-3.8,0-6.6,0-7.9,1.5c-1.4,2.6-2.8,5.1-6.8,6.5c-8.1,2.6-11.9,6.4-13.2,13.5c-1.3,6.5,1.3,17,2.6,25.3c1.3,2.5,0,5.1-2.6,7.9
			c0,0,0,1.2-1.3,1.2c1.3,1.3,1.3,4.1,2.6,5.4v1.6c0,1.4,1.3,2.7,1.3,4.1c1.3,1.2,1.3,2.5,1.3,4l1.2,2.5c2.8,8.2,4,16.1,8.1,18.9
			c2.6,2.6,4.1,5.4,4.1,7.9v10.9c0,2.6-1.5,5.2-4.1,7.8c-13.2,8.2-25.4,12.2-36,16.1c-18.7,6.7-29.5,10.7-30.9,42.8h176.3
			c-1.2-30.9-11.9-34.7-31.9-42.8c-9.6-3.8-20-7.8-33.6-16.1C592.2,1700.3,589.7,1697.5,589.7,1693.7L589.7,1693.7z M419.9,1807.1
			L419.9,1807.1c5.3,0,9.6,2.7,9.6,8.3c0,5.2-4.3,7.9-9.6,7.9h-10.4v41.4c0,9.3,4,17.4,10.4,24c6.5,6.6,14.9,9.1,24,9.1h256.7
			c9.6,0,18.6-2.5,25.1-9.1c5.7-6.6,9.6-14.7,9.6-24v-386.2c0-9.5-3.9-17.4-9.6-23.8c-6.6-7-15.6-10.9-25.1-10.9H443.9
			c-9.1,0-17.5,4-24,10.9c-6.4,6.4-10.4,14.3-10.4,23.8v40.1h10.4c5.3,0,9.6,4,9.6,9.3c0,4-4.3,7.9-9.6,7.9h-10.4v79h10.4
			c5.3,0,9.6,4,9.6,9.5c0,4-4.3,7.9-9.6,7.9h-10.4v79h10.4c5.3,0,9.6,3.9,9.6,7.9c0,5.2-4.3,9.2-9.6,9.2h-10.4v78.9h10.4V1807.1z"/>
	</g>
	<path class="st13" d="M751.3,1539.9c-0.1-30.1-21.3-57.9-59.7-78.3c-36.5-19.4-84.8-30-136-30s-99.5,10.7-136,30
		c-38.4,20.4-59.6,48.2-59.7,78.3l0,0v80.8l0,0l0,0v90.5c0,0.4,0,0.8,0,1.2l0,0v61.5c0.3,37.5,21.3,72.4,59.1,98.3
		c36.7,25.2,85.2,39.1,136.6,39.1s99.9-13.9,136.6-39.1c37.8-26,58.7-60.9,59.1-98.4v-61.4l0,0c0-0.4,0-0.8,0-1.2v-90.5l0,0l0,0
		V1539.9L751.3,1539.9z M428.9,1479.2c33.7-17.9,78.7-27.7,126.7-27.7s93,9.8,126.7,27.7c31.6,16.8,49.1,38.4,49.1,60.8
		s-17.5,44-49.1,60.8c-33.7,17.9-78.7,27.7-126.7,27.7s-93-9.8-126.7-27.7c-31.6-16.8-49.1-38.4-49.1-60.8S397.2,1496,428.9,1479.2z
		 M420.2,1699.4c0.3,0.1,0.5,0.3,0.8,0.4c1.4,0.7,2.8,1.4,4.3,2.2c0.1,0,0.1,0.1,0.2,0.1c3.1,1.5,6.3,3,9.5,4.4
		c0.3,0.1,0.6,0.2,0.9,0.4c1.3,0.6,2.7,1.1,4,1.7c0.4,0.1,0.7,0.3,1.1,0.4c1.4,0.5,2.8,1.1,4.2,1.6c0.2,0.1,0.4,0.1,0.6,0.2
		c0.1,0,0.1,0,0.2,0.1c1.9,0.7,3.9,1.4,5.8,2.1c0.1,0,0.2,0.1,0.4,0.1c1.8,0.6,3.6,1.2,5.4,1.8c0.3,0.1,0.7,0.2,1,0.3
		c3.8,1.2,7.8,2.3,11.8,3.4c0.6,0.1,1.1,0.3,1.7,0.4c1.5,0.4,2.9,0.7,4.4,1.1c0.6,0.1,1.2,0.3,1.7,0.4c1.9,0.4,3.8,0.9,5.7,1.3
		c0.6,0.1,1.3,0.3,2,0.4c1.4,0.3,2.7,0.6,4.1,0.8c0.8,0.2,1.6,0.3,2.4,0.4c1.5,0.3,3,0.5,4.5,0.8c0.5,0.1,1,0.2,1.6,0.3
		c2,0.3,3.9,0.6,5.9,0.9c0.7,0.1,1.3,0.2,2,0.3c1.6,0.2,3.2,0.4,4.8,0.6c0.5,0.1,1,0.1,1.6,0.2c4.4,0.5,8.9,1,13.5,1.4
		c0.2,0,0.4,0,0.6,0c9.5,0.8,19.2,1.2,28.9,1.2c9.8,0,19.4-0.4,28.9-1.2c0.2,0,0.4,0,0.6,0c4.5-0.4,9-0.8,13.5-1.4
		c0.5-0.1,1-0.1,1.5-0.2c1.6-0.2,3.2-0.4,4.8-0.6c0.7-0.1,1.3-0.2,2-0.3c2-0.3,4-0.6,5.9-0.9c0.5-0.1,1-0.2,1.5-0.3
		c1.5-0.3,3-0.5,4.6-0.8c0.8-0.1,1.6-0.3,2.3-0.4c1.4-0.3,2.8-0.5,4.1-0.8c0.6-0.1,1.3-0.3,1.9-0.4c1.9-0.4,3.8-0.8,5.7-1.3
		c0.6-0.1,1.1-0.3,1.7-0.4c1.5-0.4,3-0.7,4.4-1.1c0.6-0.1,1.1-0.3,1.7-0.4c4-1.1,7.9-2.2,11.8-3.4c0.3-0.1,0.7-0.2,1-0.3
		c1.8-0.6,3.6-1.2,5.4-1.8c0.1,0,0.3-0.1,0.4-0.1c2-0.7,3.9-1.4,5.8-2.1c0.1,0,0.2-0.1,0.2-0.1c0.2-0.1,0.4-0.2,0.6-0.2
		c1.4-0.5,2.7-1,4.1-1.6c0.4-0.2,0.8-0.3,1.1-0.5c1.3-0.5,2.6-1.1,3.9-1.6c0.3-0.1,0.6-0.3,0.9-0.4c3.2-1.4,6.4-2.8,9.5-4.3
		c0.1,0,0.2-0.1,0.3-0.1c1.4-0.7,2.8-1.4,4.2-2.1c0.3-0.1,0.6-0.3,0.8-0.4c1.2-0.6,2.4-1.3,3.6-2c0.3-0.1,0.5-0.3,0.8-0.4
		c2.9-1.6,5.7-3.3,8.4-5c9.3-5.9,17.4-12.4,24-19.2c1.3-1.3,2.5-2.6,3.7-4v42.3c0,4.9-0.8,9.7-2.5,14.5l-0.3,1
		c-15.2,41.8-89.3,73.1-173,73.1c-83.5,0-157.4-31.2-172.9-72.8l-0.5-1.3c-1.6-4.7-2.5-9.6-2.5-14.5V1669c1.2,1.3,2.4,2.7,3.7,4
		c6.6,6.8,14.7,13.3,24,19.2c2.7,1.7,5.5,3.4,8.4,5c0.2,0.1,0.5,0.3,0.7,0.4C417.8,1698.1,419,1698.8,420.2,1699.4z M731.4,1773.6
		c-0.6,64.9-79.5,117.8-175.8,117.8s-175.2-52.8-175.8-117.7v-13.1c9.9,11.2,23.2,21.3,39.8,30.2c36.5,19.4,84.8,30,136,30
		s99.5-10.7,136-30c16.6-8.8,30-19,39.8-30.2V1773.6z M731.4,1620.7L731.4,1620.7c0,0.8,0,1.5-0.1,2.2c0,0.3,0,0.6-0.1,0.9
		c0,0.4-0.1,0.7-0.1,1.1s-0.1,0.8-0.1,1.3l0,0c-0.4,3-1.1,6-2.1,9l-0.3,1c-5.1,14.1-17.4,27.6-35.6,39.2c-2.5,1.6-5.1,3.1-7.8,4.6
		l0,0c-8.1,4.5-17,8.6-26.7,12.2c-30.3,11.2-65.9,17.1-103,17.1s-72.7-5.9-103-17.1c-9.7-3.6-18.6-7.7-26.7-12.2l0,0
		c-2.7-1.5-5.3-3-7.8-4.6c-18-11.5-30.2-24.9-35.4-38.8l-0.5-1.3c-1-2.9-1.7-5.9-2.1-8.9v-0.1c-0.1-0.4-0.1-0.8-0.1-1.3
		c0-0.4-0.1-0.7-0.1-1.1c0-0.3,0-0.6-0.1-0.9c0-0.7-0.1-1.4-0.1-2.1c0,0,0,0,0-0.1v-32.3c9.9,11.2,23.2,21.4,39.8,30.2
		c36.5,19.4,84.8,30,136,30s99.5-10.7,136-30c16.6-8.8,30-19,39.8-30.2v32.2H731.4z"/>
	<path class="st13" d="M720.8,1711.9v-91l-78.3-45.2v-90.4l-86.9-50.2l-86.9,50.2v90.4l-78.3,45.2v91l-78.8,45.6v100.3l86.9,50.2
		l78.6-45.4l78.6,45.4l78.6-45.4l78.6,45.4l86.9-50.2v-100.3L720.8,1711.9z M703.7,1711.3l-69.8,40.3l-69.8-40.3v-80.6l69.8-40.3
		l69.8,40.3V1711.3z M555.6,1454.8l69.8,40.3v80.6l-69.8,40.3l-69.8-40.3V1495L555.6,1454.8z M407.5,1630.7l69.8-40.3l69.8,40.3
		v80.6l-69.8,40.3l-69.8-40.3V1630.7z M468.2,1847.9l-69.8,40.3l-69.8-40.3v-80.6l69.8-40.3l69.8,40.3V1847.9z M625.4,1847.9
		l-69.8,40.3l-69.8-40.3v-80.6l69.8-40.3l69.8,40.3V1847.9z M782.5,1847.9l-69.8,40.3l-69.8-40.3v-80.6l69.8-40.3l69.8,40.3V1847.9z
		"/>
	<g class="st0">
		<g class="st9">
			<path class="st11" d="M729,1916.9H382.1c-22.3,0-40.5-18.2-40.5-40.5v-410c0-22.3,18.2-40.5,40.5-40.5H729
				c22.3,0,40.5,18.2,40.5,40.5v410C769.5,1898.8,751.4,1916.9,729,1916.9z M382.1,1443.9c-12.5,0-22.6,10.1-22.6,22.6v410
				c0,12.5,10.1,22.6,22.6,22.6H729c12.5,0,22.6-10.1,22.6-22.6v-410c0-12.5-10.1-22.6-22.6-22.6H382.1z"/>
		</g>
		<g class="st9">
			<path class="st11" d="M705.4,1562.1H516.2c-4.9,0-8.9-4-8.9-8.9s4-8.9,8.9-8.9h189.2c4.9,0,8.9,4,8.9,8.9
				S710.3,1562.1,705.4,1562.1z"/>
		</g>
		<g class="st9">
			<path class="st11" d="M705.4,1688.3H516.2c-4.9,0-8.9-4-8.9-8.9s4-8.9,8.9-8.9h189.2c4.9,0,8.9,4,8.9,8.9
				S710.3,1688.3,705.4,1688.3z"/>
		</g>
		<g class="st9">
			<path class="st11" d="M705.4,1814.4H516.2c-4.9,0-8.9-4-8.9-8.9s4-8.9,8.9-8.9h189.2c4.9,0,8.9,4,8.9,8.9
				S710.3,1814.4,705.4,1814.4z"/>
		</g>
		<g class="st9">
			<path class="st11" d="M473.3,1589.2h-72v-72h72V1589.2z M410.3,1580.2h54.1v-54.1h-54.1V1580.2z"/>
		</g>
		<g class="st9">
			<path class="st11" d="M473.3,1715.3h-72v-72h72V1715.3z M410.3,1706.4h54.1v-54.1h-54.1V1706.4z"/>
		</g>
		<g class="st9">
			<path class="st11" d="M473.3,1841.5h-72v-72h72V1841.5z M410.3,1832.5h54.1v-54.1h-54.1V1832.5z"/>
		</g>
		<g class="st9">
			<path class="st11" d="M453.1,1575.3l-34.7-34.7c-1.7-1.7-1.7-4.6,0-6.3c1.8-1.7,4.6-1.7,6.3,0l28.4,28.4l59.9-59.9
				c1.8-1.7,4.6-1.7,6.3,0c1.7,1.7,1.7,4.6,0,6.3L453.1,1575.3z"/>
		</g>
	</g>
	<g class="st0">
		<path class="st12" d="M583,1910.6h-52.5c-3.6,0-6.8,0-33.1-65.4l-25.5-10.3c-64.6,29.4-66.8,27.3-69.5,24.7l-37.2-36.4
			c-2.7-2.6-4.8-4.7,23.8-69.3l-10.5-24.8c-67-23.9-67-27-67-30.8v-51.5c0-3.7,0-6.7,66.8-32.4l10.5-24.8
			c-30.1-63.4-27.9-65.5-25.1-68.2l37.1-36.4c2.7-2.6,4.7-4.6,70.7,23.3l25.4-10.3c24.4-65.6,27.6-65.6,31.3-65.6h52.5
			c3.6,0,6.7,0,33.1,65.4l25.5,10.3c64.6-29.4,66.8-27.2,69.5-24.7l37.2,36.3c2.7,2.6,4.9,4.7-23.7,69.3l10.5,24.9
			c67,23.9,67,26.9,67,30.8v51.4c0,3.7,0,6.7-66.9,32.5l-10.4,24.8c30.1,63.3,27.9,65.5,25.2,68.2l-37.2,36.4
			c-2.7,2.6-4.7,4.6-70.5-23.4l-25.7,10.4C589.9,1910.5,586.7,1910.6,583,1910.6z M532.9,1896.9h47.5c3.9-6.6,15.3-34.7,24.7-60.2
			l0.7-1.9l32.5-13.2l1.8,0.8c25.8,11,54.8,22.5,62.3,24.2l33.6-32.8c-2-7.5-14.3-35.1-26-59.6l-0.9-1.9l13.4-31.9l1.9-0.7
			c26.1-10.1,54.8-22,61.5-26v-46.3c-6.8-3.8-35.4-14.9-61.5-24.2l-2-0.7l-13.5-32l0.8-1.9c11.1-25.1,22.8-53.4,24.7-60.9
			l-33.6-32.8c-7.4,1.9-35.8,13.9-61.1,25.4l-1.8,0.8l-32.5-13.1l-0.7-1.9c-10.3-25.6-22.5-53.7-26.5-60.2h-47.5
			c-3.9,6.6-15.3,34.7-24.8,60.2l-0.7,1.9l-32.4,13.1l-1.8-0.8c-25.9-11-54.9-22.5-62.4-24.2l-33.5,32.8c2,7.5,14.3,35.1,25.9,59.6
			l0.9,1.9l-13.5,32l-1.9,0.7c-26.1,10.1-54.8,21.9-61.5,25.9v46.3c6.7,3.9,35.5,15,61.5,24.3l1.9,0.7l13.5,31.9l-0.8,1.9
			c-11.1,25.1-22.8,53.3-24.7,60.8l33.5,32.9c7.5-1.9,35.8-14,61-25.5l1.8-0.8l32.5,13.2l0.7,1.9
			C516.6,1862.3,528.8,1890.5,532.9,1896.9z"/>
		<g class="st9">
			<g>
				<path class="st11" d="M526.9,1652.8h-70.2v-70.2h70.2V1652.8z M465.5,1644h52.7v-52.7h-52.7V1644z"/>
			</g>
			<g>
				<path class="st11" d="M526.9,1775.6h-70.2v-70.2h70.2V1775.6z M465.5,1766.9h52.7v-52.7h-52.7V1766.9z"/>
			</g>
			<g>
				<path class="st11" d="M507.2,1639.2l-33.8-33.8c-1.7-1.7-1.7-4.5,0-6.2s4.5-1.7,6.2,0l27.6,27.6l58.4-58.4
					c1.7-1.7,4.5-1.7,6.2,0s1.7,4.5,0,6.2L507.2,1639.2z"/>
			</g>
			<g>
				<path class="st11" d="M654.4,1652.8h-70.1v-70.2h70.2L654.4,1652.8L654.4,1652.8z M593,1644h52.7v-52.7H593V1644z"/>
			</g>
			<g>
				<path class="st11" d="M654.4,1775.6h-70.1v-70.2h70.2L654.4,1775.6L654.4,1775.6z M593,1766.9h52.7v-52.7H593V1766.9z"/>
			</g>
		</g>
	</g>
	<g class="st0">
		<path class="st12" d="M641.2,1846.4H469.9v-148c0-47.2,38.4-85.6,85.7-85.6c47.2,0,85.6,38.4,85.6,85.6L641.2,1846.4L641.2,1846.4
			z M480.2,1836.1h150.6v-137.6c0-41.5-33.8-75.3-75.3-75.3s-75.3,33.8-75.3,75.3L480.2,1836.1L480.2,1836.1z M732.8,1814.4h-70.9
			v-115.9c0-13.5-3.3-26.9-10-39.7l-2.9-5.6l6-1.8c6.2-1.8,11.8-2.7,17.1-2.7c33.5,0,60.7,27.2,60.7,60.7L732.8,1814.4L732.8,1814.4
			z M672.2,1804h50.3v-94.7c0-27.7-22.6-50.3-50.3-50.3c-2.6,0-5.3,0.3-8.2,0.8c5.5,12.5,8.3,25.5,8.3,38.6V1804H672.2z
			 M449.3,1814.4h-70.9v-105.1c0-33.4,27.2-60.7,60.7-60.7c5.4,0,10.8,0.9,17,2.7l6,1.8l-2.8,5.5c-6.6,12.9-10,26.3-10,39.7
			L449.3,1814.4L449.3,1814.4z M388.8,1804H439v-105.6c0-13.1,2.8-26,8.3-38.6c-2.9-0.6-5.5-0.8-8.2-0.8
			c-27.8,0-50.3,22.6-50.3,50.3L388.8,1804L388.8,1804z M803.3,1787.3h-49.9v-78c0-10.9-3-21.5-8.9-31.6l-3.3-5.7l6.3-1.9
			c4.6-1.3,8.5-2,12.3-2c24,0,43.5,19.5,43.5,43.5V1787.3z M763.7,1776.9h29.2v-65.2c0-18.3-14.9-33.2-33.1-33.2c-1,0-2,0.1-3.1,0.2
			c4.7,9.9,7,20.1,7,30.6V1776.9z M357.8,1787.3h-49.9v-75.6c0-24,19.5-43.5,43.5-43.5c3.8,0,7.7,0.6,12.2,2l6.4,1.9l-3.4,5.7
			c-5.9,10-8.9,20.6-8.9,31.6v77.9H357.8z M318.3,1776.9h29.2v-67.6c0-10.6,2.3-20.9,7-30.6c-20.1-2.3-36.2,13.7-36.2,33V1776.9z
			 M759.8,1665.3c-15.7,0-28.5-12.8-28.5-28.5s12.8-28.5,28.5-28.5s28.5,12.8,28.5,28.5S775.5,1665.3,759.8,1665.3z M759.8,1618.6
			c-10,0-18.2,8.1-18.2,18.1s8.2,18.1,18.2,18.1s18.1-8.1,18.1-18.1C777.9,1626.8,769.8,1618.6,759.8,1618.6z M351.4,1665.3
			c-15.7,0-28.6-12.8-28.6-28.5s12.8-28.5,28.6-28.5c15.7,0,28.5,12.8,28.5,28.5S367.2,1665.3,351.4,1665.3z M351.4,1618.6
			c-10,0-18.2,8.1-18.2,18.1s8.2,18.1,18.2,18.1s18.2-8.1,18.2-18.1C369.6,1626.8,361.5,1618.6,351.4,1618.6z M672.1,1645.6
			c-22,0-39.9-17.9-39.9-39.8c0-22,17.9-39.9,39.9-39.9s39.9,17.9,39.9,39.9C712,1627.7,694.1,1645.6,672.1,1645.6z M672.1,1576.2
			c-16.3,0-29.5,13.3-29.5,29.6c0,16.3,13.2,29.5,29.5,29.5s29.6-13.2,29.6-29.5C701.7,1589.4,688.4,1576.2,672.1,1576.2z
			 M439.1,1645.6c-22,0-39.9-17.9-39.9-39.8c0-22,17.9-39.9,39.9-39.9s39.9,17.9,39.9,39.9C478.9,1627.7,461,1645.6,439.1,1645.6z
			 M439.1,1576.2c-16.3,0-29.6,13.3-29.6,29.6c0,16.3,13.3,29.5,29.6,29.5c16.3,0,29.5-13.2,29.5-29.5
			C468.6,1589.4,455.3,1576.2,439.1,1576.2z M555.6,1609.5c-31.2,0-56.5-25.4-56.5-56.5s25.3-56.5,56.5-56.5
			c15.1,0,29.3,5.9,40,16.6s16.6,24.9,16.6,39.9C612.1,1584.1,586.7,1609.5,555.6,1609.5z M555.6,1506.8
			c-25.5,0-46.2,20.7-46.2,46.1c0,25.5,20.7,46.2,46.2,46.2s46.2-20.7,46.2-46.2c0-12.3-4.8-23.9-13.5-32.6
			C579.5,1511.6,567.9,1506.8,555.6,1506.8z"/>
	</g>
	<g class="st0">
		<path class="st12" d="M780.2,1720c1.2-15.1,2.6-32.2,17.7-54.7c19.2-30.3-17.7-58-39.7-74.5c-1-0.8-2-1.5-2.9-2.2
			c1.6-3.2,3.5-6.3,5.3-9.2c5-8.1,10.1-16.4,7.4-26.6s-12.5-19.4-32.9-30.7c-7.4-4-20-9.2-33.5-14.8c-14.6-6-34.7-14.2-38.4-17.6
			l-7.4-6.8l-4.6,9l-0.1-0.1l-6.5,12.9l-61.2,119.1l1.4,0.5l-114.3,228.6l13.7,6.9l115.2-230.5c23.2,8.1,41,17,61,30.9
			c-8.8,29.6,9.9,40.2,29.7,51.3c14.2,8,30.3,17,43.4,35c3.7,4.9,4.3,7.4,4.9,10c0.8,3.2,1.7,7.2,6.5,12l4.5,4.5l5.3-3.5
			C777.4,1754.3,778.8,1737.7,780.2,1720z M753,1751.5c-0.9-3.3-2.4-7.6-7-13.9c-15.1-20.7-33.5-31-48.3-39.3
			c-20.7-11.6-29.2-16.4-20.9-38.1l2.1-5.5l-4.8-3.5c-13.1-9.4-25-16.8-37.6-23.1c-9.3-4.7-19.1-8.7-30-12.6l51.8-103.7l2.7-5.3
			c7.6,4,19.2,8.8,34.8,15.2c12.5,5.1,25.4,10.4,31.9,14c19.2,10.7,24.4,17.4,25.4,21.1c0.9,3.6-1.4,7.7-5.7,14.6
			c-3,4.9-6.4,10.4-8.8,17.2l-1.8,5.2l4.3,3.4c2.3,1.8,5,3.8,7.9,6c24,18,46.6,37,36,53.8c-17.2,25.7-18.8,45.8-20.1,61.9
			C763.8,1732.9,763,1742.3,753,1751.5z"/>
		<path class="st12" d="M356.5,1769.6l5.3,3.5l4.5-4.5c4.8-4.8,5.8-8.8,6.5-12c0.6-2.6,1.2-5.1,4.9-10c13.1-18,29.2-27.1,43.4-35
			c19.8-11.1,38.5-21.7,29.7-51.3c19.9-13.9,37.7-22.8,61-30.9L627,1859.9l13.7-6.9l-114.4-228.6l1.4-0.5l-61.2-119.1l-6.5-12.9
			l-0.1,0.1l-4.6-9l-7.4,6.8c-3.7,3.4-23.8,11.6-38.4,17.6c-13.5,5.5-26.1,10.7-33.5,14.8c-20.4,11.3-30.2,20.5-32.9,30.7
			s2.5,18.5,7.4,26.6c1.8,3,3.7,6,5.3,9.2c-0.9,0.7-1.9,1.4-2.9,2.2c-22,16.5-58.8,44.1-39.7,74.5c15,22.6,16.4,39.7,17.7,54.7
			C332.4,1737.7,333.7,1754.3,356.5,1769.6z M346.2,1718.8c-1.3-16.1-2.9-36.1-20.1-61.9c-10.6-16.8,12-35.8,36-53.8
			c2.9-2.2,5.6-4.2,7.9-6l4.3-3.4l-1.8-5.2c-2.4-6.7-5.8-12.3-8.8-17.2c-4.2-6.9-6.6-11-5.7-14.6c1-3.7,6.2-10.5,25.4-21.1
			c6.5-3.6,19.4-8.9,31.9-14c15.6-6.4,27.1-11.2,34.8-15.2l2.7,5.3l51.8,103.7c-10.9,3.9-20.7,7.9-30,12.6
			c-12.6,6.3-24.5,13.7-37.6,23.1l-4.8,3.5l2.1,5.5c8.3,21.6-0.2,26.4-20.9,38.1c-14.8,8.3-33.2,18.7-48.3,39.3
			c-4.7,6.3-6.2,10.6-7,13.9C348.2,1742.3,347.4,1732.9,346.2,1718.8z"/>
	</g>
	<g>
		<path class="st11" d="M736.1,1686.3c-8.4,8.2-16,17.2-26.6,22.8c5.3,10.1,4.4,19.8-1.6,29.1c-6.1,9.5-15.6,12.3-26.3,12.3
			c-0.7,2.8-1.2,5.6-2.2,8.2c-3.6,9.6-10.3,15.7-20.5,17.6c-2.2,0.4-4.4,0.6-6.5,1.1c-0.7,0.2-1.4,1.1-1.7,1.8
			c-1.6,4-2.6,8.2-4.6,11.9c-4.2,7.8-11.4,11.2-19.9,12c-0.9,0.1-1.8,0.4-2.7,0.2c-4.6-1-6.7,1.9-9.2,5c-5.9,7.5-13,13.3-22.6,15.5
			c-6.3,1.4-12.6,1.4-18.9,0.6c-10.5-1.3-20.7-4.1-30.7-7.4c-0.6-0.2-1.2-0.4-1.9-0.6c-5.3-1.5-5.4-1.6-8.6,3.1
			c-7.1,10.5-20.3,12.1-30.2,7.9c-8.4-3.6-14-10-17-18c-4.1,0-7.9,0.4-11.6-0.1c-10.5-1.4-18-7.3-22.3-16.8
			c-1.8-4.1-3.5-5.6-8.3-5.6c-11.8,0.1-23.2-9.3-26.2-20.7c-0.9-3.4-1.3-7-2-10.5c-23.5-2.8-34.3-30.9-19.5-47.4
			c-6.4-7.7-12.7-15.5-19.3-23.6c-2.1,3.8-4,7.1-5.8,10.5c-3.7,6.8-9.8,9.9-17.2,8.3c-2.2-0.5-4.4-1.7-6.4-2.9
			c-10.1-6-20.1-12.2-30.1-18.3c-7.6-4.6-9.6-14.5-4.7-22.7c4.9-8.3,9.5-16.8,14.3-25.2c8.2-14.4,16.4-28.9,24.5-43.3
			c6-10.7,11.9-21.4,17.9-32.1c7.2-12.9,14.5-25.9,21.8-38.8c4.3-7.5,13.5-9.7,21.1-5.2c10.5,6.3,20.8,12.8,31.3,19
			c7.9,4.6,10.7,15,5,23.2c-0.9,1.4-1.6,3-2.6,5c6.6,3.7,12.9,8,19.8,10.7c6,2.3,12.8,2.8,19.3,4c3,0.6,5.9,0.9,8.9,1.4
			c1.2,0.2,2,0.1,2.8-1.1c2.8-3.7,4.9-8.1,9.4-10c5.1-2.2,10.2-4.6,15.6-6c23.3-5.7,47-6.4,70.8-5.8c11,0.3,21.8,2.5,32.5,5
			c8.4,1.9,16.8,3.7,25.2,5.3c6.2,1.2,12.3-0.4,18.4-2.5c-1.4-2.5-2.6-4.9-4-7.3c-3.9-6.5-2.6-16.7,4.1-20.9
			c7.2-4.5,14.5-9,21.7-13.4c3.9-2.4,7.9-4.8,11.9-7.2c6.9-4.1,16.5-1.4,20.5,5.7c9.2,16.5,18.5,32.9,27.7,49.4
			c5.9,10.5,11.8,21.1,17.7,31.6c7.1,12.5,14.3,25,21.4,37.5c4.3,7.5,8.5,15.1,12.7,22.7c3.7,6.7,1.2,16.2-5.5,20.4
			c-10.7,6.7-21.4,13.3-32.3,19.6c-7.8,4.6-16.2,2.3-21.1-5.4c-1.8-2.9-3.3-5.9-5-8.9C736.9,1687.3,736.6,1687,736.1,1686.3z
			 M602,1798.9c-1.3-0.6-2.4-1.2-3.5-1.8c-12-5.8-23.9-11.5-35.9-17.3c-2.3-1.1-4.6-2.2-6.7-3.4c-3.7-2.2-4.9-6.7-3-10.1
			c2.4-4.3,7.2-5.1,10.6-3.3c5.6,3,11.5,5.6,17.2,8.4c8.4,4.1,16.8,8.1,25.1,12.3c6.1,3.1,12.3,5.2,19.3,4.2
			c4.1-0.6,7.2-2.2,8.6-6.3c0.6-1.8,1.1-3.7,1.8-5.5c0.5-1.4,0.3-2.1-1.1-2.9c-9.2-5.2-18.4-10.6-27.6-15.9
			c-10.1-5.8-20.2-11.6-30.3-17.5c-3.5-2-4.7-6.9-2.7-10.5c2.1-3.6,6.8-5,10.3-3c11.2,6.5,22.4,13,33.6,19.5c8.1,4.7,16.5,9,24.4,14
			c5.2,3.3,10.4,2.4,15.4,1c5.3-1.4,7.9-6.5,8.2-13.3c0.1-1.9-0.5-3-2.1-3.9c-8.7-5.1-17.4-10.3-26.1-15.5
			c-13.5-8.1-27-16.1-40.4-24.2c-3.3-2-4.5-6.8-2.8-10.3c1.6-3.2,6.2-5,9.7-3.6c1.8,0.7,3.4,1.9,5.1,2.9
			c11.9,7.2,23.8,14.3,35.8,21.5c8,4.8,15.9,9.7,23.9,14.4c3.9,2.2,7.8,4.6,12.1,5.9c5.8,1.7,11.7-1,14.4-5.7
			c2.6-4.6,2.8-10.6-1.7-15.1c-3.4-3.4-7.1-6.7-10.9-9.6c-14.4-10.9-28.7-21.9-43.4-32.4c-12.8-9.2-25.8-18.2-39.3-26.3
			c-15.1-9.1-30.8-17.2-46.3-25.7c-1.5-0.8-2.9-1.1-4.6-0.4c-3.2,1.2-6.6,1.9-9.7,3.1c-1.4,0.5-2.9,1.6-3.8,2.8
			c-8.1,10.8-17.5,20.1-29.5,26.7c-10.3,5.6-21.2,8.4-32.8,7c-5.7-0.7-10.6-3.3-12.9-9c-3.3-8.1-2.1-16.2,2-23.5
			c5.2-9.4,11.5-18.1,17.4-27.1c1.3-2,2.7-3.9,3.9-5.7c-8.4-1.9-16.9-2.9-24.8-5.7c-7.8-2.9-14.9-7.6-22.3-11.5
			c-17.7,31.4-35.5,63-53.1,94.4c7,8.4,13.9,16.6,20.9,24.8c6.5-6.7,14.5-9.2,23.8-7.2c9.1,1.9,15.4,7.6,20.2,15.4
			c9.8-15,19.3-16.8,31.2-14c5.4,1.3,9.8,4.5,13.6,8.6c5.6,6.1,7.8,13.5,8,21.6c8.5,0.9,15.2,5,20.2,11.6c5.1,6.7,7.1,14.3,5.7,22.7
			c10.9,2.4,18.8,8.3,23,18.6c4.2,10.4,2.7,20-4.8,28.9c1.5,0.5,2.6,1,3.7,1.3c3.5,1,7,2.1,10.5,2.9c7,1.6,14,3.4,21.3,3.6
			C589.6,1809.8,596.4,1806.2,602,1798.9z M728.5,1672.3c-4.1-7.2-8.2-14.3-12.3-21.4c-4.1-7.3-8.1-14.6-12.1-21.9
			c-5.6-10-11.2-19.9-16.8-29.9c-3.7-6.6-7.5-13.3-11.2-19.9c-0.9-1.7-1.8-1.7-3.5-1c-6.6,2.7-13.6,4.1-20.7,3.8
			c-10.9-0.4-21.3-3.6-31.8-5.9c-11.6-2.5-23.2-5-35.2-4.9c-11,0.1-22,0.7-32.9,1.4c-11,0.7-21.8,2.2-32.5,5.1
			c-3.5,1-6.9,2.2-9.2,5.5c-4.2,6.2-8.7,12.3-13,18.5c-6.1,8.9-12.2,17.8-18.1,26.7c-2.5,3.7-4.8,7.5-5,12.2
			c-0.1,2.3,0.7,3.1,2.9,3.1c6.7,0.1,13.1-1.4,19.1-4.3c11-5.3,19.6-13.6,26.8-23.4c1.8-2.4,3.7-5.5,6.2-6.5
			c6.6-2.7,13.5-4.7,20.3-6.6c1.9-0.5,4.3-0.4,6.1,0.3c4.3,1.8,8.5,4.1,12.6,6.3c11.1,6,22.1,12.1,33.1,18.3
			c14.4,8.2,28.2,17.3,41.5,27c14,10.1,27.9,20.3,41.7,30.6c5,3.7,9.6,7.8,14.4,11.6C711,1691.3,717,1682.5,728.5,1672.3z
			 M355.6,1688.6c3.4-6.1,6.7-11.9,10-17.8c6.7-12,13.4-24,20.2-36c6.8-12.1,13.6-24.1,20.4-36.2c3.9-6.8,7.6-13.7,11.5-20.6
			c5.2-9.2,10.4-18.4,15.7-27.6c0.9-1.5,0.8-2.3-0.8-3.2c-5.4-3.2-10.6-6.5-15.9-9.8c-4.6-2.8-9.2-5.6-13.9-8.4
			c-26.4,46.8-52.6,93.4-78.9,140.1C334.6,1675.6,345,1682,355.6,1688.6z M676.5,1548.2c26.4,47,52.7,93.7,79,140.4
			c10.8-6.6,21.2-13,31.6-19.3c-26.4-46.9-52.6-93.6-79-140.4C697.6,1535.3,687.1,1541.7,676.5,1548.2z M430.1,1757.5
			c0,3.8,1.5,6.6,3.4,9.3c5.2,7.1,13.3,6.7,18.2-0.4c6.1-8.8,12.6-17.4,19.1-26c3.7-5,7.5-10,11.4-14.7c2.8-3.4,3.7-6.9,2.5-11.1
			c-1.3-4.6-4.4-7.7-8.7-9.6c-4.4-1.9-8.9-1.1-11.7,3.3c-2.3,3.5-5,6.8-7.5,10.2c-7.6,10.2-15.2,20.4-22.6,30.7
			C432.4,1751.7,429.8,1754.2,430.1,1757.5z M511.8,1749.7c0-6-4.2-11.9-9.6-13.7c-4.1-1.4-8.3-0.5-10.7,2.5c-2.4,3-4.7,6.2-7,9.3
			c-6,8.2-11.8,16.7-18.2,24.6c-5.2,6.5-3.7,13.3,1.4,18.2c5.4,5.2,12.6,4.9,16.5-0.5c7.6-10.5,15.4-20.9,23-31.4
			C509.4,1756,512.2,1753.4,511.8,1749.7z M511.9,1814.2c3,0.1,5.3-1,7.1-3.4c5.1-6.9,10.3-13.7,15.4-20.6c1.8-2.4,3-5.1,2.3-8.2
			c-1.3-5.5-4.4-9.5-9.7-11.6c-4.3-1.7-8.3-0.5-11,3.1c-3.9,5.3-7.9,10.5-11.7,15.8c-1.9,2.7-4.2,5.4-5.1,8.4
			C496.8,1805.4,503.9,1814.1,511.9,1814.2z M416.9,1740.5c2.6-0.1,5-0.8,6.7-3.3c2.5-3.5,5.2-6.8,7.7-10.3c1.5-2,3.2-4,4.1-6.3
			c1.9-5.2-0.3-10.7-5.4-14.6c-5.6-4.4-11.6-3.5-15.7,2.2c-0.6,0.8-1.2,1.5-1.8,2.3c-2.7,3.6-5.7,7.1-7.9,11
			C400.2,1729.3,407.5,1740.4,416.9,1740.5z"/>
	</g>
</g>
<g id="migas">
	<g>
		<path class="st14" d="M-470,129.9h-127.4c-7.4,0-13.5-6.1-13.5-13.5l0,0c0-7.4,6.1-13.5,13.5-13.5H-470l13.5,13.5L-470,129.9z"/>
		<g>
			<g>
				<path class="st15" d="M-580.1,109.5c0.6,0,1.2,0.1,1.7,0.3c0.5,0.2,1,0.5,1.4,0.8c0.4,0.4,0.7,0.8,0.9,1.4
					c0.2,0.6,0.3,1.3,0.3,2.1h-2.2c0-0.5,0-0.8-0.1-1.2c-0.1-0.3-0.2-0.6-0.4-0.8s-0.4-0.4-0.7-0.5s-0.5-0.2-0.8-0.2
					c-0.4,0-0.8,0.1-1.1,0.3c-0.3,0.2-0.6,0.4-0.8,0.7c-0.2,0.3-0.3,0.7-0.4,1.2c-0.1,0.5-0.1,1-0.1,1.6v0.8c0,0.6,0,1.1,0.1,1.6
					c0.1,0.5,0.3,0.9,0.5,1.2c0.2,0.3,0.5,0.6,0.8,0.7s0.7,0.3,1.1,0.3c0.3,0,0.6-0.1,0.9-0.2s0.5-0.3,0.7-0.5
					c0.2-0.2,0.3-0.5,0.4-0.8c0.1-0.3,0.1-0.7,0.1-1.2h2.1c0,0.8-0.1,1.4-0.3,2s-0.5,1-0.9,1.4c-0.4,0.4-0.8,0.7-1.4,0.8
					c-0.5,0.2-1.1,0.3-1.7,0.3c-0.7,0-1.4-0.1-2-0.4c-0.6-0.2-1.1-0.6-1.5-1.1c-0.4-0.5-0.7-1.1-0.9-1.9c-0.2-0.8-0.3-1.7-0.3-2.7
					s0.1-1.9,0.3-2.7c0.2-0.8,0.5-1.4,0.9-1.9c0.4-0.5,0.9-0.9,1.5-1.1C-581.5,109.6-580.9,109.5-580.1,109.5z"/>
				<path class="st15" d="M-571,112.2c1.2,0,2.1,0.4,2.7,1.1c0.6,0.7,0.9,1.9,0.9,3.6c0,1.6-0.3,2.8-0.9,3.6
					c-0.6,0.8-1.5,1.1-2.7,1.1s-2.1-0.4-2.7-1.1c-0.6-0.7-0.9-1.9-0.9-3.6c0-1.6,0.3-2.8,0.9-3.6
					C-573.1,112.5-572.2,112.2-571,112.2z M-571,113.9c-0.5,0-0.9,0.2-1.1,0.7c-0.2,0.5-0.3,1.1-0.3,2v0.6c0,0.9,0.1,1.5,0.3,2
					c0.2,0.5,0.6,0.7,1.1,0.7s0.9-0.2,1.1-0.7s0.3-1.1,0.3-2v-0.6c0-0.9-0.1-1.5-0.3-2C-570.1,114.2-570.5,113.9-571,113.9z"/>
				<path class="st15" d="M-561.5,112.2c0.3,0,0.7,0.1,1,0.2c0.3,0.1,0.5,0.3,0.8,0.5c0.2,0.2,0.4,0.5,0.5,0.9s0.2,0.8,0.2,1.3v6.3
					h-2v-5.7c0-0.6-0.1-1-0.3-1.2c-0.2-0.2-0.5-0.4-0.9-0.4c-0.2,0-0.4,0-0.6,0.1c-0.2,0.1-0.3,0.2-0.4,0.4s-0.2,0.4-0.3,0.6
					c-0.1,0.2-0.1,0.4-0.1,0.7v5.5h-2v-9h1.7l0.2,1.1h0.1c0.1-0.2,0.3-0.3,0.4-0.5c0.2-0.2,0.3-0.3,0.5-0.4s0.4-0.2,0.6-0.3
					C-561.9,112.2-561.8,112.2-561.5,112.2z"/>
				<path class="st15" d="M-554.3,112.2c0.4,0,0.8,0.1,1.2,0.2c0.4,0.1,0.7,0.3,1,0.5c0.3,0.2,0.5,0.5,0.6,0.8
					c0.2,0.3,0.2,0.6,0.2,1c0,0.1,0,0.2,0,0.3c0,0.1,0,0.1,0,0.1h-2.1c0-0.4-0.1-0.7-0.3-0.9c-0.2-0.2-0.4-0.3-0.7-0.3
					s-0.6,0.1-0.8,0.2s-0.3,0.4-0.3,0.6c0,0.2,0.1,0.4,0.2,0.5c0.1,0.1,0.3,0.2,0.5,0.3c0.2,0.1,0.4,0.2,0.7,0.2
					c0.3,0.1,0.5,0.1,0.8,0.2c0.3,0.1,0.5,0.2,0.8,0.3s0.5,0.3,0.7,0.5c0.2,0.2,0.4,0.4,0.5,0.7c0.1,0.3,0.2,0.7,0.2,1.1
					c0,0.5-0.1,1-0.3,1.4c-0.2,0.4-0.3,0.8-0.6,1.1c-0.3,0.3-0.6,0.4-1.1,0.5c-0.5,0.1-0.9,0.1-1.3,0.1c-0.5,0-1-0.1-1.4-0.2
					c-0.4-0.1-0.7-0.3-1-0.6c-0.3-0.3-0.5-0.5-0.6-0.9c-0.1-0.4-0.2-0.7-0.2-1.2v-0.1v-0.1c0,0,0,0,0-0.1h2.1v0.1
					c0,0.2,0,0.4,0.1,0.6c0.1,0.2,0.2,0.3,0.3,0.4c0.1,0.1,0.2,0.2,0.4,0.2c0.1,0,0.3,0.1,0.4,0.1c0.1,0,0.3,0,0.4,0
					c0.1,0,0.3-0.1,0.4-0.2c0.1-0.1,0.2-0.2,0.3-0.3s0.1-0.3,0.1-0.5c0-0.2-0.1-0.4-0.2-0.6c-0.1-0.1-0.3-0.3-0.5-0.4
					c-0.2-0.1-0.4-0.2-0.7-0.3c-0.3-0.1-0.5-0.1-0.8-0.2c-0.3-0.1-0.5-0.2-0.8-0.3c-0.3-0.1-0.5-0.3-0.7-0.5
					c-0.2-0.2-0.4-0.4-0.5-0.7c-0.1-0.3-0.2-0.7-0.2-1.1c0-0.5,0.1-0.9,0.3-1.2c0.2-0.3,0.4-0.6,0.7-0.9c0.3-0.2,0.6-0.4,1-0.5
					C-555.2,112.3-554.7,112.2-554.3,112.2z"/>
				<path class="st15" d="M-542.8,121.4h-1.7l-0.2-1.1h-0.1c-0.1,0.2-0.2,0.3-0.4,0.5c-0.2,0.2-0.3,0.3-0.5,0.4s-0.4,0.2-0.6,0.3
					c-0.2,0.1-0.5,0.1-0.7,0.1c-0.3,0-0.7-0.1-1-0.2s-0.5-0.3-0.8-0.5c-0.3-0.2-0.4-0.5-0.5-0.9c-0.1-0.4-0.2-0.8-0.2-1.3v-6.3h2
					v5.7c0,0.6,0.1,1,0.3,1.2c0.2,0.2,0.5,0.4,0.9,0.4c0.2,0,0.4,0,0.6-0.1c0.2-0.1,0.3-0.2,0.4-0.4c0.1-0.2,0.2-0.3,0.3-0.6
					c0.1-0.2,0.1-0.5,0.1-0.7v-5.6h2v9.1H-542.8z"/>
				<path class="st15" d="M-538.9,121.4h-2v-12.3h2V121.4z"/>
				<path class="st15" d="M-534.9,112.4h1.3v1.7h-1.3v5c0,0.5,0.2,0.7,0.7,0.7h0.6v1.5c-0.1,0-0.2,0.1-0.3,0.1c-0.1,0-0.2,0-0.3,0.1
					c-0.1,0-0.2,0-0.3,0c-0.1,0-0.2,0-0.3,0c-0.4,0-0.8-0.1-1-0.2c-0.3-0.1-0.5-0.3-0.6-0.5c-0.2-0.2-0.3-0.5-0.3-0.8
					c-0.1-0.3-0.1-0.6-0.1-0.9v-5h-0.9v-1.7h0.9l0.3-2.5h1.7L-534.9,112.4L-534.9,112.4z"/>
				<path class="st15" d="M-529.6,112.2c1,0,1.8,0.2,2.3,0.7s0.8,1.1,0.8,2v4.4c0,0.2,0,0.4,0.1,0.5c0.1,0.1,0.2,0.1,0.3,0.1h0.4
					v1.4c-0.1,0.1-0.3,0.1-0.5,0.2c-0.2,0.1-0.4,0.1-0.8,0.1c-0.4,0-0.8-0.1-1-0.3c-0.3-0.2-0.5-0.5-0.6-0.9h-0.1
					c-0.1,0.2-0.3,0.3-0.4,0.5c-0.1,0.1-0.3,0.3-0.5,0.4c-0.2,0.1-0.4,0.2-0.6,0.2s-0.5,0.1-0.8,0.1c-0.2,0-0.4,0-0.7-0.1
					s-0.5-0.2-0.7-0.4s-0.4-0.4-0.6-0.8c-0.2-0.3-0.2-0.8-0.2-1.3c0-0.6,0.1-1.1,0.3-1.5s0.5-0.7,0.9-1c0.4-0.2,0.9-0.4,1.4-0.5
					s1.1-0.2,1.8-0.2V115c0-0.2,0-0.3,0-0.4s-0.1-0.3-0.1-0.3c-0.1-0.1-0.2-0.2-0.3-0.2c-0.1-0.1-0.3-0.1-0.5-0.1s-0.4,0-0.5,0.1
					c-0.1,0.1-0.2,0.1-0.3,0.2c-0.1,0.1-0.1,0.2-0.2,0.3c0,0.1-0.1,0.2-0.1,0.3v0.2h-2c0,0,0-0.1,0-0.2v-0.2c0-0.4,0.1-0.7,0.2-1
					c0.1-0.3,0.3-0.6,0.6-0.8c0.3-0.2,0.6-0.4,1-0.5C-530.5,112.3-530.1,112.2-529.6,112.2z M-528.7,117.4c-0.3,0-0.6,0-0.9,0.1
					c-0.3,0-0.5,0.1-0.7,0.2c-0.2,0.1-0.4,0.3-0.5,0.4c-0.1,0.2-0.2,0.4-0.2,0.7c0,0.3,0.1,0.6,0.2,0.7c0.2,0.2,0.4,0.3,0.8,0.3
					c0.2,0,0.5-0.1,0.6-0.2c0.1-0.1,0.3-0.2,0.4-0.4c0.1-0.2,0.2-0.4,0.2-0.6c0.1-0.2,0.1-0.5,0.1-0.8V117.4z"/>
				<path class="st15" d="M-521,112.2c0.1,0,0.2,0,0.3,0c0.1,0,0.2,0,0.3,0c0.1,0,0.2,0,0.2,0.1v2h-0.7c-0.2,0-0.4,0-0.6,0.1
					c-0.2,0.1-0.4,0.2-0.5,0.3c-0.1,0.1-0.3,0.4-0.4,0.6c-0.1,0.2-0.1,0.6-0.1,1v5h-2v-9h1.7l0.2,1.3h0.1c0.1-0.2,0.1-0.4,0.2-0.6
					c0.1-0.2,0.2-0.3,0.3-0.5c0.1-0.2,0.3-0.3,0.4-0.3C-521.5,112.3-521.3,112.2-521,112.2z"/>
				<path class="st15" d="M-511.3,112.2c0.4,0,0.8,0.1,1.2,0.3c0.4,0.2,0.7,0.5,0.9,0.9c0.2,0.4,0.4,0.9,0.6,1.5
					c0.1,0.6,0.2,1.3,0.2,2.1c0,0.8-0.1,1.5-0.2,2.1c-0.1,0.6-0.3,1.1-0.6,1.5c-0.2,0.4-0.5,0.7-0.9,0.8c-0.3,0.2-0.7,0.3-1.1,0.3
					c-0.5,0-0.9-0.1-1.2-0.3c-0.4-0.2-0.6-0.5-0.8-0.8h-0.1v3.9h-2v-12.1h1.7l0.2,1.1h0.1c0.2-0.4,0.5-0.8,0.9-1
					C-512.1,112.3-511.7,112.2-511.3,112.2z M-511.9,114.1c-0.5,0-0.8,0.2-1.1,0.6c-0.2,0.4-0.3,1.1-0.3,1.9v0.6
					c0,0.8,0.1,1.4,0.3,1.9c0.2,0.4,0.6,0.7,1.1,0.7s0.8-0.2,1.1-0.6c0.2-0.4,0.3-1.1,0.3-1.9v-0.6c0-0.8-0.1-1.4-0.3-1.9
					S-511.4,114.1-511.9,114.1z"/>
				<path class="st15" d="M-503.7,112.2c1.1,0,1.9,0.4,2.4,1.1c0.5,0.8,0.8,1.9,0.8,3.6v0.5h-4.6c0,0.4,0,0.8,0.1,1.1
					c0.1,0.3,0.1,0.6,0.2,0.8c0.1,0.2,0.2,0.4,0.4,0.5c0.2,0.1,0.4,0.2,0.6,0.2c0.3,0,0.6-0.1,0.8-0.4c0.2-0.3,0.3-0.7,0.3-1.3h2
					c0,0.6-0.1,1.1-0.2,1.5c-0.2,0.4-0.4,0.8-0.7,1.1c-0.3,0.3-0.6,0.5-1,0.6s-0.8,0.2-1.3,0.2c-1.1,0-2-0.4-2.6-1.1
					c-0.6-0.7-0.9-1.9-0.9-3.6c0-1.6,0.3-2.8,0.9-3.6C-505.7,112.6-504.8,112.2-503.7,112.2z M-503.7,113.9c-0.4,0-0.7,0.2-0.9,0.5
					c-0.2,0.3-0.3,0.9-0.3,1.5h2.4c0-0.7-0.1-1.2-0.3-1.5C-503,114.1-503.3,113.9-503.7,113.9z"/>
				<path class="st15" d="M-495.4,112.2c0.1,0,0.2,0,0.3,0s0.2,0,0.3,0s0.2,0,0.2,0.1v2h-0.7c-0.2,0-0.4,0-0.6,0.1
					c-0.2,0.1-0.4,0.2-0.5,0.3c-0.1,0.1-0.3,0.4-0.4,0.6c-0.1,0.2-0.1,0.6-0.1,1v5h-2v-9h1.7l0.2,1.3h0.1c0.1-0.2,0.1-0.4,0.2-0.6
					c0.1-0.2,0.2-0.3,0.3-0.5c0.1-0.2,0.3-0.3,0.4-0.3C-495.8,112.3-495.6,112.2-495.4,112.2z"/>
				<path class="st15" d="M-491.3,108.9c0.1,0,0.2,0,0.4,0c0.1,0,0.3,0,0.4,0c0.1,0,0.3,0,0.4,0.1c0.1,0,0.2,0,0.3,0.1v1.5h-0.9
					c-0.5,0-0.7,0.2-0.7,0.7v1h1.5v1.7h-1.5v7.2h-2V114h-0.9v-1.7h0.9v-1c0-0.3,0-0.6,0.1-0.9c0.1-0.3,0.2-0.5,0.3-0.8
					c0.2-0.2,0.4-0.4,0.6-0.5C-492.1,109-491.7,108.9-491.3,108.9z"/>
				<path class="st15" d="M-486.9,110.9h-2v-1.8h2V110.9z M-486.9,121.4h-2v-9h2V121.4z"/>
				<path class="st15" d="M-483,121.4h-2v-12.3h2V121.4z"/>
			</g>
		</g>
		<g>
			<path class="st14" d="M-415.2,121.4l-3.6-6.4c0-0.1-0.1-0.2-0.1-0.3c-0.1-0.1-0.1-0.2-0.2-0.4c-0.1-0.1-0.1-0.3-0.2-0.5h-0.1
				c0,0.1,0,0.3,0,0.4s0,0.2,0,0.3c0,0.1,0,0.2,0,0.3v6.5h-1.9v-11.6h1.9l3.6,6.4c0,0.1,0.1,0.2,0.2,0.3c0.1,0.1,0.1,0.2,0.2,0.4
				c0.1,0.1,0.1,0.3,0.2,0.4l0,0c0-0.2,0-0.3,0-0.4s0-0.2,0-0.3c0-0.1,0-0.2,0-0.2v-6.6h1.9v11.7H-415.2z"/>
			<path class="st14" d="M-404.7,121.4h-1.7l-0.2-1.1h-0.1c-0.1,0.2-0.2,0.3-0.4,0.5c-0.1,0.2-0.3,0.3-0.5,0.4
				c-0.2,0.1-0.4,0.2-0.6,0.3s-0.5,0.1-0.7,0.1c-0.3,0-0.7-0.1-1-0.2c-0.3-0.1-0.5-0.3-0.8-0.5c-0.3-0.2-0.4-0.5-0.5-0.9
				c-0.1-0.4-0.2-0.8-0.2-1.3v-6.3h2v5.7c0,0.6,0.1,1,0.3,1.2c0.2,0.2,0.5,0.4,0.9,0.4c0.2,0,0.4,0,0.6-0.1c0.2-0.1,0.3-0.2,0.4-0.4
				c0.1-0.2,0.2-0.3,0.3-0.6c0.1-0.2,0.1-0.5,0.1-0.7v-5.6h2v9.1H-404.7z"/>
			<path class="st14" d="M-399.8,112.2c1.1,0,1.9,0.4,2.4,1.1c0.5,0.8,0.8,1.9,0.8,3.6v0.5h-4.6c0,0.4,0,0.8,0.1,1.1
				c0.1,0.3,0.1,0.6,0.2,0.8c0.1,0.2,0.2,0.4,0.4,0.5c0.2,0.1,0.4,0.2,0.6,0.2c0.3,0,0.6-0.1,0.8-0.4c0.2-0.3,0.3-0.7,0.3-1.3h2
				c0,0.6-0.1,1.1-0.2,1.5c-0.2,0.4-0.4,0.8-0.7,1.1c-0.3,0.3-0.6,0.5-1,0.6s-0.8,0.2-1.3,0.2c-1.1,0-2-0.4-2.6-1.1
				c-0.6-0.7-0.9-1.9-0.9-3.6c0-1.6,0.3-2.8,0.9-3.6C-401.7,112.6-400.9,112.2-399.8,112.2z M-399.8,113.9c-0.4,0-0.7,0.2-0.9,0.5
				c-0.2,0.3-0.3,0.9-0.3,1.5h2.4c0-0.7-0.1-1.2-0.3-1.5C-399.1,114.1-399.4,113.9-399.8,113.9z"/>
			<path class="st14" d="M-391,121.4h-2.1l-2.8-9h2.1l1.2,3.9c0,0.1,0,0.2,0.1,0.3c0,0.1,0.1,0.3,0.1,0.4c0,0.1,0.1,0.3,0.1,0.4
				s0.1,0.3,0.1,0.4c0.1,0.3,0.1,0.7,0.2,1.1h0.1c0-0.4,0.1-0.7,0.2-1c0-0.1,0-0.3,0.1-0.4c0-0.2,0.1-0.3,0.1-0.4
				c0-0.1,0.1-0.3,0.1-0.4s0.1-0.2,0.1-0.3l1.1-3.9h2L-391,121.4z"/>
			<path class="st14" d="M-383.9,112.2c1.2,0,2.1,0.4,2.7,1.1c0.6,0.7,0.9,1.9,0.9,3.6c0,1.6-0.3,2.8-0.9,3.6
				c-0.6,0.8-1.5,1.1-2.7,1.1c-1.2,0-2.1-0.4-2.7-1.1c-0.6-0.7-0.9-1.9-0.9-3.6c0-1.6,0.3-2.8,0.9-3.6
				C-386,112.5-385.1,112.2-383.9,112.2z M-383.9,113.9c-0.5,0-0.9,0.2-1.1,0.7c-0.2,0.5-0.3,1.1-0.3,2v0.6c0,0.9,0.1,1.5,0.3,2
				c0.2,0.5,0.6,0.7,1.1,0.7s0.9-0.2,1.1-0.7s0.3-1.1,0.3-2v-0.6c0-0.9-0.1-1.5-0.3-2C-383,114.2-383.4,113.9-383.9,113.9z"/>
			<path class="st14" d="M-370.8,112.2c0.4,0,0.8,0.1,1.2,0.3c0.4,0.2,0.7,0.5,0.9,0.9c0.2,0.4,0.4,0.9,0.6,1.5
				c0.1,0.6,0.2,1.3,0.2,2.1c0,0.8-0.1,1.5-0.2,2.1s-0.3,1.1-0.6,1.5c-0.2,0.4-0.5,0.7-0.9,0.8c-0.3,0.2-0.7,0.3-1.1,0.3
				c-0.5,0-0.9-0.1-1.2-0.3c-0.4-0.2-0.6-0.5-0.8-0.8h-0.1v3.9h-2v-12.1h1.7l0.2,1.1h0.1c0.2-0.4,0.5-0.8,0.9-1
				C-371.6,112.3-371.2,112.2-370.8,112.2z M-371.4,114.1c-0.5,0-0.8,0.2-1.1,0.6c-0.2,0.4-0.3,1.1-0.3,1.9v0.6
				c0,0.8,0.1,1.4,0.3,1.9c0.2,0.4,0.6,0.7,1.1,0.7s0.8-0.2,1.1-0.6c0.2-0.4,0.3-1.1,0.3-1.9v-0.6c0-0.8-0.1-1.4-0.3-1.9
				C-370.6,114.3-370.9,114.1-371.4,114.1z"/>
			<path class="st14" d="M-363.2,112.2c1.1,0,1.9,0.4,2.4,1.1c0.5,0.8,0.8,1.9,0.8,3.6v0.5h-4.6c0,0.4,0,0.8,0.1,1.1
				c0.1,0.3,0.1,0.6,0.2,0.8c0.1,0.2,0.2,0.4,0.4,0.5c0.2,0.1,0.4,0.2,0.6,0.2c0.3,0,0.6-0.1,0.8-0.4c0.2-0.3,0.3-0.7,0.3-1.3h2
				c0,0.6-0.1,1.1-0.2,1.5c-0.2,0.4-0.4,0.8-0.7,1.1c-0.3,0.3-0.6,0.5-1,0.6s-0.8,0.2-1.3,0.2c-1.1,0-2-0.4-2.6-1.1
				c-0.6-0.7-0.9-1.9-0.9-3.6c0-1.6,0.3-2.8,0.9-3.6C-365.2,112.6-364.3,112.2-363.2,112.2z M-363.2,113.9c-0.4,0-0.7,0.2-0.9,0.5
				c-0.2,0.3-0.3,0.9-0.3,1.5h2.4c0-0.7-0.1-1.2-0.3-1.5C-362.5,114.1-362.9,113.9-363.2,113.9z"/>
			<path class="st14" d="M-354.9,112.2c0.1,0,0.2,0,0.3,0s0.2,0,0.3,0c0.1,0,0.2,0,0.2,0.1v2h-0.7c-0.2,0-0.4,0-0.6,0.1
				c-0.2,0.1-0.4,0.2-0.5,0.3s-0.3,0.4-0.4,0.6c-0.1,0.2-0.1,0.6-0.1,1v5h-2v-9h1.7l0.2,1.3h0.1c0.1-0.2,0.1-0.4,0.2-0.6
				c0.1-0.2,0.2-0.3,0.3-0.5c0.1-0.2,0.3-0.3,0.4-0.3C-355.3,112.3-355.1,112.2-354.9,112.2z"/>
			<path class="st14" d="M-350.8,108.9c0.1,0,0.2,0,0.4,0c0.1,0,0.3,0,0.4,0s0.3,0,0.4,0.1c0.1,0,0.2,0,0.3,0.1v1.5h-0.8
				c-0.5,0-0.7,0.2-0.7,0.7v1h1.5v1.7h-1.5v7.2h-2V114h-0.9v-1.7h0.9v-1c0-0.3,0-0.6,0.1-0.9c0.1-0.3,0.2-0.5,0.3-0.8
				c0.2-0.2,0.4-0.4,0.6-0.5C-351.6,109-351.2,108.9-350.8,108.9z"/>
			<path class="st14" d="M-346.4,110.9h-2v-1.8h2V110.9z M-346.4,121.4h-2v-9h2V121.4z"/>
			<path class="st14" d="M-342.5,121.4h-2v-12.3h2V121.4z"/>
		</g>
		<path class="st16" d="M-458.9,102.9h140.4c7.4,0,13.5,6.1,13.5,13.5l0,0c0,7.4-6.1,13.5-13.5,13.5h-140.4l13.4-13.5L-458.9,102.9z
			"/>
	</g>
	<g>
		<path class="st14" d="M-469.8,129.9h-127.4c-7.4,0-13.5-6-13.5-13.5l0,0c0-7.4,6.1-13.5,13.5-13.5h127.4l13.5,13.5L-469.8,129.9z"
			/>
		<g>
			<g>
				<path class="st15" d="M-579.9,109.5c0.6,0,1.2,0.1,1.7,0.3c0.5,0.2,1,0.5,1.4,0.8c0.4,0.4,0.7,0.8,0.9,1.4s0.3,1.3,0.3,2.1h-2.2
					c0-0.5-0.1-0.8-0.1-1.2c-0.1-0.3-0.2-0.6-0.4-0.8c-0.2-0.2-0.4-0.4-0.7-0.5s-0.5-0.2-0.8-0.2c-0.4,0-0.8,0.1-1.1,0.3
					c-0.3,0.2-0.6,0.4-0.8,0.7c-0.2,0.3-0.3,0.7-0.4,1.2c-0.1,0.5-0.1,1-0.1,1.6v0.8c0,0.6,0,1.1,0.1,1.6c0.1,0.5,0.3,0.9,0.5,1.2
					c0.2,0.3,0.5,0.6,0.8,0.7c0.3,0.2,0.7,0.3,1.1,0.3c0.3,0,0.6-0.1,0.9-0.2c0.3-0.1,0.5-0.3,0.7-0.5c0.2-0.2,0.3-0.5,0.4-0.8
					c0.1-0.3,0.1-0.7,0.1-1.2h2.1c0,0.8-0.1,1.4-0.3,2c-0.2,0.6-0.5,1-0.9,1.4s-0.8,0.7-1.4,0.8c-0.5,0.2-1.1,0.3-1.7,0.3
					c-0.7,0-1.4-0.1-2-0.4c-0.6-0.2-1.1-0.6-1.5-1.1c-0.4-0.5-0.7-1.1-0.9-1.9c-0.2-0.8-0.3-1.7-0.3-2.7s0.1-1.9,0.3-2.7
					c0.2-0.8,0.5-1.3,0.9-1.8c0.4-0.5,0.9-0.9,1.5-1.1C-581.3,109.6-580.6,109.5-579.9,109.5z"/>
				<path class="st15" d="M-570.8,112.2c1.2,0,2.1,0.4,2.7,1.1c0.6,0.7,0.9,1.9,0.9,3.6c0,1.6-0.3,2.8-0.9,3.6
					c-0.6,0.8-1.5,1.1-2.7,1.1c-1.2,0-2.1-0.4-2.7-1.1c-0.6-0.7-0.9-1.9-0.9-3.6c0-1.6,0.3-2.8,0.9-3.6
					C-572.9,112.5-572,112.2-570.8,112.2z M-570.8,113.9c-0.5,0-0.9,0.2-1.1,0.7s-0.3,1.1-0.3,2v0.6c0,0.9,0.1,1.5,0.3,2
					s0.6,0.7,1.1,0.7s0.9-0.2,1.1-0.7s0.3-1.1,0.3-2v-0.6c0-0.9-0.1-1.5-0.3-2S-570.2,113.9-570.8,113.9z"/>
				<path class="st15" d="M-561.3,112.2c0.3,0,0.7,0.1,1,0.2c0.3,0.1,0.5,0.3,0.8,0.5c0.2,0.2,0.4,0.5,0.5,0.9
					c0.1,0.4,0.2,0.8,0.2,1.3v6.3h-2v-5.7c0-0.6-0.1-1-0.3-1.2c-0.2-0.2-0.5-0.4-0.9-0.4c-0.2,0-0.4,0-0.6,0.1
					c-0.2,0.1-0.3,0.2-0.4,0.4c-0.1,0.2-0.2,0.4-0.3,0.6c-0.1,0.2-0.1,0.4-0.1,0.7v5.5h-2v-9h1.7l0.2,1.1h0.1
					c0.1-0.2,0.3-0.3,0.4-0.5c0.1-0.2,0.3-0.3,0.5-0.4s0.4-0.2,0.6-0.3C-561.7,112.2-561.5,112.2-561.3,112.2z"/>
				<path class="st15" d="M-554,112.2c0.4,0,0.8,0.1,1.2,0.2c0.4,0.1,0.7,0.3,1,0.5c0.3,0.2,0.5,0.5,0.6,0.8c0.2,0.3,0.2,0.6,0.2,1
					c0,0.1,0,0.2,0,0.3c0,0.1,0,0.1,0,0.1h-2.1c0-0.4-0.1-0.7-0.3-0.9c-0.2-0.2-0.4-0.3-0.7-0.3c-0.3,0-0.6,0.1-0.8,0.2
					s-0.3,0.4-0.3,0.6c0,0.2,0.1,0.4,0.2,0.5c0.1,0.1,0.3,0.2,0.5,0.3s0.4,0.2,0.7,0.2c0.3,0.1,0.5,0.1,0.8,0.2
					c0.3,0.1,0.5,0.2,0.8,0.3s0.5,0.3,0.7,0.5c0.2,0.2,0.4,0.4,0.5,0.7c0.1,0.3,0.2,0.7,0.2,1.1c0,0.5-0.1,1-0.3,1.4
					c-0.2,0.4-0.4,0.7-0.7,0.9c-0.3,0.2-0.6,0.4-1.1,0.5c-0.4,0.1-0.9,0.1-1.3,0.1c-0.5,0-1-0.1-1.4-0.2c-0.4-0.1-0.7-0.3-1-0.6
					c-0.3-0.3-0.5-0.5-0.6-0.9c-0.1-0.3-0.2-0.7-0.2-1.2v-0.1v-0.1c0,0,0,0,0-0.1h2.1v0.1c0,0.2,0,0.4,0.1,0.6
					c0.1,0.2,0.2,0.3,0.3,0.4c0.1,0.1,0.2,0.2,0.4,0.2c0.1,0,0.3,0.1,0.4,0.1c0.1,0,0.3,0,0.4,0c0.1,0,0.3-0.1,0.4-0.2
					c0.1-0.1,0.2-0.2,0.3-0.3s0.1-0.3,0.1-0.5c0-0.2-0.1-0.4-0.2-0.6c-0.1-0.1-0.3-0.3-0.5-0.4c-0.2-0.1-0.4-0.2-0.7-0.3
					c-0.3-0.1-0.5-0.1-0.8-0.2c-0.3-0.1-0.5-0.2-0.8-0.3s-0.5-0.3-0.7-0.5c-0.2-0.2-0.4-0.4-0.5-0.7c-0.1-0.3-0.2-0.7-0.2-1.1
					c0-0.5,0.1-0.9,0.3-1.2s0.4-0.6,0.7-0.9c0.3-0.2,0.6-0.4,1-0.5C-554.9,112.3-554.5,112.2-554,112.2z"/>
				<path class="st15" d="M-542.6,121.4h-1.7l-0.2-1.1h-0.1c-0.1,0.2-0.2,0.3-0.4,0.5c-0.2,0.2-0.3,0.3-0.5,0.4s-0.4,0.2-0.6,0.3
					c-0.2,0.1-0.5,0.1-0.7,0.1c-0.3,0-0.7-0.1-1-0.2s-0.5-0.3-0.8-0.5c-0.3-0.2-0.4-0.5-0.5-0.9c-0.1-0.4-0.2-0.8-0.2-1.3v-6.3h2
					v5.7c0,0.6,0.1,1,0.3,1.2c0.2,0.2,0.5,0.4,0.9,0.4c0.2,0,0.4,0,0.6-0.1c0.2-0.1,0.3-0.2,0.4-0.4c0.1-0.2,0.2-0.3,0.3-0.6
					c0.1-0.2,0.1-0.5,0.1-0.7v-5.6h2L-542.6,121.4L-542.6,121.4z"/>
				<path class="st15" d="M-538.7,121.4h-2v-12.3h2V121.4z"/>
				<path class="st15" d="M-534.6,112.4h1.3v1.7h-1.3v5c0,0.5,0.2,0.7,0.7,0.7h0.6v1.5c-0.1,0-0.2,0.1-0.3,0.1c-0.1,0-0.2,0-0.3,0.1
					c-0.1,0-0.2,0-0.3,0c-0.1,0-0.2,0-0.3,0c-0.4,0-0.8-0.1-1-0.2c-0.3-0.1-0.5-0.3-0.6-0.5c-0.2-0.2-0.3-0.5-0.3-0.8
					c-0.3-0.2-0.3-0.5-0.3-0.8v-5h-0.9v-1.7h0.9l0.3-2.5h1.7L-534.6,112.4L-534.6,112.4z"/>
				<path class="st15" d="M-529.4,112.2c1,0,1.8,0.2,2.3,0.7s0.8,1.1,0.8,2v4.4c0,0.2,0,0.4,0.1,0.5s0.2,0.1,0.3,0.1h0.4v1.4
					c-0.1,0.1-0.3,0.1-0.5,0.2c-0.2,0.1-0.4,0.1-0.8,0.1c-0.4,0-0.8-0.1-1-0.3c-0.3-0.2-0.5-0.5-0.6-0.9h-0.1
					c-0.1,0.2-0.3,0.3-0.4,0.5c-0.1,0.1-0.3,0.3-0.5,0.4c-0.2,0.1-0.4,0.2-0.6,0.2s-0.5,0.1-0.8,0.1c-0.2,0-0.4,0-0.7-0.1
					s-0.5-0.2-0.7-0.4s-0.4-0.4-0.6-0.8c-0.2-0.3-0.2-0.8-0.2-1.3c0-0.6,0.1-1.1,0.3-1.5s0.5-0.7,0.9-1c0.4-0.2,0.9-0.4,1.4-0.5
					s1.1-0.2,1.8-0.2V115c0-0.2,0-0.3,0-0.4s-0.1-0.3-0.1-0.3c0.1-0.2,0-0.3-0.2-0.3c-0.1-0.1-0.3-0.1-0.5-0.1s-0.4,0-0.5,0.1
					c-0.1,0.1-0.2,0.1-0.3,0.2s-0.1,0.2-0.2,0.3c0,0.1-0.1,0.2-0.1,0.3v0.2h-2c0,0,0-0.1,0-0.2v-0.2c0-0.4,0.1-0.7,0.2-1
					c0.1-0.3,0.3-0.6,0.6-0.8c0.3-0.2,0.6-0.4,1-0.5C-530.3,112.3-529.9,112.2-529.4,112.2z M-528.4,117.4c-0.3,0-0.6,0-0.9,0.1
					c-0.3,0-0.5,0.1-0.7,0.2s-0.4,0.3-0.5,0.4c-0.1,0.2-0.2,0.4-0.2,0.7c0,0.3,0.1,0.6,0.2,0.7c0.2,0.2,0.4,0.3,0.8,0.3
					c0.2,0,0.5-0.1,0.6-0.2c0.1-0.1,0.3-0.2,0.4-0.4s0.2-0.4,0.2-0.6c0.1-0.2,0.1-0.5,0.1-0.8V117.4z"/>
				<path class="st15" d="M-520.8,112.2c0.1,0,0.2,0,0.3,0c0.1,0,0.2,0,0.3,0s0.2,0,0.2,0.1v2h-0.7c-0.2,0-0.4,0-0.6,0.1
					c-0.2,0.1-0.4,0.2-0.5,0.3c-0.1,0.1-0.3,0.4-0.4,0.6c-0.1,0.2-0.1,0.6-0.1,1v5h-2v-9h1.6l0.2,1.3h0.1c0.1-0.2,0.1-0.4,0.2-0.6
					c0.1-0.2,0.2-0.3,0.3-0.5c0.1-0.2,0.3-0.3,0.4-0.3C-521.2,112.3-521,112.2-520.8,112.2z"/>
				<path class="st15" d="M-511,112.2c0.4,0,0.8,0.1,1.2,0.3c0.4,0.2,0.7,0.5,0.9,0.9c0.2,0.4,0.4,0.9,0.6,1.5
					c0.1,0.6,0.2,1.3,0.2,2.1c0,0.8-0.1,1.5-0.2,2.1s-0.3,1.1-0.6,1.5c-0.2,0.4-0.5,0.7-0.9,0.8c-0.3,0.2-0.7,0.3-1.1,0.3
					c-0.5,0-0.9-0.1-1.2-0.3c-0.4-0.2-0.6-0.5-0.8-0.8h-0.1v3.9h-2v-12.1h1.7l0.2,1.1h0.1c0.2-0.4,0.5-0.8,0.9-1
					C-511.8,112.3-511.5,112.2-511,112.2z M-511.6,114.1c-0.5,0-0.8,0.2-1.1,0.6c-0.2,0.4-0.3,1.1-0.3,1.9v0.6
					c0,0.8,0.1,1.4,0.3,1.9c0.2,0.4,0.6,0.7,1.1,0.7c0.5,0,0.8-0.2,1.1-0.6c0.2-0.4,0.3-1.1,0.3-1.9v-0.6c0-0.8-0.1-1.4-0.3-1.9
					C-510.8,114.3-511.1,114.1-511.6,114.1z"/>
				<path class="st15" d="M-503.5,112.2c1.1,0,1.9,0.4,2.4,1.1c0.5,0.8,0.8,1.9,0.8,3.6v0.5h-4.6c0,0.4,0,0.8,0.1,1.1
					c0.1,0.3,0.1,0.6,0.2,0.8c0.1,0.2,0.2,0.4,0.4,0.5s0.4,0.2,0.6,0.2c0.3,0,0.6-0.1,0.8-0.4c0.2-0.3,0.3-0.7,0.3-1.3h2
					c0,0.6-0.1,1.1-0.2,1.5c-0.2,0.4-0.4,0.8-0.7,1.1c-0.3,0.3-0.6,0.5-1,0.6c-0.4,0.1-0.8,0.2-1.3,0.2c-1.1,0-2-0.4-2.6-1.1
					c-0.6-0.7-0.9-1.9-0.9-3.6c0-1.6,0.3-2.8,0.9-3.6C-505.4,112.6-504.6,112.2-503.5,112.2z M-503.5,113.9c-0.4,0-0.7,0.2-0.9,0.5
					c-0.2,0.3-0.3,0.9-0.3,1.5h2.4c0-0.7-0.1-1.2-0.3-1.5C-502.8,114.1-503.1,113.9-503.5,113.9z"/>
				<path class="st15" d="M-495.1,112.2c0.1,0,0.2,0,0.3,0s0.2,0,0.3,0c0.1,0,0.2,0,0.2,0.1v2h-0.7c-0.2,0-0.4,0-0.6,0.1
					c-0.2,0.1-0.4,0.2-0.5,0.3s-0.3,0.4-0.4,0.6c-0.1,0.2-0.1,0.6-0.1,1v5h-2v-9h1.7l0.2,1.3h0.1c0.1-0.2,0.1-0.4,0.2-0.6
					c0.1-0.2,0.2-0.3,0.3-0.5c0.1-0.2,0.3-0.3,0.4-0.3C-495.6,112.3-495.4,112.2-495.1,112.2z"/>
				<path class="st15" d="M-491.1,108.9c0.1,0,0.2,0,0.4,0c0.1,0,0.3,0,0.4,0s0.3,0,0.4,0.1c0.1,0,0.2,0,0.3,0.1v1.5h-0.8
					c-0.5,0-0.7,0.2-0.7,0.7v1h1.5v1.7h-1.5v7.2h-2V114h-0.9v-1.7h0.9v-1c0-0.3,0-0.6,0.1-0.9c0.1-0.3,0.2-0.5,0.3-0.8
					c0.2-0.2,0.4-0.4,0.6-0.5C-491.8,109-491.5,108.9-491.1,108.9z"/>
				<path class="st15" d="M-486.6,110.9h-2v-1.8h2V110.9z M-486.6,121.4h-2v-9h2V121.4z"/>
				<path class="st15" d="M-482.7,121.4h-2v-12.3h2V121.4z"/>
			</g>
		</g>
		<g>
			<path class="st14" d="M-419.5,121.4v-11.7h7.5v1.9h-5.3v2.8h4.5v1.9h-4.5v3.1h5.4v1.9L-419.5,121.4L-419.5,121.4z"/>
			<path class="st14" d="M-403.6,121.4h-1.7l-0.2-1.1h-0.1c-0.2,0.4-0.5,0.8-0.9,1c-0.4,0.2-0.7,0.3-1.2,0.3c-0.4,0-0.8-0.1-1.2-0.3
				s-0.7-0.5-0.9-0.9c-0.2-0.4-0.4-0.9-0.6-1.5c-0.1-0.6-0.2-1.3-0.2-2.1c0-0.8,0.1-1.5,0.2-2.1s0.3-1.1,0.6-1.5
				c0.2-0.4,0.5-0.7,0.9-0.8c0.3-0.2,0.7-0.3,1.1-0.3c0.4,0,0.9,0.1,1.2,0.3c0.4,0.2,0.6,0.5,0.8,0.8h0.1v-4.1h2L-403.6,121.4
				L-403.6,121.4z M-407,114.1c-0.5,0-0.8,0.2-1.1,0.6c-0.2,0.4-0.3,1.1-0.3,1.9v0.6c0,0.8,0.1,1.4,0.3,1.9c0.2,0.4,0.6,0.6,1.1,0.6
				s0.8-0.2,1.1-0.6c0.2-0.4,0.3-1.1,0.3-1.9v-0.6c0-0.4,0-0.8-0.1-1.1c-0.1-0.3-0.1-0.6-0.2-0.8s-0.2-0.4-0.4-0.5
				C-406.6,114.1-406.8,114.1-407,114.1z"/>
			<path class="st14" d="M-399.7,110.9h-2v-1.8h2V110.9z M-399.7,121.4h-2v-9h2V121.4z"/>
			<path class="st14" d="M-395.7,112.4h1.3v1.7h-1.3v5c0,0.5,0.2,0.7,0.7,0.7h0.6v1.5c-0.1,0-0.2,0.1-0.3,0.1s-0.2,0-0.3,0.1
				c-0.1,0-0.2,0-0.3,0s-0.2,0-0.3,0c-0.4,0-0.8-0.1-1-0.2c-0.3-0.1-0.5-0.3-0.6-0.5c-0.2-0.2-0.3-0.5-0.3-0.8
				c-0.1-0.3-0.1-0.6-0.1-0.9v-5h-1.1v-1.7h0.9l0.3-2.5h1.7v2.5H-395.7z"/>
			<path class="st14" d="M-390.5,112.2c1,0,1.8,0.2,2.3,0.7s0.8,1.1,0.8,2v4.4c0,0.2,0,0.4,0.1,0.5s0.2,0.1,0.3,0.1h0.4v1.4
				c-0.1,0.1-0.3,0.1-0.5,0.2c-0.2,0.1-0.4,0.1-0.8,0.1c-0.4,0-0.8-0.1-1-0.3c-0.3-0.2-0.5-0.5-0.6-0.9h-0.1
				c-0.1,0.2-0.3,0.3-0.4,0.5c-0.1,0.1-0.3,0.3-0.5,0.4c-0.2,0.1-0.4,0.2-0.6,0.2s-0.5,0.1-0.8,0.1c-0.2,0-0.4,0-0.7-0.1
				c-0.3-0.1-0.5-0.2-0.7-0.4c-0.2-0.2-0.4-0.4-0.6-0.8c-0.2-0.3-0.2-0.8-0.2-1.3c0-0.6,0.1-1.1,0.3-1.5c0.2-0.4,0.5-0.7,0.9-1
				c0.4-0.2,0.9-0.4,1.4-0.5s1.1-0.2,1.8-0.2V115c0-0.2,0-0.3,0-0.4s-0.1-0.3-0.1-0.3c-0.1-0.1-0.2-0.2-0.3-0.2
				c-0.1-0.1-0.3-0.1-0.5-0.1c-0.2,0-0.4,0-0.5,0.1s-0.2,0.1-0.3,0.2c-0.1,0.1-0.1,0.2-0.2,0.3c0,0.1-0.1,0.2-0.1,0.3v0.2h-2
				c0,0,0-0.1,0-0.2v-0.2c0-0.4,0.1-0.7,0.2-1c0.1-0.3,0.3-0.6,0.6-0.8c0.3-0.2,0.6-0.4,1-0.5C-391.3,112.3-390.9,112.2-390.5,112.2
				z M-389.5,117.4c-0.3,0-0.6,0-0.9,0.1c-0.3,0-0.5,0.1-0.7,0.2c-0.2,0.1-0.4,0.3-0.5,0.4c-0.1,0.2-0.2,0.4-0.2,0.7
				c0,0.3,0.1,0.6,0.2,0.7c0.2,0.2,0.4,0.3,0.8,0.3c0.2,0,0.5-0.1,0.6-0.2s0.3-0.2,0.4-0.4c0.1-0.2,0.2-0.4,0.2-0.6
				c0.1-0.2,0.1-0.5,0.1-0.8L-389.5,117.4L-389.5,117.4z"/>
			<path class="st14" d="M-381.8,112.2c0.1,0,0.2,0,0.3,0s0.2,0,0.3,0s0.2,0,0.2,0.1v2h-0.7c-0.2,0-0.4,0-0.6,0.1
				c-0.2,0.1-0.4,0.2-0.5,0.3s-0.3,0.4-0.4,0.6c-0.1,0.2-0.1,0.6-0.1,1v5h-2v-9h1.7l0.2,1.3h0.1c0.1-0.2,0.1-0.4,0.2-0.6
				c0.1-0.2,0.2-0.3,0.3-0.5c0.1-0.2,0.3-0.3,0.4-0.3C-382.3,112.3-382.1,112.2-381.8,112.2z"/>
			<path class="st14" d="M-372.1,112.2c0.4,0,0.8,0.1,1.2,0.3c0.4,0.2,0.7,0.5,0.9,0.9c0.2,0.4,0.4,0.9,0.6,1.5
				c0.1,0.6,0.2,1.3,0.2,2.1c0,0.8-0.1,1.5-0.2,2.1s-0.3,1.1-0.6,1.5c-0.2,0.4-0.5,0.7-0.9,0.8c-0.3,0.2-0.7,0.3-1.1,0.3
				c-0.5,0-0.9-0.1-1.2-0.3c-0.4-0.2-0.6-0.5-0.8-0.8h-0.1v3.9h-2v-12.1h1.7l0.2,1.1h0.1c0.2-0.4,0.5-0.8,0.9-1
				C-372.9,112.3-372.5,112.2-372.1,112.2z M-372.7,114.1c-0.5,0-0.8,0.2-1.1,0.6c-0.2,0.4-0.3,1.1-0.3,1.9v0.6
				c0,0.8,0.1,1.4,0.3,1.9c0.2,0.4,0.6,0.7,1.1,0.7s0.8-0.2,1.1-0.6c0.2-0.4,0.3-1.1,0.3-1.9v-0.6c0-0.8-0.1-1.4-0.3-1.9
				C-371.9,114.3-372.2,114.1-372.7,114.1z"/>
			<path class="st14" d="M-364.5,112.2c1.1,0,1.9,0.4,2.4,1.1c0.5,0.8,0.8,1.9,0.8,3.6v0.5h-4.6c0,0.4,0,0.8,0.1,1.1
				c0.1,0.3,0.1,0.6,0.2,0.8c0.1,0.2,0.2,0.4,0.4,0.5c0.2,0.1,0.4,0.2,0.6,0.2c0.3,0,0.6-0.1,0.8-0.4c0.2-0.3,0.3-0.7,0.3-1.3h2
				c0,0.6-0.1,1.1-0.2,1.5c-0.2,0.4-0.4,0.8-0.7,1.1c-0.3,0.3-0.6,0.5-1,0.6s-0.8,0.2-1.3,0.2c-1.1,0-2-0.4-2.6-1.1
				c-0.6-0.7-0.9-1.9-0.9-3.6c0-1.6,0.3-2.8,0.9-3.6C-366.5,112.6-365.6,112.2-364.5,112.2z M-364.5,113.9c-0.4,0-0.7,0.2-0.9,0.5
				c-0.2,0.3-0.3,0.9-0.3,1.5h2.4c0-0.7-0.1-1.2-0.3-1.5C-363.8,114.1-364.2,113.9-364.5,113.9z"/>
			<path class="st14" d="M-356.2,112.2c0.1,0,0.2,0,0.3,0s0.2,0,0.3,0s0.2,0,0.2,0.1v2h-0.7c-0.2,0-0.4,0-0.6,0.1
				c-0.2,0.1-0.4,0.2-0.5,0.3s-0.3,0.4-0.4,0.6c-0.1,0.2-0.1,0.6-0.1,1v5h-2v-9h1.7l0.2,1.3h0.1c0.1-0.2,0.1-0.4,0.2-0.6
				c0.1-0.2,0.2-0.3,0.3-0.5c0.1-0.2,0.3-0.3,0.4-0.3C-356.6,112.3-356.4,112.2-356.2,112.2z"/>
			<path class="st14" d="M-352.1,108.9c0.1,0,0.2,0,0.4,0c0.1,0,0.3,0,0.4,0s0.3,0,0.4,0.1c0.1,0,0.2,0,0.3,0.1v1.5h-0.8
				c-0.5,0-0.7,0.2-0.7,0.7v1h1.5v1.7h-1.5v7.2h-2V114h-0.9v-1.7h0.9v-1c0-0.3,0-0.6,0.1-0.9c0.1-0.3,0.2-0.5,0.3-0.8
				c0.2-0.2,0.4-0.4,0.6-0.5S-352.5,108.9-352.1,108.9z"/>
			<path class="st14" d="M-347.7,110.9h-2v-1.8h2V110.9z M-347.7,121.4h-2v-9h2V121.4z"/>
			<path class="st14" d="M-343.8,121.4h-2v-12.3h2V121.4z"/>
		</g>
		<path class="st16" d="M-458.7,102.9h140.4c7.4,0,13.5,6.1,13.5,13.5l0,0c0,7.4-6.1,13.5-13.5,13.5h-140.4l13.4-13.5L-458.7,102.9z
			"/>
	</g>
	<g>
		<path class="st14" d="M-469.8,129.9h-127.4c-7.4,0-13.5-6-13.5-13.5l0,0c0-7.4,6.1-13.5,13.5-13.5h127.4l13.5,13.5L-469.8,129.9z"
			/>
		<g>
			<g>
				<path class="st15" d="M-588.1,109.5c0.6,0,1.2,0.1,1.7,0.3c0.5,0.2,1,0.5,1.4,0.8c0.4,0.4,0.7,0.8,0.9,1.4
					c0.2,0.6,0.3,1.3,0.3,2.1h-2.2c0-0.5-0.1-0.8-0.1-1.2c-0.1-0.3-0.2-0.6-0.4-0.8s-0.4-0.4-0.7-0.5s-0.5-0.2-0.8-0.2
					c-0.4,0-0.8,0.1-1.1,0.3c-0.3,0.2-0.6,0.4-0.8,0.7c-0.2,0.3-0.3,0.7-0.4,1.2c-0.1,0.5-0.1,1-0.1,1.6v0.8c0,0.6,0,1.1,0.1,1.6
					c0.1,0.5,0.3,0.9,0.5,1.2c0.2,0.3,0.5,0.6,0.8,0.7c0.3,0.2,0.7,0.3,1.1,0.3c0.3,0,0.6-0.1,0.9-0.2s0.5-0.3,0.7-0.5
					c0.2-0.2,0.3-0.5,0.4-0.8c0.1-0.3,0.1-0.7,0.1-1.2h2.1c0,0.8-0.1,1.4-0.3,2s-0.5,1-0.9,1.4c-0.4,0.4-0.8,0.7-1.4,0.8
					c-0.5,0.2-1.1,0.3-1.7,0.3c-0.7,0-1.4-0.1-2-0.4c-0.6-0.2-1.1-0.6-1.5-1.1c-0.4-0.5-0.7-1.1-0.9-1.9c-0.2-0.8-0.3-1.7-0.3-2.7
					s0.1-1.9,0.3-2.7c0.2-0.8,0.5-1.4,0.9-1.9c0.4-0.5,0.9-0.9,1.5-1.1C-589.4,109.6-588.8,109.5-588.1,109.5z"/>
				<path class="st15" d="M-578.9,112.2c1.2,0,2.1,0.4,2.7,1.1c0.6,0.7,0.9,1.9,0.9,3.6c0,1.6-0.3,2.8-0.9,3.6
					c-0.6,0.8-1.5,1.1-2.7,1.1s-2.1-0.4-2.7-1.1c-0.6-0.7-0.9-1.9-0.9-3.6c0-1.6,0.3-2.8,0.9-3.6
					C-581,112.5-580.1,112.2-578.9,112.2z M-578.9,113.9c-0.5,0-0.9,0.2-1.1,0.7s-0.3,1.1-0.3,2v0.6c0,0.9,0.1,1.5,0.3,2
					s0.6,0.7,1.1,0.7s0.9-0.2,1.1-0.7c0.2-0.5,0.3-1.1,0.3-2v-0.6c0-0.9-0.1-1.5-0.3-2C-578,114.1-578.4,113.9-578.9,113.9z"/>
				<path class="st15" d="M-569.4,112.2c0.3,0,0.7,0.1,1,0.2c0.3,0.1,0.5,0.3,0.8,0.5c0.2,0.2,0.4,0.5,0.5,0.9
					c0.1,0.4,0.2,0.8,0.2,1.3v6.3h-2v-5.7c0-0.6-0.1-1-0.3-1.2c-0.2-0.2-0.5-0.4-0.9-0.4c-0.2,0-0.4,0-0.6,0.1s-0.3,0.2-0.4,0.4
					c-0.1,0.2-0.2,0.4-0.3,0.6c-0.1,0.2-0.1,0.4-0.1,0.7v5.5h-2v-9h1.7l0.2,1.1h-0.1c0.1-0.2,0.3-0.3,0.4-0.5
					c0.1-0.2,0.3-0.3,0.5-0.4c0.2-0.1,0.4-0.2,0.6-0.3C-570,112.2-569.7,112.2-569.4,112.2z"/>
				<path class="st15" d="M-562.2,112.2c0.4,0,0.8,0.1,1.2,0.2c0.4,0.1,0.7,0.3,1,0.5c0.3,0.2,0.5,0.5,0.6,0.8
					c0.2,0.3,0.2,0.6,0.2,1c0,0.1,0,0.2,0,0.3c0,0.1,0,0.1,0,0.1h-2.1c0-0.4-0.1-0.7-0.3-0.9c-0.2-0.2-0.4-0.3-0.7-0.3
					c-0.3,0-0.6,0.1-0.8,0.2c-0.2,0.1-0.3,0.4-0.3,0.6c0,0.2,0.1,0.4,0.2,0.5s0.3,0.2,0.5,0.3s0.4,0.2,0.7,0.2
					c0.3,0.1,0.5,0.1,0.8,0.2c0.3,0.1,0.5,0.2,0.8,0.3s0.5,0.3,0.7,0.5c0.2,0.2,0.4,0.4,0.5,0.7c0.1,0.3,0.2,0.7,0.2,1.1
					c0,0.5-0.1,1-0.3,1.4c-0.2,0.4-0.4,0.7-0.7,0.9s-0.6,0.4-1.1,0.5c-0.4,0.1-0.9,0.1-1.3,0.1c-0.5,0-1-0.1-1.4-0.2
					c-0.4-0.1-0.7-0.3-1-0.6c-0.3-0.3-0.5-0.5-0.6-0.9c-0.1-0.3-0.2-0.7-0.2-1.2v-0.1v-0.1c0,0,0,0,0-0.1h2.1v0.1
					c0,0.2,0,0.4,0.1,0.6c0.1,0.2,0.2,0.3,0.3,0.4c0.1,0.1,0.2,0.2,0.4,0.2c0.1,0,0.3,0.1,0.4,0.1c0.1,0,0.3,0,0.4,0
					c0.1,0,0.3-0.1,0.4-0.2c0.1-0.1,0.2-0.2,0.3-0.3s0.1-0.3,0.1-0.5c0-0.2-0.1-0.4-0.2-0.6c-0.1-0.1-0.3-0.3-0.5-0.4
					c-0.2-0.1-0.4-0.2-0.7-0.3s-0.5-0.1-0.8-0.2c-0.3-0.1-0.5-0.2-0.8-0.3c-0.3-0.1-0.5-0.3-0.7-0.5c-0.2-0.2-0.4-0.4-0.5-0.7
					c-0.1-0.3-0.2-0.7-0.2-1.1c0-0.5,0.1-0.9,0.3-1.2s0.4-0.6,0.7-0.9c0.3-0.2,0.6-0.4,1-0.5C-563.1,112.3-562.7,112.2-562.2,112.2z
					"/>
				<path class="st15" d="M-550.7,121.4h-1.7l-0.2-1.1h-0.1c-0.1,0.2-0.3,0.3-0.4,0.5c-0.1,0.2-0.3,0.3-0.5,0.4
					c-0.2,0.1-0.4,0.2-0.6,0.3s-0.5,0.1-0.7,0.1c-0.3,0-0.7-0.1-1-0.2s-0.5-0.3-0.8-0.5c-0.3-0.2-0.4-0.5-0.5-0.9
					c-0.1-0.4-0.2-0.8-0.2-1.3v-6.3h2v5.7c0,0.6,0.1,1,0.3,1.2c0.2,0.2,0.5,0.4,0.9,0.4c0.2,0,0.4,0,0.6-0.1
					c0.2-0.1,0.3-0.2,0.4-0.4c0.1-0.2,0.2-0.3,0.3-0.6c0.1-0.2,0.1-0.5,0.1-0.7v-5.6h2L-550.7,121.4L-550.7,121.4z"/>
				<path class="st15" d="M-546.8,121.4h-2v-12.3h2V121.4z"/>
				<path class="st15" d="M-542.8,112.4h1.3v1.7h-1.3v5c0,0.5,0.2,0.7,0.7,0.7h0.6v1.5c-0.1,0-0.2,0.1-0.3,0.1c-0.1,0-0.2,0-0.3,0.1
					c-0.1,0-0.2,0-0.3,0s-0.2,0-0.3,0c-0.4,0-0.8-0.1-1-0.2c-0.3-0.1-0.5-0.3-0.6-0.5c-0.2-0.2-0.3-0.5-0.3-0.8
					c-0.1-0.3-0.1-0.6-0.1-0.9v-5h-0.9v-1.7h0.9l0.3-2.5h1.7L-542.8,112.4L-542.8,112.4z"/>
				<path class="st15" d="M-537.6,112.2c1,0,1.8,0.2,2.3,0.7s0.8,1.1,0.8,2v4.4c0,0.2,0,0.4,0.1,0.5c0.1,0.1,0.2,0.1,0.3,0.1h0.4
					v1.4c-0.1,0.1-0.3,0.1-0.5,0.2c-0.2,0.1-0.4,0.1-0.8,0.1c-0.4,0-0.8-0.1-1-0.3c-0.3-0.2-0.5-0.5-0.6-0.9h-0.1
					c-0.1,0.2-0.3,0.3-0.4,0.5c-0.1,0.1-0.3,0.3-0.5,0.4c-0.2,0.1-0.4,0.2-0.6,0.2s-0.5,0.1-0.8,0.1c-0.2,0-0.4,0-0.7-0.1
					s-0.5-0.2-0.7-0.4c-0.2-0.2-0.4-0.4-0.6-0.8c-0.2-0.3-0.2-0.8-0.2-1.3c0-0.6,0.1-1.1,0.3-1.5c0.2-0.4,0.5-0.7,0.9-1
					c0.4-0.2,0.9-0.4,1.4-0.5s1.1-0.2,1.8-0.2V115c0-0.2,0-0.3,0-0.4s-0.1-0.3-0.1-0.3c-0.1-0.1-0.2-0.2-0.3-0.2
					c-0.1-0.1-0.3-0.1-0.5-0.1c-0.2,0-0.4,0-0.5,0.1c-0.1,0.1-0.2,0.1-0.3,0.2c-0.1,0.1-0.1,0.2-0.2,0.3c0,0.1-0.1,0.2-0.1,0.3v0.2
					h-2c0,0,0-0.1,0-0.2v-0.2c0-0.4,0.1-0.7,0.2-1c0.1-0.3,0.3-0.6,0.6-0.8c0.3-0.2,0.6-0.4,1-0.5
					C-538.4,112.3-538,112.2-537.6,112.2z M-536.6,117.4c-0.3,0-0.6,0-0.9,0.1c-0.3,0-0.5,0.1-0.7,0.2s-0.4,0.3-0.5,0.4
					c-0.1,0.2-0.2,0.4-0.2,0.7c0,0.3,0.1,0.6,0.2,0.7c0.2,0.2,0.4,0.3,0.8,0.3c0.2,0,0.5-0.1,0.6-0.2c0.1-0.1,0.3-0.2,0.4-0.4
					c0.1-0.2,0.2-0.4,0.2-0.6c0.1-0.2,0.1-0.5,0.1-0.8V117.4z"/>
				<path class="st15" d="M-528.9,112.2c0.1,0,0.2,0,0.3,0c0.1,0,0.2,0,0.3,0c0.1,0,0.2,0,0.2,0.1v2h-0.7c-0.2,0-0.4,0-0.6,0.1
					c-0.2,0.1-0.4,0.2-0.5,0.3c-0.1,0.1-0.3,0.4-0.4,0.6c-0.1,0.2-0.1,0.6-0.1,1v5h-2v-9h1.7l0.2,1.3h0.1c0.1-0.2,0.1-0.4,0.2-0.6
					c0.1-0.2,0.2-0.3,0.3-0.5c0.1-0.2,0.3-0.3,0.4-0.3C-529.4,112.3-529.2,112.2-528.9,112.2z"/>
				<path class="st15" d="M-516.5,121.4h-1.7l-0.2-1.1h-0.1c-0.1,0.2-0.2,0.3-0.4,0.5c-0.1,0.2-0.3,0.3-0.5,0.4s-0.4,0.2-0.6,0.3
					s-0.5,0.1-0.7,0.1c-0.3,0-0.7-0.1-1-0.2s-0.5-0.3-0.8-0.5c-0.3-0.2-0.4-0.5-0.5-0.9c-0.1-0.4-0.2-0.8-0.2-1.3v-6.3h2v5.7
					c0,0.6,0.1,1,0.3,1.2c0.2,0.2,0.5,0.4,0.9,0.4c0.2,0,0.4,0,0.6-0.1c0.2-0.1,0.3-0.2,0.4-0.4s0.2-0.3,0.3-0.6
					c0.1-0.2,0.1-0.5,0.1-0.7v-5.6h2L-516.5,121.4L-516.5,121.4z"/>
				<path class="st15" d="M-511.7,112.2c0.4,0,0.8,0.1,1.2,0.2c0.4,0.1,0.7,0.3,1,0.5c0.3,0.2,0.5,0.5,0.6,0.8
					c0.2,0.3,0.2,0.6,0.2,1c0,0.1,0,0.2,0,0.3c0,0.1,0,0.1,0,0.1h-2.1c0-0.4-0.1-0.7-0.3-0.9c-0.2-0.2-0.4-0.3-0.7-0.3
					c-0.3,0-0.6,0.1-0.8,0.2s-0.3,0.4-0.3,0.6c0,0.2,0.1,0.4,0.2,0.5c0.1,0.1,0.3,0.2,0.5,0.3c0.2,0.1,0.4,0.2,0.7,0.2
					c0.3,0.1,0.5,0.1,0.8,0.2c0.3,0.1,0.5,0.2,0.8,0.3c0.3,0.1,0.5,0.3,0.7,0.5c0.2,0.2,0.4,0.4,0.5,0.7c0.1,0.3,0.2,0.7,0.2,1.1
					c0,0.5-0.1,1-0.3,1.4c-0.2,0.4-0.4,0.7-0.7,0.9s-0.6,0.4-1.1,0.5c-0.4,0.1-0.9,0.1-1.3,0.1c-0.5,0-1-0.1-1.4-0.2
					c-0.4-0.1-0.7-0.3-1-0.6c-0.3-0.3-0.5-0.5-0.6-0.9c-0.1-0.3-0.2-0.7-0.2-1.2v-0.1v-0.1c0,0,0,0,0-0.1h2.1v0.1
					c0,0.2,0,0.4,0.1,0.6c0.1,0.2,0.2,0.3,0.3,0.4s0.2,0.2,0.4,0.2c0.1,0,0.3,0.1,0.4,0.1c0.1,0,0.3,0,0.4,0s0.3-0.1,0.4-0.2
					s0.2-0.2,0.3-0.3s0.1-0.3,0.1-0.5c0-0.2-0.1-0.4-0.2-0.6c-0.1-0.1-0.3-0.3-0.5-0.4c-0.2-0.1-0.4-0.2-0.7-0.3
					c-0.3-0.1-0.5-0.1-0.8-0.2c-0.3-0.1-0.5-0.2-0.8-0.3s-0.5-0.3-0.7-0.5c-0.2-0.2-0.4-0.4-0.5-0.7c-0.1-0.3-0.2-0.7-0.2-1.1
					c0-0.5,0.1-0.9,0.3-1.2s0.4-0.6,0.7-0.9c0.3-0.2,0.6-0.4,1-0.5C-512.6,112.3-512.2,112.2-511.7,112.2z"/>
				<path class="st15" d="M-500.2,121.4h-1.7l-0.2-1.1h-0.1c-0.1,0.2-0.2,0.3-0.4,0.5c-0.1,0.2-0.3,0.3-0.5,0.4
					c-0.2,0.1-0.4,0.2-0.6,0.3c-0.2,0.1-0.5,0.1-0.7,0.1c-0.3,0-0.7-0.1-1-0.2c-0.3-0.1-0.5-0.3-0.8-0.5c-0.3-0.2-0.4-0.5-0.5-0.9
					c-0.1-0.4-0.2-0.8-0.2-1.3v-6.3h2v5.7c0,0.6,0.1,1,0.3,1.2c0.2,0.2,0.5,0.4,0.9,0.4c0.2,0,0.4,0,0.6-0.1
					c0.2-0.1,0.3-0.2,0.4-0.4c0.1-0.2,0.2-0.3,0.3-0.6c0.1-0.2,0.1-0.5,0.1-0.7v-5.6h2L-500.2,121.4L-500.2,121.4z"/>
				<path class="st15" d="M-495.6,112.2c1,0,1.8,0.2,2.3,0.7s0.8,1.1,0.8,2v4.4c0,0.2,0,0.4,0.1,0.5c0.1,0.1,0.2,0.1,0.3,0.1h0.4
					v1.4c-0.1,0.1-0.3,0.1-0.5,0.2c-0.2,0.1-0.4,0.1-0.8,0.1c-0.4,0-0.8-0.1-1-0.3c-0.3-0.2-0.5-0.5-0.6-0.9h-0.1
					c-0.1,0.2-0.3,0.3-0.4,0.5c-0.1,0.1-0.3,0.3-0.5,0.4c-0.2,0.1-0.4,0.2-0.6,0.2c-0.2,0-0.5,0.1-0.8,0.1c-0.2,0-0.4,0-0.7-0.1
					s-0.5-0.2-0.7-0.4c-0.2-0.2-0.4-0.4-0.6-0.8c-0.2-0.3-0.2-0.8-0.2-1.3c0-0.6,0.1-1.1,0.3-1.5s0.5-0.7,0.9-1
					c0.4-0.2,0.9-0.4,1.4-0.5s1.1-0.2,1.8-0.2V115c0-0.2,0-0.3,0-0.4s-0.1-0.3-0.1-0.3c-0.1-0.1-0.2-0.2-0.3-0.2
					c-0.1-0.1-0.3-0.1-0.5-0.1c-0.2,0-0.4,0-0.5,0.1c-0.1,0.1-0.2,0.1-0.3,0.2c-0.1,0.1-0.1,0.2-0.2,0.3c0,0.1-0.1,0.2-0.1,0.3v0.2
					h-2c0,0,0-0.1,0-0.2v-0.2c0-0.4,0.1-0.7,0.2-1c0.1-0.3,0.3-0.6,0.6-0.8c0.3-0.2,0.6-0.4,1-0.5
					C-496.5,112.3-496.1,112.2-495.6,112.2z M-494.6,117.4c-0.3,0-0.6,0-0.9,0.1c-0.3,0-0.5,0.1-0.7,0.2c-0.2,0.1-0.4,0.3-0.5,0.4
					c-0.1,0.2-0.2,0.4-0.2,0.7c0,0.3,0.1,0.6,0.2,0.7c0.2,0.2,0.4,0.3,0.8,0.3c0.2,0,0.5-0.1,0.6-0.2s0.3-0.2,0.4-0.4
					c0.1-0.2,0.2-0.4,0.2-0.6c0.1-0.2,0.1-0.5,0.1-0.8V117.4z"/>
				<path class="st15" d="M-487,112.2c0.1,0,0.2,0,0.3,0s0.2,0,0.3,0s0.2,0,0.2,0.1v2h-0.7c-0.2,0-0.4,0-0.6,0.1
					c-0.2,0.1-0.4,0.2-0.5,0.3c-0.1,0.1-0.3,0.4-0.4,0.6c-0.1,0.2-0.1,0.6-0.1,1v5h-2v-9h1.7l0.2,1.3h0.1c0.1-0.2,0.1-0.4,0.2-0.6
					c0.1-0.2,0.2-0.3,0.3-0.5c0.1-0.2,0.3-0.3,0.4-0.3C-487.4,112.3-487.2,112.2-487,112.2z"/>
				<path class="st15" d="M-483.1,110.9h-2v-1.8h2V110.9z M-483.1,121.4h-2v-9h2V121.4z"/>
				<path class="st15" d="M-477.9,112.2c1.2,0,2.1,0.4,2.7,1.1c0.6,0.7,0.9,1.9,0.9,3.6c0,1.6-0.3,2.8-0.9,3.6
					c-0.6,0.8-1.5,1.1-2.7,1.1c-1.2,0-2.1-0.4-2.7-1.1c-0.6-0.7-0.9-1.9-0.9-3.6c0-1.6,0.3-2.8,0.9-3.6
					C-480,112.5-479.1,112.2-477.9,112.2z M-477.9,113.9c-0.5,0-0.9,0.2-1.1,0.7c-0.2,0.5-0.3,1.1-0.3,2v0.6c0,0.9,0.1,1.5,0.3,2
					c0.2,0.5,0.6,0.7,1.1,0.7s0.9-0.2,1.1-0.7s0.3-1.1,0.3-2v-0.6c0-0.9-0.1-1.5-0.3-2C-477,114.2-477.4,113.9-477.9,113.9z"/>
			</g>
		</g>
		<g>
			<path class="st14" d="M-427.7,121.4v-11.7h7.5v1.9h-5.3v2.8h4.5v1.9h-4.5v3.1h5.4v1.9L-427.7,121.4L-427.7,121.4z"/>
			<path class="st14" d="M-411.8,121.4h-1.7l-0.2-1.1h-0.1c-0.2,0.4-0.5,0.8-0.9,1c-0.4,0.2-0.7,0.3-1.2,0.3c-0.4,0-0.8-0.1-1.2-0.3
				s-0.7-0.5-0.9-0.9c-0.2-0.4-0.4-0.9-0.6-1.5c-0.1-0.6-0.2-1.3-0.2-2.1c0-0.8,0.1-1.5,0.2-2.1s0.3-1.1,0.6-1.5
				c0.2-0.4,0.5-0.7,0.9-0.8c0.3-0.2,0.7-0.3,1.1-0.3c0.4,0,0.9,0.1,1.2,0.3c0.4,0.2,0.6,0.5,0.8,0.8h0.1v-4.1h2L-411.8,121.4
				L-411.8,121.4z M-415.2,114.1c-0.5,0-0.8,0.2-1.1,0.6c-0.2,0.4-0.3,1.1-0.3,1.9v0.6c0,0.8,0.1,1.4,0.3,1.9
				c0.2,0.4,0.6,0.6,1.1,0.6s0.8-0.2,1.1-0.6c0.2-0.4,0.3-1.1,0.3-1.9v-0.6c0-0.4,0-0.8-0.1-1.1c-0.1-0.3-0.1-0.6-0.2-0.8
				c-0.1-0.2-0.2-0.4-0.4-0.5C-414.7,114.1-415,114.1-415.2,114.1z"/>
			<path class="st14" d="M-407.9,110.9h-2v-1.8h2V110.9z M-407.9,121.4h-2v-9h2V121.4z"/>
			<path class="st14" d="M-403.9,112.4h1.3v1.7h-1.3v5c0,0.5,0.2,0.7,0.7,0.7h0.6v1.5c-0.1,0-0.2,0.1-0.3,0.1s-0.2,0-0.3,0.1
				c-0.1,0-0.2,0-0.3,0s-0.2,0-0.3,0c-0.4,0-0.8-0.1-1-0.2c-0.3-0.1-0.5-0.3-0.6-0.5c-0.2-0.2-0.3-0.5-0.3-0.8
				c-0.1-0.3-0.1-0.6-0.1-0.9v-5h-0.9v-1.7h0.9l0.3-2.5h1.7L-403.9,112.4L-403.9,112.4z"/>
			<path class="st14" d="M-398.6,112.2c1,0,1.8,0.2,2.3,0.7s0.8,1.1,0.8,2v4.4c0,0.2,0,0.4,0.1,0.5s0.2,0.1,0.3,0.1h0.4v1.4
				c-0.1,0.1-0.3,0.1-0.5,0.2c-0.2,0.1-0.4,0.1-0.8,0.1s-0.8-0.1-1-0.3c-0.3-0.2-0.5-0.5-0.6-0.9h-0.1c-0.1,0.2-0.3,0.3-0.4,0.5
				c-0.1,0.1-0.3,0.3-0.5,0.4c-0.2,0.1-0.4,0.2-0.6,0.2s-0.5,0.1-0.8,0.1c-0.2,0-0.4,0-0.7-0.1c-0.3-0.1-0.5-0.2-0.7-0.4
				c-0.2-0.2-0.4-0.4-0.6-0.8c-0.2-0.3-0.2-0.8-0.2-1.3c0-0.6,0.1-1.1,0.3-1.5c0.2-0.4,0.5-0.7,0.9-1c0.4-0.2,0.9-0.4,1.4-0.5
				s1.1-0.2,1.8-0.2V115c0-0.2,0-0.3,0-0.4s-0.1-0.3-0.1-0.3c-0.1-0.1-0.2-0.2-0.3-0.2c-0.1-0.1-0.3-0.1-0.5-0.1
				c-0.2,0-0.4,0-0.5,0.1s-0.2,0.1-0.3,0.2c-0.1,0.1-0.1,0.2-0.2,0.3c0,0.1-0.1,0.2-0.1,0.3v0.2h-2c0,0,0-0.1,0-0.2v-0.2
				c0-0.4,0.1-0.7,0.2-1c0.1-0.3,0.3-0.6,0.6-0.8c0.3-0.2,0.6-0.4,1-0.5C-399.5,112.3-399.1,112.2-398.6,112.2z M-397.6,117.4
				c-0.3,0-0.6,0-0.9,0.1c-0.3,0-0.5,0.1-0.7,0.2c-0.2,0.1-0.4,0.3-0.5,0.4c-0.1,0.2-0.2,0.4-0.2,0.7c0,0.3,0.1,0.6,0.2,0.7
				c0.2,0.2,0.4,0.3,0.8,0.3c0.2,0,0.5-0.1,0.6-0.2s0.3-0.2,0.4-0.4s0.2-0.4,0.2-0.6c0.1-0.2,0.1-0.5,0.1-0.8V117.4L-397.6,117.4z"
				/>
			<path class="st14" d="M-390,112.2c0.1,0,0.2,0,0.3,0s0.2,0,0.3,0s0.2,0,0.2,0.1v2h-0.7c-0.2,0-0.4,0-0.6,0.1
				c-0.2,0.1-0.4,0.2-0.5,0.3s-0.3,0.4-0.4,0.6c-0.1,0.2-0.1,0.6-0.1,1v5h-2v-9h1.7l0.2,1.3h0.1c0.1-0.2,0.1-0.4,0.2-0.6
				c0.1-0.2,0.2-0.3,0.3-0.5c0.1-0.2,0.3-0.3,0.4-0.3C-390.4,112.3-390.2,112.2-390,112.2z"/>
			<path class="st14" d="M-377.6,121.4h-1.7l-0.2-1.1h-0.1c-0.1,0.2-0.2,0.3-0.4,0.5c-0.1,0.2-0.3,0.3-0.5,0.4
				c-0.2,0.1-0.4,0.2-0.6,0.3s-0.5,0.1-0.7,0.1c-0.3,0-0.7-0.1-1-0.2c-0.3-0.1-0.5-0.3-0.8-0.5c-0.3-0.2-0.4-0.5-0.5-0.9
				c-0.1-0.4-0.2-0.8-0.2-1.3v-6.3h2v5.7c0,0.6,0.1,1,0.3,1.2c0.2,0.2,0.5,0.4,0.9,0.4c0.2,0,0.4,0,0.6-0.1c0.2-0.1,0.3-0.2,0.4-0.4
				c0.1-0.2,0.2-0.3,0.3-0.6c0.1-0.2,0.1-0.5,0.1-0.7v-5.6h2v9.1H-377.6z"/>
			<path class="st14" d="M-372.8,112.2c0.4,0,0.8,0.1,1.2,0.2c0.4,0.1,0.7,0.3,1,0.5c0.3,0.2,0.5,0.5,0.6,0.8c0.2,0.3,0.2,0.6,0.2,1
				c0,0.1,0,0.2,0,0.3c0,0.1,0,0.1,0,0.1h-2.1c0-0.4-0.1-0.7-0.3-0.9c-0.2-0.2-0.4-0.3-0.7-0.3c-0.3,0-0.6,0.1-0.8,0.2
				c-0.2,0.1-0.3,0.4-0.3,0.6c0,0.2,0.1,0.4,0.2,0.5c0.1,0.1,0.3,0.2,0.5,0.3c0.2,0.1,0.4,0.2,0.7,0.2c0.3,0.1,0.5,0.1,0.8,0.2
				c0.3,0.1,0.5,0.2,0.8,0.3c0.3,0.1,0.5,0.3,0.7,0.5c0.2,0.2,0.4,0.4,0.5,0.7c0.1,0.3,0.2,0.7,0.2,1.1c0,0.5-0.1,1-0.3,1.4
				c-0.2,0.4-0.4,0.7-0.7,0.9c-0.3,0.2-0.6,0.4-1.1,0.5c-0.4,0.1-0.9,0.1-1.3,0.1c-0.5,0-1-0.1-1.4-0.2s-0.7-0.3-1-0.6
				c-0.3-0.3-0.5-0.5-0.6-0.9c-0.1-0.3-0.2-0.7-0.2-1.2v-0.1v-0.1c0,0,0,0,0-0.1h2.1v0.1c0,0.2,0,0.4,0.1,0.6
				c0.1,0.2,0.2,0.3,0.3,0.4s0.2,0.2,0.4,0.2c0.1,0,0.3,0.1,0.4,0.1c0.1,0,0.3,0,0.4,0c0.1,0,0.3-0.1,0.4-0.2
				c0.1-0.1,0.2-0.2,0.3-0.3s0.1-0.3,0.1-0.5c0-0.2-0.1-0.4-0.2-0.6c-0.1-0.1-0.3-0.3-0.5-0.4c-0.2-0.1-0.4-0.2-0.7-0.3
				c-0.3-0.1-0.5-0.1-0.8-0.2c-0.3-0.1-0.5-0.2-0.8-0.3c-0.3-0.1-0.5-0.3-0.7-0.5c-0.2-0.2-0.4-0.4-0.5-0.7
				c-0.1-0.3-0.2-0.7-0.2-1.1c0-0.5,0.1-0.9,0.3-1.2c0.2-0.3,0.4-0.6,0.7-0.9c0.3-0.2,0.6-0.4,1-0.5
				C-373.6,112.3-373.2,112.2-372.8,112.2z"/>
			<path class="st14" d="M-361.3,121.4h-1.7l-0.2-1.1h-0.1c-0.1,0.2-0.2,0.3-0.4,0.5c-0.1,0.2-0.3,0.3-0.5,0.4
				c-0.2,0.1-0.4,0.2-0.6,0.3s-0.5,0.1-0.7,0.1c-0.3,0-0.7-0.1-1-0.2c-0.3-0.1-0.5-0.3-0.8-0.5c-0.3-0.2-0.4-0.5-0.5-0.9
				c-0.1-0.4-0.2-0.8-0.2-1.3v-6.3h2v5.7c0,0.6,0.1,1,0.3,1.2c0.2,0.2,0.5,0.4,0.9,0.4c0.2,0,0.4,0,0.6-0.1c0.2-0.1,0.3-0.2,0.4-0.4
				c0.1-0.2,0.2-0.3,0.3-0.6c0.1-0.2,0.1-0.5,0.1-0.7v-5.6h2v9.1H-361.3z"/>
			<path class="st14" d="M-356.7,112.2c1,0,1.8,0.2,2.3,0.7s0.8,1.1,0.8,2v4.4c0,0.2,0,0.4,0.1,0.5s0.2,0.1,0.3,0.1h0.4v1.4
				c-0.1,0.1-0.3,0.1-0.5,0.2c-0.2,0.1-0.4,0.1-0.8,0.1s-0.8-0.1-1-0.3c-0.3-0.2-0.5-0.5-0.6-0.9h-0.1c-0.1,0.2-0.3,0.3-0.4,0.5
				c-0.1,0.1-0.3,0.3-0.5,0.4c-0.2,0.1-0.4,0.2-0.6,0.2s-0.5,0.1-0.8,0.1c-0.2,0-0.4,0-0.7-0.1c-0.3-0.1-0.5-0.2-0.7-0.4
				c-0.2-0.2-0.4-0.4-0.6-0.8c-0.2-0.3-0.2-0.8-0.2-1.3c0-0.6,0.1-1.1,0.3-1.5c0.2-0.4,0.5-0.7,0.9-1c0.4-0.2,0.9-0.4,1.4-0.5
				s1.1-0.2,1.8-0.2V115c0-0.2,0-0.3,0-0.4s-0.1-0.3-0.1-0.3c-0.1-0.1-0.2-0.2-0.3-0.2c-0.1-0.1-0.3-0.1-0.5-0.1
				c-0.2,0-0.4,0-0.5,0.1s-0.2,0.1-0.3,0.2c-0.1,0.1-0.1,0.2-0.2,0.3c0,0.1-0.1,0.2-0.1,0.3v0.2h-2c0,0,0-0.1,0-0.2v-0.2
				c0-0.4,0.1-0.7,0.2-1c0.1-0.3,0.3-0.6,0.6-0.8c0.3-0.2,0.6-0.4,1-0.5C-357.5,112.3-357.1,112.2-356.7,112.2z M-355.7,117.4
				c-0.3,0-0.6,0-0.9,0.1c-0.3,0-0.5,0.1-0.7,0.2c-0.2,0.1-0.4,0.3-0.5,0.4c-0.1,0.2-0.2,0.4-0.2,0.7c0,0.3,0.1,0.6,0.2,0.7
				c0.2,0.2,0.4,0.3,0.8,0.3c0.2,0,0.5-0.1,0.6-0.2s0.3-0.2,0.4-0.4s0.2-0.4,0.2-0.6c0.1-0.2,0.1-0.5,0.1-0.8V117.4z"/>
			<path class="st14" d="M-348,112.2c0.1,0,0.2,0,0.3,0s0.2,0,0.3,0c0.1,0,0.2,0,0.2,0.1v2h-0.7c-0.2,0-0.4,0-0.6,0.1
				c-0.2,0.1-0.4,0.2-0.5,0.3s-0.3,0.4-0.4,0.6c-0.1,0.2-0.1,0.6-0.1,1v5h-2v-9h1.7l0.2,1.3h0.1c0.1-0.2,0.1-0.4,0.2-0.6
				c0.1-0.2,0.2-0.3,0.3-0.5c0.1-0.2,0.3-0.3,0.4-0.3C-348.5,112.3-348.3,112.2-348,112.2z"/>
			<path class="st14" d="M-344.2,110.9h-2v-1.8h2V110.9z M-344.2,121.4h-2v-9h2V121.4z"/>
			<path class="st14" d="M-339,112.2c1.2,0,2.1,0.4,2.7,1.1c0.6,0.7,0.9,1.9,0.9,3.6c0,1.6-0.3,2.8-0.9,3.6
				c-0.6,0.8-1.5,1.1-2.7,1.1s-2.1-0.4-2.7-1.1c-0.6-0.7-0.9-1.9-0.9-3.6c0-1.6,0.3-2.8,0.9-3.6C-341.1,112.5-340.2,112.2-339,112.2
				z M-339,113.9c-0.5,0-0.9,0.2-1.1,0.7s-0.3,1.1-0.3,2v0.6c0,0.9,0.1,1.5,0.3,2c0.2,0.5,0.6,0.7,1.1,0.7s0.9-0.2,1.1-0.7
				s0.3-1.1,0.3-2v-0.6c0-0.9-0.1-1.5-0.3-2C-338.1,114.2-338.4,113.9-339,113.9z"/>
		</g>
		<path class="st16" d="M-458.7,102.9h140.4c7.4,0,13.5,6.1,13.5,13.5l0,0c0,7.4-6.1,13.5-13.5,13.5h-140.4l13.4-13.5L-458.7,102.9z
			"/>
	</g>
</g>
<g id="scroll">
	<g>
		<path class="st17" d="M4.7,0.1L9,4.5C9.2,4.7,9.2,5,9,5.2c-0.2,0.2-0.5,0.2-0.7,0L4.7,1.5L1.1,5.2c-0.2,0.2-0.5,0.2-0.7,0
			C0.2,5,0.2,4.7,0.4,4.5L4.7,0.1z"/>
	</g>
	<g>
		<path class="st17" d="M4.7,13.7L0.4,9.3c-0.2-0.2-0.2-0.5,0-0.7c0.2-0.2,0.5-0.2,0.7,0l3.6,3.6l3.6-3.6c0.2-0.2,0.5-0.2,0.7,0
			c0.2,0.2,0.2,0.5,0,0.7L4.7,13.7z"/>
	</g>
	<g>
		<path class="st18" d="M-1.8-12v-9.3h13v9.3c0,3.6-2.9,6.5-6.5,6.5c-1.8,0-3.4-0.7-4.6-1.9C-1.1-8.5-1.8-10.2-1.8-12z"/>
		<g>
			<path class="st17" d="M4.7-10.7l-4.3-4.4c-0.2-0.2-0.2-0.5,0-0.7c0.2-0.2,0.5-0.2,0.7,0l3.6,3.6l3.6-3.6C8.5-16,8.8-16,9-15.8
				c0.2,0.2,0.2,0.5,0,0.7L4.7-10.7z"/>
		</g>
	</g>
	<g>
		<path class="st18" d="M11.2-37.4v9.3h-13v-9.3c0-3.6,2.9-6.5,6.5-6.5c1.8,0,3.4,0.7,4.6,1.9C10.4-40.8,11.2-39.2,11.2-37.4z"/>
		<g>
			<path class="st17" d="M8.6-33.4c-0.1,0-0.3,0-0.4-0.1l-3.6-3.6l-3.6,3.6c-0.2,0.2-0.5,0.2-0.7,0s-0.2-0.5,0-0.7l4.3-4.4L9-34.2
				c0.2,0.2,0.2,0.5,0,0.7C8.9-33.4,8.8-33.4,8.6-33.4z"/>
		</g>
	</g>
</g>
</svg>
