<?xml version="1.0" encoding="utf-8"?>
<!-- Generator: Adobe Illustrator 23.0.0, SVG Export Plug-In . SVG Version: 6.00 Build 0)  -->
<svg version="1.1" id="Capa_1" xmlns="http://www.w3.org/2000/svg" xmlns:xlink="http://www.w3.org/1999/xlink" x="0px" y="0px"
	 viewBox="0 0 16.7 16.2" style="enable-background:new 0 0 16.7 16.2;" xml:space="preserve">
<style type="text/css">
	.st0{fill-rule:evenodd;clip-rule:evenodd;fill:#FFFFFF;}
	.st1{fill:#FFFFFF;}
	.st2{fill:#81E7F0;}
	.st3{fill-rule:evenodd;clip-rule:evenodd;fill:#81E7F0;}
	.st4{fill:#05585F;}
	.st5{fill-rule:evenodd;clip-rule:evenodd;fill:#80E6EF;}
	.st6{fill:#999999;}
	.st7{fill:#00818C;}
	.st8{fill:#00808B;}
	.st9{fill:#80E6EF;}
</style>
<path class="st9" d="M13.6,15.6h-2.8c-0.2,0-0.5-0.1-0.7-0.3c-0.2-0.2-0.3-0.4-0.3-0.7v-4.4H7.1v4.4c0,0.5-0.4,1-1,1H3.5
	c-0.5,0-1-0.4-1-1v-6L2.4,8.7C2,9,1.4,9,1.1,8.6L0.9,8.4C0.7,8.2,0.6,8,0.6,7.7c0-0.3,0.1-0.5,0.3-0.7l6.7-6.2c0.4-0.4,1-0.4,1.4,0
	l6.7,5.9c0.2,0.2,0.3,0.4,0.3,0.7c0,0.3-0.1,0.5-0.2,0.7l0,0l-0.2,0.2c-0.3,0.4-0.8,0.5-1,0.4v6C14.6,15.2,14.2,15.6,13.6,15.6z
	 M6.6,9.8h3.8v4.9c0,0.1,0,0.3,0.1,0.4c0.1,0.1,0.2,0.1,0.3,0.1h2.8c0.3,0,0.5-0.2,0.5-0.5v-7l0.7,0.6c0,0,0.2,0,0.5-0.2l0.2-0.2
	c0.1-0.1,0.1-0.2,0.1-0.3c0-0.1-0.1-0.2-0.2-0.3L8.7,1.2C8.5,1,8.2,1,8,1.2L1.3,7.4C1.2,7.5,1.1,7.6,1.1,7.7c0,0.1,0,0.2,0.1,0.3
	l0.2,0.2c0.2,0.2,0.5,0.2,0.7,0.1L3,7.5v7.1c0,0.3,0.2,0.5,0.5,0.5h2.6c0.3,0,0.5-0.2,0.5-0.5V9.8z"/>
</svg>
