<?xml version="1.0" encoding="utf-8"?>
<!-- Generator: Adobe Illustrator 23.0.0, SVG Export Plug-In . SVG Version: 6.00 Build 0)  -->
<svg version="1.1" id="Capa_1" xmlns="http://www.w3.org/2000/svg" xmlns:xlink="http://www.w3.org/1999/xlink" x="0px" y="0px"
	 viewBox="0 0 16.6 22.6" style="enable-background:new 0 0 16.6 22.6;" xml:space="preserve">
<style type="text/css">
	.st0{fill-rule:evenodd;clip-rule:evenodd;fill:#FFFFFF;}
	.st1{fill:#FFFFFF;}
	.st2{fill:#81E7F0;}
	.st3{fill-rule:evenodd;clip-rule:evenodd;fill:#81E7F0;}
	.st4{fill:#05585F;}
	.st5{fill-rule:evenodd;clip-rule:evenodd;fill:#80E6EF;}
	.st6{fill:#999999;}
	.st7{fill:#00818C;}
	.st8{fill:#00808B;}
	.st9{fill:#80E6EF;}
	.st10{fill:#B3B3B3;}
	.st11{fill:#CCCCCC;}
</style>
<g>
	<path class="st3" d="M15.5,5c-4.2,0-6.1-3.1-6.7-4.4C8.7,0.4,8.5,0.3,8.3,0.3c-0.2,0-0.4,0.1-0.5,0.3C7.2,1.9,5.4,5,1.1,5
		C0.9,5,0.6,5.3,0.6,5.5v4.8c0,2,0,6.1,4,8.7c2.3,1.5,3.1,2.2,3.1,2.7c0,0.3,0.2,0.5,0.5,0.5c0.3,0,0.5-0.2,0.5-0.5
		c0-0.5,0.8-1.3,3.1-2.7c4-2.6,4-6.7,4-8.7V5.5C16,5.3,15.8,5,15.5,5z M15,10.3c0,1.9,0,5.6-3.6,7.9c-1.6,1.1-2.6,1.8-3.1,2.3
		c-0.5-0.6-1.5-1.3-3.1-2.3c-3.6-2.3-3.6-5.9-3.6-7.9V6c1.7-0.1,3.3-0.7,4.6-1.7c1-0.8,1.6-1.6,2.1-2.4c0.5,0.8,1.1,1.7,2.1,2.4
		c1.3,1,2.9,1.6,4.6,1.7V10.3z"/>
</g>
</svg>
