<?xml version="1.0" encoding="utf-8"?>
<!-- Generator: Adobe Illustrator 23.0.0, SVG Export Plug-In . SVG Version: 6.00 Build 0)  -->
<svg version="1.1" id="Capa_1" xmlns="http://www.w3.org/2000/svg" xmlns:xlink="http://www.w3.org/1999/xlink" x="0px" y="0px"
	 viewBox="0 0 13.3 22.5" style="enable-background:new 0 0 13.3 22.5;" xml:space="preserve">
<style type="text/css">
	.st0{fill-rule:evenodd;clip-rule:evenodd;fill:#FFFFFF;}
	.st1{fill:#FFFFFF;}
	.st2{fill:#81E7F0;}
	.st3{fill-rule:evenodd;clip-rule:evenodd;fill:#81E7F0;}
	.st4{fill:#05585F;}
	.st5{fill:#999999;}
	.st6{fill:#00818C;}
	.st7{fill:#00808B;}
	.st8{fill:#80E6EF;}
	.st9{fill:#CCCCCC;}
	.st10{fill:#B3B3B3;}
	.st11{fill-rule:evenodd;clip-rule:evenodd;fill:#05585F;}
</style>
<g>
	<g>
		<path class="st4" d="M8.8,9.2c0.6-1.2,1-2,1.8-2.2C9.6,6.7,8.7,6.8,8,7.2C7.5,7.6,7.3,8,7.3,8l-2.5,6.3h1.8L8.8,9.2L8.8,9.2z"/>
		<path class="st4" d="M4.7,14.2L6,10.8l-3.4,0C4.6,11.6,4.7,13.6,4.7,14.2z"/>
	</g>
	<g>
		<path class="st4" d="M11.9,22.3H1.4c-0.6,0-1.1-0.5-1.1-1.1V1.3c0-0.6,0.5-1.1,1.1-1.1h10.5c0.6,0,1.1,0.5,1.1,1.1v19.9
			C12.9,21.8,12.5,22.3,11.9,22.3z M1.4,0.7C1,0.7,0.7,0.9,0.7,1.3v19.9c0,0.4,0.3,0.7,0.7,0.7h10.5c0.4,0,0.7-0.3,0.7-0.7V1.3
			c0-0.4-0.3-0.7-0.7-0.7H1.4z"/>
	</g>
	<path class="st11" d="M4.4,1.3L4.4,1.3c0.1,0,0.3,0.1,0.3,0.3c0,0.1-0.1,0.3-0.3,0.3c-0.2,0-0.3-0.1-0.3-0.3
		C4.1,1.4,4.2,1.3,4.4,1.3L4.4,1.3z"/>
	<path class="st11" d="M6.6,19.4L6.6,19.4c0.5,0,0.8,0.4,0.8,0.8c0,0.5-0.4,0.8-0.8,0.8c-0.5,0-0.8-0.4-0.8-0.8
		C5.8,19.8,6.2,19.4,6.6,19.4L6.6,19.4z"/>
	<path class="st11" d="M5.5,1.5L5.5,1.5h2.2c0.1,0,0.2,0.1,0.2,0.1c0,0.1-0.1,0.2-0.2,0.2H5.5c-0.1,0-0.2-0.1-0.2-0.2
		C5.3,1.5,5.4,1.5,5.5,1.5L5.5,1.5z"/>
	<g>
		<path class="st4" d="M1.3,18.9l0-16.6l10.7,0l0,16.6L1.3,18.9z M1.7,2.7l0,15.8l9.9,0l0-15.8L1.7,2.7z"/>
	</g>
</g>
</svg>
