<?xml version="1.0" encoding="utf-8"?>
<!-- Generator: Adobe Illustrator 22.0.1, SVG Export Plug-In . SVG Version: 6.00 Build 0)  -->
<svg version="1.1" xmlns="http://www.w3.org/2000/svg" xmlns:xlink="http://www.w3.org/1999/xlink" x="0px" y="0px"
	 viewBox="0 0 512 512" style="enable-background:new 0 0 512 512;" xml:space="preserve">
<style type="text/css">
	.st0{display:none;}
	.st1{display:inline;fill:#FF0000;}
	.st2{display:inline;fill:#FFFFFF;}
	.st3{display:none;fill:#FFFFFF;}
	.st4{display:inline;fill:#00808B;}
	.st5{display:inline;fill:#05585F;}
	.st6{display:inline;fill:#00818C;}
	.st7{display:inline;}
	.st8{fill:#FFFFFF;}
	.st9{fill:#05585F;}
	.st10{fill:#00818C;}
	.st11{fill:none;stroke:#81E7F0;stroke-width:1.4173;stroke-miterlimit:10;}
	.st12{fill-rule:evenodd;clip-rule:evenodd;fill:#05585F;}
	.st13{fill:#81E7F0;}
	.st14{display:inline;fill:#81E7F0;}
	.st15{fill:#8A8B8A;}
	.st16{fill:#E6E6E6;}
	.st17{fill:none;stroke:#8A8B8A;stroke-miterlimit:10;}
	.st18{fill:#B3B3B3;}
</style>
<g id="botones">
	<g class="st0">
		<circle class="st1" cx="256" cy="256" r="248"/>
		<path class="st2" d="M256,376.8L97.1,217.9c-11.1-11.1-11.1-29,0-40.1c11.1-11.1,29-11.1,40.1,0L256,296.6l118.8-118.8
			c11.1-11.1,29-11.1,40.1,0c11.1,11.1,11.1,29,0,40.1L256,376.8z"/>
	</g>
	<path class="st3" d="M256,8C119,8,8,119,8,256s111,248,248,248s248-111,248-248S393,8,256,8z M414.9,217.9L256,376.8L97.1,217.9
		c-11.1-11.1-11.1-29,0-40.1c11.1-11.1,29-11.1,40.1,0L256,296.6l118.8-118.8c11.1-11.1,29-11.1,40.1,0
		C425.9,188.9,425.9,206.8,414.9,217.9z"/>
	<g class="st0">
		<circle class="st4" cx="256" cy="256" r="248"/>
		<path class="st2" d="M256,376.8L97.1,217.9c-11.1-11.1-11.1-29,0-40.1c11.1-11.1,29-11.1,40.1,0L256,296.6l118.8-118.8
			c11.1-11.1,29-11.1,40.1,0c11.1,11.1,11.1,29,0,40.1L256,376.8z"/>
	</g>
	<g class="st0">
		<circle class="st4" cx="256" cy="256" r="248"/>
		<path class="st2" d="M376.8,256L217.9,414.9c-11.1,11.1-29,11.1-40.1,0s-11.1-29,0-40.1L296.6,256L177.8,137.2
			c-11.1-11.1-11.1-29,0-40.1s29-11.1,40.1,0L376.8,256z"/>
	</g>
	<g class="st0">
		<circle class="st4" cx="256" cy="256" r="248"/>
		<path class="st2" d="M135.2,256L294.1,97.1c11.1-11.1,29-11.1,40.1,0s11.1,29,0,40.1L215.4,256l118.8,118.8
			c11.1,11.1,11.1,29,0,40.1c-11.1,11.1-29,11.1-40.1,0L135.2,256z"/>
	</g>
	<g class="st0">
		<circle class="st5" cx="256" cy="256" r="248"/>
		<path class="st2" d="M256,376.8L97.1,217.9c-11.1-11.1-11.1-29,0-40.1c11.1-11.1,29-11.1,40.1,0L256,296.6l118.8-118.8
			c11.1-11.1,29-11.1,40.1,0c11.1,11.1,11.1,29,0,40.1L256,376.8z"/>
	</g>
	<g class="st0">
		<circle class="st6" cx="256" cy="256" r="248"/>
		<g class="st7">
			<path class="st8" d="M402.9,151.4c0-7.7-6.2-13.9-13.9-13.9h-64l-28-28.2c-5.9-6.4-14.3-10-22.9-10h-37.7
				c-8.7,0-17.1,3.7-23,10.1l-26.5,28.1H123c-7.7,0-13.9,6.2-13.9,13.9v4.9H128l22.1,228.2c1.6,16.1,15,28.3,31.2,28.3h149.4
				c16.2,0,29.6-12.2,31.2-28.3L384,156.3h18.9L402.9,151.4L402.9,151.4z M225.1,120.4L225.1,120.4c2.9-3.2,7-5,11.2-5H274
				c4.2,0,8.3,1.8,11.1,4.9l17,17.1h-93L225.1,120.4z M345.7,382.9c-0.8,7.8-7.2,13.6-15,13.6H181.3c-7.8,0-14.3-5.9-15-13.6
				l-21.9-226.6h223.3L345.7,382.9z"/>
			<rect x="247.9" y="193" class="st8" width="16.2" height="165.3"/>
			<polygon class="st8" points="331.7,193 315.6,193 296.1,358.3 312.4,358.3 			"/>
			<polygon class="st8" points="215.9,358.3 196.4,193 180.3,193 199.6,358.3 			"/>
		</g>
	</g>
	<g class="st0">
		<circle class="st6" cx="256" cy="256" r="248"/>
		<g class="st7">
			<path class="st8" d="M368.9,184.3c-12.8-13.6-25.1-26.7-38.1-40.4c5.9-5.6,11.7-11,17.4-16.4c12-11.2,12.8-11.1,23.9,0.7
				c6.4,6.7,12.7,13.5,19,20.3c5.5,6,5.4,9.8-0.5,15.4C383.6,170.6,376.4,177.2,368.9,184.3z"/>
			<polygon class="st8" points="324,150.1 231.8,236.7 216.2,289.7 269.7,277.1 361.9,190.5 			"/>
			<g>
				<path class="st8" d="M342.4,392.8H147.1c-16.8,0-30.4-13.6-30.4-30.4V167.2c0-16.8,13.6-30.4,30.4-30.4h127.7
					c3.2,0,5.8,2.6,5.8,5.8c0,3.2-2.6,5.8-5.8,5.8H147.1c-10.4,0-18.8,8.4-18.8,18.8v195.3c0,10.4,8.4,18.8,18.8,18.8h195.3
					c10.4,0,18.8-8.4,18.8-18.8v-125c0-3.2,2.6-5.8,5.8-5.8c3.2,0,5.8,2.6,5.8,5.8v124.9C372.8,379.2,359.1,392.8,342.4,392.8z"/>
			</g>
		</g>
	</g>
	<g class="st0">
		<circle class="st6" cx="256" cy="256" r="248"/>
		<path class="st2" d="M399.1,236.5H275.5V112.9c0-10.8-8.7-19.5-19.5-19.5s-19.5,8.7-19.5,19.5v123.5H112.9
			c-10.8,0-19.5,8.7-19.5,19.5s8.7,19.5,19.5,19.5h123.6v123.5c0,10.8,8.7,19.5,19.5,19.5s19.5-8.7,19.5-19.5V275.5h123.6
			c10.8,0,19.5-8.7,19.5-19.5C418.6,245.2,409.9,236.5,399.1,236.5z"/>
	</g>
	<g class="st0">
		<circle class="st6" cx="256" cy="256" r="248"/>
		<path class="st2" d="M371,343.4L283.6,256l87.4-87.4c7.6-7.6,7.6-20,0-27.6c-7.6-7.6-20-7.6-27.6,0L256,228.4L168.6,141
			c-7.6-7.6-20-7.6-27.6,0c-7.6,7.6-7.6,20,0,27.6l87.4,87.4L141,343.4c-7.6,7.6-7.6,20,0,27.6s20,7.6,27.6,0l87.4-87.4l87.4,87.4
			c7.6,7.6,20,7.6,27.6,0C378.6,363.3,378.6,351,371,343.4z"/>
	</g>
	<g class="st0">
		<circle class="st5" cx="256" cy="256" r="248"/>
		<path class="st2" d="M371,343.4L283.6,256l87.4-87.4c7.6-7.6,7.6-20,0-27.6c-7.6-7.6-20-7.6-27.6,0L256,228.4L168.6,141
			c-7.6-7.6-20-7.6-27.6,0c-7.6,7.6-7.6,20,0,27.6l87.4,87.4L141,343.4c-7.6,7.6-7.6,20,0,27.6s20,7.6,27.6,0l87.4-87.4l87.4,87.4
			c7.6,7.6,20,7.6,27.6,0C378.6,363.3,378.6,351,371,343.4z"/>
	</g>
	<g class="st0">
		<circle class="st6" cx="256" cy="256" r="248"/>
		<path class="st2" d="M96.4,96.4h118.8c4.9,0,8.9,4,8.9,8.9c0,4.9-4,8.9-8.9,8.9h-101v101c0,4.9-4,8.9-8.9,8.9
			c-4.9,0-8.9-4-8.9-8.9V96.4z"/>
		<path class="st2" d="M215.2,415.6H96.4V296.8c0-4.9,4-8.9,8.9-8.9c4.9,0,8.9,4,8.9,8.9v101h101c4.9,0,8.9,4,8.9,8.9
			S220.1,415.6,215.2,415.6z"/>
		<circle class="st2" cx="256" cy="256" r="56.5"/>
		<path class="st2" d="M415.6,415.6H296.8c-4.9,0-8.9-4-8.9-8.9s4-8.9,8.9-8.9h101v-101c0-4.9,4-8.9,8.9-8.9c4.9,0,8.9,4,8.9,8.9
			V415.6z"/>
		<path class="st2" d="M415.6,215.2c0,4.9-4,8.9-8.9,8.9c-4.9,0-8.9-4-8.9-8.9v-101h-101c-4.9,0-8.9-4-8.9-8.9c0-4.9,4-8.9,8.9-8.9
			h118.8V215.2z"/>
	</g>
	<g class="st0">
		<circle class="st6" cx="256" cy="256" r="248"/>
		<g class="st7">
			<path class="st8" d="M296.2,309.8h97.5c6.5-16.5,10.1-34.8,10.1-53.8c0-31.6-9.9-60.8-26.8-84.8L296.2,309.8z"/>
			<path class="st8" d="M281.4,191.7L234.2,110c-49.1,7.3-90.3,37.8-111.2,81.8H281.4z"/>
			<path class="st8" d="M323,247.6l48.6-83.5c-27.1-34-68.8-55.8-115.6-55.8c-4.3,0-8.6,0.3-12.9,0.6L323,247.6z"/>
			<path class="st8" d="M135,340.7L215.8,200h-96.5c-7.1,16.5-11.1,36.2-11.1,56.1C108.2,287.6,118.1,316.7,135,340.7z"/>
			<path class="st8" d="M229.3,318.1l48.5,84.2c50-7.4,91.8-40.3,112.4-84.2H229.3z"/>
			<path class="st8" d="M189.4,262.9l-49.1,85c27.1,34,68.8,55.9,115.7,55.9c4.3,0,8.6-0.2,12.9-0.6L189.4,262.9z"/>
		</g>
	</g>
	<g class="st0">
		<circle class="st6" cx="256" cy="256" r="248"/>
		<path class="st2" d="M319.6,111.9c-14.5,28.3-30.9,58.4-45.6,87c30.2,0,59.9,0,90.3,0c-50.6,79.5-100.7,158.3-150.9,237.2
			c-0.2-0.1-0.3-0.1-0.5-0.2c9.7-58.4,19.4-116.8,29.1-175.6c-31.5,0-62.6,0-94.2,0c2.3-4.9,64.1-135.8,69.8-148
			C225.7,112.4,316.8,111.8,319.6,111.9z"/>
	</g>
	<g class="st0">
		<circle class="st6" cx="256" cy="256" r="248"/>
		<g class="st7">
			<path class="st8" d="M364,198.7h-90.6c14.7-28.8,31.2-59,45.8-87.4c-2.8-0.1-94.3,0.5-102.5,0.5c-1.7,3.7-8.8,18.6-17.8,37.7
				L319,269.5C333.9,246,349,222.4,364,198.7z"/>
			<path class="st8" d="M375.1,349.2l-65.4-65.4c0-0.1,0.1-0.1,0.1-0.2L191.5,165.3c0,0.1-0.1,0.1-0.1,0.2l-56.7-56.7
				c-3.2-3.2-8.4-3.2-11.6,0c-3.2,3.2-3.2,8.4,0,11.6l60.9,60.9c-17.7,37.5-36.1,76.5-37.3,79.1h94.6c-9.7,59-19.5,117.6-29.2,176.3
				c0.2,0.1,0.3,0.1,0.5,0.2c29.4-46.2,58.8-92.4,88.2-138.8l62.8,62.8c1.6,1.6,3.7,2.4,5.8,2.4c2.1,0,4.2-0.8,5.8-2.4
				C378.3,357.6,378.3,352.4,375.1,349.2z"/>
		</g>
	</g>
	<g class="st0">
		<circle class="st6" cx="256" cy="256" r="248"/>
		<path class="st2" d="M257,388.3c-45.9,0-91.7,0-137.6,0c-6,0-11.5-1.7-16.1-5.7c-3.7-3.2-4.3-7.2-2-11.4c2.7-5,5.3-10.2,7.8-15.3
			c11.4-23.7,23.4-47.1,38.3-68.9c5.3-7.8,11-15.3,18.2-21.6c1.4-1.2,2.9-2.3,4.5-3.4c5.2-3.6,10.7-3.8,16.4-1.4
			c5.9,2.4,10.5,6.5,14.6,11.2c5.7,6.6,11.2,13.5,16.8,20.2c5,6,10.4,11.6,17.3,15.4c12.2,6.7,23.4,5,33.1-5
			c6.1-6.3,10.4-13.7,14.3-21.4c7.2-14.4,12.6-29.6,18.2-44.6c4.8-12.8,9.4-25.8,16.1-37.8c2.5-4.5,5.3-8.7,9.3-12.1
			c5.5-4.6,11.3-4.6,16.7,0.1c6.8,5.9,11.2,13.6,15.4,21.4c9.5,18,16.6,37,23.3,56.2c10.8,31.2,19.9,62.8,28.2,94.7
			c0.9,3.5,2.3,7,2.5,10.6c0.6,8.8-5.4,16.7-13.7,18.5c-1,0.2-2.1,0.2-3.2,0.2C349.1,388.3,303.1,388.3,257,388.3z"/>
		<path class="st2" d="M256.2,100.3c29,0.2,52.4,23.7,52.2,52.4c-0.2,29.4-23.7,52.7-52.9,52.3c-29.7-0.4-52.9-25-51.7-54.6
			C204.8,123.5,226.9,100.4,256.2,100.3z"/>
	</g>
	<g>
		<path class="st9" d="M22.3,1749c1.1-4.9,2-10,3.3-14.8c4.6-17.3,14.1-31.5,27.7-43.1c1.4-1.2,2.4-3.5,2.6-5.3
			c1.5-20.8,9.6-38.4,25.5-52.1c18.9-16.2,40.8-21.3,65-15.9c3.7,0.8,7.4,2.1,10.9,3.6c2.3,1,3.2,0.4,4.2-1.8
			c12-26.1,30.5-46.2,55.6-60.2c25.6-14.3,53.1-19,82.1-15c25.6,3.6,48.1,14.1,67.6,31.2c16.2,14.2,27.8,31.5,35.7,51.5
			c0.8,2.1,1.9,3,4.1,3.5c20.6,4.8,38.4,14.8,52.9,30.1c15.8,16.7,25.4,36.6,28.5,59.5c0.2,1.7,0.7,3.4,1.1,5.1c0,6.2,0,12.4,0,18.6
			c-0.8,4-1.4,8-2.3,12c-5.6,26.6-19.3,48.1-41,64.5c-12.4,9.4-26.2,15.7-41.3,18.8c-7.1,1.5-14.5,2.2-21.8,2.3
			c-20.4,0.3-40.8,0.1-61.1,0.1c-5.7,0-8.7-2.7-8.7-7.4c0-3.6,2.3-6.4,5.9-7c1.7-0.3,3.5-0.4,5.2-0.4c20.8-0.1,41.5,0.6,62.2-0.4
			c29.3-1.3,52.8-14.3,70.1-38c16.9-23.2,21.2-49.1,14.7-76.8c-3.5-14.9-10.8-27.9-21.2-39.2c-14.8-16-33.1-25.5-54.5-28.9
			c-2.5-0.4-3.8-1.3-4.6-3.9c-8.6-27.8-25.2-49.9-50.1-64.8c-31.2-18.7-64.5-22.3-99.2-10.2c-24.8,8.7-44.3,24.3-58.4,46.3
			c-5.4,8.4-8.8,18-13,27.1c-0.8,1.8-1.3,3.7-2.1,6c-3.5-2-6.6-3.8-9.8-5.6c-16.8-9.4-34.1-10.3-52-3.1
			c-20.9,8.4-36.5,32.1-35.1,54.5c0.3,5.3-2,8.1-5.5,10.7c-12.2,9.1-20.7,21-25.2,35.6c-9.3,30.7,2.8,62.9,29.7,79.8
			c11.9,7.5,24.9,10.9,38.9,10.9c26.1,0,52.2,0,78.3,0c1.7,0,3.5,0.1,5.2,0.4c3.7,0.7,6,3.7,5.9,7.4c-0.1,3.6-2.5,6.3-6.1,6.9
			c-1.5,0.2-3,0.2-4.5,0.2c-25.5,0-51-0.2-76.4,0.1c-18.4,0.2-35.5-4-50.8-14.3c-17.2-11.5-29.1-27.1-34.8-47.2
			c-1.4-4.9-2.4-9.8-3.5-14.8C22.3,1760,22.3,1754.5,22.3,1749z"/>
		<path class="st9" d="M263.5,1702.3c-0.1,1.8-0.2,3-0.2,4.1c0,41.5,0,83,0,124.5c0,1.8-0.1,3.8-0.6,5.5c-1,3.4-3.5,5.1-7,5
			c-3.5,0-6-1.7-6.9-5.1c-0.5-1.8-0.5-3.7-0.5-5.5c0-41.3,0-82.5,0-123.8c0-1.4,0-2.7,0-5c-1.5,1.3-2.6,2-3.4,2.9
			c-19.7,19.7-39.3,39.3-59,59c-1.2,1.2-2.5,2.5-3.8,3.6c-3.2,2.7-7,2.6-10.1-0.3c-2.7-2.5-3.2-6.8-0.6-9.7
			c5.2-5.7,10.6-11.1,16.1-16.6c18.6-18.6,37.2-37.2,55.8-55.8c4-4,7.9-8.2,12.7-13.2c5.7,6,10.9,11.7,16.2,17.1
			c17.2,17.3,34.6,34.6,51.8,51.9c5,5,10.1,9.9,14.9,15.1c3.6,3.8,3.7,8.2,0.6,11.2c-3.3,3.2-7.2,3.1-11.2-0.8
			c-13.3-13.2-26.6-26.5-39.8-39.7c-7.4-7.4-14.7-14.8-22.1-22.1C265.7,1704,264.8,1703.3,263.5,1702.3z"/>
	</g>
	<path class="st10" d="M-553.7,279h-329c-15.7,0-28.5-12.8-28.5-28.5v0c0-15.7,12.8-28.5,28.5-28.5h329c15.7,0,28.5,12.8,28.5,28.5
		v0C-525.2,266.1-538,279-553.7,279z"/>
	<path class="st11" d="M-553.7,279h-329c-15.7,0-28.5-12.8-28.5-28.5v0c0-15.7,12.8-28.5,28.5-28.5h329c15.7,0,28.5,12.8,28.5,28.5
		v0C-525.2,266.1-538,279-553.7,279z"/>
	<path class="st11" d="M-553.8,367h-329c-15.7,0-28.5-12.8-28.5-28.5v0c0-15.7,12.8-28.5,28.5-28.5h329c15.7,0,28.5,12.8,28.5,28.5
		v0C-525.3,354.1-538.1,367-553.8,367z"/>
	<g>
		<path class="st10" d="M-664.6,458.8h-96.5c-12.2,0-22.1-10-22.1-22.1v0c0-12.2,10-22.1,22.1-22.1h96.5c12.2,0,22.1,10,22.1,22.1v0
			C-642.5,448.8-652.4,458.8-664.6,458.8z"/>
		<g>
			<text transform="matrix(1 0 0 1 -751.0391 444.0858)" class="st8" style="font-family:'ArialNarrow'; font-size:27px;">Aceptar</text>
		</g>
	</g>
	<g>
		<path class="st11" d="M-664.6,535.9h-96.5c-12.2,0-22.1-10-22.1-22.1l0,0c0-12.2,10-22.1,22.1-22.1h96.5c12.2,0,22.1,10,22.1,22.1
			l0,0C-642.5,526-652.4,535.9-664.6,535.9z"/>
		<g>
			<text transform="matrix(1 0 0 1 -757.3316 521.2392)" class="st13" style="font-family:'ArialNarrow'; font-size:27px;">Cancelar</text>
		</g>
	</g>
	<g>
		<path class="st12" d="M179.6,34.7c49.2,0,91.9,19.8,122.9,50.9c31,32.6,50.8,75.3,50.8,122.7c0,39.6-13,75-34.4,103.7l181.7,144.9
			c3.2,4.9,4.9,11.8,1.6,16.6c-5.1,4.8-11.6,4.8-16.5,1.6L304.5,328.9l-2,1.9c-31,31.5-73.7,50.8-122.9,50.8
			c-47.1,0-89.9-19.3-120.9-50.8C26.1,299.8,8,255.9,8,208.3c0-47.5,18.1-90.1,50.7-122.7C89.7,54.5,132.5,34.7,179.6,34.7
			L179.6,34.7z M158.6,87.2L158.6,87.2c3.4,0,6.4,3.2,6.4,8.4c0,3.2-3,6.4-6.4,6.4c-24.4-1.6-45.8,8-60.9,22.9
			c-16,14.5-26,35.9-27.6,60.5c-1.8,3.3-4.9,6.4-8.1,6.4c-3.2,0-6.4-3.1-6.4-6.4c3.2-29.4,14.6-54,32.6-70.4
			C106.3,97.2,130.7,87.2,158.6,87.2L158.6,87.2z M287.6,102L287.6,102c-27.8-27.9-65.4-44.3-108-44.3c-40.7,0-78.5,16.4-106.3,44.3
			c-27.8,27.8-44,65.3-44,106.3c0,42.3,16.2,80.3,44,108c27.8,26.2,65.6,44.3,106.3,44.3c42.6,0,80.2-18.1,108-44.3
			c28.3-27.8,44.3-65.7,44.3-108C331.9,167.3,315.9,129.9,287.6,102L287.6,102z"/>
	</g>
</g>
<g id="ingreso" class="st0">
	<g class="st7">
		<path class="st13" d="M-1021.4,1191.3h-428.4c-10.5,0-19-8.7-19-19.4v-35.7c0-53.8,70.2-98.8,174.6-112c4-0.5,7.1-4.1,7.1-8.5
			v-3.3c0-10.4-4.2-20.3-11.8-27.9c-25.3-25.4-39.8-63.7-39.8-105.1c0-73.4,46.2-133.1,103.1-133.1c56.9,0,103.1,59.7,103.1,133.1
			c0,41.4-14.5,79.7-39.8,105.1c-7.6,7.6-11.8,17.5-11.8,27.9v3.3c0,4.3,3,8,7.1,8.5c104.4,13.2,174.6,58.2,174.6,112v35.7
			C-1002.4,1182.6-1011,1191.3-1021.4,1191.3z M-1235.6,762.3c-48,0-87.1,52.6-87.1,117.2c0,37.2,12.8,71.5,35.1,93.9
			c10.6,10.6,16.4,24.5,16.4,39.2v3.3c0,12.3-9,22.8-21,24.3c-93.1,11.7-160.6,52.2-160.6,96.1v35.7c0,1.9,1.4,3.4,3,3.4h428.4
			c1.7,0,3-1.5,3-3.4v-35.7c0-44-67.6-84.4-160.6-96.1l0,0c-12-1.5-21-12-21-24.3v-3.3c0-14.6,5.8-28.6,16.4-39.2
			c22.3-22.4,35.1-56.6,35.1-93.9C-1148.5,814.8-1187.6,762.3-1235.6,762.3z"/>
	</g>
	<g class="st7">
		<path class="st13" d="M-396.8,963.1v-91.9c0-60-48.8-108.8-108.8-108.8s-108.8,48.8-108.8,108.8v91.9c-22.3,1-40.1,19.3-40.1,41.8
			v160.4c0,23.1,18.8,42,42,42h214c23.1,0,42-18.8,42-42v-160.4C-356.7,982.3-374.6,964.1-396.8,963.1z M-505.7,774.9
			c53,0,96.2,43.2,96.2,96.2v91.7h-192.4v-91.7C-601.9,818.1-558.7,774.9-505.7,774.9z M-369.4,1165.3c0,16.2-13.2,29.3-29.3,29.3
			h-214c-16.2,0-29.3-13.2-29.3-29.3v-160.4c0-16.2,13.2-29.3,29.3-29.3h214c16.2,0,29.3,13.2,29.3,29.3V1165.3z"/>
		<path class="st13" d="M-492.3,1075.4v-34.9c0-7.4-6-13.4-13.4-13.4c-7.4,0-13.4,6-13.4,13.4v34.9c-8,4.6-13.4,13.2-13.4,23
			c0,14.8,12,26.7,26.7,26.7s26.7-12,26.7-26.7C-478.9,1088.6-484.3,1080.1-492.3,1075.4z"/>
	</g>
	<path class="st14" d="M474,875.9c-0.7-0.8-1.2-1.4-1.7-1.9c-2.2-3.1-6.5-5.1-11-5.1H50.8c-4.5,0-9.3,2.4-12.7,5.6
		c-3.4,3.7-4.6,7-4.6,12.8v250.6c0,5.6,1.2,8.9,4.6,12.3c3.4,3.7,8.2,5.9,12.7,5.9h410.6c4.5,0,9.3-2.2,11.5-5.9
		c3.4-3.4,5.6-6.6,5.6-12.3V887.3C478.5,882.2,476.8,879.1,474,875.9z M447.8,884.9l-192.3,139.8L64,884.9H447.8z M48.5,1135.1
		V892.9l158.2,115.6L48.5,1135.1z M66.3,1140.2l153.9-121.9l30.8,22.5c1.4,0.8,3.1,1.1,4.8,1.1c1.4,0,3.1-0.3,4.2-1.1l28.5-20.6
		l149.7,120H66.3z M462.6,1137.9c0,1.1,0,1.1,0,2.2h-1.2l0,0l-159.9-129.5l161.1-116.9V1137.9z"/>
	<g class="st7">
		<path class="st13" d="M1012.7,1014.6l1.6,1.6l41.5,38.8l41.9-38.8c1.6-1.6,1.6-1.6,3.2-1.6h149.2l-60.7-195.7h-91.7v-11.4h96.4
			c1.6,0,4.7,1.7,4.7,3.2l62.4,207h1.6v1.5v131.7c0,3.5-3.2,5.1-6.3,5.1h-401c-3.1,0-5.1-1.6-5.1-5.1v-131.6v-1.5l64.3-207
			c0-1.6,1.6-3.2,4.8-3.2h96.4V819h-93.2l-59.3,195.7h149.3V1014.6z M1110.7,958.5L1110.7,958.5l-53,53c0,0-2,1.6-3.5,1.6
			c-1.6,0-1.6-1.6-3.1-1.6l-53.1-53c-1.6-1.6-1.6-3.2-1.6-3.2c0-1.5,0-3.2,1.6-4.7l10.1-8.4l38.2,38.8V719.5c0-1.5,0-4.7,1.6-6.8
			c1.6-1.6,4.8-1.6,6.4-1.6c3.5,0,5,0,6.6,1.6c1.6,2.1,3.3,5.2,3.3,6.8v260l38.3-37.2l8.3,8.4c1.5,1.5,1.5,3.1,1.5,4.7
			C1112.2,955.3,1112.2,956.9,1110.7,958.5L1110.7,958.5z M1109.2,1029.3L1109.2,1029.3l-53.4,48.2l-53-48.2h-138v112.2h383.9
			v-112.2H1109.2z"/>
	</g>
	<g class="st7">
		<path class="st13" d="M2015.2,1152.5L1788.9,741c-3.1-5.2-8.5-8.6-14.8-8.6c-6,0-11.7,3.4-14.7,8.6l-226.3,411.5
			c-3.1,5.3-2.6,11.8,0.4,16.8c3,5.2,8.2,8.1,14.3,8.1h452.6c6.1,0,11.7-2.9,14.7-8.1C2018.3,1164.2,2018.3,1157.7,2015.2,1152.5z
			 M1547.1,1161.4l227-413.1l227.3,413.1H1547.1z"/>
		<g>
			<path class="st13" d="M1774.2,1060.5L1774.2,1060.5c-7.9,0-14.7,6.6-14.7,14.8c0,8,6.8,14.7,14.7,14.7c8.2,0,14.8-6.7,14.8-14.7
				C1789,1067.1,1782.4,1060.5,1774.2,1060.5L1774.2,1060.5z"/>
			<path class="st13" d="M1783.6,1049.6h-18.7c-0.7,0-1.2-0.6-1.2-1.2V886.8c0-0.7,0.6-1.2,1.2-1.2h18.7c0.7,0,1.2,0.6,1.2,1.2
				v161.6C1784.8,1049.1,1784.3,1049.6,1783.6,1049.6z"/>
		</g>
	</g>
</g>
<g id="menu" class="st0">
	<g>
		<path class="st5" d="M461.7,1531.1H50.3c-16.2,0-29.4-13.2-29.4-29.4l0,0c0-16.2,13.2-29.4,29.4-29.4h411.4
			c16.2,0,29.4,13.2,29.4,29.4l0,0C491,1517.9,477.8,1531.1,461.7,1531.1z"/>
		<path class="st5" d="M463,1722.1H51.6c-16.2,0-29.4-13.2-29.4-29.4l0,0c0-16.2,13.2-29.4,29.4-29.4H463
			c16.2,0,29.4,13.2,29.4,29.4l0,0C492.4,1708.9,479.2,1722.1,463,1722.1z"/>
		<path class="st5" d="M461.7,1913.1H50.3c-16.2,0-29.4-13.2-29.4-29.4l0,0c0-16.2,13.2-29.4,29.4-29.4h411.4
			c16.2,0,29.4,13.2,29.4,29.4l0,0C491,1899.9,477.8,1913.1,461.7,1913.1z"/>
	</g>
	<g>
		<g class="st7">
			<polygon class="st13" points="37.8,1621.2 20.9,1621.2 20.9,1457.7 184.4,1457.7 184.4,1474.6 37.8,1474.6 			"/>
		</g>
		<g class="st7">
			<polygon class="st13" points="491,1621.2 474.1,1621.2 474.1,1474.6 327.5,1474.6 327.5,1457.7 491,1457.7 			"/>
		</g>
		<g class="st7">
			<polygon class="st13" points="491,1927.8 327.5,1927.8 327.5,1910.9 474.1,1910.9 474.1,1764.3 491,1764.3 			"/>
		</g>
		<g class="st7">
			<polygon class="st13" points="184.4,1927.8 20.9,1927.8 20.9,1764.3 37.8,1764.3 37.8,1910.9 184.4,1910.9 			"/>
		</g>
	</g>
	<g>
		<g class="st7">
			<path class="st13" d="M188.4,1648.7H23.1v-165.3h165.3L188.4,1648.7L188.4,1648.7z M43.7,1628.2h124.2V1504H43.7V1628.2z"/>
		</g>
		<g class="st7">
			<path class="st13" d="M188.4,1938.2H23.1v-165.3h165.3L188.4,1938.2L188.4,1938.2z M43.7,1917.7h124.2v-124.2H43.7V1917.7z"/>
		</g>
		<g class="st7">
			<path class="st13" d="M142,1616.8l-79.6-79.6c-4-4-4-10.5,0-14.5s10.5-4,14.5,0l65.1,65.1l137.5-137.5c4-4,10.5-4,14.5,0
				s4,10.5,0,14.5L142,1616.8z"/>
		</g>
		<g class="st7">
			<path class="st13" d="M488.8,1648.7H323.5v-165.3h165.3V1648.7z M344.1,1628.2h124.2V1504H344.1V1628.2z"/>
		</g>
		<g class="st7">
			<path class="st13" d="M488.8,1938.2H323.5v-165.3h165.3V1938.2z M344.1,1917.7h124.2v-124.2H344.1V1917.7z"/>
		</g>
	</g>
	<g>
		<g class="st7">
			<path class="st13" d="M57.2,1856.8L57.2,1856.8c-24.2-0.4-43.8-20.1-43.8-44v-240.5c0-24.1,19.7-43.7,43.8-43.7h397.7
				c24.1,0,43.7,19.6,43.7,43.7v240.5c0,23.9-19.5,43.6-43.5,44H57.2z M57.3,1839.1H455c14.5-0.2,26-11.8,26-26.3v-240.5
				c0-14.3-11.7-26-26-26H57.2c-14.4,0-26.2,11.7-26.2,26v240.5C31,1827.1,42.8,1838.9,57.3,1839.1z"/>
		</g>
		<polygon class="st14" points="297.1,1645.6 297.1,1645.6 459.1,1645.6 459.1,1672.4 297.1,1672.4 		"/>
		<polygon class="st14" points="297.1,1681.5 297.1,1681.5 429.9,1681.5 429.9,1708.5 297.1,1708.5 		"/>
		<polygon class="st14" points="389.9,1744.4 389.9,1744.4 297.1,1744.4 297.1,1717.4 389.9,1717.4 		"/>
		<g class="st7">
			<path class="st13" d="M245.8,1781H75.9c-4.2,0-7.6-3.5-7.6-7.7v-14.2c0-21.4,27.8-39.2,69.3-44.4c1.6-0.2,2.8-1.6,2.8-3.3v-1.3
				c0-4.1-1.7-8-4.7-11c-10-10.1-15.8-25.3-15.8-41.7c0-29.1,18.4-52.8,40.9-52.8c22.6,0,40.9,23.7,40.9,52.8
				c0,16.4-5.8,31.6-15.8,41.7c-3,3-4.7,6.9-4.7,11v1.3c0,1.7,1.2,3.1,2.8,3.3c41.4,5.2,69.3,23.1,69.3,44.4v14.2
				C253.4,1777.5,250,1781,245.8,1781z M160.9,1610.9c-19,0-34.5,20.8-34.5,46.4c0,14.8,5.1,28.3,13.9,37.2
				c4.2,4.2,6.5,9.8,6.5,15.6v1.3c0,4.9-3.6,9.1-8.4,9.7c-36.9,4.6-63.6,20.7-63.6,38.1v14.2c0,0.7,0.5,1.3,1.2,1.3h169.9
				c0.6,0,1.2-0.6,1.2-1.3v-14.2c0-17.4-26.8-33.4-63.6-38.1l0,0c-4.8-0.6-8.4-4.8-8.4-9.7v-1.3c0-5.8,2.3-11.4,6.5-15.6
				c8.8-8.9,13.9-22.4,13.9-37.2C195.4,1631.7,179.9,1610.9,160.9,1610.9z"/>
		</g>
	</g>
	<g>
		<path class="st14" d="M144.3,1448.8H401c14.7,0,28.3,5.6,37.5,14.8c9.1,9.6,14.7,21.5,14.7,36.2V1886c0,13.2-5.7,26.7-14.7,35.9
			c-9.2,9.4-22.8,14.8-37.5,14.8H144.3c-14.4,0-26.6-5.4-35.7-14.8c-9.6-9.3-14.9-22.8-14.9-35.9v-41.4H68.3c-5.1,0-9.5-2.6-9.5-7.9
			c0-5.6,4.3-8.3,9.5-8.3h25.4v-78.9H68.3c-5.1,0-9.5-4-9.5-9.2c0-4,4.3-7.9,9.5-7.9h25.4v-79H68.3c-5.1,0-9.5-3.8-9.5-7.9
			c0-5.6,4.3-9.5,9.5-9.5h25.4v-79H68.3c-5.1,0-9.5-3.9-9.5-7.9c0-5.3,4.3-9.3,9.5-9.3h25.4v-40.1c0-14.7,5.3-26.6,14.9-36.2
			C117.7,1454.4,129.8,1448.8,144.3,1448.8L144.3,1448.8z M307.4,1706.7L307.4,1706.7v3.1c10.5,6.5,20.2,9.1,28,13.1
			c28.2,10.9,42.7,17.5,42.7,66.7c0,5.7-3.9,9.7-7.9,9.7H176.4c-5.2,0-9.5-4-9.5-9.7c0-51.9,14.8-55.8,42.7-66.7
			c8.4-4,17.5-6.6,29.6-13.1v-1.3c-8.3-6.8-10.8-16.1-12.1-27.1c-1.3,0-1.3-1.2-2.7-2.5c-1.4-1.4-1.4-3.9-1.4-5.4v-1.3
			c-1.2-1.2-1.2-2.6-1.2-3.9l-1.3-1.4c-1.4-5.6-4-13.5,1.3-20c-1.3-8.1-1.3-16.3,0-24.4c1.2-10.4,6.7-19.7,20.1-25.3
			c1.2-2.6,4-5.2,6.6-6.7c5.3-2.5,10.9-3.9,17.4-3.9c5.1,0,11.9,1.4,18.7,2.6c17.5,4.1,34.6,13.5,38.9,28c2.6,8.3,1.3,20.1,0,28.3
			c6.6,5.4,2.6,15.7,1.3,21.4v1.4c-1.3,1.3-1.3,2.6-1.3,3.9l-1.4,1.3c0,2.8,0,3.9-1.6,5.4l-1.3,2.5
			C316.7,1691,313.9,1700.1,307.4,1706.7L307.4,1706.7z M290.1,1715L290.1,1715v-12.1c0-2.7,1.3-5.3,3.8-7.9
			c5.6-2.7,6.9-12.2,9.7-20c0-1.5,1.3-2.7,1.3-4c1.2-1.3,1.2-2.6,1.2-4.1l1.3-1.6c0,0,0-1.3,0-2.7l1.5-1.3c0,0,1.2-1.3,2.6-1.3
			c-4-1.2-6.6-5.2-5.4-9.1c0,0,4-20.3,1.3-28.4c-2.6-7.9-14.8-14.4-26.7-16.9c-5.5-1.5-10.7-1.5-14.7-1.5c-3.8,0-6.6,0-7.9,1.5
			c-1.4,2.6-2.8,5.1-6.8,6.5c-8.1,2.6-11.9,6.4-13.2,13.5c-1.3,6.5,1.3,17,2.6,25.3c1.3,2.5,0,5.1-2.6,7.9c0,0,0,1.2-1.3,1.2
			c1.3,1.3,1.3,4.1,2.6,5.4v1.6c0,1.4,1.3,2.7,1.3,4.1c1.3,1.2,1.3,2.5,1.3,4l1.2,2.5c2.8,8.2,4,16.1,8.1,18.9
			c2.6,2.6,4.1,5.4,4.1,7.9v10.9c0,2.6-1.5,5.2-4.1,7.8c-13.2,8.2-25.4,12.2-36,16.1c-18.7,6.7-29.5,10.7-30.9,42.8h176.3
			c-1.2-30.9-11.9-34.7-31.9-42.8c-9.6-3.8-20-7.8-33.6-16.1C292.6,1721.6,290.1,1718.8,290.1,1715L290.1,1715z M120.3,1828.4
			L120.3,1828.4c5.3,0,9.6,2.7,9.6,8.3c0,5.2-4.3,7.9-9.6,7.9h-10.4v41.4c0,9.3,4,17.4,10.4,24c6.5,6.6,14.9,9.1,24,9.1H401
			c9.6,0,18.6-2.5,25.1-9.1c5.7-6.6,9.6-14.7,9.6-24v-386.2c0-9.5-3.9-17.4-9.6-23.8c-6.6-7-15.6-10.9-25.1-10.9H144.3
			c-9.1,0-17.5,4-24,10.9c-6.4,6.4-10.4,14.3-10.4,23.8v40.1h10.4c5.3,0,9.6,4,9.6,9.3c0,4-4.3,7.9-9.6,7.9h-10.4v79h10.4
			c5.3,0,9.6,4,9.6,9.5c0,4-4.3,7.9-9.6,7.9h-10.4v79h10.4c5.3,0,9.6,3.9,9.6,7.9c0,5.2-4.3,9.2-9.6,9.2h-10.4v78.9h10.4V1828.4z"/>
	</g>
	<path class="st13" d="M451.7,1561.2c-0.1-30.1-21.3-57.9-59.7-78.3c-36.5-19.4-84.8-30-136-30s-99.5,10.7-136,30
		c-38.4,20.4-59.6,48.2-59.7,78.3l0,0v80.8l0,0l0,0v90.5c0,0.4,0,0.8,0,1.2l0,0v61.5c0.3,37.5,21.3,72.4,59.1,98.3
		c36.7,25.2,85.2,39.1,136.6,39.1s99.9-13.9,136.6-39.1c37.8-26,58.7-60.9,59.1-98.4v-61.4l0,0c0-0.4,0-0.8,0-1.2V1642l0,0l0,0
		V1561.2L451.7,1561.2z M129.3,1500.5c33.7-17.9,78.7-27.7,126.7-27.7s93,9.8,126.7,27.7c31.6,16.8,49.1,38.4,49.1,60.8
		s-17.5,44-49.1,60.8C349,1640,304,1649.8,256,1649.8s-93-9.8-126.7-27.7c-31.6-16.8-49.1-38.4-49.1-60.8S97.6,1517.3,129.3,1500.5z
		 M120.6,1720.7c0.3,0.1,0.5,0.3,0.8,0.4c1.4,0.7,2.8,1.4,4.3,2.2c0.1,0,0.1,0.1,0.2,0.1c3.1,1.5,6.3,3,9.5,4.4
		c0.3,0.1,0.6,0.2,0.9,0.4c1.3,0.6,2.7,1.1,4,1.7c0.4,0.1,0.7,0.3,1.1,0.4c1.4,0.5,2.8,1.1,4.2,1.6c0.2,0.1,0.4,0.1,0.6,0.2
		c0.1,0,0.1,0,0.2,0.1c1.9,0.7,3.9,1.4,5.8,2.1c0.1,0,0.2,0.1,0.4,0.1c1.8,0.6,3.6,1.2,5.4,1.8c0.3,0.1,0.7,0.2,1,0.3
		c3.8,1.2,7.8,2.3,11.8,3.4c0.6,0.1,1.1,0.3,1.7,0.4c1.5,0.4,2.9,0.7,4.4,1.1c0.6,0.1,1.2,0.3,1.7,0.4c1.9,0.4,3.8,0.9,5.7,1.3
		c0.6,0.1,1.3,0.3,2,0.4c1.4,0.3,2.7,0.6,4.1,0.8c0.8,0.2,1.6,0.3,2.4,0.4c1.5,0.3,3,0.5,4.5,0.8c0.5,0.1,1,0.2,1.6,0.3
		c2,0.3,3.9,0.6,5.9,0.9c0.7,0.1,1.3,0.2,2,0.3c1.6,0.2,3.2,0.4,4.8,0.6c0.5,0.1,1,0.1,1.6,0.2c4.4,0.5,8.9,1,13.5,1.4
		c0.2,0,0.4,0,0.6,0c9.5,0.8,19.2,1.2,28.9,1.2c9.8,0,19.4-0.4,28.9-1.2c0.2,0,0.4,0,0.6,0c4.5-0.4,9-0.8,13.5-1.4
		c0.5-0.1,1-0.1,1.5-0.2c1.6-0.2,3.2-0.4,4.8-0.6c0.7-0.1,1.3-0.2,2-0.3c2-0.3,4-0.6,5.9-0.9c0.5-0.1,1-0.2,1.5-0.3
		c1.5-0.3,3-0.5,4.6-0.8c0.8-0.1,1.6-0.3,2.3-0.4c1.4-0.3,2.8-0.5,4.1-0.8c0.6-0.1,1.3-0.3,1.9-0.4c1.9-0.4,3.8-0.8,5.7-1.3
		c0.6-0.1,1.1-0.3,1.7-0.4c1.5-0.4,3-0.7,4.4-1.1c0.6-0.1,1.1-0.3,1.7-0.4c4-1.1,7.9-2.2,11.8-3.4c0.3-0.1,0.7-0.2,1-0.3
		c1.8-0.6,3.6-1.2,5.4-1.8c0.1,0,0.3-0.1,0.4-0.1c2-0.7,3.9-1.4,5.8-2.1c0.1,0,0.2-0.1,0.2-0.1c0.2-0.1,0.4-0.2,0.6-0.2
		c1.4-0.5,2.7-1,4.1-1.6c0.4-0.2,0.8-0.3,1.1-0.5c1.3-0.5,2.6-1.1,3.9-1.6c0.3-0.1,0.6-0.3,0.9-0.4c3.2-1.4,6.4-2.8,9.5-4.3
		c0.1,0,0.2-0.1,0.3-0.1c1.4-0.7,2.8-1.4,4.2-2.1c0.3-0.1,0.6-0.3,0.8-0.4c1.2-0.6,2.4-1.3,3.6-2c0.3-0.1,0.5-0.3,0.8-0.4
		c2.9-1.6,5.7-3.3,8.4-5c9.3-5.9,17.4-12.4,24-19.2c1.3-1.3,2.5-2.6,3.7-4v42.3c0,4.9-0.8,9.7-2.5,14.5l-0.3,1
		c-15.2,41.8-89.3,73.1-173,73.1c-83.5,0-157.4-31.2-172.9-72.8l-0.5-1.3c-1.6-4.7-2.5-9.6-2.5-14.5v-42.3c1.2,1.3,2.4,2.7,3.7,4
		c6.6,6.8,14.7,13.3,24,19.2c2.7,1.7,5.5,3.4,8.4,5c0.2,0.1,0.5,0.3,0.7,0.4C118.2,1719.4,119.4,1720.1,120.6,1720.7z M431.8,1794.9
		c-0.6,64.9-79.5,117.8-175.8,117.8S80.8,1859.9,80.2,1795v-13.1c9.9,11.2,23.2,21.3,39.8,30.2c36.5,19.4,84.8,30,136,30
		s99.5-10.7,136-30c16.6-8.8,30-19,39.8-30.2V1794.9z M431.8,1642L431.8,1642c0,0.8,0,1.5-0.1,2.2c0,0.3,0,0.6-0.1,0.9
		c0,0.4-0.1,0.7-0.1,1.1s-0.1,0.8-0.1,1.3l0,0c-0.4,3-1.1,6-2.1,9l-0.3,1c-5.1,14.1-17.4,27.6-35.6,39.2c-2.5,1.6-5.1,3.1-7.8,4.6
		l0,0c-8.1,4.5-17,8.6-26.7,12.2c-30.3,11.2-65.9,17.1-103,17.1s-72.7-5.9-103-17.1c-9.7-3.6-18.6-7.7-26.7-12.2l0,0
		c-2.7-1.5-5.3-3-7.8-4.6c-18-11.5-30.2-24.9-35.4-38.8l-0.5-1.3c-1-2.9-1.7-5.9-2.1-8.9v-0.1c-0.1-0.4-0.1-0.8-0.1-1.3
		c0-0.4-0.1-0.7-0.1-1.1c0-0.3,0-0.6-0.1-0.9c0-0.7-0.1-1.4-0.1-2.1c0,0,0,0,0-0.1v-32.3c9.9,11.2,23.2,21.4,39.8,30.2
		c36.5,19.4,84.8,30,136,30s99.5-10.7,136-30c16.6-8.8,30-19,39.8-30.2v32.2H431.8z"/>
	<path class="st13" d="M421.2,1733.2v-91l-78.3-45.2v-90.4l-86.9-50.2l-86.9,50.2v90.4l-78.3,45.2v91L12,1778.8v100.3l86.9,50.2
		l78.6-45.4l78.6,45.4l78.6-45.4l78.6,45.4l86.9-50.2v-100.3L421.2,1733.2z M404.1,1732.6l-69.8,40.3l-69.8-40.3V1652l69.8-40.3
		l69.8,40.3V1732.6z M256,1476.1l69.8,40.3v80.6l-69.8,40.3l-69.8-40.3v-80.7L256,1476.1z M107.9,1652l69.8-40.3l69.8,40.3v80.6
		l-69.8,40.3l-69.8-40.3V1652z M168.6,1869.2l-69.8,40.3L29,1869.2v-80.6l69.8-40.3l69.8,40.3V1869.2z M325.8,1869.2l-69.8,40.3
		l-69.8-40.3v-80.6l69.8-40.3l69.8,40.3V1869.2z M482.9,1869.2l-69.8,40.3l-69.8-40.3v-80.6l69.8-40.3l69.8,40.3V1869.2z"/>
	<g>
		<g class="st7">
			<path class="st13" d="M429.4,1938.2H82.5c-22.3,0-40.5-18.2-40.5-40.5v-410c0-22.3,18.2-40.5,40.5-40.5h346.9
				c22.3,0,40.5,18.2,40.5,40.5v410C469.9,1920.1,451.8,1938.2,429.4,1938.2z M82.5,1465.2c-12.5,0-22.6,10.1-22.6,22.6v410
				c0,12.5,10.1,22.6,22.6,22.6h346.9c12.5,0,22.6-10.1,22.6-22.6v-410c0-12.5-10.1-22.6-22.6-22.6H82.5z"/>
		</g>
		<g class="st7">
			<path class="st13" d="M405.8,1583.4H216.6c-4.9,0-8.9-4-8.9-8.9s4-8.9,8.9-8.9h189.2c4.9,0,8.9,4,8.9,8.9
				S410.7,1583.4,405.8,1583.4z"/>
		</g>
		<g class="st7">
			<path class="st13" d="M405.8,1709.6H216.6c-4.9,0-8.9-4-8.9-8.9s4-8.9,8.9-8.9h189.2c4.9,0,8.9,4,8.9,8.9
				S410.7,1709.6,405.8,1709.6z"/>
		</g>
		<g class="st7">
			<path class="st13" d="M405.8,1835.7H216.6c-4.9,0-8.9-4-8.9-8.9s4-8.9,8.9-8.9h189.2c4.9,0,8.9,4,8.9,8.9
				S410.7,1835.7,405.8,1835.7z"/>
		</g>
		<g class="st7">
			<path class="st13" d="M173.7,1610.5h-72v-72h72V1610.5z M110.7,1601.5h54.1v-54.1h-54.1V1601.5z"/>
		</g>
		<g class="st7">
			<path class="st13" d="M173.7,1736.6h-72v-72h72V1736.6z M110.7,1727.7h54.1v-54.1h-54.1V1727.7z"/>
		</g>
		<g class="st7">
			<path class="st13" d="M173.7,1862.8h-72v-72h72V1862.8z M110.7,1853.8h54.1v-54.1h-54.1V1853.8z"/>
		</g>
		<g class="st7">
			<path class="st13" d="M153.5,1596.6l-34.7-34.7c-1.7-1.7-1.7-4.6,0-6.3c1.8-1.7,4.6-1.7,6.3,0l28.4,28.4l59.9-59.9
				c1.8-1.7,4.6-1.7,6.3,0c1.7,1.7,1.7,4.6,0,6.3L153.5,1596.6z"/>
		</g>
	</g>
	<g>
		<path class="st14" d="M283.4,1931.9h-52.5c-3.6,0-6.8,0-33.1-65.4l-25.5-10.3c-64.6,29.4-66.8,27.3-69.5,24.7l-37.2-36.4
			c-2.7-2.6-4.8-4.7,23.8-69.3l-10.5-24.8c-67-23.9-67-27-67-30.8v-51.5c0-3.7,0-6.7,66.8-32.4l10.5-24.8
			c-30.1-63.4-27.9-65.5-25.1-68.2l37.1-36.4c2.7-2.6,4.7-4.6,70.7,23.3l25.4-10.3c24.4-65.6,27.6-65.6,31.3-65.6h52.5
			c3.6,0,6.7,0,33.1,65.4l25.5,10.3c64.6-29.4,66.8-27.2,69.5-24.7l37.2,36.3c2.7,2.6,4.9,4.7-23.7,69.3l10.5,24.9
			c67,23.9,67,26.9,67,30.8v51.4c0,3.7,0,6.7-66.9,32.5l-10.4,24.8c30.1,63.3,27.9,65.5,25.2,68.2l-37.2,36.4
			c-2.7,2.6-4.7,4.6-70.5-23.4l-25.7,10.4C290.3,1931.8,287.1,1931.9,283.4,1931.9z M233.3,1918.2h47.5c3.9-6.6,15.3-34.7,24.7-60.2
			l0.7-1.9l32.5-13.2l1.8,0.8c25.8,11,54.8,22.5,62.3,24.2l33.6-32.8c-2-7.5-14.3-35.1-26-59.6l-0.9-1.9l13.4-31.9l1.9-0.7
			c26.1-10.1,54.8-22,61.5-26v-46.3c-6.8-3.8-35.4-14.9-61.5-24.2l-2-0.7l-13.5-32l0.8-1.9c11.1-25.1,22.8-53.4,24.7-60.9
			l-33.6-32.8c-7.4,1.9-35.8,13.9-61.1,25.4l-1.8,0.8l-32.5-13.1l-0.7-1.9c-10.3-25.6-22.5-53.7-26.5-60.2h-47.5
			c-3.9,6.6-15.3,34.7-24.8,60.2l-0.7,1.9l-32.4,13.1l-1.8-0.8c-25.9-11-54.9-22.5-62.4-24.2l-33.5,32.8c2,7.5,14.3,35.1,25.9,59.6
			l0.9,1.9l-13.5,32l-1.9,0.7c-26.1,10.1-54.8,21.9-61.5,25.9v46.3c6.7,3.9,35.5,15,61.5,24.3l1.9,0.7l13.5,31.9l-0.8,1.9
			c-11.1,25.1-22.8,53.3-24.7,60.8l33.5,32.9c7.5-1.9,35.8-14,61-25.5l1.8-0.8l32.5,13.2l0.7,1.9
			C217,1883.6,229.2,1911.8,233.3,1918.2z"/>
		<g class="st7">
			<g>
				<path class="st13" d="M227.3,1674.1h-70.2v-70.2h70.2V1674.1z M165.9,1665.3h52.7v-52.7h-52.7V1665.3z"/>
			</g>
			<g>
				<path class="st13" d="M227.3,1796.9h-70.2v-70.2h70.2V1796.9z M165.9,1788.2h52.7v-52.7h-52.7V1788.2z"/>
			</g>
			<g>
				<path class="st13" d="M207.6,1660.5l-33.8-33.8c-1.7-1.7-1.7-4.5,0-6.2s4.5-1.7,6.2,0l27.6,27.6l58.4-58.4
					c1.7-1.7,4.5-1.7,6.2,0s1.7,4.5,0,6.2L207.6,1660.5z"/>
			</g>
			<g>
				<path class="st13" d="M354.8,1674.1h-70.1v-70.2h70.2L354.8,1674.1L354.8,1674.1z M293.4,1665.3h52.7v-52.7h-52.7V1665.3z"/>
			</g>
			<g>
				<path class="st13" d="M354.8,1796.9h-70.1v-70.2h70.2L354.8,1796.9L354.8,1796.9z M293.4,1788.2h52.7v-52.7h-52.7V1788.2z"/>
			</g>
		</g>
	</g>
	<g>
		<path class="st14" d="M341.6,1867.7H170.3v-148c0-47.2,38.4-85.6,85.7-85.6c47.2,0,85.6,38.4,85.6,85.6L341.6,1867.7L341.6,1867.7
			z M180.6,1857.4h150.6v-137.6c0-41.5-33.8-75.3-75.3-75.3s-75.3,33.8-75.3,75.3L180.6,1857.4L180.6,1857.4z M433.2,1835.7h-70.9
			v-115.9c0-13.5-3.3-26.9-10-39.7l-2.9-5.6l6-1.8c6.2-1.8,11.8-2.7,17.1-2.7c33.5,0,60.7,27.2,60.7,60.7L433.2,1835.7L433.2,1835.7
			z M372.6,1825.3h50.3v-94.7c0-27.7-22.6-50.3-50.3-50.3c-2.6,0-5.3,0.3-8.2,0.8c5.5,12.5,8.3,25.5,8.3,38.6v105.6H372.6z
			 M149.7,1835.7H78.8v-105.1c0-33.4,27.2-60.7,60.7-60.7c5.4,0,10.8,0.9,17,2.7l6,1.8l-2.8,5.5c-6.6,12.9-10,26.3-10,39.7
			L149.7,1835.7L149.7,1835.7z M89.2,1825.3h50.2v-105.6c0-13.1,2.8-26,8.3-38.6c-2.9-0.6-5.5-0.8-8.2-0.8
			c-27.8,0-50.3,22.6-50.3,50.3L89.2,1825.3L89.2,1825.3z M503.7,1808.6h-49.9v-78c0-10.9-3-21.5-8.9-31.6l-3.3-5.7l6.3-1.9
			c4.6-1.3,8.5-2,12.3-2c24,0,43.5,19.5,43.5,43.5V1808.6z M464.1,1798.2h29.2V1733c0-18.3-14.9-33.2-33.1-33.2c-1,0-2,0.1-3.1,0.2
			c4.7,9.9,7,20.1,7,30.6V1798.2z M58.2,1808.6H8.3V1733c0-24,19.5-43.5,43.5-43.5c3.8,0,7.7,0.6,12.2,2l6.4,1.9l-3.4,5.7
			c-5.9,10-8.9,20.6-8.9,31.6v77.9H58.2z M18.7,1798.2h29.2v-67.6c0-10.6,2.3-20.9,7-30.6c-20.1-2.3-36.2,13.7-36.2,33V1798.2z
			 M460.2,1686.6c-15.7,0-28.5-12.8-28.5-28.5s12.8-28.5,28.5-28.5s28.5,12.8,28.5,28.5S475.9,1686.6,460.2,1686.6z M460.2,1639.9
			c-10,0-18.2,8.1-18.2,18.1s8.2,18.1,18.2,18.1s18.1-8.1,18.1-18.1C478.3,1648.1,470.2,1639.9,460.2,1639.9z M51.8,1686.6
			c-15.7,0-28.6-12.8-28.6-28.5s12.8-28.5,28.6-28.5c15.7,0,28.5,12.8,28.5,28.5S67.6,1686.6,51.8,1686.6z M51.8,1639.9
			c-10,0-18.2,8.1-18.2,18.1s8.2,18.1,18.2,18.1S70,1668,70,1658C70,1648.1,61.9,1639.9,51.8,1639.9z M372.5,1666.9
			c-22,0-39.9-17.9-39.9-39.8c0-22,17.9-39.9,39.9-39.9s39.9,17.9,39.9,39.9C412.4,1649,394.5,1666.9,372.5,1666.9z M372.5,1597.5
			c-16.3,0-29.5,13.3-29.5,29.6c0,16.3,13.2,29.5,29.5,29.5s29.6-13.2,29.6-29.5C402.1,1610.7,388.8,1597.5,372.5,1597.5z
			 M139.5,1666.9c-22,0-39.9-17.9-39.9-39.8c0-22,17.9-39.9,39.9-39.9s39.9,17.9,39.9,39.9C179.3,1649,161.4,1666.9,139.5,1666.9z
			 M139.5,1597.5c-16.3,0-29.6,13.3-29.6,29.6c0,16.3,13.3,29.5,29.6,29.5c16.3,0,29.5-13.2,29.5-29.5
			C169,1610.7,155.7,1597.5,139.5,1597.5z M256,1630.8c-31.2,0-56.5-25.4-56.5-56.5s25.3-56.5,56.5-56.5c15.1,0,29.3,5.9,40,16.6
			s16.6,24.9,16.6,39.9C312.5,1605.4,287.1,1630.8,256,1630.8z M256,1528.1c-25.5,0-46.2,20.7-46.2,46.1c0,25.5,20.7,46.2,46.2,46.2
			s46.2-20.7,46.2-46.2c0-12.3-4.8-23.9-13.5-32.6C279.9,1532.9,268.3,1528.1,256,1528.1z"/>
	</g>
	<g>
		<path class="st14" d="M480.6,1741.3c1.2-15.1,2.6-32.2,17.7-54.7c19.2-30.3-17.7-58-39.7-74.5c-1-0.8-2-1.5-2.9-2.2
			c1.6-3.2,3.5-6.3,5.3-9.2c5-8.1,10.1-16.4,7.4-26.6s-12.5-19.4-32.9-30.7c-7.4-4-20-9.2-33.5-14.8c-14.6-6-34.7-14.2-38.4-17.6
			l-7.4-6.8l-4.6,9l-0.1-0.1L345,1526l-61.2,119.1l1.4,0.5l-114.3,228.6l13.7,6.9l115.2-230.5c23.2,8.1,41,17,61,30.9
			c-8.8,29.6,9.9,40.2,29.7,51.3c14.2,8,30.3,17,43.4,35c3.7,4.9,4.3,7.4,4.9,10c0.8,3.2,1.7,7.2,6.5,12l4.5,4.5l5.3-3.5
			C477.8,1775.6,479.2,1759,480.6,1741.3z M453.4,1772.8c-0.9-3.3-2.4-7.6-7-13.9c-15.1-20.7-33.5-31-48.3-39.3
			c-20.7-11.6-29.2-16.4-20.9-38.1l2.1-5.5l-4.8-3.5c-13.1-9.4-25-16.8-37.6-23.1c-9.3-4.7-19.1-8.7-30-12.6l51.8-103.7l2.7-5.3
			c7.6,4,19.2,8.8,34.8,15.2c12.5,5.1,25.4,10.4,31.9,14c19.2,10.7,24.4,17.4,25.4,21.1c0.9,3.6-1.4,7.7-5.7,14.6
			c-3,4.9-6.4,10.4-8.8,17.2l-1.8,5.2l4.3,3.4c2.3,1.8,5,3.8,7.9,6c24,18,46.6,37,36,53.8c-17.2,25.7-18.8,45.8-20.1,61.9
			C464.2,1754.2,463.4,1763.6,453.4,1772.8z"/>
		<path class="st14" d="M56.9,1790.9l5.3,3.5l4.5-4.5c4.8-4.8,5.8-8.8,6.5-12c0.6-2.6,1.2-5.1,4.9-10c13.1-18,29.2-27.1,43.4-35
			c19.8-11.1,38.5-21.7,29.7-51.3c19.9-13.9,37.7-22.8,61-30.9l115.2,230.5l13.7-6.9l-114.4-228.6l1.4-0.5l-61.2-119.1l-6.5-12.9
			l-0.1,0.1l-4.6-9l-7.4,6.8c-3.7,3.4-23.8,11.6-38.4,17.6c-13.5,5.5-26.1,10.7-33.5,14.8c-20.4,11.3-30.2,20.5-32.9,30.7
			s2.5,18.5,7.4,26.6c1.8,3,3.7,6,5.3,9.2c-0.9,0.7-1.9,1.4-2.9,2.2c-22,16.5-58.8,44.1-39.7,74.5c15,22.6,16.4,39.7,17.7,54.7
			C32.8,1759,34.1,1775.6,56.9,1790.9z M46.6,1740.1c-1.3-16.1-2.9-36.1-20.1-61.9c-10.6-16.8,12-35.8,36-53.8
			c2.9-2.2,5.6-4.2,7.9-6l4.3-3.4l-1.8-5.2c-2.4-6.7-5.8-12.3-8.8-17.2c-4.2-6.9-6.6-11-5.7-14.6c1-3.7,6.2-10.5,25.4-21.1
			c6.5-3.6,19.4-8.9,31.9-14c15.6-6.4,27.1-11.2,34.8-15.2l2.7,5.3l51.8,103.7c-10.9,3.9-20.7,7.9-30,12.6
			c-12.6,6.3-24.5,13.7-37.6,23.1l-4.8,3.5l2.1,5.5c8.3,21.6-0.2,26.4-20.9,38.1c-14.8,8.3-33.2,18.7-48.3,39.3
			c-4.7,6.3-6.2,10.6-7,13.9C48.6,1763.6,47.8,1754.2,46.6,1740.1z"/>
	</g>
	<g class="st7">
		<path class="st13" d="M436.5,1707.6c-8.4,8.2-16,17.2-26.6,22.8c5.3,10.1,4.4,19.8-1.6,29.1c-6.1,9.5-15.6,12.3-26.3,12.3
			c-0.7,2.8-1.2,5.6-2.2,8.2c-3.6,9.6-10.3,15.7-20.5,17.6c-2.2,0.4-4.4,0.6-6.5,1.1c-0.7,0.2-1.4,1.1-1.7,1.8
			c-1.6,4-2.6,8.2-4.6,11.9c-4.2,7.8-11.4,11.2-19.9,12c-0.9,0.1-1.8,0.4-2.7,0.2c-4.6-1-6.7,1.9-9.2,5c-5.9,7.5-13,13.3-22.6,15.5
			c-6.3,1.4-12.6,1.4-18.9,0.6c-10.5-1.3-20.7-4.1-30.7-7.4c-0.6-0.2-1.2-0.4-1.9-0.6c-5.3-1.5-5.4-1.6-8.6,3.1
			c-7.1,10.5-20.3,12.1-30.2,7.9c-8.4-3.6-14-10-17-18c-4.1,0-7.9,0.4-11.6-0.1c-10.5-1.4-18-7.3-22.3-16.8
			c-1.8-4.1-3.5-5.6-8.3-5.6c-11.8,0.1-23.2-9.3-26.2-20.7c-0.9-3.4-1.3-7-2-10.5c-23.5-2.8-34.3-30.9-19.5-47.4
			c-6.4-7.7-12.7-15.5-19.3-23.6c-2.1,3.8-4,7.1-5.8,10.5c-3.7,6.8-9.8,9.9-17.2,8.3c-2.2-0.5-4.4-1.7-6.4-2.9
			c-10.1-6-20.1-12.2-30.1-18.3c-7.6-4.6-9.6-14.5-4.7-22.7c4.9-8.3,9.5-16.8,14.3-25.2c8.2-14.4,16.4-28.9,24.5-43.3
			c6-10.7,11.9-21.4,17.9-32.1c7.2-12.9,14.5-25.9,21.8-38.8c4.3-7.5,13.5-9.7,21.1-5.2c10.5,6.3,20.8,12.8,31.3,19
			c7.9,4.6,10.7,15,5,23.2c-0.9,1.4-1.6,3-2.6,5c6.6,3.7,12.9,8,19.8,10.7c6,2.3,12.8,2.8,19.3,4c3,0.6,5.9,0.9,8.9,1.4
			c1.2,0.2,2,0.1,2.8-1.1c2.8-3.7,4.9-8.1,9.4-10c5.1-2.2,10.2-4.6,15.6-6c23.3-5.7,47-6.4,70.8-5.8c11,0.3,21.8,2.5,32.5,5
			c8.4,1.9,16.8,3.7,25.2,5.3c6.2,1.2,12.3-0.4,18.4-2.5c-1.4-2.5-2.6-4.9-4-7.3c-3.9-6.5-2.6-16.7,4.1-20.9
			c7.2-4.5,14.5-9,21.7-13.4c3.9-2.4,7.9-4.8,11.9-7.2c6.9-4.1,16.5-1.4,20.5,5.7c9.2,16.5,18.5,32.9,27.7,49.4
			c5.9,10.5,11.8,21.1,17.7,31.6c7.1,12.5,14.3,25,21.4,37.5c4.3,7.5,8.5,15.1,12.7,22.7c3.7,6.7,1.2,16.2-5.5,20.4
			c-10.7,6.7-21.4,13.3-32.3,19.6c-7.8,4.6-16.2,2.3-21.1-5.4c-1.8-2.9-3.3-5.9-5-8.9C437.3,1708.6,437,1708.3,436.5,1707.6z
			 M302.4,1820.2c-1.3-0.6-2.4-1.2-3.5-1.8c-12-5.8-23.9-11.5-35.9-17.3c-2.3-1.1-4.6-2.2-6.7-3.4c-3.7-2.2-4.9-6.7-3-10.1
			c2.4-4.3,7.2-5.1,10.6-3.3c5.6,3,11.5,5.6,17.2,8.4c8.4,4.1,16.8,8.1,25.1,12.3c6.1,3.1,12.3,5.2,19.3,4.2
			c4.1-0.6,7.2-2.2,8.6-6.3c0.6-1.8,1.1-3.7,1.8-5.5c0.5-1.4,0.3-2.1-1.1-2.9c-9.2-5.2-18.4-10.6-27.6-15.9
			c-10.1-5.8-20.2-11.6-30.3-17.5c-3.5-2-4.7-6.9-2.7-10.5c2.1-3.6,6.8-5,10.3-3c11.2,6.5,22.4,13,33.6,19.5c8.1,4.7,16.5,9,24.4,14
			c5.2,3.3,10.4,2.4,15.4,1c5.3-1.4,7.9-6.5,8.2-13.3c0.1-1.9-0.5-3-2.1-3.9c-8.7-5.1-17.4-10.3-26.1-15.5
			c-13.5-8.1-27-16.1-40.4-24.2c-3.3-2-4.5-6.8-2.8-10.3c1.6-3.2,6.2-5,9.7-3.6c1.8,0.7,3.4,1.9,5.1,2.9
			c11.9,7.2,23.8,14.3,35.8,21.5c8,4.8,15.9,9.7,23.9,14.4c3.9,2.2,7.8,4.6,12.1,5.9c5.8,1.7,11.7-1,14.4-5.7
			c2.6-4.6,2.8-10.6-1.7-15.1c-3.4-3.4-7.1-6.7-10.9-9.6c-14.4-10.9-28.7-21.9-43.4-32.4c-12.8-9.2-25.8-18.2-39.3-26.3
			c-15.1-9.1-30.8-17.2-46.3-25.7c-1.5-0.8-2.9-1.1-4.6-0.4c-3.2,1.2-6.6,1.9-9.7,3.1c-1.4,0.5-2.9,1.6-3.8,2.8
			c-8.1,10.8-17.5,20.1-29.5,26.7c-10.3,5.6-21.2,8.4-32.8,7c-5.7-0.7-10.6-3.3-12.9-9c-3.3-8.1-2.1-16.2,2-23.5
			c5.2-9.4,11.5-18.1,17.4-27.1c1.3-2,2.7-3.9,3.9-5.7c-8.4-1.9-16.9-2.9-24.8-5.7c-7.8-2.9-14.9-7.6-22.3-11.5
			c-17.7,31.4-35.5,63-53.1,94.4c7,8.4,13.9,16.6,20.9,24.8c6.5-6.7,14.5-9.2,23.8-7.2c9.1,1.9,15.4,7.6,20.2,15.4
			c9.8-15,19.3-16.8,31.2-14c5.4,1.3,9.8,4.5,13.6,8.6c5.6,6.1,7.8,13.5,8,21.6c8.5,0.9,15.2,5,20.2,11.6c5.1,6.7,7.1,14.3,5.7,22.7
			c10.9,2.4,18.8,8.3,23,18.6c4.2,10.4,2.7,20-4.8,28.9c1.5,0.5,2.6,1,3.7,1.3c3.5,1,7,2.1,10.5,2.9c7,1.6,14,3.4,21.3,3.6
			C290,1831.1,296.8,1827.5,302.4,1820.2z M428.9,1693.6c-4.1-7.2-8.2-14.3-12.3-21.4c-4.1-7.3-8.1-14.6-12.1-21.9
			c-5.6-10-11.2-19.9-16.8-29.9c-3.7-6.6-7.5-13.3-11.2-19.9c-0.9-1.7-1.8-1.7-3.5-1c-6.6,2.7-13.6,4.1-20.7,3.8
			c-10.9-0.4-21.3-3.6-31.8-5.9c-11.6-2.5-23.2-5-35.2-4.9c-11,0.1-22,0.7-32.9,1.4c-11,0.7-21.8,2.2-32.5,5.1
			c-3.5,1-6.9,2.2-9.2,5.5c-4.2,6.2-8.7,12.3-13,18.5c-6.1,8.9-12.2,17.8-18.1,26.7c-2.5,3.7-4.8,7.5-5,12.2
			c-0.1,2.3,0.7,3.1,2.9,3.1c6.7,0.1,13.1-1.4,19.1-4.3c11-5.3,19.6-13.6,26.8-23.4c1.8-2.4,3.7-5.5,6.2-6.5
			c6.6-2.7,13.5-4.7,20.3-6.6c1.9-0.5,4.3-0.4,6.1,0.3c4.3,1.8,8.5,4.1,12.6,6.3c11.1,6,22.1,12.1,33.1,18.3
			c14.4,8.2,28.2,17.3,41.5,27c14,10.1,27.9,20.3,41.7,30.6c5,3.7,9.6,7.8,14.4,11.6C411.4,1712.6,417.4,1703.8,428.9,1693.6z
			 M56,1709.9c3.4-6.1,6.7-11.9,10-17.8c6.7-12,13.4-24,20.2-36c6.8-12.1,13.6-24.1,20.4-36.2c3.9-6.8,7.6-13.7,11.5-20.6
			c5.2-9.2,10.4-18.4,15.7-27.6c0.9-1.5,0.8-2.3-0.8-3.2c-5.4-3.2-10.6-6.5-15.9-9.8c-4.6-2.8-9.2-5.6-13.9-8.4
			c-26.4,46.8-52.6,93.4-78.9,140.1C35,1696.9,45.4,1703.3,56,1709.9z M376.9,1569.5c26.4,47,52.7,93.7,79,140.4
			c10.8-6.6,21.2-13,31.6-19.3c-26.4-46.9-52.6-93.6-79-140.4C398,1556.6,387.5,1563,376.9,1569.5z M130.5,1778.8
			c0,3.8,1.5,6.6,3.4,9.3c5.2,7.1,13.3,6.7,18.2-0.4c6.1-8.8,12.6-17.4,19.1-26c3.7-5,7.5-10,11.4-14.7c2.8-3.4,3.7-6.9,2.5-11.1
			c-1.3-4.6-4.4-7.7-8.7-9.6c-4.4-1.9-8.9-1.1-11.7,3.3c-2.3,3.5-5,6.8-7.5,10.2c-7.6,10.2-15.2,20.4-22.6,30.7
			C132.8,1773,130.2,1775.5,130.5,1778.8z M212.2,1771c0-6-4.2-11.9-9.6-13.7c-4.1-1.4-8.3-0.5-10.7,2.5c-2.4,3-4.7,6.2-7,9.3
			c-6,8.2-11.8,16.7-18.2,24.6c-5.2,6.5-3.7,13.3,1.4,18.2c5.4,5.2,12.6,4.9,16.5-0.5c7.6-10.5,15.4-20.9,23-31.4
			C209.8,1777.3,212.6,1774.7,212.2,1771z M212.3,1835.5c3,0.1,5.3-1,7.1-3.4c5.1-6.9,10.3-13.7,15.4-20.6c1.8-2.4,3-5.1,2.3-8.2
			c-1.3-5.5-4.4-9.5-9.7-11.6c-4.3-1.7-8.3-0.5-11,3.1c-3.9,5.3-7.9,10.5-11.7,15.8c-1.9,2.7-4.2,5.4-5.1,8.4
			C197.2,1826.7,204.3,1835.4,212.3,1835.5z M117.3,1761.8c2.6-0.1,5-0.8,6.7-3.3c2.5-3.5,5.2-6.8,7.7-10.3c1.5-2,3.2-4,4.1-6.3
			c1.9-5.2-0.3-10.7-5.4-14.6c-5.6-4.4-11.6-3.5-15.7,2.2c-0.6,0.8-1.2,1.5-1.8,2.3c-2.7,3.6-5.7,7.1-7.9,11
			C100.6,1750.6,107.9,1761.7,117.3,1761.8z"/>
	</g>
</g>
<g id="migas" class="st0">
	<g class="st7">
		<path class="st15" d="M-769.6,151.2H-897c-7.4,0-13.5-6.1-13.5-13.5l0,0c0-7.4,6.1-13.5,13.5-13.5h127.4l13.5,13.5L-769.6,151.2z"
			/>
		<g>
			<g>
				<path class="st16" d="M-879.7,130.8c0.6,0,1.2,0.1,1.7,0.3s1,0.5,1.4,0.8c0.4,0.4,0.7,0.8,0.9,1.4c0.2,0.6,0.3,1.3,0.3,2.1h-2.2
					c0-0.5,0-0.8-0.1-1.2c-0.1-0.3-0.2-0.6-0.4-0.8s-0.4-0.4-0.7-0.5c-0.3-0.1-0.5-0.2-0.8-0.2c-0.4,0-0.8,0.1-1.1,0.3
					c-0.3,0.2-0.6,0.4-0.8,0.7c-0.2,0.3-0.3,0.7-0.4,1.2c-0.1,0.5-0.1,1-0.1,1.6v0.8c0,0.6,0,1.1,0.1,1.6c0.1,0.5,0.3,0.9,0.5,1.2
					s0.5,0.6,0.8,0.7c0.3,0.1,0.7,0.3,1.1,0.3c0.3,0,0.6-0.1,0.9-0.2s0.5-0.3,0.7-0.5s0.3-0.5,0.4-0.8c0.1-0.3,0.1-0.7,0.1-1.2h2.1
					c0,0.8-0.1,1.4-0.3,2s-0.5,1-0.9,1.4c-0.4,0.4-0.8,0.7-1.4,0.8c-0.5,0.2-1.1,0.3-1.7,0.3c-0.7,0-1.4-0.1-2-0.4
					c-0.6-0.2-1.1-0.6-1.5-1.1c-0.4-0.5-0.7-1.1-0.9-1.9c-0.2-0.8-0.3-1.7-0.3-2.7s0.1-1.9,0.3-2.7c0.2-0.8,0.5-1.4,0.9-1.9
					c0.4-0.5,0.9-0.9,1.5-1.1C-881.1,130.9-880.5,130.8-879.7,130.8z"/>
				<path class="st16" d="M-870.6,133.5c1.2,0,2.1,0.4,2.7,1.1c0.6,0.7,0.9,1.9,0.9,3.6c0,1.6-0.3,2.8-0.9,3.6
					c-0.6,0.8-1.5,1.1-2.7,1.1s-2.1-0.4-2.7-1.1c-0.6-0.7-0.9-1.9-0.9-3.6c0-1.6,0.3-2.8,0.9-3.6
					C-872.7,133.8-871.8,133.5-870.6,133.5z M-870.6,135.2c-0.5,0-0.9,0.2-1.1,0.7s-0.3,1.1-0.3,2v0.6c0,0.9,0.1,1.5,0.3,2
					s0.6,0.7,1.1,0.7s0.9-0.2,1.1-0.7c0.2-0.5,0.3-1.1,0.3-2v-0.6c0-0.9-0.1-1.5-0.3-2C-869.7,135.5-870.1,135.2-870.6,135.2z"/>
				<path class="st16" d="M-861.1,133.5c0.3,0,0.7,0.1,1,0.2c0.3,0.1,0.5,0.3,0.8,0.5c0.2,0.2,0.4,0.5,0.5,0.9
					c0.1,0.4,0.2,0.8,0.2,1.3v6.3h-2V137c0-0.6-0.1-1-0.3-1.2c-0.2-0.2-0.5-0.4-0.9-0.4c-0.2,0-0.4,0-0.6,0.1
					c-0.2,0.1-0.3,0.2-0.4,0.4c-0.1,0.2-0.2,0.4-0.3,0.6c-0.1,0.2-0.1,0.4-0.1,0.7v5.5h-2v-9h1.7l0.2,1.1h0.1
					c0.1-0.2,0.3-0.3,0.4-0.5c0.2-0.2,0.3-0.3,0.5-0.4c0.2-0.1,0.4-0.2,0.6-0.3C-861.5,133.5-861.4,133.5-861.1,133.5z"/>
				<path class="st16" d="M-853.9,133.5c0.4,0,0.8,0.1,1.2,0.2c0.4,0.1,0.7,0.3,1,0.5s0.5,0.5,0.6,0.8c0.2,0.3,0.2,0.6,0.2,1
					c0,0.1,0,0.2,0,0.3c0,0.1,0,0.1,0,0.1h-2.1c0-0.4-0.1-0.7-0.3-0.9c-0.2-0.2-0.4-0.3-0.7-0.3s-0.6,0.1-0.8,0.2
					c-0.2,0.1-0.3,0.4-0.3,0.6c0,0.2,0.1,0.4,0.2,0.5c0.1,0.1,0.3,0.2,0.5,0.3c0.2,0.1,0.4,0.2,0.7,0.2c0.3,0.1,0.5,0.1,0.8,0.2
					c0.3,0.1,0.5,0.2,0.8,0.3c0.3,0.1,0.5,0.3,0.7,0.5c0.2,0.2,0.4,0.4,0.5,0.7c0.1,0.3,0.2,0.7,0.2,1.1c0,0.5-0.1,1-0.3,1.4
					c-0.2,0.4-0.3,0.8-0.6,1.1c-0.3,0.3-0.6,0.4-1.1,0.5c-0.5,0.1-0.9,0.1-1.3,0.1c-0.5,0-1-0.1-1.4-0.2c-0.4-0.1-0.7-0.3-1-0.6
					s-0.5-0.5-0.6-0.9c-0.1-0.4-0.2-0.7-0.2-1.2v-0.1v-0.1c0,0,0,0,0-0.1h2.1v0.1c0,0.2,0,0.4,0.1,0.6c0.1,0.2,0.2,0.3,0.3,0.4
					c0.1,0.1,0.2,0.2,0.4,0.2c0.1,0,0.3,0.1,0.4,0.1s0.3,0,0.4,0c0.1,0,0.3-0.1,0.4-0.2c0.1-0.1,0.2-0.2,0.3-0.3
					c0.1-0.1,0.1-0.3,0.1-0.5s-0.1-0.4-0.2-0.6c-0.1-0.1-0.3-0.3-0.5-0.4s-0.4-0.2-0.7-0.3c-0.3-0.1-0.5-0.1-0.8-0.2
					s-0.5-0.2-0.8-0.3c-0.3-0.1-0.5-0.3-0.7-0.5s-0.4-0.4-0.5-0.7s-0.2-0.7-0.2-1.1c0-0.5,0.1-0.9,0.3-1.2c0.2-0.3,0.4-0.6,0.7-0.9
					c0.3-0.2,0.6-0.4,1-0.5C-854.8,133.6-854.3,133.5-853.9,133.5z"/>
				<path class="st16" d="M-842.4,142.7h-1.7l-0.2-1.1h-0.1c-0.1,0.2-0.2,0.3-0.4,0.5c-0.2,0.2-0.3,0.3-0.5,0.4
					c-0.2,0.1-0.4,0.2-0.6,0.3c-0.2,0.1-0.5,0.1-0.7,0.1c-0.3,0-0.7-0.1-1-0.2c-0.3-0.1-0.5-0.3-0.8-0.5c-0.3-0.2-0.4-0.5-0.5-0.9
					c-0.1-0.4-0.2-0.8-0.2-1.3v-6.3h2v5.7c0,0.6,0.1,1,0.3,1.2c0.2,0.2,0.5,0.4,0.9,0.4c0.2,0,0.4,0,0.6-0.1
					c0.2-0.1,0.3-0.2,0.4-0.4c0.1-0.2,0.2-0.3,0.3-0.6c0.1-0.2,0.1-0.5,0.1-0.7v-5.6h2L-842.4,142.7L-842.4,142.7z"/>
				<path class="st16" d="M-838.5,142.7h-2v-12.3h2V142.7z"/>
				<path class="st16" d="M-834.5,133.7h1.3v1.7h-1.3v5c0,0.5,0.2,0.7,0.7,0.7h0.6v1.5c-0.1,0-0.2,0.1-0.3,0.1c-0.1,0-0.2,0-0.3,0.1
					c-0.1,0-0.2,0-0.3,0c-0.1,0-0.2,0-0.3,0c-0.4,0-0.8-0.1-1-0.2c-0.3-0.1-0.5-0.3-0.6-0.5c-0.2-0.2-0.3-0.5-0.3-0.8
					c-0.1-0.3-0.1-0.6-0.1-0.9v-5h-0.9v-1.7h0.9l0.3-2.5h1.7L-834.5,133.7L-834.5,133.7z"/>
				<path class="st16" d="M-829.2,133.5c1,0,1.8,0.2,2.3,0.7s0.8,1.1,0.8,2v4.4c0,0.2,0,0.4,0.1,0.5c0.1,0.1,0.2,0.1,0.3,0.1h0.4
					v1.4c-0.1,0.1-0.3,0.1-0.5,0.2c-0.2,0.1-0.4,0.1-0.8,0.1c-0.4,0-0.8-0.1-1-0.3c-0.3-0.2-0.5-0.5-0.6-0.9h-0.1
					c-0.1,0.2-0.3,0.3-0.4,0.5c-0.1,0.1-0.3,0.3-0.5,0.4c-0.2,0.1-0.4,0.2-0.6,0.2c-0.2,0-0.5,0.1-0.8,0.1c-0.2,0-0.4,0-0.7-0.1
					c-0.3-0.1-0.5-0.2-0.7-0.4c-0.2-0.2-0.4-0.4-0.6-0.8c-0.2-0.3-0.2-0.8-0.2-1.3c0-0.6,0.1-1.1,0.3-1.5c0.2-0.4,0.5-0.7,0.9-1
					c0.4-0.2,0.9-0.4,1.4-0.5c0.5-0.1,1.1-0.2,1.8-0.2v-0.8c0-0.2,0-0.3,0-0.4s-0.1-0.3-0.1-0.3c-0.1-0.1-0.2-0.2-0.3-0.2
					c-0.1-0.1-0.3-0.1-0.5-0.1c-0.2,0-0.4,0-0.5,0.1c-0.1,0.1-0.2,0.1-0.3,0.2c-0.1,0.1-0.1,0.2-0.2,0.3c0,0.1-0.1,0.2-0.1,0.3v0.2
					h-2c0,0,0-0.1,0-0.2V136c0-0.4,0.1-0.7,0.2-1c0.1-0.3,0.3-0.6,0.6-0.8c0.3-0.2,0.6-0.4,1-0.5
					C-830.1,133.6-829.7,133.5-829.2,133.5z M-828.3,138.7c-0.3,0-0.6,0-0.9,0.1c-0.3,0-0.5,0.1-0.7,0.2c-0.2,0.1-0.4,0.3-0.5,0.4
					c-0.1,0.2-0.2,0.4-0.2,0.7s0.1,0.6,0.2,0.7c0.2,0.2,0.4,0.3,0.8,0.3c0.2,0,0.5-0.1,0.6-0.2c0.1-0.1,0.3-0.2,0.4-0.4
					c0.1-0.2,0.2-0.4,0.2-0.6c0.1-0.2,0.1-0.5,0.1-0.8V138.7z"/>
				<path class="st16" d="M-820.6,133.5c0.1,0,0.2,0,0.3,0c0.1,0,0.2,0,0.3,0c0.1,0,0.2,0,0.2,0.1v2h-0.7c-0.2,0-0.4,0-0.6,0.1
					c-0.2,0.1-0.4,0.2-0.5,0.3c-0.1,0.1-0.3,0.4-0.4,0.6c-0.1,0.2-0.1,0.6-0.1,1v5h-2v-9h1.7l0.2,1.3h0.1c0.1-0.2,0.1-0.4,0.2-0.6
					c0.1-0.2,0.2-0.3,0.3-0.5c0.1-0.2,0.3-0.3,0.4-0.3C-821.1,133.6-820.9,133.5-820.6,133.5z"/>
				<path class="st16" d="M-810.9,133.5c0.4,0,0.8,0.1,1.2,0.3c0.4,0.2,0.7,0.5,0.9,0.9c0.2,0.4,0.4,0.9,0.6,1.5
					c0.1,0.6,0.2,1.3,0.2,2.1c0,0.8-0.1,1.5-0.2,2.1c-0.1,0.6-0.3,1.1-0.6,1.5c-0.2,0.4-0.5,0.7-0.9,0.8c-0.3,0.2-0.7,0.3-1.1,0.3
					c-0.5,0-0.9-0.1-1.2-0.3c-0.4-0.2-0.6-0.5-0.8-0.8h-0.1v3.9h-2v-12.1h1.7l0.2,1.1h0.1c0.2-0.4,0.5-0.8,0.9-1
					C-811.7,133.6-811.3,133.5-810.9,133.5z M-811.5,135.4c-0.5,0-0.8,0.2-1.1,0.6c-0.2,0.4-0.3,1.1-0.3,1.9v0.6
					c0,0.8,0.1,1.4,0.3,1.9c0.2,0.4,0.6,0.7,1.1,0.7s0.8-0.2,1.1-0.6c0.2-0.4,0.3-1.1,0.3-1.9V138c0-0.8-0.1-1.4-0.3-1.9
					S-811,135.4-811.5,135.4z"/>
				<path class="st16" d="M-803.3,133.5c1.1,0,1.9,0.4,2.4,1.1c0.5,0.8,0.8,1.9,0.8,3.6v0.5h-4.6c0,0.4,0,0.8,0.1,1.1
					c0.1,0.3,0.1,0.6,0.2,0.8s0.2,0.4,0.4,0.5s0.4,0.2,0.6,0.2c0.3,0,0.6-0.1,0.8-0.4s0.3-0.7,0.3-1.3h2c0,0.6-0.1,1.1-0.2,1.5
					c-0.2,0.4-0.4,0.8-0.7,1.1s-0.6,0.5-1,0.6c-0.4,0.1-0.8,0.2-1.3,0.2c-1.1,0-2-0.4-2.6-1.1c-0.6-0.7-0.9-1.9-0.9-3.6
					c0-1.6,0.3-2.8,0.9-3.6C-805.3,133.9-804.4,133.5-803.3,133.5z M-803.3,135.2c-0.4,0-0.7,0.2-0.9,0.5s-0.3,0.9-0.3,1.5h2.4
					c0-0.7-0.1-1.2-0.3-1.5S-802.9,135.2-803.3,135.2z"/>
				<path class="st16" d="M-795,133.5c0.1,0,0.2,0,0.3,0c0.1,0,0.2,0,0.3,0c0.1,0,0.2,0,0.2,0.1v2h-0.7c-0.2,0-0.4,0-0.6,0.1
					c-0.2,0.1-0.4,0.2-0.5,0.3c-0.1,0.1-0.3,0.4-0.4,0.6c-0.1,0.2-0.1,0.6-0.1,1v5h-2v-9h1.7l0.2,1.3h0.1c0.1-0.2,0.1-0.4,0.2-0.6
					c0.1-0.2,0.2-0.3,0.3-0.5c0.1-0.2,0.3-0.3,0.4-0.3C-795.4,133.6-795.2,133.5-795,133.5z"/>
				<path class="st16" d="M-790.9,130.2c0.1,0,0.2,0,0.4,0c0.1,0,0.3,0,0.4,0c0.1,0,0.3,0,0.4,0.1c0.1,0,0.2,0,0.3,0.1v1.5h-0.9
					c-0.5,0-0.7,0.2-0.7,0.7v1h1.5v1.7h-1.5v7.2h-2v-7.2h-0.9v-1.7h0.9v-1c0-0.3,0-0.6,0.1-0.9s0.2-0.5,0.3-0.8
					c0.2-0.2,0.4-0.4,0.6-0.5C-791.7,130.3-791.3,130.2-790.9,130.2z"/>
				<path class="st16" d="M-786.5,132.2h-2v-1.8h2V132.2z M-786.5,142.7h-2v-9h2V142.7z"/>
				<path class="st16" d="M-782.6,142.7h-2v-12.3h2V142.7z"/>
			</g>
		</g>
		<g>
			<path class="st15" d="M-714.8,142.7l-3.6-6.4c0-0.1-0.1-0.2-0.1-0.3c-0.1-0.1-0.1-0.2-0.2-0.4c-0.1-0.1-0.1-0.3-0.2-0.5h-0.1
				c0,0.1,0,0.3,0,0.4c0,0.1,0,0.2,0,0.3c0,0.1,0,0.2,0,0.3v6.5h-1.9V131h1.9l3.6,6.4c0,0.1,0.1,0.2,0.2,0.3
				c0.1,0.1,0.1,0.2,0.2,0.4c0.1,0.1,0.1,0.3,0.2,0.4l0,0c0-0.2,0-0.3,0-0.4c0-0.1,0-0.2,0-0.3c0-0.1,0-0.2,0-0.2V131h1.9v11.7
				H-714.8z"/>
			<path class="st15" d="M-704.3,142.7h-1.7l-0.2-1.1h-0.1c-0.1,0.2-0.2,0.3-0.4,0.5c-0.1,0.2-0.3,0.3-0.5,0.4
				c-0.2,0.1-0.4,0.2-0.6,0.3c-0.2,0.1-0.5,0.1-0.7,0.1c-0.3,0-0.7-0.1-1-0.2c-0.3-0.1-0.5-0.3-0.8-0.5c-0.3-0.2-0.4-0.5-0.5-0.9
				c-0.1-0.4-0.2-0.8-0.2-1.3v-6.3h2v5.7c0,0.6,0.1,1,0.3,1.2s0.5,0.4,0.9,0.4c0.2,0,0.4,0,0.6-0.1c0.2-0.1,0.3-0.2,0.4-0.4
				c0.1-0.2,0.2-0.3,0.3-0.6c0.1-0.2,0.1-0.5,0.1-0.7v-5.6h2L-704.3,142.7L-704.3,142.7z"/>
			<path class="st15" d="M-699.4,133.5c1.1,0,1.9,0.4,2.4,1.1c0.5,0.8,0.8,1.9,0.8,3.6v0.5h-4.6c0,0.4,0,0.8,0.1,1.1
				c0.1,0.3,0.1,0.6,0.2,0.8c0.1,0.2,0.2,0.4,0.4,0.5s0.4,0.2,0.6,0.2c0.3,0,0.6-0.1,0.8-0.4c0.2-0.3,0.3-0.7,0.3-1.3h2
				c0,0.6-0.1,1.1-0.2,1.5c-0.2,0.4-0.4,0.8-0.7,1.1c-0.3,0.3-0.6,0.5-1,0.6c-0.4,0.1-0.8,0.2-1.3,0.2c-1.1,0-2-0.4-2.6-1.1
				c-0.6-0.7-0.9-1.9-0.9-3.6c0-1.6,0.3-2.8,0.9-3.6C-701.3,133.9-700.5,133.5-699.4,133.5z M-699.4,135.2c-0.4,0-0.7,0.2-0.9,0.5
				c-0.2,0.3-0.3,0.9-0.3,1.5h2.4c0-0.7-0.1-1.2-0.3-1.5C-698.7,135.4-699,135.2-699.4,135.2z"/>
			<path class="st15" d="M-690.6,142.7h-2.1l-2.8-9h2.1l1.2,3.9c0,0.1,0,0.2,0.1,0.3c0,0.1,0.1,0.3,0.1,0.4c0,0.1,0.1,0.3,0.1,0.4
				c0,0.1,0.1,0.3,0.1,0.4c0.1,0.3,0.1,0.7,0.2,1.1h0.1c0-0.4,0.1-0.7,0.2-1c0-0.1,0-0.3,0.1-0.4c0-0.2,0.1-0.3,0.1-0.4
				c0-0.1,0.1-0.3,0.1-0.4c0-0.1,0.1-0.2,0.1-0.3l1.1-3.9h2L-690.6,142.7z"/>
			<path class="st15" d="M-683.5,133.5c1.2,0,2.1,0.4,2.7,1.1c0.6,0.7,0.9,1.9,0.9,3.6c0,1.6-0.3,2.8-0.9,3.6
				c-0.6,0.8-1.5,1.1-2.7,1.1c-1.2,0-2.1-0.4-2.7-1.1c-0.6-0.7-0.9-1.9-0.9-3.6c0-1.6,0.3-2.8,0.9-3.6S-684.7,133.5-683.5,133.5z
				 M-683.5,135.2c-0.5,0-0.9,0.2-1.1,0.7s-0.3,1.1-0.3,2v0.6c0,0.9,0.1,1.5,0.3,2s0.6,0.7,1.1,0.7s0.9-0.2,1.1-0.7s0.3-1.1,0.3-2
				v-0.6c0-0.9-0.1-1.5-0.3-2C-682.6,135.5-683,135.2-683.5,135.2z"/>
			<path class="st15" d="M-670.4,133.5c0.4,0,0.8,0.1,1.2,0.3c0.4,0.2,0.7,0.5,0.9,0.9c0.2,0.4,0.4,0.9,0.6,1.5
				c0.1,0.6,0.2,1.3,0.2,2.1c0,0.8-0.1,1.5-0.2,2.1c-0.1,0.6-0.3,1.1-0.6,1.5c-0.2,0.4-0.5,0.7-0.9,0.8c-0.3,0.2-0.7,0.3-1.1,0.3
				c-0.5,0-0.9-0.1-1.2-0.3c-0.4-0.2-0.6-0.5-0.8-0.8h-0.1v3.9h-2v-12.1h1.7l0.2,1.1h0.1c0.2-0.4,0.5-0.8,0.9-1
				C-671.2,133.6-670.8,133.5-670.4,133.5z M-671,135.4c-0.5,0-0.8,0.2-1.1,0.6c-0.2,0.4-0.3,1.1-0.3,1.9v0.6c0,0.8,0.1,1.4,0.3,1.9
				c0.2,0.4,0.6,0.7,1.1,0.7s0.8-0.2,1.1-0.6c0.2-0.4,0.3-1.1,0.3-1.9V138c0-0.8-0.1-1.4-0.3-1.9
				C-670.2,135.6-670.5,135.4-671,135.4z"/>
			<path class="st15" d="M-662.8,133.5c1.1,0,1.9,0.4,2.4,1.1c0.5,0.8,0.8,1.9,0.8,3.6v0.5h-4.6c0,0.4,0,0.8,0.1,1.1
				c0.1,0.3,0.1,0.6,0.2,0.8s0.2,0.4,0.4,0.5c0.2,0.1,0.4,0.2,0.6,0.2c0.3,0,0.6-0.1,0.8-0.4s0.3-0.7,0.3-1.3h2
				c0,0.6-0.1,1.1-0.2,1.5c-0.2,0.4-0.4,0.8-0.7,1.1s-0.6,0.5-1,0.6c-0.4,0.1-0.8,0.2-1.3,0.2c-1.1,0-2-0.4-2.6-1.1
				c-0.6-0.7-0.9-1.9-0.9-3.6c0-1.6,0.3-2.8,0.9-3.6C-664.8,133.9-663.9,133.5-662.8,133.5z M-662.8,135.2c-0.4,0-0.7,0.2-0.9,0.5
				s-0.3,0.9-0.3,1.5h2.4c0-0.7-0.1-1.2-0.3-1.5S-662.5,135.2-662.8,135.2z"/>
			<path class="st15" d="M-654.5,133.5c0.1,0,0.2,0,0.3,0s0.2,0,0.3,0c0.1,0,0.2,0,0.2,0.1v2h-0.7c-0.2,0-0.4,0-0.6,0.1
				c-0.2,0.1-0.4,0.2-0.5,0.3c-0.1,0.1-0.3,0.4-0.4,0.6c-0.1,0.2-0.1,0.6-0.1,1v5h-2v-9h1.7l0.2,1.3h0.1c0.1-0.2,0.1-0.4,0.2-0.6
				c0.1-0.2,0.2-0.3,0.3-0.5c0.1-0.2,0.3-0.3,0.4-0.3C-654.9,133.6-654.7,133.5-654.5,133.5z"/>
			<path class="st15" d="M-650.4,130.2c0.1,0,0.2,0,0.4,0c0.1,0,0.3,0,0.4,0c0.1,0,0.3,0,0.4,0.1c0.1,0,0.2,0,0.3,0.1v1.5h-0.8
				c-0.5,0-0.7,0.2-0.7,0.7v1h1.5v1.7h-1.5v7.2h-2v-7.2h-0.9v-1.7h0.9v-1c0-0.3,0-0.6,0.1-0.9c0.1-0.3,0.2-0.5,0.3-0.8
				c0.2-0.2,0.4-0.4,0.6-0.5C-651.2,130.3-650.8,130.2-650.4,130.2z"/>
			<path class="st15" d="M-646,132.2h-2v-1.8h2V132.2z M-646,142.7h-2v-9h2V142.7z"/>
			<path class="st15" d="M-642.1,142.7h-2v-12.3h2V142.7z"/>
		</g>
		<path class="st17" d="M-758.5,124.2h140.4c7.4,0,13.5,6.1,13.5,13.5l0,0c0,7.4-6.1,13.5-13.5,13.5h-140.4l13.4-13.5L-758.5,124.2z
			"/>
	</g>
	<g class="st7">
		<path class="st15" d="M-769.4,151.2h-127.4c-7.4,0-13.5-6-13.5-13.5l0,0c0-7.4,6.1-13.5,13.5-13.5h127.4l13.5,13.5L-769.4,151.2z"
			/>
		<g>
			<g>
				<path class="st16" d="M-879.5,130.8c0.6,0,1.2,0.1,1.7,0.3s1,0.5,1.4,0.8c0.4,0.4,0.7,0.8,0.9,1.4c0.2,0.6,0.3,1.3,0.3,2.1h-2.2
					c0-0.5-0.1-0.8-0.1-1.2c-0.1-0.3-0.2-0.6-0.4-0.8s-0.4-0.4-0.7-0.5s-0.5-0.2-0.8-0.2c-0.4,0-0.8,0.1-1.1,0.3
					c-0.3,0.2-0.6,0.4-0.8,0.7c-0.2,0.3-0.3,0.7-0.4,1.2s-0.1,1-0.1,1.6v0.8c0,0.6,0,1.1,0.1,1.6s0.3,0.9,0.5,1.2s0.5,0.6,0.8,0.7
					c0.3,0.2,0.7,0.3,1.1,0.3c0.3,0,0.6-0.1,0.9-0.2s0.5-0.3,0.7-0.5s0.3-0.5,0.4-0.8c0.1-0.3,0.1-0.7,0.1-1.2h2.1
					c0,0.8-0.1,1.4-0.3,2s-0.5,1-0.9,1.4c-0.4,0.4-0.8,0.7-1.4,0.8c-0.5,0.2-1.1,0.3-1.7,0.3c-0.7,0-1.4-0.1-2-0.4
					c-0.6-0.2-1.1-0.6-1.5-1.1s-0.7-1.1-0.9-1.9c-0.2-0.8-0.3-1.7-0.3-2.7s0.1-1.9,0.3-2.7c0.2-0.8,0.5-1.3,0.9-1.8s0.9-0.9,1.5-1.1
					C-880.9,130.9-880.2,130.8-879.5,130.8z"/>
				<path class="st16" d="M-870.4,133.5c1.2,0,2.1,0.4,2.7,1.1c0.6,0.7,0.9,1.9,0.9,3.6c0,1.6-0.3,2.8-0.9,3.6
					c-0.6,0.8-1.5,1.1-2.7,1.1s-2.1-0.4-2.7-1.1c-0.6-0.7-0.9-1.9-0.9-3.6c0-1.6,0.3-2.8,0.9-3.6
					C-872.5,133.8-871.6,133.5-870.4,133.5z M-870.4,135.2c-0.5,0-0.9,0.2-1.1,0.7c-0.2,0.5-0.3,1.1-0.3,2v0.6c0,0.9,0.1,1.5,0.3,2
					s0.6,0.7,1.1,0.7s0.9-0.2,1.1-0.7c0.2-0.5,0.3-1.1,0.3-2v-0.6c0-0.9-0.1-1.5-0.3-2C-869.5,135.4-869.8,135.2-870.4,135.2z"/>
				<path class="st16" d="M-860.9,133.5c0.3,0,0.7,0.1,1,0.2c0.3,0.1,0.5,0.3,0.8,0.5c0.2,0.2,0.4,0.5,0.5,0.9
					c0.1,0.4,0.2,0.8,0.2,1.3v6.3h-2V137c0-0.6-0.1-1-0.3-1.2c-0.2-0.2-0.5-0.4-0.9-0.4c-0.2,0-0.4,0-0.6,0.1
					c-0.2,0.1-0.3,0.2-0.4,0.4c-0.1,0.2-0.2,0.4-0.3,0.6c-0.1,0.2-0.1,0.4-0.1,0.7v5.5h-2v-9h1.7l0.2,1.1h0.1
					c0.1-0.2,0.3-0.3,0.4-0.5c0.1-0.2,0.3-0.3,0.5-0.4c0.2-0.1,0.4-0.2,0.6-0.3C-861.3,133.5-861.1,133.5-860.9,133.5z"/>
				<path class="st16" d="M-853.6,133.5c0.4,0,0.8,0.1,1.2,0.2c0.4,0.1,0.7,0.3,1,0.5s0.5,0.5,0.6,0.8c0.2,0.3,0.2,0.6,0.2,1
					c0,0.1,0,0.2,0,0.3c0,0.1,0,0.1,0,0.1h-2.1c0-0.4-0.1-0.7-0.3-0.9c-0.2-0.2-0.4-0.3-0.7-0.3s-0.6,0.1-0.8,0.2s-0.3,0.4-0.3,0.6
					c0,0.2,0.1,0.4,0.2,0.5c0.1,0.1,0.3,0.2,0.5,0.3c0.2,0.1,0.4,0.2,0.7,0.2c0.3,0.1,0.5,0.1,0.8,0.2c0.3,0.1,0.5,0.2,0.8,0.3
					c0.3,0.1,0.5,0.3,0.7,0.5c0.2,0.2,0.4,0.4,0.5,0.7c0.1,0.3,0.2,0.7,0.2,1.1c0,0.5-0.1,1-0.3,1.4c-0.2,0.4-0.4,0.7-0.7,0.9
					s-0.6,0.4-1.1,0.5c-0.4,0.1-0.9,0.1-1.3,0.1c-0.5,0-1-0.1-1.4-0.2c-0.4-0.1-0.7-0.3-1-0.6s-0.5-0.5-0.6-0.9
					c-0.1-0.3-0.2-0.7-0.2-1.2v-0.1v-0.1c0,0,0,0,0-0.1h2.1v0.1c0,0.2,0,0.4,0.1,0.6c0.1,0.2,0.2,0.3,0.3,0.4
					c0.1,0.1,0.2,0.2,0.4,0.2c0.1,0,0.3,0.1,0.4,0.1s0.3,0,0.4,0c0.1,0,0.3-0.1,0.4-0.2c0.1-0.1,0.2-0.2,0.3-0.3
					c0.1-0.1,0.1-0.3,0.1-0.5s-0.1-0.4-0.2-0.6c-0.1-0.1-0.3-0.3-0.5-0.4c-0.2-0.1-0.4-0.2-0.7-0.3s-0.5-0.1-0.8-0.2
					c-0.3-0.1-0.5-0.2-0.8-0.3s-0.5-0.3-0.7-0.5s-0.4-0.4-0.5-0.7s-0.2-0.7-0.2-1.1c0-0.5,0.1-0.9,0.3-1.2c0.2-0.3,0.4-0.6,0.7-0.9
					c0.3-0.2,0.6-0.4,1-0.5C-854.5,133.6-854.1,133.5-853.6,133.5z"/>
				<path class="st16" d="M-842.2,142.7h-1.7l-0.2-1.1h-0.1c-0.1,0.2-0.2,0.3-0.4,0.5s-0.3,0.3-0.5,0.4c-0.2,0.1-0.4,0.2-0.6,0.3
					c-0.2,0.1-0.5,0.1-0.7,0.1c-0.3,0-0.7-0.1-1-0.2c-0.3-0.1-0.5-0.3-0.8-0.5c-0.3-0.2-0.4-0.5-0.5-0.9c-0.1-0.4-0.2-0.8-0.2-1.3
					v-6.3h2v5.7c0,0.6,0.1,1,0.3,1.2c0.2,0.2,0.5,0.4,0.9,0.4c0.2,0,0.4,0,0.6-0.1c0.2-0.1,0.3-0.2,0.4-0.4c0.1-0.2,0.2-0.3,0.3-0.6
					c0.1-0.2,0.1-0.5,0.1-0.7v-5.6h2L-842.2,142.7L-842.2,142.7z"/>
				<path class="st16" d="M-838.3,142.7h-2v-12.3h2V142.7z"/>
				<path class="st16" d="M-834.2,133.7h1.3v1.7h-1.3v5c0,0.5,0.2,0.7,0.7,0.7h0.6v1.5c-0.1,0-0.2,0.1-0.3,0.1c-0.1,0-0.2,0-0.3,0.1
					c-0.1,0-0.2,0-0.3,0c-0.1,0-0.2,0-0.3,0c-0.4,0-0.8-0.1-1-0.2c-0.3-0.1-0.5-0.3-0.6-0.5c-0.2-0.2-0.3-0.5-0.3-0.8
					c-0.3-0.2-0.3-0.5-0.3-0.8v-5h-0.9v-1.7h0.9l0.3-2.5h1.7v2.4H-834.2z"/>
				<path class="st16" d="M-829,133.5c1,0,1.8,0.2,2.3,0.7s0.8,1.1,0.8,2v4.4c0,0.2,0,0.4,0.1,0.5c0.1,0.1,0.2,0.1,0.3,0.1h0.4v1.4
					c-0.1,0.1-0.3,0.1-0.5,0.2c-0.2,0.1-0.4,0.1-0.8,0.1c-0.4,0-0.8-0.1-1-0.3c-0.3-0.2-0.5-0.5-0.6-0.9h-0.1
					c-0.1,0.2-0.3,0.3-0.4,0.5c-0.1,0.1-0.3,0.3-0.5,0.4c-0.2,0.1-0.4,0.2-0.6,0.2c-0.2,0-0.5,0.1-0.8,0.1c-0.2,0-0.4,0-0.7-0.1
					c-0.3-0.1-0.5-0.2-0.7-0.4c-0.2-0.2-0.4-0.4-0.6-0.8c-0.2-0.3-0.2-0.8-0.2-1.3c0-0.6,0.1-1.1,0.3-1.5c0.2-0.4,0.5-0.7,0.9-1
					c0.4-0.2,0.9-0.4,1.4-0.5c0.5-0.1,1.1-0.2,1.8-0.2v-0.8c0-0.2,0-0.3,0-0.4s-0.1-0.3-0.1-0.3c0.1-0.2,0-0.3-0.2-0.3
					c-0.1-0.1-0.3-0.1-0.5-0.1c-0.2,0-0.4,0-0.5,0.1c-0.1,0.1-0.2,0.1-0.3,0.2c-0.1,0.1-0.1,0.2-0.2,0.3c0,0.1-0.1,0.2-0.1,0.3v0.2
					h-2c0,0,0-0.1,0-0.2v-0.2c0-0.4,0.1-0.7,0.2-1s0.3-0.6,0.6-0.8c0.3-0.2,0.6-0.4,1-0.5C-829.9,133.6-829.5,133.5-829,133.5z
					 M-828,138.7c-0.3,0-0.6,0-0.9,0.1c-0.3,0-0.5,0.1-0.7,0.2c-0.2,0.1-0.4,0.3-0.5,0.4c-0.1,0.2-0.2,0.4-0.2,0.7s0.1,0.6,0.2,0.7
					c0.2,0.2,0.4,0.3,0.8,0.3c0.2,0,0.5-0.1,0.6-0.2s0.3-0.2,0.4-0.4c0.1-0.2,0.2-0.4,0.2-0.6c0.1-0.2,0.1-0.5,0.1-0.8V138.7z"/>
				<path class="st16" d="M-820.4,133.5c0.1,0,0.2,0,0.3,0c0.1,0,0.2,0,0.3,0c0.1,0,0.2,0,0.2,0.1v2h-0.7c-0.2,0-0.4,0-0.6,0.1
					c-0.2,0.1-0.4,0.2-0.5,0.3c-0.1,0.1-0.3,0.4-0.4,0.6c-0.1,0.2-0.1,0.6-0.1,1v5h-2v-9h1.6l0.2,1.3h0.1c0.1-0.2,0.1-0.4,0.2-0.6
					c0.1-0.2,0.2-0.3,0.3-0.5c0.1-0.2,0.3-0.3,0.4-0.3C-820.8,133.6-820.6,133.5-820.4,133.5z"/>
				<path class="st16" d="M-810.6,133.5c0.4,0,0.8,0.1,1.2,0.3c0.4,0.2,0.7,0.5,0.9,0.9c0.2,0.4,0.4,0.9,0.6,1.5
					c0.1,0.6,0.2,1.3,0.2,2.1c0,0.8-0.1,1.5-0.2,2.1s-0.3,1.1-0.6,1.5c-0.2,0.4-0.5,0.7-0.9,0.8c-0.3,0.2-0.7,0.3-1.1,0.3
					c-0.5,0-0.9-0.1-1.2-0.3c-0.4-0.2-0.6-0.5-0.8-0.8h-0.1v3.9h-2v-12.1h1.7l0.2,1.1h0.1c0.2-0.4,0.5-0.8,0.9-1
					C-811.4,133.6-811.1,133.5-810.6,133.5z M-811.2,135.4c-0.5,0-0.8,0.2-1.1,0.6c-0.2,0.4-0.3,1.1-0.3,1.9v0.6
					c0,0.8,0.1,1.4,0.3,1.9c0.2,0.4,0.6,0.7,1.1,0.7s0.8-0.2,1.1-0.6c0.2-0.4,0.3-1.1,0.3-1.9V138c0-0.8-0.1-1.4-0.3-1.9
					C-810.4,135.6-810.7,135.4-811.2,135.4z"/>
				<path class="st16" d="M-803.1,133.5c1.1,0,1.9,0.4,2.4,1.1c0.5,0.8,0.8,1.9,0.8,3.6v0.5h-4.6c0,0.4,0,0.8,0.1,1.1
					s0.1,0.6,0.2,0.8c0.1,0.2,0.2,0.4,0.4,0.5c0.2,0.1,0.4,0.2,0.6,0.2c0.3,0,0.6-0.1,0.8-0.4s0.3-0.7,0.3-1.3h2
					c0,0.6-0.1,1.1-0.2,1.5c-0.2,0.4-0.4,0.8-0.7,1.1s-0.6,0.5-1,0.6c-0.4,0.1-0.8,0.2-1.3,0.2c-1.1,0-2-0.4-2.6-1.1
					c-0.6-0.7-0.9-1.9-0.9-3.6c0-1.6,0.3-2.8,0.9-3.6C-805,133.9-804.2,133.5-803.1,133.5z M-803.1,135.2c-0.4,0-0.7,0.2-0.9,0.5
					c-0.2,0.3-0.3,0.9-0.3,1.5h2.4c0-0.7-0.1-1.2-0.3-1.5S-802.7,135.2-803.1,135.2z"/>
				<path class="st16" d="M-794.7,133.5c0.1,0,0.2,0,0.3,0c0.1,0,0.2,0,0.3,0c0.1,0,0.2,0,0.2,0.1v2h-0.7c-0.2,0-0.4,0-0.6,0.1
					c-0.2,0.1-0.4,0.2-0.5,0.3c-0.1,0.1-0.3,0.4-0.4,0.6c-0.1,0.2-0.1,0.6-0.1,1v5h-2v-9h1.7l0.2,1.3h0.1c0.1-0.2,0.1-0.4,0.2-0.6
					c0.1-0.2,0.2-0.3,0.3-0.5c0.1-0.2,0.3-0.3,0.4-0.3C-795.2,133.6-795,133.5-794.7,133.5z"/>
				<path class="st16" d="M-790.7,130.2c0.1,0,0.2,0,0.4,0c0.1,0,0.3,0,0.4,0s0.3,0,0.4,0.1c0.1,0,0.2,0,0.3,0.1v1.5h-0.8
					c-0.5,0-0.7,0.2-0.7,0.7v1h1.5v1.7h-1.5v7.2h-2v-7.2h-0.9v-1.7h0.9v-1c0-0.3,0-0.6,0.1-0.9c0.1-0.3,0.2-0.5,0.3-0.8
					c0.2-0.2,0.4-0.4,0.6-0.5C-791.4,130.3-791.1,130.2-790.7,130.2z"/>
				<path class="st16" d="M-786.2,132.2h-2v-1.8h2V132.2z M-786.2,142.7h-2v-9h2V142.7z"/>
				<path class="st16" d="M-782.3,142.7h-2v-12.3h2V142.7z"/>
			</g>
		</g>
		<g>
			<path class="st15" d="M-719.1,142.7V131h7.5v1.9h-5.3v2.8h4.5v1.9h-4.5v3.1h5.4v1.9h-7.6V142.7z"/>
			<path class="st15" d="M-703.2,142.7h-1.7l-0.2-1.1h-0.1c-0.2,0.4-0.5,0.8-0.9,1c-0.4,0.2-0.7,0.3-1.2,0.3c-0.4,0-0.8-0.1-1.2-0.3
				c-0.4-0.2-0.7-0.5-0.9-0.9c-0.2-0.4-0.4-0.9-0.6-1.5c-0.1-0.6-0.2-1.3-0.2-2.1s0.1-1.5,0.2-2.1c0.1-0.6,0.3-1.1,0.6-1.5
				c0.2-0.4,0.5-0.7,0.9-0.8c0.3-0.2,0.7-0.3,1.1-0.3c0.4,0,0.9,0.1,1.2,0.3c0.4,0.2,0.6,0.5,0.8,0.8h0.1v-4.1h2L-703.2,142.7
				L-703.2,142.7z M-706.6,135.4c-0.5,0-0.8,0.2-1.1,0.6c-0.2,0.4-0.3,1.1-0.3,1.9v0.6c0,0.8,0.1,1.4,0.3,1.9
				c0.2,0.4,0.6,0.6,1.1,0.6s0.8-0.2,1.1-0.6c0.2-0.4,0.3-1.1,0.3-1.9v-0.6c0-0.4,0-0.8-0.1-1.1c-0.1-0.3-0.1-0.6-0.2-0.8
				c-0.1-0.2-0.2-0.4-0.4-0.5C-706.2,135.4-706.4,135.4-706.6,135.4z"/>
			<path class="st15" d="M-699.3,132.2h-2v-1.8h2V132.2z M-699.3,142.7h-2v-9h2V142.7z"/>
			<path class="st15" d="M-695.3,133.7h1.3v1.7h-1.3v5c0,0.5,0.2,0.7,0.7,0.7h0.6v1.5c-0.1,0-0.2,0.1-0.3,0.1c-0.1,0-0.2,0-0.3,0.1
				c-0.1,0-0.2,0-0.3,0c-0.1,0-0.2,0-0.3,0c-0.4,0-0.8-0.1-1-0.2c-0.3-0.1-0.5-0.3-0.6-0.5c-0.2-0.2-0.3-0.5-0.3-0.8
				c-0.1-0.3-0.1-0.6-0.1-0.9v-5h-1.1v-1.7h0.9l0.3-2.5h1.7L-695.3,133.7L-695.3,133.7z"/>
			<path class="st15" d="M-690.1,133.5c1,0,1.8,0.2,2.3,0.7s0.8,1.1,0.8,2v4.4c0,0.2,0,0.4,0.1,0.5c0.1,0.1,0.2,0.1,0.3,0.1h0.4v1.4
				c-0.1,0.1-0.3,0.1-0.5,0.2c-0.2,0.1-0.4,0.1-0.8,0.1c-0.4,0-0.8-0.1-1-0.3c-0.3-0.2-0.5-0.5-0.6-0.9h-0.1
				c-0.1,0.2-0.3,0.3-0.4,0.5c-0.1,0.1-0.3,0.3-0.5,0.4c-0.2,0.1-0.4,0.2-0.6,0.2s-0.5,0.1-0.8,0.1c-0.2,0-0.4,0-0.7-0.1
				c-0.3-0.1-0.5-0.2-0.7-0.4s-0.4-0.4-0.6-0.8c-0.2-0.3-0.2-0.8-0.2-1.3c0-0.6,0.1-1.1,0.3-1.5c0.2-0.4,0.5-0.7,0.9-1
				c0.4-0.2,0.9-0.4,1.4-0.5c0.5-0.1,1.1-0.2,1.8-0.2v-0.8c0-0.2,0-0.3,0-0.4s-0.1-0.3-0.1-0.3c-0.1-0.1-0.2-0.2-0.3-0.2
				c-0.1-0.1-0.3-0.1-0.5-0.1c-0.2,0-0.4,0-0.5,0.1c-0.1,0.1-0.2,0.1-0.3,0.2c-0.1,0.1-0.1,0.2-0.2,0.3c0,0.1-0.1,0.2-0.1,0.3v0.2
				h-2c0,0,0-0.1,0-0.2V136c0-0.4,0.1-0.7,0.2-1c0.1-0.3,0.3-0.6,0.6-0.8s0.6-0.4,1-0.5C-690.9,133.6-690.5,133.5-690.1,133.5z
				 M-689.1,138.7c-0.3,0-0.6,0-0.9,0.1c-0.3,0-0.5,0.1-0.7,0.2c-0.2,0.1-0.4,0.3-0.5,0.4c-0.1,0.2-0.2,0.4-0.2,0.7s0.1,0.6,0.2,0.7
				c0.2,0.2,0.4,0.3,0.8,0.3c0.2,0,0.5-0.1,0.6-0.2c0.1-0.1,0.3-0.2,0.4-0.4c0.1-0.2,0.2-0.4,0.2-0.6c0.1-0.2,0.1-0.5,0.1-0.8V138.7
				L-689.1,138.7z"/>
			<path class="st15" d="M-681.4,133.5c0.1,0,0.2,0,0.3,0c0.1,0,0.2,0,0.3,0c0.1,0,0.2,0,0.2,0.1v2h-0.7c-0.2,0-0.4,0-0.6,0.1
				c-0.2,0.1-0.4,0.2-0.5,0.3c-0.1,0.1-0.3,0.4-0.4,0.6c-0.1,0.2-0.1,0.6-0.1,1v5h-2v-9h1.7l0.2,1.3h0.1c0.1-0.2,0.1-0.4,0.2-0.6
				c0.1-0.2,0.2-0.3,0.3-0.5c0.1-0.2,0.3-0.3,0.4-0.3C-681.9,133.6-681.7,133.5-681.4,133.5z"/>
			<path class="st15" d="M-671.7,133.5c0.4,0,0.8,0.1,1.2,0.3c0.4,0.2,0.7,0.5,0.9,0.9c0.2,0.4,0.4,0.9,0.6,1.5
				c0.1,0.6,0.2,1.3,0.2,2.1c0,0.8-0.1,1.5-0.2,2.1c-0.1,0.6-0.3,1.1-0.6,1.5c-0.2,0.4-0.5,0.7-0.9,0.8c-0.3,0.2-0.7,0.3-1.1,0.3
				c-0.5,0-0.9-0.1-1.2-0.3c-0.4-0.2-0.6-0.5-0.8-0.8h-0.1v3.9h-2v-12.1h1.7l0.2,1.1h0.1c0.2-0.4,0.5-0.8,0.9-1
				C-672.5,133.6-672.1,133.5-671.7,133.5z M-672.3,135.4c-0.5,0-0.8,0.2-1.1,0.6c-0.2,0.4-0.3,1.1-0.3,1.9v0.6
				c0,0.8,0.1,1.4,0.3,1.9c0.2,0.4,0.6,0.7,1.1,0.7s0.8-0.2,1.1-0.6c0.2-0.4,0.3-1.1,0.3-1.9V138c0-0.8-0.1-1.4-0.3-1.9
				C-671.5,135.6-671.8,135.4-672.3,135.4z"/>
			<path class="st15" d="M-664.1,133.5c1.1,0,1.9,0.4,2.4,1.1c0.5,0.8,0.8,1.9,0.8,3.6v0.5h-4.6c0,0.4,0,0.8,0.1,1.1
				c0.1,0.3,0.1,0.6,0.2,0.8c0.1,0.2,0.2,0.4,0.4,0.5s0.4,0.2,0.6,0.2c0.3,0,0.6-0.1,0.8-0.4s0.3-0.7,0.3-1.3h2
				c0,0.6-0.1,1.1-0.2,1.5c-0.2,0.4-0.4,0.8-0.7,1.1c-0.3,0.3-0.6,0.5-1,0.6c-0.4,0.1-0.8,0.2-1.3,0.2c-1.1,0-2-0.4-2.6-1.1
				c-0.6-0.7-0.9-1.9-0.9-3.6c0-1.6,0.3-2.8,0.9-3.6C-666.1,133.9-665.2,133.5-664.1,133.5z M-664.1,135.2c-0.4,0-0.7,0.2-0.9,0.5
				c-0.2,0.3-0.3,0.9-0.3,1.5h2.4c0-0.7-0.1-1.2-0.3-1.5C-663.4,135.4-663.8,135.2-664.1,135.2z"/>
			<path class="st15" d="M-655.8,133.5c0.1,0,0.2,0,0.3,0c0.1,0,0.2,0,0.3,0c0.1,0,0.2,0,0.2,0.1v2h-0.7c-0.2,0-0.4,0-0.6,0.1
				c-0.2,0.1-0.4,0.2-0.5,0.3c-0.1,0.1-0.3,0.4-0.4,0.6s-0.1,0.6-0.1,1v5h-2v-9h1.7l0.2,1.3h0.1c0.1-0.2,0.1-0.4,0.2-0.6
				c0.1-0.2,0.2-0.3,0.3-0.5c0.1-0.2,0.3-0.3,0.4-0.3C-656.2,133.6-656,133.5-655.8,133.5z"/>
			<path class="st15" d="M-651.7,130.2c0.1,0,0.2,0,0.4,0c0.1,0,0.3,0,0.4,0c0.1,0,0.3,0,0.4,0.1c0.1,0,0.2,0,0.3,0.1v1.5h-0.8
				c-0.5,0-0.7,0.2-0.7,0.7v1h1.5v1.7h-1.5v7.2h-2v-7.2h-0.9v-1.7h0.9v-1c0-0.3,0-0.6,0.1-0.9c0.1-0.3,0.2-0.5,0.3-0.8
				c0.2-0.2,0.4-0.4,0.6-0.5S-652.1,130.2-651.7,130.2z"/>
			<path class="st15" d="M-647.3,132.2h-2v-1.8h2V132.2z M-647.3,142.7h-2v-9h2V142.7z"/>
			<path class="st15" d="M-643.4,142.7h-2v-12.3h2V142.7z"/>
		</g>
		<path class="st17" d="M-758.3,124.2h140.4c7.4,0,13.5,6.1,13.5,13.5l0,0c0,7.4-6.1,13.5-13.5,13.5h-140.4l13.4-13.5L-758.3,124.2z
			"/>
	</g>
	<g class="st7">
		<path class="st15" d="M-769.4,151.2h-127.4c-7.4,0-13.5-6-13.5-13.5l0,0c0-7.4,6.1-13.5,13.5-13.5h127.4l13.5,13.5L-769.4,151.2z"
			/>
		<g>
			<g>
				<path class="st16" d="M-887.7,130.8c0.6,0,1.2,0.1,1.7,0.3s1,0.5,1.4,0.8c0.4,0.4,0.7,0.8,0.9,1.4c0.2,0.6,0.3,1.3,0.3,2.1h-2.2
					c0-0.5-0.1-0.8-0.1-1.2c-0.1-0.3-0.2-0.6-0.4-0.8s-0.4-0.4-0.7-0.5c-0.3-0.1-0.5-0.2-0.8-0.2c-0.4,0-0.8,0.1-1.1,0.3
					c-0.3,0.2-0.6,0.4-0.8,0.7c-0.2,0.3-0.3,0.7-0.4,1.2s-0.1,1-0.1,1.6v0.8c0,0.6,0,1.1,0.1,1.6s0.3,0.9,0.5,1.2s0.5,0.6,0.8,0.7
					c0.3,0.2,0.7,0.3,1.1,0.3c0.3,0,0.6-0.1,0.9-0.2s0.5-0.3,0.7-0.5s0.3-0.5,0.4-0.8c0.1-0.3,0.1-0.7,0.1-1.2h2.1
					c0,0.8-0.1,1.4-0.3,2s-0.5,1-0.9,1.4c-0.4,0.4-0.8,0.7-1.4,0.8c-0.5,0.2-1.1,0.3-1.7,0.3c-0.7,0-1.4-0.1-2-0.4
					c-0.6-0.2-1.1-0.6-1.5-1.1c-0.4-0.5-0.7-1.1-0.9-1.9c-0.2-0.8-0.3-1.7-0.3-2.7s0.1-1.9,0.3-2.7c0.2-0.8,0.5-1.4,0.9-1.9
					c0.4-0.5,0.9-0.9,1.5-1.1C-889,130.9-888.4,130.8-887.7,130.8z"/>
				<path class="st16" d="M-878.5,133.5c1.2,0,2.1,0.4,2.7,1.1c0.6,0.7,0.9,1.9,0.9,3.6c0,1.6-0.3,2.8-0.9,3.6
					c-0.6,0.8-1.5,1.1-2.7,1.1c-1.2,0-2.1-0.4-2.7-1.1c-0.6-0.7-0.9-1.9-0.9-3.6c0-1.6,0.3-2.8,0.9-3.6
					C-880.6,133.8-879.7,133.5-878.5,133.5z M-878.5,135.2c-0.5,0-0.9,0.2-1.1,0.7s-0.3,1.1-0.3,2v0.6c0,0.9,0.1,1.5,0.3,2
					s0.6,0.7,1.1,0.7s0.9-0.2,1.1-0.7s0.3-1.1,0.3-2v-0.6c0-0.9-0.1-1.5-0.3-2S-878,135.2-878.5,135.2z"/>
				<path class="st16" d="M-869,133.5c0.3,0,0.7,0.1,1,0.2c0.3,0.1,0.5,0.3,0.8,0.5c0.2,0.2,0.4,0.5,0.5,0.9
					c0.1,0.4,0.2,0.8,0.2,1.3v6.3h-2V137c0-0.6-0.1-1-0.3-1.2c-0.2-0.2-0.5-0.4-0.9-0.4c-0.2,0-0.4,0-0.6,0.1
					c-0.2,0.1-0.3,0.2-0.4,0.4c-0.1,0.2-0.2,0.4-0.3,0.6c-0.1,0.2-0.1,0.4-0.1,0.7v5.5h-2v-9h1.7l0.2,1.1h-0.1
					c0.1-0.2,0.3-0.3,0.4-0.5c0.1-0.2,0.3-0.3,0.5-0.4s0.4-0.2,0.6-0.3C-869.6,133.5-869.3,133.5-869,133.5z"/>
				<path class="st16" d="M-861.8,133.5c0.4,0,0.8,0.1,1.2,0.2c0.4,0.1,0.7,0.3,1,0.5s0.5,0.5,0.6,0.8c0.2,0.3,0.2,0.6,0.2,1
					c0,0.1,0,0.2,0,0.3c0,0.1,0,0.1,0,0.1h-2.1c0-0.4-0.1-0.7-0.3-0.9c-0.2-0.2-0.4-0.3-0.7-0.3s-0.6,0.1-0.8,0.2s-0.3,0.4-0.3,0.6
					c0,0.2,0.1,0.4,0.2,0.5c0.1,0.1,0.3,0.2,0.5,0.3c0.2,0.1,0.4,0.2,0.7,0.2c0.3,0.1,0.5,0.1,0.8,0.2c0.3,0.1,0.5,0.2,0.8,0.3
					c0.3,0.1,0.5,0.3,0.7,0.5c0.2,0.2,0.4,0.4,0.5,0.7c0.1,0.3,0.2,0.7,0.2,1.1c0,0.5-0.1,1-0.3,1.4c-0.2,0.4-0.4,0.7-0.7,0.9
					c-0.3,0.2-0.6,0.4-1.1,0.5c-0.4,0.1-0.9,0.1-1.3,0.1c-0.5,0-1-0.1-1.4-0.2c-0.4-0.1-0.7-0.3-1-0.6s-0.5-0.5-0.6-0.9
					c-0.1-0.3-0.2-0.7-0.2-1.2v-0.1v-0.1c0,0,0,0,0-0.1h2.1v0.1c0,0.2,0,0.4,0.1,0.6c0.1,0.2,0.2,0.3,0.3,0.4s0.2,0.2,0.4,0.2
					c0.1,0,0.3,0.1,0.4,0.1c0.1,0,0.3,0,0.4,0c0.1,0,0.3-0.1,0.4-0.2c0.1-0.1,0.2-0.2,0.3-0.3c0.1-0.1,0.1-0.3,0.1-0.5
					s-0.1-0.4-0.2-0.6c-0.1-0.1-0.3-0.3-0.5-0.4c-0.2-0.1-0.4-0.2-0.7-0.3c-0.3-0.1-0.5-0.1-0.8-0.2c-0.3-0.1-0.5-0.2-0.8-0.3
					s-0.5-0.3-0.7-0.5s-0.4-0.4-0.5-0.7c-0.1-0.3-0.2-0.7-0.2-1.1c0-0.5,0.1-0.9,0.3-1.2c0.2-0.3,0.4-0.6,0.7-0.9
					c0.3-0.2,0.6-0.4,1-0.5C-862.7,133.6-862.3,133.5-861.8,133.5z"/>
				<path class="st16" d="M-850.3,142.7h-1.7l-0.2-1.1h-0.1c-0.1,0.2-0.3,0.3-0.4,0.5c-0.1,0.2-0.3,0.3-0.5,0.4
					c-0.2,0.1-0.4,0.2-0.6,0.3c-0.2,0.1-0.5,0.1-0.7,0.1c-0.3,0-0.7-0.1-1-0.2c-0.3-0.1-0.5-0.3-0.8-0.5c-0.3-0.2-0.4-0.5-0.5-0.9
					c-0.1-0.4-0.2-0.8-0.2-1.3v-6.3h2v5.7c0,0.6,0.1,1,0.3,1.2s0.5,0.4,0.9,0.4c0.2,0,0.4,0,0.6-0.1c0.2-0.1,0.3-0.2,0.4-0.4
					c0.1-0.2,0.2-0.3,0.3-0.6c0.1-0.2,0.1-0.5,0.1-0.7v-5.6h2L-850.3,142.7L-850.3,142.7z"/>
				<path class="st16" d="M-846.4,142.7h-2v-12.3h2V142.7z"/>
				<path class="st16" d="M-842.4,133.7h1.3v1.7h-1.3v5c0,0.5,0.2,0.7,0.7,0.7h0.6v1.5c-0.1,0-0.2,0.1-0.3,0.1s-0.2,0-0.3,0.1
					c-0.1,0-0.2,0-0.3,0c-0.1,0-0.2,0-0.3,0c-0.4,0-0.8-0.1-1-0.2c-0.3-0.1-0.5-0.3-0.6-0.5c-0.2-0.2-0.3-0.5-0.3-0.8
					c-0.1-0.3-0.1-0.6-0.1-0.9v-5h-0.9v-1.7h0.9l0.3-2.5h1.7L-842.4,133.7L-842.4,133.7z"/>
				<path class="st16" d="M-837.2,133.5c1,0,1.8,0.2,2.3,0.7s0.8,1.1,0.8,2v4.4c0,0.2,0,0.4,0.1,0.5c0.1,0.1,0.2,0.1,0.3,0.1h0.4
					v1.4c-0.1,0.1-0.3,0.1-0.5,0.2c-0.2,0.1-0.4,0.1-0.8,0.1c-0.4,0-0.8-0.1-1-0.3c-0.3-0.2-0.5-0.5-0.6-0.9h-0.1
					c-0.1,0.2-0.3,0.3-0.4,0.5c-0.1,0.1-0.3,0.3-0.5,0.4c-0.2,0.1-0.4,0.2-0.6,0.2c-0.2,0-0.5,0.1-0.8,0.1c-0.2,0-0.4,0-0.7-0.1
					c-0.3-0.1-0.5-0.2-0.7-0.4s-0.4-0.4-0.6-0.8c-0.2-0.3-0.2-0.8-0.2-1.3c0-0.6,0.1-1.1,0.3-1.5c0.2-0.4,0.5-0.7,0.9-1
					c0.4-0.2,0.9-0.4,1.4-0.5c0.5-0.1,1.1-0.2,1.8-0.2v-0.8c0-0.2,0-0.3,0-0.4s-0.1-0.3-0.1-0.3c-0.1-0.1-0.2-0.2-0.3-0.2
					c-0.1-0.1-0.3-0.1-0.5-0.1s-0.4,0-0.5,0.1c-0.1,0.1-0.2,0.1-0.3,0.2c-0.1,0.1-0.1,0.2-0.2,0.3c0,0.1-0.1,0.2-0.1,0.3v0.2h-2
					c0,0,0-0.1,0-0.2V136c0-0.4,0.1-0.7,0.2-1c0.1-0.3,0.3-0.6,0.6-0.8c0.3-0.2,0.6-0.4,1-0.5C-838,133.6-837.6,133.5-837.2,133.5z
					 M-836.2,138.7c-0.3,0-0.6,0-0.9,0.1c-0.3,0-0.5,0.1-0.7,0.2c-0.2,0.1-0.4,0.3-0.5,0.4c-0.1,0.2-0.2,0.4-0.2,0.7
					s0.1,0.6,0.2,0.7c0.2,0.2,0.4,0.3,0.8,0.3c0.2,0,0.5-0.1,0.6-0.2s0.3-0.2,0.4-0.4c0.1-0.2,0.2-0.4,0.2-0.6
					c0.1-0.2,0.1-0.5,0.1-0.8V138.7z"/>
				<path class="st16" d="M-828.5,133.5c0.1,0,0.2,0,0.3,0c0.1,0,0.2,0,0.3,0c0.1,0,0.2,0,0.2,0.1v2h-0.7c-0.2,0-0.4,0-0.6,0.1
					c-0.2,0.1-0.4,0.2-0.5,0.3c-0.1,0.1-0.3,0.4-0.4,0.6c-0.1,0.2-0.1,0.6-0.1,1v5h-2v-9h1.7l0.2,1.3h0.1c0.1-0.2,0.1-0.4,0.2-0.6
					c0.1-0.2,0.2-0.3,0.3-0.5c0.1-0.2,0.3-0.3,0.4-0.3C-829,133.6-828.8,133.5-828.5,133.5z"/>
				<path class="st16" d="M-816.1,142.7h-1.7l-0.2-1.1h-0.1c-0.1,0.2-0.2,0.3-0.4,0.5c-0.1,0.2-0.3,0.3-0.5,0.4
					c-0.2,0.1-0.4,0.2-0.6,0.3c-0.2,0.1-0.5,0.1-0.7,0.1c-0.3,0-0.7-0.1-1-0.2c-0.3-0.1-0.5-0.3-0.8-0.5c-0.3-0.2-0.4-0.5-0.5-0.9
					c-0.1-0.4-0.2-0.8-0.2-1.3v-6.3h2v5.7c0,0.6,0.1,1,0.3,1.2s0.5,0.4,0.9,0.4c0.2,0,0.4,0,0.6-0.1c0.2-0.1,0.3-0.2,0.4-0.4
					c0.1-0.2,0.2-0.3,0.3-0.6c0.1-0.2,0.1-0.5,0.1-0.7v-5.6h2L-816.1,142.7L-816.1,142.7z"/>
				<path class="st16" d="M-811.3,133.5c0.4,0,0.8,0.1,1.2,0.2c0.4,0.1,0.7,0.3,1,0.5s0.5,0.5,0.6,0.8c0.2,0.3,0.2,0.6,0.2,1
					c0,0.1,0,0.2,0,0.3c0,0.1,0,0.1,0,0.1h-2.1c0-0.4-0.1-0.7-0.3-0.9c-0.2-0.2-0.4-0.3-0.7-0.3s-0.6,0.1-0.8,0.2s-0.3,0.4-0.3,0.6
					c0,0.2,0.1,0.4,0.2,0.5c0.1,0.1,0.3,0.2,0.5,0.3c0.2,0.1,0.4,0.2,0.7,0.2c0.3,0.1,0.5,0.1,0.8,0.2c0.3,0.1,0.5,0.2,0.8,0.3
					c0.3,0.1,0.5,0.3,0.7,0.5c0.2,0.2,0.4,0.4,0.5,0.7c0.1,0.3,0.2,0.7,0.2,1.1c0,0.5-0.1,1-0.3,1.4c-0.2,0.4-0.4,0.7-0.7,0.9
					s-0.6,0.4-1.1,0.5c-0.4,0.1-0.9,0.1-1.3,0.1c-0.5,0-1-0.1-1.4-0.2c-0.4-0.1-0.7-0.3-1-0.6c-0.3-0.3-0.5-0.5-0.6-0.9
					c-0.1-0.3-0.2-0.7-0.2-1.2v-0.1v-0.1c0,0,0,0,0-0.1h2.1v0.1c0,0.2,0,0.4,0.1,0.6c0.1,0.2,0.2,0.3,0.3,0.4
					c0.1,0.1,0.2,0.2,0.4,0.2c0.1,0,0.3,0.1,0.4,0.1c0.1,0,0.3,0,0.4,0c0.1,0,0.3-0.1,0.4-0.2c0.1-0.1,0.2-0.2,0.3-0.3
					c0.1-0.1,0.1-0.3,0.1-0.5s-0.1-0.4-0.2-0.6c-0.1-0.1-0.3-0.3-0.5-0.4c-0.2-0.1-0.4-0.2-0.7-0.3s-0.5-0.1-0.8-0.2
					c-0.3-0.1-0.5-0.2-0.8-0.3c-0.3-0.1-0.5-0.3-0.7-0.5s-0.4-0.4-0.5-0.7s-0.2-0.7-0.2-1.1c0-0.5,0.1-0.9,0.3-1.2
					c0.2-0.3,0.4-0.6,0.7-0.9c0.3-0.2,0.6-0.4,1-0.5C-812.2,133.6-811.8,133.5-811.3,133.5z"/>
				<path class="st16" d="M-799.8,142.7h-1.7l-0.2-1.1h-0.1c-0.1,0.2-0.2,0.3-0.4,0.5c-0.1,0.2-0.3,0.3-0.5,0.4
					c-0.2,0.1-0.4,0.2-0.6,0.3c-0.2,0.1-0.5,0.1-0.7,0.1c-0.3,0-0.7-0.1-1-0.2c-0.3-0.1-0.5-0.3-0.8-0.5c-0.3-0.2-0.4-0.5-0.5-0.9
					c-0.1-0.4-0.2-0.8-0.2-1.3v-6.3h2v5.7c0,0.6,0.1,1,0.3,1.2s0.5,0.4,0.9,0.4c0.2,0,0.4,0,0.6-0.1c0.2-0.1,0.3-0.2,0.4-0.4
					c0.1-0.2,0.2-0.3,0.3-0.6c0.1-0.2,0.1-0.5,0.1-0.7v-5.6h2L-799.8,142.7L-799.8,142.7z"/>
				<path class="st16" d="M-795.2,133.5c1,0,1.8,0.2,2.3,0.7s0.8,1.1,0.8,2v4.4c0,0.2,0,0.4,0.1,0.5c0.1,0.1,0.2,0.1,0.3,0.1h0.4
					v1.4c-0.1,0.1-0.3,0.1-0.5,0.2c-0.2,0.1-0.4,0.1-0.8,0.1c-0.4,0-0.8-0.1-1-0.3c-0.3-0.2-0.5-0.5-0.6-0.9h-0.1
					c-0.1,0.2-0.3,0.3-0.4,0.5c-0.1,0.1-0.3,0.3-0.5,0.4c-0.2,0.1-0.4,0.2-0.6,0.2c-0.2,0-0.5,0.1-0.8,0.1c-0.2,0-0.4,0-0.7-0.1
					c-0.3-0.1-0.5-0.2-0.7-0.4s-0.4-0.4-0.6-0.8c-0.2-0.3-0.2-0.8-0.2-1.3c0-0.6,0.1-1.1,0.3-1.5c0.2-0.4,0.5-0.7,0.9-1
					c0.4-0.2,0.9-0.4,1.4-0.5c0.5-0.1,1.1-0.2,1.8-0.2v-0.8c0-0.2,0-0.3,0-0.4s-0.1-0.3-0.1-0.3c-0.1-0.1-0.2-0.2-0.3-0.2
					c-0.1-0.1-0.3-0.1-0.5-0.1s-0.4,0-0.5,0.1c-0.1,0.1-0.2,0.1-0.3,0.2c-0.1,0.1-0.1,0.2-0.2,0.3c0,0.1-0.1,0.2-0.1,0.3v0.2h-2
					c0,0,0-0.1,0-0.2V136c0-0.4,0.1-0.7,0.2-1c0.1-0.3,0.3-0.6,0.6-0.8c0.3-0.2,0.6-0.4,1-0.5C-796.1,133.6-795.7,133.5-795.2,133.5
					z M-794.2,138.7c-0.3,0-0.6,0-0.9,0.1c-0.3,0-0.5,0.1-0.7,0.2c-0.2,0.1-0.4,0.3-0.5,0.4c-0.1,0.2-0.2,0.4-0.2,0.7
					s0.1,0.6,0.2,0.7c0.2,0.2,0.4,0.3,0.8,0.3c0.2,0,0.5-0.1,0.6-0.2s0.3-0.2,0.4-0.4c0.1-0.2,0.2-0.4,0.2-0.6
					c0.1-0.2,0.1-0.5,0.1-0.8V138.7z"/>
				<path class="st16" d="M-786.6,133.5c0.1,0,0.2,0,0.3,0c0.1,0,0.2,0,0.3,0c0.1,0,0.2,0,0.2,0.1v2h-0.7c-0.2,0-0.4,0-0.6,0.1
					c-0.2,0.1-0.4,0.2-0.5,0.3c-0.1,0.1-0.3,0.4-0.4,0.6c-0.1,0.2-0.1,0.6-0.1,1v5h-2v-9h1.7l0.2,1.3h0.1c0.1-0.2,0.1-0.4,0.2-0.6
					c0.1-0.2,0.2-0.3,0.3-0.5c0.1-0.2,0.3-0.3,0.4-0.3C-787,133.6-786.8,133.5-786.6,133.5z"/>
				<path class="st16" d="M-782.7,132.2h-2v-1.8h2V132.2z M-782.7,142.7h-2v-9h2V142.7z"/>
				<path class="st16" d="M-777.5,133.5c1.2,0,2.1,0.4,2.7,1.1c0.6,0.7,0.9,1.9,0.9,3.6c0,1.6-0.3,2.8-0.9,3.6
					c-0.6,0.8-1.5,1.1-2.7,1.1c-1.2,0-2.1-0.4-2.7-1.1c-0.6-0.7-0.9-1.9-0.9-3.6c0-1.6,0.3-2.8,0.9-3.6S-778.7,133.5-777.5,133.5z
					 M-777.5,135.2c-0.5,0-0.9,0.2-1.1,0.7s-0.3,1.1-0.3,2v0.6c0,0.9,0.1,1.5,0.3,2s0.6,0.7,1.1,0.7s0.9-0.2,1.1-0.7s0.3-1.1,0.3-2
					v-0.6c0-0.9-0.1-1.5-0.3-2C-776.6,135.5-777,135.2-777.5,135.2z"/>
			</g>
		</g>
		<g>
			<path class="st15" d="M-727.3,142.7V131h7.5v1.9h-5.3v2.8h4.5v1.9h-4.5v3.1h5.4v1.9h-7.6V142.7z"/>
			<path class="st15" d="M-711.4,142.7h-1.7l-0.2-1.1h-0.1c-0.2,0.4-0.5,0.8-0.9,1c-0.4,0.2-0.7,0.3-1.2,0.3c-0.4,0-0.8-0.1-1.2-0.3
				c-0.4-0.2-0.7-0.5-0.9-0.9c-0.2-0.4-0.4-0.9-0.6-1.5c-0.1-0.6-0.2-1.3-0.2-2.1s0.1-1.5,0.2-2.1c0.1-0.6,0.3-1.1,0.6-1.5
				c0.2-0.4,0.5-0.7,0.9-0.8c0.3-0.2,0.7-0.3,1.1-0.3c0.4,0,0.9,0.1,1.2,0.3c0.4,0.2,0.6,0.5,0.8,0.8h0.1v-4.1h2L-711.4,142.7
				L-711.4,142.7z M-714.8,135.4c-0.5,0-0.8,0.2-1.1,0.6c-0.2,0.4-0.3,1.1-0.3,1.9v0.6c0,0.8,0.1,1.4,0.3,1.9
				c0.2,0.4,0.6,0.6,1.1,0.6s0.8-0.2,1.1-0.6c0.2-0.4,0.3-1.1,0.3-1.9v-0.6c0-0.4,0-0.8-0.1-1.1c-0.1-0.3-0.1-0.6-0.2-0.8
				c-0.1-0.2-0.2-0.4-0.4-0.5C-714.3,135.4-714.6,135.4-714.8,135.4z"/>
			<path class="st15" d="M-707.5,132.2h-2v-1.8h2V132.2z M-707.5,142.7h-2v-9h2V142.7z"/>
			<path class="st15" d="M-703.5,133.7h1.3v1.7h-1.3v5c0,0.5,0.2,0.7,0.7,0.7h0.6v1.5c-0.1,0-0.2,0.1-0.3,0.1c-0.1,0-0.2,0-0.3,0.1
				c-0.1,0-0.2,0-0.3,0c-0.1,0-0.2,0-0.3,0c-0.4,0-0.8-0.1-1-0.2c-0.3-0.1-0.5-0.3-0.6-0.5c-0.2-0.2-0.3-0.5-0.3-0.8
				c-0.1-0.3-0.1-0.6-0.1-0.9v-5h-0.9v-1.7h0.9l0.3-2.5h1.7L-703.5,133.7L-703.5,133.7z"/>
			<path class="st15" d="M-698.2,133.5c1,0,1.8,0.2,2.3,0.7s0.8,1.1,0.8,2v4.4c0,0.2,0,0.4,0.1,0.5c0.1,0.1,0.2,0.1,0.3,0.1h0.4v1.4
				c-0.1,0.1-0.3,0.1-0.5,0.2c-0.2,0.1-0.4,0.1-0.8,0.1c-0.4,0-0.8-0.1-1-0.3c-0.3-0.2-0.5-0.5-0.6-0.9h-0.1
				c-0.1,0.2-0.3,0.3-0.4,0.5c-0.1,0.1-0.3,0.3-0.5,0.4c-0.2,0.1-0.4,0.2-0.6,0.2s-0.5,0.1-0.8,0.1c-0.2,0-0.4,0-0.7-0.1
				c-0.3-0.1-0.5-0.2-0.7-0.4c-0.2-0.2-0.4-0.4-0.6-0.8c-0.2-0.3-0.2-0.8-0.2-1.3c0-0.6,0.1-1.1,0.3-1.5c0.2-0.4,0.5-0.7,0.9-1
				c0.4-0.2,0.9-0.4,1.4-0.5c0.5-0.1,1.1-0.2,1.8-0.2v-0.8c0-0.2,0-0.3,0-0.4s-0.1-0.3-0.1-0.3c-0.1-0.1-0.2-0.2-0.3-0.2
				c-0.1-0.1-0.3-0.1-0.5-0.1s-0.4,0-0.5,0.1c-0.1,0.1-0.2,0.1-0.3,0.2c-0.1,0.1-0.1,0.2-0.2,0.3c0,0.1-0.1,0.2-0.1,0.3v0.2h-2
				c0,0,0-0.1,0-0.2V136c0-0.4,0.1-0.7,0.2-1c0.1-0.3,0.3-0.6,0.6-0.8s0.6-0.4,1-0.5C-699.1,133.6-698.7,133.5-698.2,133.5z
				 M-697.2,138.7c-0.3,0-0.6,0-0.9,0.1c-0.3,0-0.5,0.1-0.7,0.2c-0.2,0.1-0.4,0.3-0.5,0.4c-0.1,0.2-0.2,0.4-0.2,0.7s0.1,0.6,0.2,0.7
				c0.2,0.2,0.4,0.3,0.8,0.3c0.2,0,0.5-0.1,0.6-0.2c0.1-0.1,0.3-0.2,0.4-0.4c0.1-0.2,0.2-0.4,0.2-0.6c0.1-0.2,0.1-0.5,0.1-0.8V138.7
				L-697.2,138.7z"/>
			<path class="st15" d="M-689.6,133.5c0.1,0,0.2,0,0.3,0c0.1,0,0.2,0,0.3,0c0.1,0,0.2,0,0.2,0.1v2h-0.7c-0.2,0-0.4,0-0.6,0.1
				c-0.2,0.1-0.4,0.2-0.5,0.3c-0.1,0.1-0.3,0.4-0.4,0.6c-0.1,0.2-0.1,0.6-0.1,1v5h-2v-9h1.7l0.2,1.3h0.1c0.1-0.2,0.1-0.4,0.2-0.6
				c0.1-0.2,0.2-0.3,0.3-0.5c0.1-0.2,0.3-0.3,0.4-0.3C-690,133.6-689.8,133.5-689.6,133.5z"/>
			<path class="st15" d="M-677.2,142.7h-1.7l-0.2-1.1h-0.1c-0.1,0.2-0.2,0.3-0.4,0.5c-0.1,0.2-0.3,0.3-0.5,0.4
				c-0.2,0.1-0.4,0.2-0.6,0.3c-0.2,0.1-0.5,0.1-0.7,0.1c-0.3,0-0.7-0.1-1-0.2c-0.3-0.1-0.5-0.3-0.8-0.5c-0.3-0.2-0.4-0.5-0.5-0.9
				c-0.1-0.4-0.2-0.8-0.2-1.3v-6.3h2v5.7c0,0.6,0.1,1,0.3,1.2c0.2,0.2,0.5,0.4,0.9,0.4c0.2,0,0.4,0,0.6-0.1c0.2-0.1,0.3-0.2,0.4-0.4
				c0.1-0.2,0.2-0.3,0.3-0.6c0.1-0.2,0.1-0.5,0.1-0.7v-5.6h2L-677.2,142.7L-677.2,142.7z"/>
			<path class="st15" d="M-672.4,133.5c0.4,0,0.8,0.1,1.2,0.2c0.4,0.1,0.7,0.3,1,0.5c0.3,0.2,0.5,0.5,0.6,0.8c0.2,0.3,0.2,0.6,0.2,1
				c0,0.1,0,0.2,0,0.3c0,0.1,0,0.1,0,0.1h-2.1c0-0.4-0.1-0.7-0.3-0.9c-0.2-0.2-0.4-0.3-0.7-0.3c-0.3,0-0.6,0.1-0.8,0.2
				s-0.3,0.4-0.3,0.6c0,0.2,0.1,0.4,0.2,0.5c0.1,0.1,0.3,0.2,0.5,0.3c0.2,0.1,0.4,0.2,0.7,0.2c0.3,0.1,0.5,0.1,0.8,0.2
				c0.3,0.1,0.5,0.2,0.8,0.3c0.3,0.1,0.5,0.3,0.7,0.5c0.2,0.2,0.4,0.4,0.5,0.7c0.1,0.3,0.2,0.7,0.2,1.1c0,0.5-0.1,1-0.3,1.4
				c-0.2,0.4-0.4,0.7-0.7,0.9c-0.3,0.2-0.6,0.4-1.1,0.5c-0.4,0.1-0.9,0.1-1.3,0.1c-0.5,0-1-0.1-1.4-0.2c-0.4-0.1-0.7-0.3-1-0.6
				s-0.5-0.5-0.6-0.9c-0.1-0.3-0.2-0.7-0.2-1.2v-0.1v-0.1c0,0,0,0,0-0.1h2.1v0.1c0,0.2,0,0.4,0.1,0.6c0.1,0.2,0.2,0.3,0.3,0.4
				c0.1,0.1,0.2,0.2,0.4,0.2c0.1,0,0.3,0.1,0.4,0.1c0.1,0,0.3,0,0.4,0c0.1,0,0.3-0.1,0.4-0.2c0.1-0.1,0.2-0.2,0.3-0.3
				c0.1-0.1,0.1-0.3,0.1-0.5s-0.1-0.4-0.2-0.6c-0.1-0.1-0.3-0.3-0.5-0.4c-0.2-0.1-0.4-0.2-0.7-0.3c-0.3-0.1-0.5-0.1-0.8-0.2
				c-0.3-0.1-0.5-0.2-0.8-0.3s-0.5-0.3-0.7-0.5s-0.4-0.4-0.5-0.7c-0.1-0.3-0.2-0.7-0.2-1.1c0-0.5,0.1-0.9,0.3-1.2
				c0.2-0.3,0.4-0.6,0.7-0.9c0.3-0.2,0.6-0.4,1-0.5C-673.2,133.6-672.8,133.5-672.4,133.5z"/>
			<path class="st15" d="M-660.9,142.7h-1.7l-0.2-1.1h-0.1c-0.1,0.2-0.2,0.3-0.4,0.5c-0.1,0.2-0.3,0.3-0.5,0.4
				c-0.2,0.1-0.4,0.2-0.6,0.3c-0.2,0.1-0.5,0.1-0.7,0.1c-0.3,0-0.7-0.1-1-0.2c-0.3-0.1-0.5-0.3-0.8-0.5c-0.3-0.2-0.4-0.5-0.5-0.9
				c-0.1-0.4-0.2-0.8-0.2-1.3v-6.3h2v5.7c0,0.6,0.1,1,0.3,1.2c0.2,0.2,0.5,0.4,0.9,0.4c0.2,0,0.4,0,0.6-0.1c0.2-0.1,0.3-0.2,0.4-0.4
				c0.1-0.2,0.2-0.3,0.3-0.6c0.1-0.2,0.1-0.5,0.1-0.7v-5.6h2L-660.9,142.7L-660.9,142.7z"/>
			<path class="st15" d="M-656.3,133.5c1,0,1.8,0.2,2.3,0.7s0.8,1.1,0.8,2v4.4c0,0.2,0,0.4,0.1,0.5c0.1,0.1,0.2,0.1,0.3,0.1h0.4v1.4
				c-0.1,0.1-0.3,0.1-0.5,0.2c-0.2,0.1-0.4,0.1-0.8,0.1c-0.4,0-0.8-0.1-1-0.3c-0.3-0.2-0.5-0.5-0.6-0.9h-0.1
				c-0.1,0.2-0.3,0.3-0.4,0.5c-0.1,0.1-0.3,0.3-0.5,0.4c-0.2,0.1-0.4,0.2-0.6,0.2s-0.5,0.1-0.8,0.1c-0.2,0-0.4,0-0.7-0.1
				c-0.3-0.1-0.5-0.2-0.7-0.4c-0.2-0.2-0.4-0.4-0.6-0.8c-0.2-0.3-0.2-0.8-0.2-1.3c0-0.6,0.1-1.1,0.3-1.5c0.2-0.4,0.5-0.7,0.9-1
				c0.4-0.2,0.9-0.4,1.4-0.5c0.5-0.1,1.1-0.2,1.8-0.2v-0.8c0-0.2,0-0.3,0-0.4s-0.1-0.3-0.1-0.3c-0.1-0.1-0.2-0.2-0.3-0.2
				c-0.1-0.1-0.3-0.1-0.5-0.1s-0.4,0-0.5,0.1c-0.1,0.1-0.2,0.1-0.3,0.2c-0.1,0.1-0.1,0.2-0.2,0.3c0,0.1-0.1,0.2-0.1,0.3v0.2h-2
				c0,0,0-0.1,0-0.2V136c0-0.4,0.1-0.7,0.2-1c0.1-0.3,0.3-0.6,0.6-0.8s0.6-0.4,1-0.5C-657.1,133.6-656.7,133.5-656.3,133.5z
				 M-655.3,138.7c-0.3,0-0.6,0-0.9,0.1c-0.3,0-0.5,0.1-0.7,0.2c-0.2,0.1-0.4,0.3-0.5,0.4c-0.1,0.2-0.2,0.4-0.2,0.7s0.1,0.6,0.2,0.7
				c0.2,0.2,0.4,0.3,0.8,0.3c0.2,0,0.5-0.1,0.6-0.2c0.1-0.1,0.3-0.2,0.4-0.4c0.1-0.2,0.2-0.4,0.2-0.6c0.1-0.2,0.1-0.5,0.1-0.8V138.7
				z"/>
			<path class="st15" d="M-647.6,133.5c0.1,0,0.2,0,0.3,0s0.2,0,0.3,0c0.1,0,0.2,0,0.2,0.1v2h-0.7c-0.2,0-0.4,0-0.6,0.1
				c-0.2,0.1-0.4,0.2-0.5,0.3c-0.1,0.1-0.3,0.4-0.4,0.6c-0.1,0.2-0.1,0.6-0.1,1v5h-2v-9h1.7l0.2,1.3h0.1c0.1-0.2,0.1-0.4,0.2-0.6
				c0.1-0.2,0.2-0.3,0.3-0.5c0.1-0.2,0.3-0.3,0.4-0.3C-648.1,133.6-647.9,133.5-647.6,133.5z"/>
			<path class="st15" d="M-643.8,132.2h-2v-1.8h2V132.2z M-643.8,142.7h-2v-9h2V142.7z"/>
			<path class="st15" d="M-638.6,133.5c1.2,0,2.1,0.4,2.7,1.1c0.6,0.7,0.9,1.9,0.9,3.6c0,1.6-0.3,2.8-0.9,3.6
				c-0.6,0.8-1.5,1.1-2.7,1.1s-2.1-0.4-2.7-1.1c-0.6-0.7-0.9-1.9-0.9-3.6c0-1.6,0.3-2.8,0.9-3.6
				C-640.7,133.8-639.8,133.5-638.6,133.5z M-638.6,135.2c-0.5,0-0.9,0.2-1.1,0.7s-0.3,1.1-0.3,2v0.6c0,0.9,0.1,1.5,0.3,2
				s0.6,0.7,1.1,0.7s0.9-0.2,1.1-0.7s0.3-1.1,0.3-2v-0.6c0-0.9-0.1-1.5-0.3-2C-637.7,135.5-638,135.2-638.6,135.2z"/>
		</g>
		<path class="st17" d="M-758.3,124.2h140.4c7.4,0,13.5,6.1,13.5,13.5l0,0c0,7.4-6.1,13.5-13.5,13.5h-140.4l13.4-13.5L-758.3,124.2z
			"/>
	</g>
</g>
<g id="scroll" class="st0">
	<g class="st7">
		<path class="st18" d="M-294.9,21.5l4.3,4.4c0.2,0.2,0.2,0.5,0,0.7c-0.2,0.2-0.5,0.2-0.7,0l-3.6-3.6l-3.6,3.6
			c-0.2,0.2-0.5,0.2-0.7,0c-0.2-0.2-0.2-0.5,0-0.7L-294.9,21.5z"/>
	</g>
	<g class="st7">
		<path class="st18" d="M-294.9,35l-4.3-4.4c-0.2-0.2-0.2-0.5,0-0.7c0.2-0.2,0.5-0.2,0.7,0l3.6,3.6l3.6-3.6c0.2-0.2,0.5-0.2,0.7,0
			c0.2,0.2,0.2,0.5,0,0.7L-294.9,35z"/>
	</g>
	<g class="st7">
		<path class="st9" d="M-301.4,9.4V0.2h13v9.3c0,3.6-2.9,6.5-6.5,6.5c-1.8,0-3.4-0.7-4.6-1.9C-300.7,12.8-301.4,11.2-301.4,9.4z"/>
		<g>
			<path class="st18" d="M-295,10.6l-4.3-4.4c-0.2-0.2-0.2-0.5,0-0.7c0.2-0.2,0.5-0.2,0.7,0l3.6,3.6l3.6-3.6c0.2-0.2,0.5-0.2,0.7,0
				c0.2,0.2,0.2,0.5,0,0.7L-295,10.6z"/>
		</g>
	</g>
	<g class="st7">
		<path class="st9" d="M-288.4-16v9.2h-13V-16c0-3.6,2.9-6.5,6.5-6.5c1.8,0,3.4,0.7,4.6,1.9C-289.2-19.4-288.4-17.8-288.4-16z"/>
		<g>
			<path class="st18" d="M-291-12c-0.1,0-0.3,0-0.4-0.1l-3.6-3.6l-3.6,3.6c-0.2,0.2-0.5,0.2-0.7,0s-0.2-0.5,0-0.7l4.3-4.4l4.3,4.4
				c0.2,0.2,0.2,0.5,0,0.7C-290.7-12-290.9-12-291-12z"/>
		</g>
	</g>
</g>
</svg>
