<?xml version="1.0" encoding="utf-8"?>
<!-- Generator: Adobe Illustrator 23.0.0, SVG Export Plug-In . SVG Version: 6.00 Build 0)  -->
<svg version="1.1" id="Capa_1" xmlns="http://www.w3.org/2000/svg" xmlns:xlink="http://www.w3.org/1999/xlink" x="0px" y="0px"
	 viewBox="0 0 18.5 16" style="enable-background:new 0 0 18.5 16;" xml:space="preserve">
<style type="text/css">
	.st0{fill-rule:evenodd;clip-rule:evenodd;fill:#FFFFFF;}
	.st1{fill:#FFFFFF;}
	.st2{fill:#81E7F0;}
	.st3{fill-rule:evenodd;clip-rule:evenodd;fill:#81E7F0;}
	.st4{fill:#05585F;}
	.st5{fill-rule:evenodd;clip-rule:evenodd;fill:#80E6EF;}
	.st6{fill:#999999;}
	.st7{fill:#00818C;}
	.st8{fill:#00808B;}
	.st9{fill:#80E6EF;}
</style>
<g>
	<g>
		<path class="st9" d="M8.4,8.3L8.4,8.3c0,0.5,0.3,0.8,0.6,0.8c0.5,0.1,0.9,0.1,1.3,0.2c0.1-0.1,0.2-0.3,0.3-0.4
			c-0.5-0.1-1-0.2-1.5-0.3C9,8.6,8.9,8.5,8.9,8.4V8.3C8.9,8,9,7.7,9.3,7.5c0.7-0.7,1.2-1.9,1.2-3.1c0-2.1-1.4-3.9-3-3.9
			c-1.7,0-3,1.7-3,3.9c0,1.2,0.4,2.3,1.2,3.1C5.8,7.7,5.9,8,5.9,8.3v0.1c0,0.1-0.1,0.2-0.2,0.2c-3,0.4-5.1,1.7-5.1,3.3v1
			c0,0.3,0.2,0.6,0.6,0.6h8.8c-0.1-0.2-0.1-0.3-0.2-0.5H1.1c0,0-0.1,0-0.1-0.1v-1c0-1.3,2-2.5,4.7-2.8c0.4,0,0.6-0.3,0.6-0.7V8.3
			c0-0.4-0.2-0.8-0.5-1.1c-0.7-0.7-1-1.7-1-2.7C4.9,2.5,6,1,7.4,1c1.4,0,2.5,1.5,2.5,3.4c0,1.1-0.4,2.1-1,2.7
			C8.6,7.5,8.4,7.9,8.4,8.3z"/>
	</g>
	<path class="st9" d="M14.2,8.2c-2,0-3.7,1.6-3.7,3.7s1.6,3.7,3.7,3.7s3.7-1.6,3.7-3.7S16.2,8.2,14.2,8.2z M16.4,12.6h-1.5V14
		c0,0.4-0.3,0.7-0.7,0.7c-0.4,0-0.7-0.3-0.7-0.7v-1.5H12c-0.4,0-0.7-0.3-0.7-0.7c0-0.4,0.3-0.7,0.7-0.7h1.5V9.6
		c0-0.4,0.3-0.7,0.7-0.7c0.4,0,0.7,0.3,0.7,0.7v1.5h1.5c0.4,0,0.7,0.3,0.7,0.7C17.2,12.2,16.8,12.6,16.4,12.6z"/>
</g>
</svg>
