<?xml version="1.0" encoding="utf-8"?>
<!-- Generator: Adobe Illustrator 23.0.0, SVG Export Plug-In . SVG Version: 6.00 Build 0)  -->
<svg version="1.1" id="Capa_1" xmlns="http://www.w3.org/2000/svg" xmlns:xlink="http://www.w3.org/1999/xlink" x="0px" y="0px"
	 viewBox="0 0 14.1 17.3" style="enable-background:new 0 0 14.1 17.3;" xml:space="preserve">
<style type="text/css">
	.st0{fill-rule:evenodd;clip-rule:evenodd;fill:#FFFFFF;}
	.st1{fill:#FFFFFF;}
	.st2{fill:#81E7F0;}
	.st3{fill-rule:evenodd;clip-rule:evenodd;fill:#81E7F0;}
	.st4{fill:#05585F;}
	.st5{fill-rule:evenodd;clip-rule:evenodd;fill:#80E6EF;}
	.st6{fill:#999999;}
	.st7{fill:#00818C;}
	.st8{fill:#00808B;}
	.st9{fill:#80E6EF;}
</style>
<path class="st9" d="M13.5,4.4c0-2-2.8-3.6-6.4-3.6c-3.6,0-6.4,1.6-6.4,3.6l0,0V7c0,0,0,0,0,0l0,0v3c0,0,0,0,0,0h0v2
	c0,2.5,2.9,4.5,6.4,4.5s6.4-2,6.4-4.5v-2h0c0,0,0,0,0,0V7l0,0c0,0,0,0,0,0L13.5,4.4L13.5,4.4z M7.1,1.5c3.1,0,5.7,1.3,5.7,2.8
	c0,1.5-2.6,2.8-5.7,2.8C4,7.2,1.4,5.9,1.4,4.4C1.4,2.8,4,1.5,7.1,1.5z M1.7,9C1.9,9.1,2,9.3,2.2,9.4c0,0,0,0,0,0
	c0.3,0.2,0.6,0.3,0.9,0.5c0.1,0,0.1,0.1,0.2,0.1c0.1,0,0.1,0,0.2,0.1c0.3,0.1,0.6,0.2,0.9,0.3c0.1,0,0.1,0,0.2,0
	c0.3,0.1,0.7,0.1,1,0.2c0.1,0,0.2,0,0.3,0c0.4,0,0.8,0.1,1.2,0.1c0,0,0,0,0,0c0,0,0,0,0,0c0.4,0,0.8,0,1.2-0.1c0.1,0,0.2,0,0.3,0
	c0.3,0,0.7-0.1,1-0.2c0.1,0,0.1,0,0.2,0c0.3-0.1,0.6-0.2,0.9-0.3c0.1,0,0.1,0,0.2-0.1c0.1,0,0.1-0.1,0.2-0.1
	c0.3-0.1,0.6-0.3,0.9-0.5c0,0,0,0,0,0c0.2-0.1,0.3-0.2,0.5-0.3c0,0,0.1-0.1,0.1-0.1c0.1-0.1,0.1-0.1,0.2-0.2c0,0,0,0,0,0V10
	c0,0.2,0,0.3-0.1,0.5c-0.5,1.4-2.9,2.4-5.6,2.4c-2.7,0-5.1-1-5.6-2.4c-0.1-0.1-0.1-0.3-0.1-0.5V8.7c0,0,0,0,0,0
	c0.1,0.1,0.1,0.1,0.2,0.2C1.7,9,1.7,9,1.7,9z M12.8,12c0,2.1-2.6,3.8-5.7,3.8c-3.1,0-5.7-1.7-5.7-3.8v-0.3c1.1,1.1,3.2,1.9,5.7,1.9
	c2.5,0,4.6-0.8,5.7-1.9V12z M12.8,7c0,0.1,0,0.3-0.1,0.4c0,0,0,0.1,0,0.1c0,0.1-0.1,0.1-0.1,0.2c0,0,0,0.1-0.1,0.1
	c0,0.1-0.1,0.1-0.2,0.2c0,0-0.1,0.1-0.1,0.1c-0.1,0.1-0.1,0.1-0.2,0.2c0,0-0.1,0.1-0.1,0.1c-0.1,0.1-0.2,0.2-0.4,0.3c0,0,0,0,0,0
	C11.3,8.9,11,9,10.7,9.2c-0.1,0-0.1,0.1-0.2,0.1c-0.3,0.1-0.6,0.2-0.9,0.3c-0.1,0-0.3,0.1-0.4,0.1C9,9.6,8.8,9.7,8.6,9.7
	c-0.2,0-0.4,0.1-0.6,0.1c-0.1,0-0.3,0-0.4,0c-0.4,0-0.8,0-1.2,0c-0.1,0-0.3,0-0.4,0c-0.2,0-0.4,0-0.6-0.1c-0.2,0-0.4-0.1-0.6-0.1
	c-0.1,0-0.3-0.1-0.4-0.1C4.2,9.4,3.9,9.3,3.6,9.2c-0.1,0-0.1-0.1-0.2-0.1C3.1,9,2.9,8.9,2.6,8.7c0,0,0,0,0,0
	C2.5,8.6,2.3,8.6,2.2,8.5c0,0-0.1-0.1-0.1-0.1C2.1,8.3,2,8.2,1.9,8.2c0,0-0.1-0.1-0.1-0.1C1.8,8,1.7,7.9,1.7,7.8c0,0,0-0.1-0.1-0.1
	c0-0.1-0.1-0.2-0.1-0.2c0,0,0-0.1,0-0.1c0-0.1-0.1-0.3-0.1-0.4V6.1c0.1,0.1,0.3,0.3,0.4,0.4c0,0,0,0,0,0C3,7.4,4.9,8,7.1,8
	c2.2,0,4.1-0.6,5.2-1.5c0,0,0,0,0,0c0.2-0.1,0.3-0.3,0.4-0.4V7z"/>
</svg>
