<?xml version="1.0" encoding="utf-8"?>
<!-- Generator: Adobe Illustrator 23.0.0, SVG Export Plug-In . SVG Version: 6.00 Build 0)  -->
<svg version="1.1" id="Capa_1" xmlns="http://www.w3.org/2000/svg" xmlns:xlink="http://www.w3.org/1999/xlink" x="0px" y="0px"
	 viewBox="0 0 22.7 22" style="enable-background:new 0 0 22.7 22;" xml:space="preserve">
<style type="text/css">
	.st0{fill-rule:evenodd;clip-rule:evenodd;fill:#FFFFFF;}
	.st1{fill:#FFFFFF;}
	.st2{fill:#81E7F0;}
	.st3{fill-rule:evenodd;clip-rule:evenodd;fill:#81E7F0;}
	.st4{fill:#05585F;}
	.st5{fill-rule:evenodd;clip-rule:evenodd;fill:#80E6EF;}
	.st6{fill:#999999;}
	.st7{fill:#00818C;}
	.st8{fill:#00808B;}
	.st9{fill:#80E6EF;}
</style>
<g>
	<g>
		<path class="st1" d="M12.4,19.7c0.2,0,0.4-0.1,0.5-0.3l6.9-8.4L13,2.5c-0.2-0.3-0.7-0.3-1-0.1c-0.3,0.2-0.3,0.7-0.1,1l6.2,7.6
			l-6.2,7.6c-0.2,0.3-0.2,0.7,0.1,1C12.1,19.6,12.3,19.7,12.4,19.7z"/>
	</g>
	<g>
		<path class="st1" d="M3.4,19.7c0.2,0,0.4-0.1,0.5-0.3l6.9-8.4L4,2.5C3.8,2.2,3.3,2.2,3,2.4c-0.3,0.2-0.3,0.7-0.1,1L9.1,11
			l-6.2,7.6c-0.2,0.3-0.2,0.7,0.1,1C3.1,19.6,3.3,19.7,3.4,19.7z"/>
	</g>
</g>
</svg>
