<?xml version="1.0" encoding="utf-8"?>
<!-- Generator: Adobe Illustrator 23.0.0, SVG Export Plug-In . SVG Version: 6.00 Build 0)  -->
<svg version="1.1" id="Capa_1" xmlns="http://www.w3.org/2000/svg" xmlns:xlink="http://www.w3.org/1999/xlink" x="0px" y="0px"
	 viewBox="0 0 22.1 16.7" style="enable-background:new 0 0 22.1 16.7;" xml:space="preserve">
<style type="text/css">
	.st0{fill:#81E7F0;}
	.st1{fill:none;stroke:#FFFFFF;stroke-width:2;stroke-miterlimit:10;}
	.st2{fill:#00808B;stroke:#FFFFFF;stroke-width:2;stroke-miterlimit:10;}
	.st3{fill:#00808B;}
	.st4{fill:#FFFFFF;}
	.st5{fill-rule:evenodd;clip-rule:evenodd;fill:#FFFFFF;}
	.st6{fill:#808080;}
	.st7{fill:#FFFFFF;stroke:#808080;stroke-miterlimit:10;}
	.st8{fill:#8CC63F;stroke:#808080;stroke-miterlimit:10;}
	.st9{fill-rule:evenodd;clip-rule:evenodd;fill:#8CC63F;}
	.st10{fill:#05585F;}
	.st11{fill:#B3B3B3;}
	.st12{fill:#F2F2F2;}
	.st13{fill-rule:evenodd;clip-rule:evenodd;fill:#05585F;}
</style>
<path class="st4" d="M19.2,0L2.7,0.2C1.2,0.2,0,1.5,0,3l0.1,11c0,1.5,1.3,2.7,2.8,2.7l16.5-0.2c1.5,0,2.7-1.3,2.7-2.8L22,2.7
	C22,1.2,20.7,0,19.2,0z M14.7,7.5l5.9-5.2c0,0.1,0.1,0.3,0.1,0.4L20.8,14c0,0.1,0,0.2-0.1,0.3L14.7,7.5z M19.7,1.1
	c0.1,0,0.2,0,0.3,0.1L11.1,9L1.9,1.4c0.1,0,0.2-0.1,0.3-0.1L19.7,1.1z M1.5,14.4c0-0.1-0.1-0.2-0.1-0.3L1.3,3c0-0.1,0-0.3,0.1-0.4
	l6,5L1.5,14.4z M2.9,15.3c-0.1,0-0.3,0-0.4-0.1l5.9-6.9l2.3,1.9c0.1,0.1,0.3,0.2,0.4,0.2c0.2,0,0.3-0.1,0.4-0.2l2.2-1.9l6,6.7
	c-0.1,0-0.3,0.1-0.4,0.1L2.9,15.3z"/>
</svg>
