<?xml version="1.0" encoding="utf-8"?>
<!-- Generator: Adobe Illustrator 22.0.1, SVG Export Plug-In . SVG Version: 6.00 Build 0)  -->
<svg version="1.1" id="Capa_1" xmlns="http://www.w3.org/2000/svg" xmlns:xlink="http://www.w3.org/1999/xlink" x="0px" y="0px"
	 viewBox="0 0 512 512" style="enable-background:new 0 0 512 512;" xml:space="preserve">
<style type="text/css">
	.st0{display:none;}
	.st1{display:inline;fill:#FF0000;}
	.st2{display:inline;fill:#FFFFFF;}
	.st3{display:none;fill:#FFFFFF;}
	.st4{display:inline;fill:#00808B;}
	.st5{display:inline;fill:#05585F;}
	.st6{display:inline;fill:#00818C;}
	.st7{display:inline;}
	.st8{fill:#FFFFFF;}
	.st9{fill:#00818C;}
</style>
<g class="st0">
	<circle class="st1" cx="256" cy="256" r="248"/>
	<path class="st2" d="M256,376.8L97.1,217.9c-11.1-11.1-11.1-29,0-40.1c11.1-11.1,29-11.1,40.1,0L256,296.6l118.8-118.8
		c11.1-11.1,29-11.1,40.1,0c11.1,11.1,11.1,29,0,40.1L256,376.8z"/>
</g>
<path class="st3" d="M256,8C119,8,8,119,8,256s111,248,248,248s248-111,248-248S393,8,256,8z M414.9,217.9L256,376.8L97.1,217.9
	c-11.1-11.1-11.1-29,0-40.1c11.1-11.1,29-11.1,40.1,0L256,296.6l118.8-118.8c11.1-11.1,29-11.1,40.1,0
	C425.9,188.9,425.9,206.8,414.9,217.9z"/>
<g class="st0">
	<circle class="st4" cx="256" cy="256" r="248"/>
	<path class="st2" d="M256,376.8L97.1,217.9c-11.1-11.1-11.1-29,0-40.1c11.1-11.1,29-11.1,40.1,0L256,296.6l118.8-118.8
		c11.1-11.1,29-11.1,40.1,0c11.1,11.1,11.1,29,0,40.1L256,376.8z"/>
</g>
<g class="st0">
	<circle class="st4" cx="256" cy="256" r="248"/>
	<path class="st2" d="M376.8,256L217.9,414.9c-11.1,11.1-29,11.1-40.1,0c-11.1-11.1-11.1-29,0-40.1L296.6,256L177.8,137.2
		c-11.1-11.1-11.1-29,0-40.1c11.1-11.1,29-11.1,40.1,0L376.8,256z"/>
</g>
<g class="st0">
	<circle class="st4" cx="256" cy="256" r="248"/>
	<path class="st2" d="M135.2,256L294.1,97.1c11.1-11.1,29-11.1,40.1,0c11.1,11.1,11.1,29,0,40.1L215.4,256l118.8,118.8
		c11.1,11.1,11.1,29,0,40.1c-11.1,11.1-29,11.1-40.1,0L135.2,256z"/>
</g>
<g class="st0">
	<circle class="st5" cx="256" cy="256" r="248"/>
	<path class="st2" d="M256,376.8L97.1,217.9c-11.1-11.1-11.1-29,0-40.1c11.1-11.1,29-11.1,40.1,0L256,296.6l118.8-118.8
		c11.1-11.1,29-11.1,40.1,0c11.1,11.1,11.1,29,0,40.1L256,376.8z"/>
</g>
<g class="st0">
	<circle class="st6" cx="256" cy="256" r="248"/>
	<g class="st7">
		<path class="st8" d="M402.9,151.4c0-7.7-6.2-13.9-13.9-13.9h-64l-28-28.2c-5.9-6.4-14.3-10-22.9-10h-37.7c-8.7,0-17.1,3.7-23,10.1
			l-26.5,28.1H123c-7.7,0-13.9,6.2-13.9,13.9v4.9H128l22.1,228.2c1.6,16.1,15,28.3,31.2,28.3h149.4c16.2,0,29.6-12.2,31.2-28.3
			l22.1-228.2h18.9V151.4z M225.1,120.4L225.1,120.4c2.9-3.2,7-5,11.2-5H274c4.2,0,8.3,1.8,11.1,4.9l17,17.1h-93L225.1,120.4z
			 M345.7,382.9c-0.8,7.8-7.2,13.6-15,13.6H181.3c-7.8,0-14.3-5.9-15-13.6l-21.9-226.6h223.3L345.7,382.9z"/>
		<rect x="247.9" y="193" class="st8" width="16.2" height="165.3"/>
		<polygon class="st8" points="331.7,193 315.6,193 296.1,358.3 312.4,358.3 		"/>
		<polygon class="st8" points="215.9,358.3 196.4,193 180.3,193 199.6,358.3 		"/>
	</g>
</g>
<g class="st0">
	<circle class="st6" cx="256" cy="256" r="248"/>
	<g class="st7">
		<path class="st8" d="M368.9,184.3c-12.8-13.6-25.1-26.7-38.1-40.4c5.9-5.6,11.7-11,17.4-16.4c12-11.2,12.8-11.1,23.9,0.7
			c6.4,6.7,12.7,13.5,19,20.3c5.5,6,5.4,9.8-0.5,15.4C383.6,170.6,376.4,177.2,368.9,184.3z"/>
		<polygon class="st8" points="324,150.1 231.8,236.7 216.2,289.7 269.7,277.1 361.9,190.5 		"/>
		<g>
			<path class="st8" d="M342.4,392.8H147.1c-16.8,0-30.4-13.6-30.4-30.4V167.2c0-16.8,13.6-30.4,30.4-30.4h127.7
				c3.2,0,5.8,2.6,5.8,5.8c0,3.2-2.6,5.8-5.8,5.8H147.1c-10.4,0-18.8,8.4-18.8,18.8v195.3c0,10.4,8.4,18.8,18.8,18.8h195.3
				c10.4,0,18.8-8.4,18.8-18.8V237.5c0-3.2,2.6-5.8,5.8-5.8s5.8,2.6,5.8,5.8v124.9C372.8,379.2,359.1,392.8,342.4,392.8z"/>
		</g>
	</g>
</g>
<g class="st0">
	<circle class="st6" cx="256" cy="256" r="248"/>
	<path class="st2" d="M399.1,236.5H275.5V112.9c0-10.8-8.7-19.5-19.5-19.5s-19.5,8.7-19.5,19.5v123.5H112.9
		c-10.8,0-19.5,8.7-19.5,19.5c0,10.8,8.7,19.5,19.5,19.5h123.6v123.5c0,10.8,8.7,19.5,19.5,19.5s19.5-8.7,19.5-19.5V275.5h123.6
		c10.8,0,19.5-8.7,19.5-19.5C418.6,245.2,409.9,236.5,399.1,236.5z"/>
</g>
<g>
	<circle class="st9" cx="256" cy="256" r="248"/>
	<path class="st8" d="M371,343.4L283.6,256l87.4-87.4c7.6-7.6,7.6-20,0-27.6s-20-7.6-27.6,0L256,228.4L168.6,141
		c-7.6-7.6-20-7.6-27.6,0c-7.6,7.6-7.6,20,0,27.6l87.4,87.4L141,343.4c-7.6,7.6-7.6,20,0,27.6c7.6,7.6,20,7.6,27.6,0l87.4-87.4
		l87.4,87.4c7.6,7.6,20,7.6,27.6,0C378.6,363.3,378.6,351,371,343.4z"/>
</g>
<g class="st0">
	<circle class="st5" cx="256" cy="256" r="248"/>
	<path class="st2" d="M371,343.4L283.6,256l87.4-87.4c7.6-7.6,7.6-20,0-27.6s-20-7.6-27.6,0L256,228.4L168.6,141
		c-7.6-7.6-20-7.6-27.6,0c-7.6,7.6-7.6,20,0,27.6l87.4,87.4L141,343.4c-7.6,7.6-7.6,20,0,27.6c7.6,7.6,20,7.6,27.6,0l87.4-87.4
		l87.4,87.4c7.6,7.6,20,7.6,27.6,0C378.6,363.3,378.6,351,371,343.4z"/>
</g>
</svg>
