<?xml version="1.0" encoding="utf-8"?>
<!-- Generator: Adobe Illustrator 23.0.0, SVG Export Plug-In . SVG Version: 6.00 Build 0)  -->
<svg version="1.1" id="Capa_1" xmlns="http://www.w3.org/2000/svg" xmlns:xlink="http://www.w3.org/1999/xlink" x="0px" y="0px"
	 viewBox="0 0 25 25" style="enable-background:new 0 0 25 25;" xml:space="preserve">
<style type="text/css">
	.st0{fill-rule:evenodd;clip-rule:evenodd;fill:#FFFFFF;}
	.st1{fill:#FFFFFF;}
	.st2{fill:#81E7F0;}
	.st3{fill-rule:evenodd;clip-rule:evenodd;fill:#81E7F0;}
	.st4{fill:#05585F;}
	.st5{fill:#999999;}
	.st6{fill:#00818C;}
	.st7{fill:#00808B;}
	.st8{fill:#80E6EF;}
	.st9{fill:#CCCCCC;}
	.st10{fill:#B3B3B3;}
	.st11{fill-rule:evenodd;clip-rule:evenodd;fill:#05585F;}
</style>
<g>
	<circle class="st7" cx="12.5" cy="12.5" r="11.5"/>
	<g>
		<path class="st8" d="M21.4,12.1c-2.6-3.2-5.5-4.8-8.7-4.8c-5.2,0-9,4.6-9.2,4.8c-0.3,0.4-0.3,0.9,0.1,1.2c2.8,2.9,5.9,4.4,9,4.4
			c4.9,0,8.2-3.7,8.8-4.4C21.7,12.9,21.7,12.4,21.4,12.1z M4.1,12.8c-0.1-0.1-0.1-0.3,0-0.3c0.1-0.2,2.8-3.4,6.6-4.3
			c-1.7,0.7-2.8,2.3-2.8,4.3c0,2,1.3,3.7,3.1,4.3C8.6,16.4,6.4,15.1,4.1,12.8z M12.5,16.4c-2.2,0-3.9-1.8-3.9-3.9s1.8-3.9,3.9-3.9
			c2.2,0,3.9,1.8,3.9,3.9S14.7,16.4,12.5,16.4z M20.9,12.8c-0.5,0.6-3.1,3.6-7,4.1c1.9-0.6,3.3-2.3,3.3-4.4c0-2.1-1.4-3.9-3.3-4.4
			c2.5,0.3,4.9,1.8,7.1,4.5C20.9,12.6,20.9,12.7,20.9,12.8z"/>
		<path class="st8" d="M14.5,12.5c0,1.1-0.9,2-2,2s-2-0.9-2-2c0-1.1,0.9-2,2-2S14.5,11.4,14.5,12.5z"/>
	</g>
</g>
</svg>
