<?xml version="1.0" encoding="utf-8"?>
<!-- Generator: Adobe Illustrator 23.0.0, SVG Export Plug-In . SVG Version: 6.00 Build 0)  -->
<svg version="1.1" id="Capa_1" xmlns="http://www.w3.org/2000/svg" xmlns:xlink="http://www.w3.org/1999/xlink" x="0px" y="0px"
	 viewBox="0 0 20.9 20.9" style="enable-background:new 0 0 20.9 20.9;" xml:space="preserve">
<style type="text/css">
	.st0{fill-rule:evenodd;clip-rule:evenodd;fill:#FFFFFF;}
	.st1{fill:#FFFFFF;}
	.st2{fill:#81E7F0;}
	.st3{fill-rule:evenodd;clip-rule:evenodd;fill:#81E7F0;}
	.st4{fill:#05585F;}
	.st5{fill-rule:evenodd;clip-rule:evenodd;fill:#80E6EF;}
	.st6{fill:#999999;}
	.st7{fill:#00818C;}
	.st8{fill:#00808B;}
	.st9{fill:#80E6EF;}
	.st10{fill:#B3B3B3;}
	.st11{fill:#CCCCCC;}
</style>
<path class="st7" d="M10.5,19.9c-5.2,0-9.5-4.2-9.5-9.4C1,5.3,5.2,1,10.5,1c5.2,0,9.4,4.2,9.4,9.4C19.9,15.7,15.7,19.9,10.5,19.9
	L10.5,19.9z M10.5,20.5L10.5,20.5c5.5,0,10-4.5,10-10c0-5.5-4.5-10-10-10c-5.5,0-10,4.5-10,10C0.5,16,4.9,20.5,10.5,20.5L10.5,20.5z
	 M11.3,14.9L11.3,14.9c0,0.5-0.3,1-0.9,1c-0.5,0-0.9-0.4-0.9-1c0-0.6,0.4-1,0.9-1C10.9,13.9,11.3,14.3,11.3,14.9L11.3,14.9z
	 M13.2,7.4L13.2,7.4c0,1-0.6,1.8-1.3,2.7c-0.7,0.8-0.9,1.5-0.9,2.3v0.4H9.8l0-0.4c-0.1-0.8,0.2-1.7,1-2.7c0.7-0.8,1.1-1.4,1.1-2.1
	c0-0.8-0.5-1.3-1.5-1.3c-0.6,0-1.2,0.2-1.6,0.5l-0.4-1c0.5-0.4,1.4-0.6,2.2-0.6C12.4,5.1,13.2,6.2,13.2,7.4L13.2,7.4z"/>
</svg>
