<?xml version="1.0" encoding="utf-8"?>
<!-- Generator: Adobe Illustrator 23.0.0, SVG Export Plug-In . SVG Version: 6.00 Build 0)  -->
<svg version="1.1" id="Capa_1" xmlns="http://www.w3.org/2000/svg" xmlns:xlink="http://www.w3.org/1999/xlink" x="0px" y="0px"
	 viewBox="0 0 122.5 57.7" style="enable-background:new 0 0 122.5 57.7;" xml:space="preserve">
<style type="text/css">
	.st0{fill:#81E7F0;}
	.st1{fill:none;stroke:#FFFFFF;stroke-width:2;stroke-miterlimit:10;}
	.st2{fill:#00808B;stroke:#FFFFFF;stroke-width:2;stroke-miterlimit:10;}
	.st4{fill:#00808B;}
	.st3{fill:#FFFFFF;}
	.st5{fill-rule:evenodd;clip-rule:evenodd;fill:#FFFFFF;}
	.st6{fill:#808080;}
	.st7{fill:#FFFFFF;stroke:#808080;stroke-miterlimit:10;}
	.st8{fill:#8CC63F;stroke:#808080;stroke-miterlimit:10;}
	.st9{fill-rule:evenodd;clip-rule:evenodd;fill:#8CC63F;}
	.st10{fill:#05585F;}
	.st11{fill:#B3B3B3;}
	.st12{fill:#F2F2F2;}
</style>
<g>
	<g>
		<path class="st3" d="M25,0L0,14.4v28.8l25,14.4l25-14.4V14.4L25,0z M45.9,16.8l-13,7.5c0.2,0.2,0.3,0.4,0.4,0.6l12.5-6.7v22.8
			L25,53l0,0h0V42.7c-0.2,0-0.4,0-0.7,0l-0.5,9.7L4.1,40.9V18.2l11.3,6c0.2-0.2,0.3-0.4,0.5-0.6L4.1,16.8L25,4.7L45.9,16.8
			L45.9,16.8z"/>
	</g>
	<g>
		<path class="st3" d="M30.8,22.5c2.2-4.3,3.7-7.1,6.5-7.7c-3.7-1.1-6.9-0.8-9.2,0.7c-1.9,1.3-2.6,2.9-2.6,2.9l-8.9,22.2H23l7.6-18
			L30.8,22.5z"/>
		<path class="st3" d="M16.3,40.2L21,28.4L9.1,28.2C15.9,31.2,16.3,38.1,16.3,40.2z"/>
	</g>
	<g>
		<path class="st3" d="M67.4,24.5c1.3,0,2.3,0.5,2.9,1.4c0.6,0.9,1,2.3,1,4.2v0.6h-5.4c0,0.5,0,0.9,0.1,1.3c0.1,0.4,0.2,0.7,0.3,0.9
			c0.1,0.3,0.3,0.4,0.5,0.6c0.2,0.1,0.5,0.2,0.8,0.2c0.4,0,0.7-0.2,1-0.5c0.2-0.4,0.4-0.9,0.4-1.5h2.4c0,0.7-0.1,1.3-0.3,1.8
			s-0.5,0.9-0.8,1.3c-0.3,0.3-0.7,0.6-1.2,0.7c-0.5,0.2-1,0.2-1.5,0.2c-1.4,0-2.4-0.5-3.1-1.4c-0.7-0.9-1.1-2.3-1.1-4.2
			s0.4-3.3,1.1-4.2C65,24.9,66.1,24.5,67.4,24.5z M67.4,26.5c-0.5,0-0.9,0.2-1.1,0.6s-0.4,1-0.4,1.8h2.8c0-0.8-0.1-1.4-0.3-1.8
			S67.8,26.5,67.4,26.5z"/>
		<path class="st3" d="M78.8,35.4h-2.6l-4.2-13.9h2.7l2.9,10h0.1l2.9-10H83L78.8,35.4z"/>
		<path class="st3" d="M86.9,24.5c1.4,0,2.5,0.5,3.2,1.4c0.7,0.9,1.1,2.3,1.1,4.2s-0.4,3.3-1.1,4.2c-0.7,0.9-1.8,1.4-3.2,1.4
			c-1.4,0-2.5-0.5-3.2-1.4c-0.7-0.9-1.1-2.3-1.1-4.2s0.4-3.3,1.1-4.2C84.4,24.9,85.5,24.5,86.9,24.5z M86.9,26.5
			c-0.6,0-1.1,0.3-1.3,0.8c-0.3,0.5-0.4,1.3-0.4,2.3v0.8c0,1,0.1,1.8,0.4,2.3c0.3,0.5,0.7,0.8,1.3,0.8s1.1-0.3,1.3-0.8
			c0.3-0.5,0.4-1.3,0.4-2.3v-0.8c0-1-0.1-1.8-0.4-2.3C88,26.8,87.5,26.5,86.9,26.5z"/>
		<path class="st3" d="M95.7,24.7h1.5v2.1h-1.5v5.9c0,0.6,0.3,0.9,0.9,0.9h0.7v1.8c-0.1,0-0.2,0.1-0.3,0.1c-0.1,0-0.2,0.1-0.4,0.1
			c-0.1,0-0.3,0-0.4,0.1c-0.1,0-0.3,0-0.4,0c-0.5,0-0.9-0.1-1.2-0.2c-0.3-0.2-0.6-0.4-0.8-0.7c-0.2-0.3-0.3-0.6-0.4-0.9
			c-0.1-0.3-0.1-0.7-0.1-1v-6h-1.1v-2.1h1.1l0.4-3h2.1V24.7z"/>
		<path class="st3" d="M101,23h-2.4v-2.2h2.4V23z M101,35.4h-2.4V24.7h2.4V35.4z"/>
		<path class="st3" d="M108.4,24.5c0.4,0,0.8,0.1,1.1,0.2s0.6,0.3,0.9,0.6s0.4,0.6,0.6,1.1c0.1,0.4,0.2,1,0.2,1.6v7.5h-2.4v-6.8
			c0-0.7-0.1-1.2-0.4-1.5c-0.3-0.3-0.6-0.4-1-0.4c-0.2,0-0.5,0.1-0.7,0.2c-0.2,0.1-0.4,0.3-0.5,0.5c-0.1,0.2-0.3,0.4-0.3,0.7
			c-0.1,0.3-0.1,0.5-0.1,0.8v6.6h-2.4V24.7h2l0.2,1.3h0.1c0.1-0.2,0.3-0.4,0.5-0.6c0.2-0.2,0.4-0.4,0.6-0.5c0.2-0.1,0.5-0.3,0.7-0.3
			C107.8,24.5,108,24.5,108.4,24.5z"/>
		<path class="st3" d="M122.2,23c0,0.8-0.2,1.4-0.5,1.8c-0.3,0.4-0.7,0.7-1.3,0.9c0.3,0.3,0.5,0.7,0.6,1.1s0.2,0.9,0.2,1.4
			c0,0.5-0.1,1-0.3,1.5c-0.2,0.4-0.4,0.8-0.8,1.1c-0.3,0.3-0.7,0.6-1.2,0.7c-0.5,0.2-1.1,0.3-1.7,0.3h-1c-0.2,0-0.4,0.1-0.5,0.2
			c-0.1,0.1-0.2,0.3-0.2,0.5c0,0.2,0.1,0.3,0.2,0.5c0.1,0.1,0.3,0.2,0.5,0.2h3.7c0.3,0,0.7,0.1,0.9,0.2s0.6,0.3,0.8,0.6
			c0.2,0.2,0.4,0.5,0.5,0.9s0.2,0.7,0.2,1.2c0,0.5-0.1,0.9-0.3,1.4s-0.4,0.8-0.7,1c-0.3,0.3-0.7,0.5-1.1,0.7
			c-0.4,0.2-0.9,0.2-1.3,0.2H115c-0.3,0-0.6-0.1-0.9-0.2c-0.3-0.1-0.5-0.3-0.7-0.5c-0.2-0.2-0.4-0.5-0.5-0.8c-0.1-0.3-0.2-0.6-0.2-1
			c0-0.5,0.1-1,0.4-1.3s0.6-0.6,1-0.8c-0.3-0.2-0.5-0.4-0.6-0.6s-0.2-0.6-0.2-1c0-0.2,0-0.4,0.1-0.6c0.1-0.2,0.2-0.4,0.3-0.5
			c0.1-0.2,0.3-0.3,0.5-0.4c0.2-0.1,0.4-0.2,0.6-0.3c-0.4-0.3-0.8-0.7-1-1.2c-0.2-0.5-0.3-1-0.3-1.7c0-0.5,0.1-1,0.3-1.5
			c0.2-0.4,0.4-0.8,0.8-1.1c0.3-0.3,0.7-0.6,1.2-0.7s1.1-0.3,1.7-0.3c0.3,0,0.7,0,1,0.1s0.6,0.1,0.8,0.2c0.2-0.1,0.4-0.3,0.5-0.5
			c0.1-0.2,0.2-0.3,0.3-0.5c0.1-0.2,0.1-0.3,0.2-0.5c0-0.1,0-0.3,0-0.4H122.2z M116.1,35.3c-0.1,0-0.3,0-0.4,0.1
			c-0.1,0.1-0.2,0.1-0.3,0.2c-0.1,0.1-0.2,0.2-0.2,0.3c0,0.1-0.1,0.2-0.1,0.4c0,0.3,0.1,0.5,0.3,0.7c0.2,0.2,0.4,0.3,0.7,0.3h2.7
			c0.3,0,0.6-0.1,0.8-0.3c0.2-0.2,0.3-0.4,0.3-0.7s-0.1-0.5-0.3-0.7c-0.2-0.2-0.4-0.3-0.7-0.3H116.1z M117.4,26.3
			c-0.5,0-0.9,0.2-1.1,0.5c-0.3,0.3-0.4,0.8-0.4,1.3c0,0.6,0.1,1,0.4,1.3c0.3,0.3,0.6,0.5,1.1,0.5c0.5,0,0.9-0.2,1.1-0.5
			c0.3-0.3,0.4-0.8,0.4-1.3c0-0.6-0.1-1-0.4-1.3C118.2,26.5,117.9,26.3,117.4,26.3z"/>
	</g>
</g>
</svg>
