<?xml version="1.0" encoding="utf-8"?>
<!-- Generator: Adobe Illustrator 23.0.0, SVG Export Plug-In . SVG Version: 6.00 Build 0)  -->
<svg version="1.1" id="Capa_1" xmlns="http://www.w3.org/2000/svg" xmlns:xlink="http://www.w3.org/1999/xlink" x="0px" y="0px"
	 viewBox="0 0 506.9 566.9" style="enable-background:new 0 0 506.9 566.9;" xml:space="preserve">
<style type="text/css">
	.st0{fill:#FFFFFF;stroke:#4D4D4D;stroke-miterlimit:10;}
	.st1{fill:#4D4D4D;}
	.st2{fill:#4D4D4D;stroke:#FFFFFF;stroke-width:0.2835;stroke-miterlimit:10;}
	.st3{fill:url(#SVGID_1_);}
	.st4{fill:url(#SVGID_2_);}
	.st5{fill:url(#SVGID_3_);}
	.st6{fill:url(#SVGID_4_);}
	.st7{fill:#2E3192;}
	.st8{fill:none;}
	.st9{fill:#05585F;}
	.st10{fill:#FFFFFF;}
	.st11{fill:#FFFFFF;stroke:#000000;stroke-miterlimit:10;}
	.st12{fill:url(#SVGID_5_);}
	.st13{fill:url(#SVGID_6_);}
	.st14{fill:#00818C;}
	.st15{fill:#333333;}
	.st16{clip-path:url(#SVGID_8_);}
	.st17{clip-path:url(#SVGID_10_);fill:#00818C;}
	.st18{fill:#02474D;}
	.st19{display:none;}
	.st20{display:inline;fill:#05585F;}
	.st21{clip-path:url(#SVGID_12_);fill:#05585F;}
	.st22{clip-path:url(#SVGID_14_);fill:#05585F;}
	.st23{clip-path:url(#SVGID_16_);fill:#05585F;}
	.st24{clip-path:url(#SVGID_18_);fill:#05585F;}
	.st25{clip-path:url(#SVGID_20_);fill:#05585F;}
	.st26{clip-path:url(#SVGID_22_);fill:#05585F;}
	.st27{clip-path:url(#SVGID_24_);fill:url(#SVGID_25_);}
	.st28{fill:#005B9C;}
	.st29{fill:#999999;}
	.st30{fill:#07636B;}
	.st31{fill:url(#SVGID_26_);}
	.st32{clip-path:url(#SVGID_28_);fill:none;stroke:#00818C;stroke-width:8.5039;stroke-miterlimit:10;}
	.st33{fill:url(#SVGID_29_);}
	.st34{fill:url(#SVGID_30_);}
	.st35{clip-path:url(#SVGID_32_);fill:none;stroke:#00818C;stroke-width:8.5039;stroke-miterlimit:10;}
	.st36{clip-path:url(#SVGID_34_);fill:none;stroke:#00818C;stroke-width:8.5039;stroke-miterlimit:10;}
	.st37{clip-path:url(#SVGID_36_);fill:none;stroke:#00818C;stroke-width:8.5039;stroke-miterlimit:10;}
	.st38{clip-path:url(#SVGID_38_);fill:none;stroke:#00818C;stroke-width:8.5039;stroke-miterlimit:10;}
	.st39{clip-path:url(#SVGID_40_);fill:none;stroke:#00818C;stroke-width:8.5039;stroke-miterlimit:10;}
	.st40{fill:none;stroke:#001517;stroke-miterlimit:10;}
	.st41{fill:url(#SVGID_41_);}
	.st42{fill:url(#SVGID_42_);}
	.st43{fill:url(#SVGID_43_);}
	.st44{fill:url(#SVGID_44_);}
	.st45{fill:url(#SVGID_45_);}
	.st46{fill:url(#SVGID_46_);}
	.st47{fill:url(#SVGID_47_);}
	.st48{fill:url(#SVGID_48_);}
	.st49{fill:url(#SVGID_49_);}
	.st50{fill:url(#SVGID_50_);}
	.st51{fill:url(#SVGID_51_);}
	.st52{fill:url(#SVGID_52_);}
	.st53{fill:url(#SVGID_53_);}
	.st54{fill:url(#SVGID_54_);}
	.st55{fill:url(#SVGID_55_);}
	.st56{fill:url(#SVGID_56_);}
	.st57{display:none;fill:#FFFF00;}
</style>
<g>
	<g>
		<path class="st10" d="M253.5,12.6L18.9,148v270.9l234.6,135.4l234.6-135.4V148L253.5,12.6z M450,170.1L328,240.4
			c1.4,1.8,2.8,3.6,4.1,5.4L450,182.9v214L253.5,510.4l0,0h0v-97.1c-2.1,0.2-4.1,0.2-6.2,0.3l-4.3,90.7L57,396.9V183.2L163.6,240
			c1.6-1.9,3.2-3.8,4.9-5.6L57,170L253.5,56.6L450,170.1L450,170.1z"/>
	</g>
	<g>
		<path class="st10" d="M307.8,224.1c20.9-40.7,34.4-67,60.9-72.2c-34.9-9.9-64.5-7.6-86.3,6.8c-17.8,11.8-24.1,27.5-24.2,27.7
			l-83.9,208.5h61L307,225.6L307.8,224.1z"/>
		<path class="st10" d="M171.6,390.7l45-111.7l-112-1.1C168.2,305.2,172,370.4,171.6,390.7z"/>
	</g>
</g>
</svg>
